<svg width="1600" height="600" viewBox="-50 -100 1600 399" fill="none" xmlns="http://www.w3.org/2000/svg">
  <style>
    .custom-font {
      font-family: heading_pro_double_trialHvIt, Helvetica, Arial, sans-serif;
      font-weight: 900;
      font-style: italic;
      font-size: 240px;
      fill: white;
      margin-top: 0;
    }
    .custom-font-two {
      font-family: heading_pro_double_trialHvIt, Helvetica, Arial, sans-serif;
      font-weight: 900;
      font-style: italic;
      font-size: 240px;
      fill: none; /* Set fill color to match text */
      stroke: #ffdd00; /* Outline color */
      stroke-width: 1px; /* Outline width */
    }
    
  </style>

  <text x="50" y="120" class="custom-font">
    Adarsh
  </text>

<text x="350" y="-100" height="80" font-family="Arial" font-size="26" fill="#FFD400">G</text>
<text x="375" y="-100" height="80" font-family="Arial" font-size="26" fill="#FFD400">R</text>
<text x="400" y="-100" height="80" font-family="Arial" font-size="26" fill="#FFD400">O</text>
<text x="425" y="-100" height="80" font-family="Arial" font-size="26" fill="#FFD400">U</text>
<text x="450" y="-100" height="80" font-family="Arial" font-size="26" fill="#FFD400">P</text>

<text x="490" y="-100" height="80" font-family="Arial" font-size="26" fill="#FFD400">C</text>
<text x="515" y="-100" height="80" font-family="Arial" font-size="26" fill="#FFD400">H</text>
<text x="540" y="-100" height="80" font-family="Arial" font-size="26" fill="#FFD400">I</text>
<text x="555" y="-100" height="80" font-family="Arial" font-size="26" fill="#FFD400">E</text>
<text x="580" y="-100" height="80" font-family="Arial" font-size="26" fill="#FFD400">F</text>

<text x="620" y="-100" height="80" font-family="Arial" font-size="26" fill="#FFD400">C</text>
<text x="645" y="-100" height="80" font-family="Arial" font-size="26" fill="#FFD400">R</text>
<text x="670" y="-100" height="80" font-family="Arial" font-size="26" fill="#FFD400">E</text>
<text x="695" y="-100" height="80" font-family="Arial" font-size="26" fill="#FFD400">A</text>
<text x="720" y="-100" height="80" font-family="Arial" font-size="26" fill="#FFD400">T</text>
<text x="745" y="-100" height="80" font-family="Arial" font-size="26" fill="#FFD400">I</text>
<text x="760" y="-100" height="80" font-family="Arial" font-size="26" fill="#FFD400">V</text>
<text x="785" y="-100" height="80" font-family="Arial" font-size="26" fill="#FFD400">E</text>

<text x="825" y="-100" height="80" font-family="Arial" font-size="26" fill="#FFD400">O</text>
<text x="850" y="-100" height="80" font-family="Arial" font-size="26" fill="#FFD400">F</text>
<text x="875" y="-100" height="80" font-family="Arial" font-size="26" fill="#FFD400">F</text>
<text x="900" y="-100" height="80" font-family="Arial" font-size="26" fill="#FFD400">I</text>
<text x="915" y="-100" height="80" font-family="Arial" font-size="26" fill="#FFD400">C</text>
<text x="940" y="-100" height="80" font-family="Arial" font-size="26" fill="#FFD400">E</text>
<text x="965" y="-100" height="80" font-family="Arial" font-size="26" fill="#FFD400">R</text>

  <text x="50" y="315" class="custom-font-two" style="left: -30%;">
    Atal
  </text>
</svg>
