<svg width="1200" height="400" viewBox="-50 -50 1199 399" fill="none" xmlns="http://www.w3.org/2000/svg">

<path d="M97.5 154.1C88.3 149.3 82.2001 141.9 79.0001 131.9C75.8001 121.9 75.8001 109.5 78.9001 94.7L81.5001 82.8C85.0001 67.9 90.3 55.7 97.5 45.9C104.7 36.2 113.7 28.9 124.6 24C135.5 19.1 148.2 16.7 162.9 16.7C176.8 16.7 188.2 18.9 197.2 23.4C206.2 27.9 212.5 34.1 216 42.2C219.6 50.3 220.3 59.8999 218.2 71.0999L218 72.5999H170.6L171.5 68.6999C171.7 65.3999 171.5 62.5 170.7 60.2C169.9 57.8 168.3 56.0999 165.8 54.7999C163.3 53.5999 160 52.9 155.8 52.9C151.7 52.9 148 53.8 144.8 55.5C141.5 57.2 138.6 60 136 63.9C133.4 67.8 131.5 72.8 130.2 79L125.9 99.0999C124.3 106 124 111.6 124.9 115.9C125.8 120.2 127.7 123.2 130.6 124.9C133.4 126.6 137 127.5 141.4 127.5C145 127.5 148.3 126.9 151.2 125.7C154.2 124.5 156.6 122.8 158.5 120.4C160.4 118 161.9 115.3 163 112.2L163.2 111.5H142L148.1 83.8H215.7L214 90.8999C210.3 107.5 205 120.9 198 131.2C191.1 141.5 182.3 149.1 171.7 153.9C161.1 158.7 148.3 161.2 133.2 161.2C118.6 161.3 106.7 158.9 97.5 154.1Z" fill="white"/>
<path d="M331.7 158H287.9L289.8 150.4L293.5 138.9H290.2L295 136.1C291.5 141.5 287.6 146.2 283.1 150C278.6 153.8 273.8 156.7 268.7 158.5C263.6 160.4 258.1 161.3 252.3 161.3C239.8 161.3 230.9 157.6 225.5 150.3C220.1 143 219.2 131.5 222.8 115.8L237 47.7H280.8L267.2 111.2C266 117.1 266.2 121.6 267.9 124.5C269.6 127.4 272.9 128.9 277.6 128.9C281.1 128.9 284.3 127.9 287.2 126C290.1 124.1 292.5 121.5 294.4 118.4C296.3 115.2 297.7 111.7 298.6 107.7L311.2 47.7H355L331.7 158Z" fill="white"/>
<path d="M380 15.7H423.5L393.3 158H349.7L380 15.7Z" fill="white"/>
<path d="M433.9 156C425.9 152.6 420.4 147.9 417.4 142C414.4 136.1 413.7 129 415.3 120.8L415.7 119.9H457L456.8 121C456.3 124 456.6 126.4 457.5 128.4C458.5 130.4 460 131.8 462 132.7C464 133.6 466.7 134 469.9 134C474.1 134 477.3 133.4 479.6 132.2C481.8 131 483.2 129.3 483.7 126.9L483.9 125.4C484.4 123.5 484.1 122 483.2 120.9C482.2 119.7 480.4 118.7 477.9 117.8C475.4 116.9 471.6 116 466.5 115C465.6 114.9 465 114.8 464.6 114.7C464.2 114.6 463.5 114.5 462.6 114.4C451.6 112.2 443.3 109.4 437.6 106.1C432 102.8 428.3 99 426.7 94.6C425.1 90.2 425 84.8 426.3 78.4L426.5 76.7C427.9 70.5 430.8 65 435.2 60.1C439.7 55.2 446.1 51.3 454.6 48.4C463.1 45.5 473.7 44 486.4 44C498.8 44 508.7 45.6 516.2 48.8C523.7 52 528.7 56.4 531.2 62C533.7 67.6 534.3 73.9 533 81.1V82H493.1L493.3 81.1C493.5 79.2 493.3 77.6 492.6 76.2C491.9 74.8 490.5 73.6 488.5 72.8C486.5 71.9 484 71.5 480.9 71.5C477.3 71.5 474.5 72.1 472.5 73.3C470.5 74.5 469.3 75.9 469 77.7L468.8 78.6C468.4 80.3 468.7 81.8 469.5 83C470.4 84.2 471.9 85.2 474.2 86.1C476.5 87 479.7 87.7 483.9 88.3L485 88.7C485.6 88.8 486.1 88.9 486.4 88.9C486.7 88.9 487.2 89 488 89.1C499.1 90.8 507.8 93.3 513.9 96.5C520 99.7 524.1 103.7 526.2 108.4C528.2 113.1 528.5 118.9 527 125.7L526.6 127.6C524.2 138.5 518 146.8 507.9 152.6C497.8 158.4 483.4 161.2 464.7 161.2C452.3 161.1 441.9 159.4 433.9 156Z" fill="white"/>
<path d="M564.2 15.7H607.7L599.3 55.4L595.6 66.5H599.3L594.1 70.1999C597.4 64.2999 601.4 59.2999 606.1 55.2999C610.7 51.2999 615.6 48.5 620.7 46.7C625.8 44.9 631.2 44 636.9 44C649.8 44 658.8 47.6 663.9 54.9C669 62.1 670 73.6 666.8 89.3L652.2 158H608.2L621.8 94.5C623 88.6 622.8 84.1 621.1 81.2C619.4 78.3 616.3 76.8 611.8 76.8C607.8 76.8 604.5 77.6999 601.7 79.5999C598.9 81.4999 596.6 84 594.6 87.1C592.7 90.3 591.4 93.9 590.6 98L577.6 158H534L564.2 15.7Z" fill="white"/>
<path d="M682 156.7C676.9 153.7 673.5 149.6 671.9 144.4C670.3 139.2 670.2 133.2 671.5 126.4L672.1 124.5C672.2 124 672.3 123.5 672.3 123C673.9 116.4 676.9 110.8 681.4 106.2C685.9 101.6 691.7 98 698.9 95.5C706.1 93 714.7 91.8 724.7 91.8C729.9 91.8 734.7 92.2 739.1 92.9C743.5 93.6 747.3 94.6 750.5 95.7L752.2 87.9C753.1 83.4 752.7 79.9 751.1 77.2C749.5 74.5 746.2 73.2 741.3 73.2C737.1 73.2 733.7 74.3 731.1 76.6C728.5 78.9 726.8 81.7 726.1 85L725.5 87H683.3L683.5 85.7C685.2 78 688.7 71.1 693.8 64.9C698.9 58.7 706 53.7 715.1 49.8C724.1 45.9 735.3 44 748.7 44C762.8 44 773.6 46 781.1 49.9C788.6 53.9 793.3 59.4 795.3 66.5C797.3 73.6 797.2 82.4 795.1 92.8L781.2 157.8H737.4L739.1 150.2L742.8 140.4H738.9L743.5 137.8C740.7 142.6 737.2 146.8 733.3 150.2C729.3 153.7 724.8 156.3 719.7 158.2C714.6 160.1 708.8 161 702.5 161C693.9 161.1 687.2 159.7 682 156.7ZM736.1 128.9C739 127.2 741.4 124.9 743.2 121.9C745.1 118.9 746.4 115.4 747.3 111.3L747.1 112C745.2 111 742.9 110.2 740.1 109.6C737.3 109 734.6 108.7 731.8 108.7C727 108.7 723.3 109.7 720.8 111.8C718.3 113.8 716.7 116.4 715.8 119.5V119.7L716 119.9L715.4 121.8C715 123.7 715.1 125.3 715.7 126.7C716.3 128.1 717.4 129.3 719 130.1C720.7 131 723 131.4 726 131.4C729.8 131.4 733.1 130.6 736.1 128.9Z" fill="white"/>
<path d="M821.9 47.7H865.5L863.8 55.2999L860.1 66.8H863.3L858.8 69.5999C862.3 64.1999 866.2 59.5 870.6 55.7C875 51.9 879.7 48.9999 884.8 47.0999C889.9 45.1999 895.4 44.2 901.3 44.2C913.9 44.2 922.9 47.9 928.1 55.2C933.4 62.6 934.3 73.9999 931 89.5999L916.5 158H872.9L886.5 94.5C887.7 88.6 887.5 84.0999 885.8 81.1999C884.1 78.2999 880.9 76.8 876.3 76.8C872.5 76.8 869.1 77.7999 866.4 79.6999C863.6 81.5999 861.3 84.2 859.4 87.3C857.4 90.5 856 94 855 98L842.2 158H798.6L821.9 47.7Z" fill="white"/>

<text x="500" y="0" height="80" font-family="Arial" font-size="17" fill="#FFD400">G</text>
<text x="520" y="0" height="80" font-family="Arial" font-size="17" fill="#FFD400">R</text>
<text x="540" y="0" height="80" font-family="Arial" font-size="17" fill="#FFD400">O</text>
<text x="560" y="0" height="80" font-family="Arial" font-size="17" fill="#FFD400">U</text>
<text x="580" y="0" height="80" font-family="Arial" font-size="17" fill="#FFD400">P</text>

<text x="610" y="0" height="80" font-family="Arial" font-size="17" fill="#FFD400">C</text>
<text x="630" y="0" height="80" font-family="Arial" font-size="17" fill="#FFD400">H</text>
<text x="650" y="0" height="80" font-family="Arial" font-size="17" fill="#FFD400">I</text>
<text x="660" y="0" height="80" font-family="Arial" font-size="17" fill="#FFD400">E</text>
<text x="680" y="0" height="80" font-family="Arial" font-size="17" fill="#FFD400">F</text>

<text x="710" y="0" height="80" font-family="Arial" font-size="17" fill="#FFD400">S</text>
<text x="730" y="0" height="80" font-family="Arial" font-size="17" fill="#FFD400">T</text>
<text x="750" y="0" height="80" font-family="Arial" font-size="17" fill="#FFD400">R</text>
<text x="770" y="0" height="80" font-family="Arial" font-size="17" fill="#FFD400">A</text>
<text x="790" y="0" height="80" font-family="Arial" font-size="17" fill="#FFD400">T</text>
<text x="810" y="0" height="80" font-family="Arial" font-size="17" fill="#FFD400">E</text>
<text x="830" y="0" height="80" font-family="Arial" font-size="17" fill="#FFD400">G</text>
<text x="850" y="0" height="80" font-family="Arial" font-size="17" fill="#FFD400">Y</text>

<text x="880" y="0" height="80" font-family="Arial" font-size="17" fill="#FFD400">O</text>
<text x="900" y="0" height="80" font-family="Arial" font-size="17" fill="#FFD400">F</text>
<text x="920" y="0" height="80" font-family="Arial" font-size="17" fill="#FFD400">F</text>
<text x="940" y="0" height="80" font-family="Arial" font-size="17" fill="#FFD400">I</text>
<text x="950" y="0" height="80" font-family="Arial" font-size="17" fill="#FFD400">C</text>
<text x="970" y="0" height="80" font-family="Arial" font-size="17" fill="#FFD400">E</text>
<text x="990" y="0" height="80" font-family="Arial" font-size="17" fill="#FFD400">R</text>


<path d="M140.7 318.7C132 314.9 126 309.5 122.7 302.4C119.4 295.3 118.8 286.7 121 276.7V275.6H166.1L165.9 276.7C165.3 279.7 165.3 282.3 165.9 284.7C166.5 287.1 168 288.9 170.4 290.3C172.8 291.7 176 292.3 180.1 292.3C185.3 292.3 189.3 291.4 192.2 289.5C195 287.6 196.7 285.1 197.2 281.9L197.8 280.8C198.3 278.2 198.1 276.2 197.2 274.7C196.3 273.2 194.4 271.8 191.4 270.4C188.5 269 184.1 267.5 178.3 265.8C177.6 265.4 177 265.2 176.7 265.1C176.4 265 175.9 264.9 175.3 264.8C173.3 264.2 171.4 263.7 169.5 263.3C158.9 260.6 150.8 257.3 145.4 253.5C140 249.7 136.5 245.4 134.9 240.4C133.4 235.4 133.4 229.3 135 221.8L135.4 220.1C137 212.1 140.6 205 146.1 198.9C151.6 192.8 159 188.1 168.3 184.7C177.6 181.3 188.7 179.6 201.7 179.6C221.9 179.6 236.1 183.8 244.4 192.2C252.7 200.6 255.5 212.1 252.8 226.7L252.6 227.6H209.5L209.7 226.7C210.4 222 209.8 218.3 207.8 215.7C205.8 213.1 202 211.8 196.5 211.8C191.9 211.8 188.3 212.6 185.7 214.2C183.1 215.8 181.6 218 181.1 220.9L180.7 222.4C180.5 223.9 180.5 225.2 181 226.3C181.4 227.4 182.3 228.5 183.5 229.5C184.7 230.5 186.5 231.4 188.9 232.1C189.9 232.6 191 233 192.1 233.2C193.3 233.4 194.5 233.8 195.9 234.3C210.6 237.3 221.7 241 229.1 245.3C236.5 249.7 241.3 254.7 243.3 260.2C245.3 265.8 245.5 272.6 243.8 280.8L243.6 282.7C241.6 291.4 237.6 298.8 231.6 305.1C225.6 311.4 217.8 316.1 208.2 319.3C198.6 322.5 187.3 324.1 174.3 324.1C160.6 324.3 149.4 322.4 140.7 318.7Z" stroke="#FFD400" stroke-miterlimit="10"/>
<path d="M272.4 210.7H316L292.6 321H249L272.4 210.7ZM282.5 199.4C279.2 198.2 277 196.3 275.8 193.7C274.6 191.1 274.5 187.8 275.5 183.9C276.7 177.8 279.6 173.4 284 170.5C288.5 167.7 295.1 166.2 303.9 166.2C309.3 166.2 313.8 166.8 317.2 168.1C320.6 169.3 322.9 171.3 324.1 173.9C325.3 176.5 325.4 179.8 324.6 183.9C323.4 190 320.5 194.4 316.1 197.1C311.6 199.8 305 201.2 296.2 201.2C290.3 201.2 285.8 200.6 282.5 199.4Z" stroke="#FFD400" stroke-miterlimit="10"/>
<path d="M334.2 210.7H377.8L376.1 218.3L372.4 229.8H375.6L371.1 232.6C374.6 227.2 378.5 222.5 382.9 218.7C387.3 214.9 392 212 397.1 210.1C402.2 208.2 407.7 207.2 413.6 207.2C426.2 207.2 435.2 210.9 440.4 218.2C445.7 225.6 446.6 237 443.3 252.6L428.7 321H385.1L398.7 257.5C399.9 251.6 399.7 247.1 398 244.2C396.3 241.3 393.1 239.8 388.5 239.8C384.7 239.8 381.4 240.8 378.6 242.7C375.8 244.6 373.5 247.2 371.6 250.3C369.7 253.5 368.3 257 367.3 261L354.5 321H310.9L334.2 210.7Z" stroke="#FFD400" stroke-miterlimit="10"/>
<path d="M466.4 356C459.5 355.1 453 353.7 446.9 351.8L454.5 323.4C458.8 324.9 464.2 326 470.7 326.7C477.1 327.4 483.1 327.8 488.5 327.8C494.7 327.8 499.9 327.1 504.3 325.7C508.6 324.3 512.2 322.1 514.9 319.3C517.6 316.5 519.5 312.9 520.7 308.5L520.5 308.3L523.8 296.8H521.4L525.3 293.6C520.6 301.2 514.7 306.9 507.7 310.8C500.6 314.7 493 316.6 484.7 316.6C475.5 316.6 468.3 314.6 463 310.5C457.7 306.4 454.3 300.4 452.9 292.4C451.5 284.4 451.9 274.7 454.3 263.3L454.9 259.8C457.3 248.2 460.8 238.4 465.6 230.6C470.4 222.8 476.3 216.9 483.3 213C490.4 209 498.5 207.1 507.8 207.1C513.4 207.1 518.3 208 522.7 209.8C527 211.6 530.6 214.3 533.4 218.1C536.2 221.9 537.9 226.4 538.5 231.8L536.1 232.5L535.9 228.4H538.9L539.8 217.4L541.1 210.5H584.9L565.8 300.4C563 313.4 558.3 324.1 551.9 332.4C545.5 340.8 537.1 347 526.7 351.1C516.4 355.2 504 357.2 489.5 357.2C481 357.4 473.4 356.9 466.4 356ZM518.3 283.7C521.2 282.1 523.5 280 525.2 277.3C526.9 274.6 528.1 271.6 528.8 268.3L530.8 257.5C531.7 254.3 531.9 251.3 531.4 248.6C530.9 245.9 529.6 243.6 527.6 241.9C525.6 240.2 522.6 239.3 518.8 239.3C515.2 239.3 512.1 240.1 509.4 241.8C506.7 243.5 504.6 245.7 503 248.6C501.4 251.4 500.2 254.8 499.3 258.6L497.1 269C496.4 272.5 496.2 275.5 496.6 278C497 280.5 498.2 282.5 500.1 283.9C502 285.3 504.8 286 508.5 286C512.2 286.1 515.4 285.3 518.3 283.7Z" stroke="#FFD400" stroke-miterlimit="10"/>
<path d="M609.6 178.7H653.1L644.7 218.4L641 229.5H644.7L639.5 233.2C642.8 227.3 646.8 222.3 651.5 218.3C656.1 214.3 661 211.5 666.1 209.7C671.2 207.9 676.6 207 682.3 207C695.2 207 704.2 210.6 709.3 217.9C714.4 225.1 715.4 236.6 712.2 252.3L697.6 321H653.6L667.2 257.5C668.4 251.6 668.2 247.1 666.5 244.2C664.8 241.3 661.7 239.8 657.2 239.8C653.2 239.8 649.9 240.7 647.1 242.6C644.3 244.5 642 247 640 250.1C638.1 253.3 636.8 256.9 636 261L623 321H579.4L609.6 178.7Z" stroke="#FFD400" stroke-miterlimit="10"/>
</svg>
