<svg xmlns="http://www.w3.org/2000/svg" width="269.99" height="270" viewBox="0 0 269.99 270"><g transform="translate(-25.27 -27.72)"><path d="M217.47,40.4A135.036,135.036,0,0,0,102.91,284.97Z"/><path d="M217.47,40.4,102.91,284.97A135.036,135.036,0,1,0,217.47,40.4Z" fill="#fd0"/><path d="M95.89,146.93H79.9v34.58H68.89V146.93H52.9v-9.95H95.89Z" fill="#fd0"/><rect width="10.88" height="44.53" transform="translate(126.74 136.98)" fill="#fd0"/><path d="M189.22,171.56h23.83l-.13,9.95H178.33V136.98h10.89Z" fill="#0a0c0d"/><path d="M267.8,146.93h-16v34.58H240.78V146.93h-16v-9.95h43.07Z" fill="#0a0c0d"/><path d="M68.87,191.91H72.4a8.247,8.247,0,0,1,1.22.09,3,3,0,0,1,1.07.35,1.7,1.7,0,0,1,.7.73,2.024,2.024,0,0,1,.13,1.24,2.176,2.176,0,0,1-.64,1.33,3.1,3.1,0,0,1-1.29.76v.03a2.337,2.337,0,0,1,.81.26,1.66,1.66,0,0,1,.58.5,1.868,1.868,0,0,1,.32.7,2.443,2.443,0,0,1,.03.86,2.561,2.561,0,0,1-.5,1.25,3.185,3.185,0,0,1-.94.81,4.067,4.067,0,0,1-1.21.44,6.416,6.416,0,0,1-1.29.13H67.51Zm1,7.71h1.88a2.921,2.921,0,0,0,.5-.05,1.5,1.5,0,0,0,.47-.19,1.568,1.568,0,0,0,.38-.35,1.092,1.092,0,0,0,.2-.52.78.78,0,0,0-.09-.54.806.806,0,0,0-.37-.31,2.175,2.175,0,0,0-.53-.15,3.439,3.439,0,0,0-.54-.04H70.19Zm.55-3.92h1.51a2.607,2.607,0,0,0,.48-.05,1.742,1.742,0,0,0,.45-.17,1.185,1.185,0,0,0,.35-.32,1.026,1.026,0,0,0,.18-.48.769.769,0,0,0-.06-.49.7.7,0,0,0-.29-.3,1.364,1.364,0,0,0-.43-.15,2.809,2.809,0,0,0-.49-.05H70.7Z" fill="#fd0"/><path d="M82.09,191.91h3.67a6.429,6.429,0,0,1,1.35.14,2.685,2.685,0,0,1,1.07.47,1.94,1.94,0,0,1,.65.88,2.779,2.779,0,0,1,.09,1.38,3.269,3.269,0,0,1-.76,1.71,2.737,2.737,0,0,1-1.65.89l1.85,4h-2.5l-1.46-3.79H83.37l-.52,3.79H80.76Zm1.54,3.92h1.23c.19,0,.39-.01.6-.02a1.815,1.815,0,0,0,.58-.12,1.245,1.245,0,0,0,.47-.31,1.036,1.036,0,0,0,.25-.6.892.892,0,0,0-.07-.58.872.872,0,0,0-.33-.33,1.275,1.275,0,0,0-.5-.15,3.642,3.642,0,0,0-.57-.04H83.92Z" fill="#fd0"/><path d="M98.43,191.91h1.73l2.8,9.47H100.6l-.54-2.01H96.38l-1.07,2.01h-2.3Zm.41,2.76-1.57,2.94h2.32Z" fill="#fd0"/><path d="M109.78,191.91h2.84l3.11,6.58h.03l.92-6.58h2.09l-1.32,9.47h-2.73l-3.2-6.74h-.03l-.94,6.74h-2.09Z" fill="#fd0"/><path d="M125.5,191.91h3.13a8.441,8.441,0,0,1,2.12.25,4.217,4.217,0,0,1,1.67.82,3.228,3.228,0,0,1,1,1.48,4.762,4.762,0,0,1,.14,2.21,5.269,5.269,0,0,1-.71,2.03,5.348,5.348,0,0,1-1.37,1.47,5.79,5.79,0,0,1-1.83.9,6.876,6.876,0,0,1-2.07.31h-3.41Zm1.03,7.55h1.08a6.056,6.056,0,0,0,1.37-.15,3.257,3.257,0,0,0,1.14-.49,3.026,3.026,0,0,0,.84-.9,3.52,3.52,0,0,0,.46-1.36,2.629,2.629,0,0,0-.09-1.21,1.878,1.878,0,0,0-.58-.85,2.7,2.7,0,0,0-.97-.5,4.386,4.386,0,0,0-1.22-.17h-1.23Z" fill="#fd0"/><path d="M158.46,194.22a1.3,1.3,0,0,0-.63-.48,2.349,2.349,0,0,0-.8-.15,2.8,2.8,0,0,0-.48.05,1.465,1.465,0,0,0-.47.17,1.264,1.264,0,0,0-.38.3.967.967,0,0,0-.2.46.714.714,0,0,0,.11.53,1.219,1.219,0,0,0,.44.35,3.241,3.241,0,0,0,.67.25c.26.07.51.15.77.24a7.192,7.192,0,0,1,.76.32,1.991,1.991,0,0,1,.63.48,1.672,1.672,0,0,1,.39.72,2.267,2.267,0,0,1,.03,1.05,3.2,3.2,0,0,1-.49,1.38,3.661,3.661,0,0,1-.94.98,4.091,4.091,0,0,1-1.25.58,5.589,5.589,0,0,1-1.42.19,4.644,4.644,0,0,1-1.67-.28,3.628,3.628,0,0,1-1.35-.91l1.73-1.63a1.76,1.76,0,0,0,.72.66,2.012,2.012,0,0,0,.97.23,2.373,2.373,0,0,0,.52-.06,1.905,1.905,0,0,0,.49-.18,1.153,1.153,0,0,0,.38-.31.938.938,0,0,0,.2-.44.7.7,0,0,0-.23-.68,2.446,2.446,0,0,0-.77-.42c-.31-.12-.65-.23-1.02-.35a4,4,0,0,1-1-.47,2.129,2.129,0,0,1-.71-.78,2.038,2.038,0,0,1-.15-1.27,3.129,3.129,0,0,1,.49-1.34,3.578,3.578,0,0,1,.94-.96,4.147,4.147,0,0,1,1.24-.58,4.943,4.943,0,0,1,1.38-.19,5.037,5.037,0,0,1,1.52.23,3,3,0,0,1,1.24.76Z"/><path d="M163.55,196.65a5.755,5.755,0,0,1,.68-2.06,5.348,5.348,0,0,1,1.29-1.57,5.554,5.554,0,0,1,1.76-1,6.338,6.338,0,0,1,2.1-.35,5.428,5.428,0,0,1,1.99.35,3.735,3.735,0,0,1,1.47,1,3.9,3.9,0,0,1,.84,1.57,5,5,0,0,1,.09,2.06,5.946,5.946,0,0,1-.67,2.06,5.348,5.348,0,0,1-1.29,1.57,5.665,5.665,0,0,1-1.76,1,6.279,6.279,0,0,1-2.09.35,5.483,5.483,0,0,1-2-.35,3.771,3.771,0,0,1-1.48-1,3.84,3.84,0,0,1-.84-1.57A5.01,5.01,0,0,1,163.55,196.65Zm2.17,0a3.278,3.278,0,0,0,.04,1.22,2.383,2.383,0,0,0,.46.96,2.349,2.349,0,0,0,.84.64,2.888,2.888,0,0,0,1.18.23,3.337,3.337,0,0,0,1.24-.23,3.2,3.2,0,0,0,1.02-.64,3.486,3.486,0,0,0,.73-.96,3.781,3.781,0,0,0,.38-1.22,3.532,3.532,0,0,0-.03-1.22,2.244,2.244,0,0,0-.46-.97,2.349,2.349,0,0,0-.84-.64,2.732,2.732,0,0,0-1.18-.23,3.337,3.337,0,0,0-1.24.23,3.2,3.2,0,0,0-1.02.64,3.486,3.486,0,0,0-.73.97A3.564,3.564,0,0,0,165.72,196.65Z"/><path d="M178.89,191.91h2.09l-1.06,7.55h3.87l-.27,1.93h-5.96Z"/><path d="M196.11,197.73a5.184,5.184,0,0,1-.47,1.55,4.341,4.341,0,0,1-.93,1.23,4.167,4.167,0,0,1-1.37.82,4.981,4.981,0,0,1-1.77.29,4.543,4.543,0,0,1-1.7-.29,2.937,2.937,0,0,1-1.14-.82,2.805,2.805,0,0,1-.58-1.23,4.423,4.423,0,0,1-.04-1.55l.82-5.82h2.09l-.8,5.74a2.238,2.238,0,0,0,.02.82,1.572,1.572,0,0,0,.31.65,1.55,1.55,0,0,0,.55.43,1.78,1.78,0,0,0,.74.15,2.008,2.008,0,0,0,.78-.15,2.21,2.21,0,0,0,.66-.43,2.271,2.271,0,0,0,.49-.65,2.462,2.462,0,0,0,.26-.82l.8-5.74h2.09Z"/><path d="M203.37,193.76h-2.7l.26-1.85h7.49l-.26,1.85h-2.7l-1.07,7.63H202.3Z"/><path d="M212.66,191.91h2.09l-1.33,9.47h-2.09Z"/><path d="M218.42,196.65a5.755,5.755,0,0,1,.68-2.06,5.649,5.649,0,0,1,1.29-1.57,5.554,5.554,0,0,1,1.76-1,6.338,6.338,0,0,1,2.1-.35,5.428,5.428,0,0,1,1.99.35,3.735,3.735,0,0,1,1.47,1,3.9,3.9,0,0,1,.84,1.57,4.992,4.992,0,0,1,.09,2.06,5.946,5.946,0,0,1-.67,2.06,5.348,5.348,0,0,1-1.29,1.57,5.665,5.665,0,0,1-1.76,1,6.236,6.236,0,0,1-2.09.35,5.483,5.483,0,0,1-2-.35,3.771,3.771,0,0,1-1.48-1,3.84,3.84,0,0,1-.84-1.57A5,5,0,0,1,218.42,196.65Zm2.17,0a3.278,3.278,0,0,0,.04,1.22,2.383,2.383,0,0,0,.46.96,2.349,2.349,0,0,0,.84.64,2.888,2.888,0,0,0,1.18.23,3.337,3.337,0,0,0,1.24-.23,3.2,3.2,0,0,0,1.02-.64,3.486,3.486,0,0,0,.73-.96,3.781,3.781,0,0,0,.38-1.22,3.532,3.532,0,0,0-.03-1.22,2.254,2.254,0,0,0-1.3-1.61,2.888,2.888,0,0,0-1.18-.23,3.428,3.428,0,0,0-1.25.23,3.2,3.2,0,0,0-1.02.64,3.534,3.534,0,0,0-.73.97A3.781,3.781,0,0,0,220.59,196.65Z"/><path d="M233.14,191.91h2.84l3.1,6.58h.03l.92-6.58h2.09l-1.33,9.47h-2.73l-3.2-6.74h-.03l-.94,6.74H231.8Z"/><path d="M251.62,194.22a1.3,1.3,0,0,0-.63-.48,2.131,2.131,0,0,0-.8-.15,2.8,2.8,0,0,0-.48.05,1.749,1.749,0,0,0-.47.17,1.4,1.4,0,0,0-.38.3.879.879,0,0,0-.2.46.714.714,0,0,0,.11.53,1.219,1.219,0,0,0,.44.35,4.29,4.29,0,0,0,.67.25c.25.07.51.15.77.24a7.192,7.192,0,0,1,.76.32,2.032,2.032,0,0,1,.64.48,1.672,1.672,0,0,1,.39.72,2.411,2.411,0,0,1,.03,1.05,3.2,3.2,0,0,1-.49,1.38,3.661,3.661,0,0,1-.94.98,4.147,4.147,0,0,1-1.24.58,5.2,5.2,0,0,1-1.43.19,4.644,4.644,0,0,1-1.67-.28,3.628,3.628,0,0,1-1.35-.91l1.73-1.63a1.8,1.8,0,0,0,.71.66,2.012,2.012,0,0,0,.97.23,2.373,2.373,0,0,0,.52-.06,2.128,2.128,0,0,0,.5-.18,1.153,1.153,0,0,0,.38-.31.838.838,0,0,0,.19-.44.7.7,0,0,0-.23-.68,2.446,2.446,0,0,0-.77-.42c-.31-.12-.65-.23-1.02-.35a4,4,0,0,1-1-.47,2.247,2.247,0,0,1-.72-.78,2.038,2.038,0,0,1-.15-1.27,3.129,3.129,0,0,1,.49-1.34,3.732,3.732,0,0,1,.94-.96,4.2,4.2,0,0,1,1.25-.58,5.123,5.123,0,0,1,2.9.04,3,3,0,0,1,1.24.76Z"/></g></svg>