<svg width="1099" height="364" viewBox="0 0 1099 364" fill="none" xmlns="http://www.w3.org/2000/svg">
<path d="M543.7 358.1C542.9 357.6 542.3 356.9 541.8 356C541.4 355.1 541.2 353.9 541.2 352.6V352.4C541.2 351 541.4 349.9 541.8 348.9C542.2 348 542.8 347.3 543.6 346.8C544.4 346.3 545.4 346.1 546.6 346.1C547.7 346.1 548.6 346.3 549.4 346.7C550.2 347.1 550.8 347.6 551.2 348.3C551.6 349 551.8 349.7 551.9 350.4H550.3C550.3 349.9 550.1 349.4 549.8 349C549.5 348.6 549.1 348.2 548.6 347.9C548.1 347.6 547.4 347.5 546.7 347.5C545.9 347.5 545.2 347.7 544.6 348C544 348.4 543.6 348.9 543.3 349.6C543 350.3 542.9 351.2 542.9 352.2V352.5C542.9 353.5 543.1 354.4 543.4 355.1C543.7 355.8 544.1 356.3 544.7 356.7C545.3 357.1 546 357.2 546.8 357.2C547.5 357.2 548.1 357.1 548.6 356.8C549.1 356.5 549.5 356.1 549.9 355.6C550.2 355.1 550.4 354.4 550.4 353.6V353.5H546.5V352.1H552V352.9C552 354.1 551.8 355.1 551.4 355.9C551 356.7 550.4 357.4 549.7 357.9C548.9 358.4 548 358.6 546.8 358.6C545.5 358.8 544.5 358.6 543.7 358.1Z" fill="#FFD400"/>
<path d="M559.2 346.4H564.3C565.7 346.4 566.8 346.7 567.5 347.3C568.2 347.9 568.6 348.7 568.6 349.9C568.6 350.8 568.4 351.5 567.9 352.1C567.5 352.7 566.9 353 566.1 353.2C566.5 353.3 566.8 353.4 567.1 353.6C567.4 353.8 567.6 354.1 567.7 354.4C567.9 354.7 568 355.1 568.1 355.6L568.3 356.9C568.4 357.3 568.4 357.7 568.5 358C568.6 358.3 568.7 358.6 568.8 358.8H567.1C567 358.6 566.9 358.4 566.9 358.1C566.8 357.8 566.7 357.4 566.7 356.9L566.5 355.6C566.4 355.2 566.3 355 566.1 354.7C565.9 354.5 565.6 354.3 565.3 354.2C565 354.1 564.5 354 563.9 354H561V358.8H559.4V346.4H559.2ZM566.2 351.8C566.7 351.4 566.9 350.8 566.9 349.9C566.9 349.2 566.7 348.7 566.3 348.3C565.9 347.9 565.2 347.7 564.3 347.7H560.9V352.4H564.1C565 352.4 565.7 352.2 566.2 351.8Z" fill="#FFD400"/>
<path d="M577.7 358.1C576.9 357.6 576.3 356.9 575.8 356C575.4 355.1 575.2 353.9 575.2 352.5V352.4C575.2 351 575.4 349.9 575.8 349C576.2 348.1 576.9 347.4 577.7 346.9C578.5 346.4 579.5 346.2 580.7 346.2C581.9 346.2 582.9 346.4 583.7 346.9C584.5 347.4 585.2 348.1 585.6 349C586 349.9 586.2 351.1 586.2 352.4V352.5C586.2 353.9 586 355 585.6 356C585.2 356.9 584.5 357.6 583.7 358.1C582.9 358.6 581.9 358.8 580.7 358.8C579.5 358.8 578.6 358.6 577.7 358.1ZM582.9 356.9C583.5 356.5 583.9 356 584.2 355.3C584.5 354.6 584.7 353.7 584.7 352.6V352.4C584.7 351.3 584.5 350.5 584.2 349.8C583.9 349.1 583.5 348.6 582.9 348.2C582.3 347.8 581.6 347.7 580.8 347.7C580 347.7 579.2 347.9 578.7 348.2C578.1 348.6 577.7 349.1 577.4 349.8C577.1 350.5 576.9 351.4 576.9 352.4V352.6C576.9 353.7 577.1 354.6 577.4 355.3C577.7 356 578.1 356.6 578.7 356.9C579.3 357.3 580 357.4 580.8 357.4C581.6 357.4 582.3 357.2 582.9 356.9Z" fill="#FFD400"/>
<path d="M595.5 358.2C594.8 357.8 594.2 357.3 593.9 356.5C593.5 355.7 593.4 354.8 593.4 353.7V346.3H595V353.6C595 354.8 595.3 355.7 595.9 356.4C596.5 357 597.3 357.3 598.4 357.3C599.5 357.3 600.3 357 600.9 356.4C601.5 355.8 601.7 354.9 601.7 353.6V346.3H603.3V353.7C603.3 354.8 603.1 355.8 602.8 356.5C602.5 357.2 601.9 357.8 601.2 358.2C600.5 358.6 599.5 358.8 598.4 358.8C597.1 358.8 596.2 358.6 595.5 358.2Z" fill="#FFD400"/>
<path d="M611 346.4H616C616.9 346.4 617.7 346.5 618.4 346.8C619.1 347.1 619.5 347.5 619.9 348.1C620.2 348.7 620.4 349.4 620.4 350.2C620.4 351.1 620.2 351.8 619.9 352.5C619.6 353.2 619.1 353.6 618.4 353.9C617.7 354.2 617 354.4 616 354.4H612.6V358.5H611V346.4ZM618 352.4C618.5 351.9 618.7 351.2 618.7 350.3C618.7 349.5 618.5 348.9 618 348.4C617.5 348 616.9 347.8 616 347.8H612.6V353.1H615.9C616.9 353.1 617.6 352.8 618 352.4Z" fill="#FFD400"/>
<path d="M638.9 358.1C638.1 357.6 637.5 356.9 637.1 356C636.7 355.1 636.5 353.9 636.5 352.5V352.4C636.5 351 636.7 349.9 637.1 349C637.5 348.1 638.1 347.4 638.9 346.9C639.7 346.4 640.7 346.2 641.9 346.2C643 346.2 643.9 346.4 644.7 346.8C645.5 347.2 646.1 347.8 646.5 348.4C646.9 349.1 647.1 349.8 647.2 350.7H645.6C645.5 350.1 645.4 349.6 645.1 349.2C644.8 348.7 644.4 348.4 643.9 348.1C643.4 347.8 642.7 347.7 642 347.7C641.2 347.7 640.5 347.9 640 348.2C639.4 348.6 639 349.1 638.7 349.8C638.4 350.5 638.3 351.4 638.3 352.4V352.6C638.3 353.7 638.4 354.6 638.7 355.3C639 356 639.4 356.6 640 356.9C640.6 357.3 641.2 357.4 642 357.4C642.7 357.4 643.4 357.3 643.9 357C644.4 356.8 644.9 356.4 645.2 355.9C645.5 355.4 645.7 354.9 645.7 354.2V354.1H647.3C647.3 354.9 647 355.7 646.6 356.4C646.2 357.1 645.6 357.6 644.8 358.1C644 358.6 643.1 358.7 641.9 358.7C640.7 358.8 639.7 358.6 638.9 358.1Z" fill="#FFD400"/>
<path d="M654.5 346.4H656.1V358.6H654.5V346.4ZM655.7 351.7H663.2V353.1H655.7V351.7ZM662.8 346.4H664.4V358.6H662.8V346.4Z" fill="#FFD400"/>
<path d="M672.6 346.4H674.2V358.6H672.6V346.4Z" fill="#FFD400"/>
<path d="M682.3 346.4H690.7V347.8H683.9V351.7H690V353H683.9V357.2H690.8V358.6H682.3V346.4Z" fill="#FFD400"/>
<path d="M697.9 346.4H706.2V347.7H699.5V351.9H705.6V353.3H699.5V358.6H697.9V346.4V346.4Z" fill="#FFD400"/>
<path d="M724.8 358.1C724 357.6 723.4 356.9 722.9 356C722.5 355.1 722.3 353.9 722.3 352.5V352.4C722.3 351 722.5 349.9 722.9 349C723.3 348.1 724 347.4 724.8 346.9C725.6 346.4 726.6 346.2 727.8 346.2C729 346.2 730 346.4 730.8 346.9C731.6 347.4 732.3 348.1 732.7 349C733.1 349.9 733.3 351.1 733.3 352.4V352.5C733.3 353.9 733.1 355 732.7 356C732.3 356.9 731.6 357.6 730.8 358.1C730 358.6 729 358.8 727.8 358.8C726.6 358.8 725.6 358.6 724.8 358.1ZM730 356.9C730.6 356.5 731 356 731.3 355.3C731.6 354.6 731.8 353.7 731.8 352.6V352.4C731.8 351.3 731.6 350.5 731.3 349.8C731 349.1 730.6 348.6 730 348.2C729.4 347.8 728.7 347.7 727.9 347.7C727.1 347.7 726.3 347.9 725.8 348.2C725.2 348.6 724.8 349.1 724.5 349.8C724.2 350.5 724 351.4 724 352.4V352.6C724 353.7 724.2 354.6 724.5 355.3C724.8 356 725.2 356.6 725.8 356.9C726.4 357.3 727.1 357.4 727.9 357.4C728.7 357.4 729.4 357.2 730 356.9Z" fill="#FFD400"/>
<path d="M740.8 346.4H745.8C746.7 346.4 747.5 346.5 748.2 346.8C748.9 347.1 749.3 347.5 749.7 348.1C750 348.7 750.2 349.4 750.2 350.2C750.2 351.1 750 351.8 749.7 352.5C749.4 353.2 748.9 353.6 748.2 353.9C747.5 354.2 746.8 354.4 745.8 354.4H742.4V358.5H740.8V346.4ZM747.8 352.4C748.3 351.9 748.5 351.2 748.5 350.3C748.5 349.5 748.3 348.9 747.8 348.4C747.3 348 746.7 347.8 745.8 347.8H742.4V353.1H745.7C746.6 353.1 747.3 352.8 747.8 352.4Z" fill="#FFD400"/>
<path d="M757 346.4H765.4V347.8H758.6V351.7H764.7V353H758.6V357.2H765.5V358.6H757V346.4Z" fill="#FFD400"/>
<path d="M772.6 346.4H777.7C779.1 346.4 780.2 346.7 780.9 347.3C781.6 347.9 782 348.7 782 349.9C782 350.8 781.8 351.5 781.3 352.1C780.9 352.7 780.3 353 779.5 353.2C779.9 353.3 780.2 353.4 780.5 353.6C780.8 353.8 781 354.1 781.1 354.4C781.3 354.7 781.4 355.1 781.5 355.6L781.7 356.9C781.8 357.3 781.8 357.7 781.9 358C782 358.3 782.1 358.6 782.2 358.8H780.5C780.4 358.6 780.3 358.4 780.3 358.1C780.2 357.8 780.1 357.4 780.1 356.9L779.9 355.6C779.8 355.2 779.7 355 779.5 354.7C779.3 354.5 779 354.3 778.7 354.2C778.4 354.1 777.9 354 777.3 354H774.4V358.8H772.8V346.4H772.6ZM779.5 351.8C780 351.4 780.2 350.8 780.2 349.9C780.2 349.2 780 348.7 779.6 348.3C779.2 347.9 778.5 347.7 777.6 347.7H774.2V352.4H777.4C778.3 352.4 779 352.2 779.5 351.8Z" fill="#FFD400"/>
<path d="M792.7 346.4H794.8L799.5 358.6H797.7L793.9 348.4L793.7 347.7L793.5 348.4L789.7 358.6H788L792.7 346.4ZM790.7 354.1H796.7L796.9 355.4H790.4L790.7 354.1Z" fill="#FFD400"/>
<path d="M808.6 347.7H804.5V346.3H814.4V347.7H810.3V358.5H808.7V347.7H808.6Z" fill="#FFD400"/>
<path d="M821 346.4H822.6V358.6H821V346.4Z" fill="#FFD400"/>
<path d="M830.8 346.4H832.6L839.1 355.9L839.4 356.4V355.8V346.5H841V358.7H839.1L832.6 349.2L832.3 348.7V349.3V358.6H830.7V346.4H830.8Z" fill="#FFD400"/>
<path d="M850.8 358.1C850 357.6 849.4 356.9 848.9 356C848.5 355.1 848.3 353.9 848.3 352.6V352.4C848.3 351 848.5 349.9 848.9 348.9C849.3 348 849.9 347.3 850.7 346.8C851.5 346.3 852.5 346.1 853.7 346.1C854.8 346.1 855.7 346.3 856.5 346.7C857.3 347.1 857.9 347.6 858.3 348.3C858.7 349 858.9 349.7 859 350.4H857.4C857.4 349.9 857.2 349.4 856.9 349C856.6 348.6 856.2 348.2 855.7 347.9C855.2 347.6 854.5 347.5 853.8 347.5C853 347.5 852.3 347.7 851.7 348C851.1 348.4 850.7 348.9 850.4 349.6C850.1 350.3 850 351.2 850 352.2V352.5C850 353.5 850.2 354.4 850.5 355.1C850.8 355.8 851.2 356.3 851.8 356.7C852.4 357.1 853.1 357.2 853.9 357.2C854.6 357.2 855.2 357.1 855.7 356.8C856.2 356.5 856.6 356.1 857 355.6C857.3 355.1 857.5 354.4 857.5 353.6V353.5H853.6V352.1H859.1V352.9C859.1 354.1 858.9 355.1 858.5 355.9C858.1 356.7 857.5 357.4 856.7 357.9C855.9 358.4 855 358.6 853.8 358.6C852.7 358.8 851.7 358.6 850.8 358.1Z" fill="#FFD400"/>
<path d="M878.1 358.1C877.3 357.6 876.7 356.9 876.2 356C875.8 355.1 875.6 353.9 875.6 352.5V352.4C875.6 351 875.8 349.9 876.2 349C876.6 348.1 877.3 347.4 878.1 346.9C878.9 346.4 879.9 346.2 881.1 346.2C882.3 346.2 883.3 346.4 884.1 346.9C884.9 347.4 885.6 348.1 886 349C886.4 349.9 886.6 351.1 886.6 352.4V352.5C886.6 353.9 886.4 355 886 356C885.6 356.9 884.9 357.6 884.1 358.1C883.3 358.6 882.3 358.8 881.1 358.8C879.9 358.8 878.9 358.6 878.1 358.1ZM883.3 356.9C883.9 356.5 884.3 356 884.6 355.3C884.9 354.6 885.1 353.7 885.1 352.6V352.4C885.1 351.3 884.9 350.5 884.6 349.8C884.3 349.1 883.9 348.6 883.3 348.2C882.7 347.8 882 347.7 881.2 347.7C880.4 347.7 879.6 347.9 879.1 348.2C878.5 348.6 878.1 349.1 877.8 349.8C877.5 350.5 877.3 351.4 877.3 352.4V352.6C877.3 353.7 877.5 354.6 877.8 355.3C878.1 356 878.5 356.6 879.1 356.9C879.7 357.3 880.4 357.4 881.2 357.4C882 357.4 882.7 357.2 883.3 356.9Z" fill="#FFD400"/>
<path d="M894 346.4H902.3V347.7H895.6V351.9H901.7V353.3H895.6V358.6H894V346.4Z" fill="#FFD400"/>
<path d="M909.3 346.4H917.6V347.7H910.9V351.9H917V353.3H910.9V358.6H909.3V346.4V346.4Z" fill="#FFD400"/>
<path d="M924.6 346.4H926.2V358.6H924.6V346.4Z" fill="#FFD400"/>
<path d="M936 358.1C935.2 357.6 934.6 356.9 934.2 356C933.8 355.1 933.6 353.9 933.6 352.5V352.4C933.6 351 933.8 349.9 934.2 349C934.6 348.1 935.2 347.4 936 346.9C936.8 346.4 937.8 346.2 939 346.2C940.1 346.2 941 346.4 941.8 346.8C942.6 347.2 943.2 347.8 943.6 348.4C944 349.1 944.2 349.8 944.3 350.7H942.7C942.6 350.1 942.5 349.6 942.2 349.2C941.9 348.7 941.5 348.4 941 348.1C940.5 347.8 939.8 347.7 939.1 347.7C938.3 347.7 937.6 347.9 937.1 348.2C936.5 348.6 936.1 349.1 935.8 349.8C935.5 350.5 935.4 351.4 935.4 352.4V352.6C935.4 353.7 935.5 354.6 935.8 355.3C936.1 356 936.5 356.6 937.1 356.9C937.7 357.3 938.3 357.4 939.1 357.4C939.8 357.4 940.5 357.3 941 357C941.5 356.8 942 356.4 942.3 355.9C942.6 355.4 942.8 354.9 942.8 354.2V354.1H944.4C944.4 354.9 944.1 355.7 943.7 356.4C943.3 357.1 942.7 357.6 941.9 358.1C941.1 358.6 940.2 358.7 939 358.7C937.8 358.8 936.8 358.6 936 358.1Z" fill="#FFD400"/>
<path d="M951.6 346.4H960V347.8H953.2V351.7H959.3V353H953.2V357.2H960.1V358.6H951.6V346.4Z" fill="#FFD400"/>
<path d="M967.2 346.4H972.3C973.7 346.4 974.8 346.7 975.5 347.3C976.2 347.9 976.6 348.7 976.6 349.9C976.6 350.8 976.4 351.5 975.9 352.1C975.5 352.7 974.9 353 974.1 353.2C974.5 353.3 974.8 353.4 975.1 353.6C975.4 353.8 975.6 354.1 975.7 354.4C975.9 354.7 976 355.1 976.1 355.6L976.3 356.9C976.4 357.3 976.4 357.7 976.5 358C976.6 358.3 976.7 358.6 976.8 358.8H975C974.9 358.6 974.8 358.4 974.8 358.1C974.7 357.8 974.6 357.4 974.6 356.9L974.4 355.6C974.3 355.2 974.2 355 974 354.7C973.8 354.5 973.5 354.3 973.2 354.2C972.9 354.1 972.4 354 971.8 354H968.9V358.8H967.3V346.4H967.2ZM974.1 351.8C974.6 351.4 974.8 350.8 974.8 349.9C974.8 349.2 974.6 348.7 974.2 348.3C973.8 347.9 973.1 347.7 972.2 347.7H968.8V352.4H972C972.9 352.4 973.6 352.2 974.1 351.8Z" fill="#FFD400"/>
<path d="M127.8 21H184L191.6 90.6L192.2 98.6H192.8L196.9 90.6L234.2 21H290.5L261.2 159.2H217.7L232.9 87.9L236.2 74.7H235.6L230.4 84.2L198.1 141.8H168.6L160.8 84.2L159.5 74.7H159.3L156.9 87.9L141.9 159.2H98.4004L127.8 21Z" fill="white"/>
<path d="M304.001 48.8999H347.601L324.201 159.2H280.601L304.001 48.8999ZM314.101 37.5999C310.801 36.3999 308.601 34.4999 307.401 31.8999C306.201 29.2999 306.101 25.9999 307.101 22.0999C308.301 15.9999 311.201 11.5999 315.601 8.6999C320.101 5.8999 326.701 4.3999 335.501 4.3999C340.901 4.3999 345.401 4.9999 348.801 6.2999C352.201 7.4999 354.501 9.4999 355.701 12.0999C356.901 14.6999 357.001 17.9999 356.201 22.0999C355.001 28.1999 352.101 32.5999 347.701 35.2999C343.201 37.9999 336.601 39.3999 327.801 39.3999C321.901 39.3999 317.401 38.7999 314.101 37.5999Z" fill="white"/>
<path d="M366.1 155.8C358.1 151.6 352.7 145.4 349.8 137.1C346.9 128.9 346.7 118.6 349.3 106.2L350.8 100.3C353.4 88.1998 357.7 77.9998 363.8 69.8998C369.9 61.7998 377.7 55.6998 387.2 51.4998C396.7 47.3998 407.9 45.2998 420.8 45.2998C432.6 45.2998 442.3 47.0998 450 50.7998C457.7 54.4998 463.2 59.9998 466.4 67.2998C469.6 74.6998 470.2 83.7998 468.3 94.6998L467.9 95.3998H425.7L426.4 91.2998C426.8 88.1998 426.6 85.5998 425.9 83.4998C425.2 81.3998 424 79.7998 422.2 78.8998C420.4 77.8998 417.9 77.3998 414.7 77.3998C411.4 77.3998 408.4 78.0998 405.8 79.4998C403.2 80.8998 401 83.0998 399.1 85.8998C397.2 88.6998 395.9 92.3998 395 96.8998L392 110.5C390.9 115.5 390.6 119.4 391.3 122.4C391.9 125.4 393.2 127.5 395.3 128.7C397.3 129.9 400 130.6 403.2 130.6C406.4 130.6 409.2 130.1 411.6 129C414 127.9 415.9 126.4 417.5 124.4C419.1 122.4 420.3 119.7 421.2 116.5L422.1 111.9H464.4L464.2 113C461.5 124.3 457.1 133.6 451.1 140.9C445.1 148.2 437.5 153.6 428.4 157.1C419.3 160.6 408.9 162.3 397.1 162.3C384.5 162.1 374.1 160 366.1 155.8Z" fill="white"/>
<path d="M497.9 16.8999H541.4L533 56.6999L529.3 67.7999H533L527.8 71.4999C531.1 65.5999 535.1 60.5999 539.8 56.5999C544.4 52.5999 549.3 49.7999 554.4 47.9999C559.5 46.1999 564.9 45.2999 570.6 45.2999C583.5 45.2999 592.5 48.8999 597.6 56.1999C602.7 63.3999 603.7 74.8999 600.5 90.5999L586 159.1H542L555.6 95.5999C556.8 89.6999 556.6 85.1999 554.9 82.2999C553.2 79.3999 550.1 77.8999 545.6 77.8999C541.6 77.8999 538.3 78.7999 535.5 80.6999C532.7 82.5999 530.4 85.0999 528.4 88.1999C526.5 91.3999 525.2 94.9999 524.4 99.0999L511.4 159.1H467.8L497.9 16.8999Z" fill="white"/>
<path d="M626.501 155.8C618.501 151.3 613.101 145 610.301 136.7C607.501 128.4 607.301 118.6 609.901 107.2L611.801 99.1998C614.101 87.7998 618.301 78.0998 624.301 70.0998C630.301 62.0998 638.101 55.9998 647.601 51.6998C657.101 47.3998 668.201 45.2998 680.801 45.2998C693.201 45.2998 703.301 47.3998 711.101 51.4998C718.901 55.5998 724.301 61.6998 727.201 69.5998C730.101 77.4998 730.401 87.3998 728.001 99.2998L725.201 110.8L684.201 108L687.201 93.2998C688.201 88.9998 688.401 85.4998 687.901 82.8998C687.301 80.2998 686.101 78.3998 684.101 77.0998C682.101 75.8998 679.301 75.1998 675.701 75.1998C672.001 75.1998 668.901 75.7998 666.501 77.0998C664.101 78.3998 662.001 80.5998 660.301 83.6998C658.601 86.7998 657.001 90.8998 655.701 96.0998L652.501 110.6C651.401 115.7 651.101 119.8 651.701 123C652.301 126.2 653.501 128.5 655.501 130C657.501 131.4 660.101 132.1 663.301 132.1C668.001 132.1 671.801 131.1 674.701 129C677.601 127 679.801 123.9 681.301 119.8L681.501 118.9H723.501L723.101 119.8C719.301 132.7 711.801 143 700.801 150.6C689.801 158.3 675.201 162.1 657.201 162.1C644.601 162.5 634.401 160.3 626.501 155.8ZM652.001 92.2998H708.601L727.401 99.6998L724.801 112.3H647.501L652.001 92.2998Z" fill="white"/>
<path d="M759.5 16.8999H803L772.9 159.1H729.3L759.5 16.8999Z" fill="white"/>
<path d="M821.4 16.8999H864.9L834.8 159.1H791.2L821.4 16.8999Z" fill="white"/>
<path d="M876.401 155.8C868.401 151.3 863 145 860.2 136.7C857.4 128.4 857.2 118.6 859.8 107.2L861.7 99.1998C864.1 87.7998 868.2 78.0998 874.2 70.0998C880.2 62.0998 888 55.9998 897.5 51.6998C907 47.3998 918.101 45.2998 930.701 45.2998C943.101 45.2998 953.2 47.3998 961 51.4998C968.8 55.5998 974.2 61.6998 977.1 69.5998C980 77.4998 980.301 87.3998 977.901 99.2998L975.1 110.8L934.1 108L937.1 93.2998C938.1 88.9998 938.3 85.4998 937.8 82.8998C937.2 80.2998 936 78.3998 934 77.0998C932 75.8998 929.2 75.1998 925.6 75.1998C921.9 75.1998 918.801 75.7998 916.401 77.0998C914.001 78.3998 911.9 80.5998 910.2 83.6998C908.5 86.7998 906.9 90.8998 905.6 96.0998L902.401 110.6C901.301 115.7 901 119.8 901.6 123C902.2 126.2 903.401 128.5 905.401 130C907.401 131.4 910 132.1 913.2 132.1C917.9 132.1 921.7 131.1 924.6 129C927.5 127 929.701 123.9 931.201 119.8L931.401 118.9H973.401L973 119.8C969.2 132.7 961.701 143 950.701 150.6C939.701 158.3 925.1 162.1 907.1 162.1C894.6 162.5 884.401 160.3 876.401 155.8ZM901.901 92.2998H958.5L977.3 99.6998L974.701 112.3H897.401L901.901 92.2998Z" fill="white"/>
<path d="M76.6002 319.9C67.9002 316.1 61.9002 310.7 58.6002 303.6C55.3002 296.5 54.7002 287.9 56.9002 277.9V276.8H102L101.8 277.9C101.2 280.9 101.2 283.5 101.8 285.9C102.4 288.3 103.9 290.1 106.3 291.5C108.7 292.9 111.9 293.5 116 293.5C121.2 293.5 125.2 292.6 128.1 290.7C130.9 288.8 132.6 286.3 133.1 283.1L133.7 282C134.2 279.4 134 277.4 133.1 275.9C132.2 274.4 130.3 273 127.3 271.6C124.4 270.2 120 268.7 114.2 267C113.5 266.6 112.9 266.4 112.6 266.4C112.3 266.3 111.8 266.2 111.2 266.1C109.2 265.5 107.3 265 105.4 264.6C94.8002 261.9 86.7002 258.6 81.3002 254.9C75.9002 251.1 72.4002 246.8 70.8002 241.8C69.3002 236.8 69.3002 230.7 70.9002 223.2L71.3002 221.5C72.9002 213.5 76.5002 206.4 82.0002 200.3C87.5002 194.2 94.9002 189.5 104.2 186.1C113.5 182.7 124.6 181 137.6 181C157.8 181 172 185.2 180.3 193.6C188.6 202 191.4 213.5 188.7 228.1L188.5 229H145.4L145.6 228.1C146.3 223.4 145.7 219.7 143.7 217.1C141.7 214.5 137.9 213.2 132.4 213.2C127.8 213.2 124.2 214 121.6 215.6C119 217.2 117.5 219.4 117 222.3L116.6 223.8C116.4 225.3 116.4 226.6 116.9 227.7C117.3 228.8 118.2 229.9 119.4 230.9C120.6 231.9 122.4 232.8 124.8 233.5C125.8 234 126.9 234.4 128 234.6C129.2 234.8 130.4 235.2 131.8 235.7C146.5 238.7 157.6 242.4 165 246.7C172.4 251.1 177.2 256.1 179.2 261.6C181.2 267.2 181.4 274 179.7 282.2L179.5 284.1C177.5 292.8 173.5 300.2 167.5 306.5C161.5 312.8 153.7 317.5 144.1 320.7C134.5 323.9 123.2 325.5 110.2 325.5C96.4002 325.5 85.2002 323.6 76.6002 319.9Z" stroke="#FFD400" stroke-miterlimit="10"/>
<path d="M302.2 322.2H258.4L260.3 314.6L264 303.1H260.7L265.5 300.3C262 305.7 258.1 310.4 253.6 314.2C249.1 318 244.3 320.9 239.2 322.7C234.1 324.6 228.6 325.5 222.8 325.5C210.3 325.5 201.4 321.8 196 314.5C190.6 307.2 189.7 295.7 193.3 280L207.6 211.8H251.4L237.8 275.3C236.6 281.2 236.8 285.7 238.5 288.6C240.2 291.5 243.5 293 248.2 293C251.7 293 254.9 292 257.8 290.1C260.7 288.2 263.1 285.6 265 282.5C266.9 279.3 268.3 275.8 269.2 271.8L281.8 211.8H325.6L302.2 322.2Z" stroke="#FFD400" stroke-miterlimit="10"/>
<path d="M343.6 211.9H387.2L385.7 219.5L381.6 231.4H384.8L380.3 234.9C383.1 229.5 386.5 224.7 390.3 220.7C394.1 216.7 398.4 213.6 403.2 211.5C408 209.4 412.9 208.3 418 208.3C422.5 208.3 426.1 208.9 429 210L421.6 245.5C417.8 244.8 413.3 244.4 408.2 244.4C402.3 244.4 397 245.5 392.4 247.7C387.8 249.9 384 253.3 380.8 257.7C377.6 262.2 375.4 267.5 374.2 273.9L363.8 322.2H320.2L343.6 211.9Z" stroke="#FFD400" stroke-miterlimit="10"/>
<path d="M426.3 320.9C421.2 317.9 417.8 313.8 416.2 308.6C414.6 303.4 414.5 297.4 415.8 290.6L416.4 288.7C416.5 288.2 416.6 287.7 416.6 287.2C418.2 280.6 421.2 275 425.7 270.4C430.2 265.8 436 262.2 443.2 259.7C450.4 257.2 459 256 469 256C474.2 256 479 256.4 483.4 257.1C487.8 257.8 491.6 258.8 494.8 259.9L496.5 252.1C497.4 247.6 497 244.1 495.4 241.4C493.8 238.7 490.5 237.4 485.6 237.4C481.4 237.4 478 238.5 475.4 240.8C472.8 243.1 471.1 245.9 470.4 249.2L469.8 251.2H427.6L427.8 249.9C429.5 242.2 433 235.3 438.1 229.1C443.2 222.9 450.3 217.9 459.4 214C468.4 210.1 479.6 208.2 493 208.2C507.1 208.2 517.9 210.2 525.4 214.1C532.9 218.1 537.6 223.6 539.6 230.7C541.6 237.8 541.5 246.6 539.4 257L525.5 322H481.7L483.4 314.4L487.1 304.6H483L487.6 302C484.8 306.8 481.3 311 477.4 314.4C473.4 317.9 468.9 320.5 463.8 322.4C458.7 324.3 452.9 325.2 446.6 325.2C438.2 325.3 431.5 323.8 426.3 320.9ZM480.4 293.1C483.3 291.4 485.7 289.1 487.5 286.1C489.4 283.1 490.7 279.6 491.6 275.5L491.4 276.2C489.5 275.2 487.2 274.4 484.4 273.8C481.6 273.2 478.9 272.9 476.1 272.9C471.3 272.9 467.6 273.9 465.1 276C462.6 278 461 280.6 460.1 283.7V283.9L460.3 284.1L459.7 286C459.3 287.9 459.4 289.5 460 290.9C460.6 292.3 461.7 293.5 463.3 294.3C465 295.2 467.3 295.6 470.3 295.6C474.1 295.6 477.4 294.8 480.4 293.1Z" stroke="#FFD400" stroke-miterlimit="10"/>
<path d="M557.6 319.2C552.5 315 549.2 308.7 547.9 300.4C546.6 292.1 547.3 281.8 549.9 269.6L551 263.7C553.5 251.8 557.1 241.8 562 233.5C566.8 225.3 572.8 219 579.9 214.7C587 210.4 595.2 208.3 604.3 208.3C609.6 208.3 614.4 209.2 618.6 210.9C622.8 212.6 626.3 215.4 629.1 219.1C631.9 222.8 633.7 227.5 634.6 233L631.3 236.3L632.4 229.6H634.8L636.1 217.9L644.1 179.8H688.1L657.8 322H614.2L615.5 315.3L619.2 304.2H616.4L618.4 301.4L620.1 300.7C615.4 309 609.5 315.2 602.3 319.3C595.1 323.4 587.4 325.4 579.3 325.4C570 325.5 562.7 323.4 557.6 319.2ZM613.4 291C616.2 289.4 618.6 287.1 620.4 284.2C622.2 281.3 623.5 278 624.2 274.3L627.2 260.2C628.1 256.4 628.3 253 627.8 250.2C627.3 247.4 626.1 245 624.1 243.2C622.1 241.4 619.3 240.5 615.6 240.5C611.8 240.5 608.5 241.4 605.9 243.2C603.2 245 601.1 247.4 599.4 250.5C597.7 253.6 596.5 257.2 595.8 261.3L593.2 273.2C592.1 277.8 591.7 281.5 592 284.4C592.3 287.3 593.4 289.5 595.3 291.1C597.2 292.6 600.1 293.4 603.9 293.4C607.3 293.4 610.6 292.6 613.4 291Z" stroke="#FFD400" stroke-miterlimit="10"/>
<path d="M706.1 179.9H749.7L735 249H745.6L769.2 211.9H816.4L778.9 265.4L796.7 322.2H748L738.7 280.2H728.5L719.4 322.2H675.8L706.1 179.9Z" stroke="#FFD400" stroke-miterlimit="10"/>
<path d="M815.7 320.9C810.6 317.9 807.2 313.8 805.6 308.6C804 303.4 803.9 297.4 805.2 290.6L805.8 288.7C805.9 288.2 806 287.7 806 287.2C807.6 280.6 810.6 275 815.1 270.4C819.6 265.8 825.4 262.2 832.6 259.7C839.8 257.2 848.4 256 858.4 256C863.6 256 868.4 256.4 872.8 257.1C877.2 257.8 881 258.8 884.2 259.9L885.9 252.1C886.8 247.6 886.4 244.1 884.8 241.4C883.2 238.7 879.9 237.4 875 237.4C870.8 237.4 867.4 238.5 864.8 240.8C862.2 243.1 860.5 245.9 859.8 249.2L859.2 251.2H817L817.2 249.9C818.9 242.2 822.4 235.3 827.5 229.1C832.6 222.9 839.7 217.9 848.8 214C857.8 210.1 869 208.2 882.4 208.2C896.5 208.2 907.3 210.2 914.8 214.1C922.3 218.1 927 223.6 929 230.7C931 237.8 930.9 246.6 928.8 257L914.9 322H871L872.7 314.4L876.4 304.6H872.5L877.1 302C874.3 306.8 870.8 311 866.9 314.4C862.9 317.9 858.4 320.5 853.3 322.4C848.2 324.3 842.4 325.2 836.1 325.2C827.6 325.3 820.9 323.8 815.7 320.9ZM869.8 293.1C872.7 291.4 875.1 289.1 876.9 286.1C878.8 283.1 880.1 279.6 881 275.5L880.8 276.2C878.9 275.2 876.6 274.4 873.8 273.8C871 273.2 868.3 272.9 865.5 272.9C860.7 272.9 857 273.9 854.5 276C852 278 850.4 280.6 849.5 283.7V283.9L849.7 284.1L849.1 286C848.7 287.9 848.8 289.5 849.4 290.9C850 292.3 851.1 293.5 852.7 294.3C854.4 295.2 856.7 295.6 859.7 295.6C863.6 295.6 866.9 294.8 869.8 293.1Z" stroke="#FFD400" stroke-miterlimit="10"/>
<path d="M955.7 211.9H999.3L997.8 219.5L993.7 231.4H996.9L992.4 234.9C995.2 229.5 998.6 224.7 1002.4 220.7C1006.2 216.7 1010.5 213.6 1015.3 211.5C1020.1 209.4 1025 208.3 1030.1 208.3C1034.6 208.3 1038.2 208.9 1041.1 210L1033.7 245.5C1029.9 244.8 1025.4 244.4 1020.3 244.4C1014.4 244.4 1009.1 245.5 1004.5 247.7C999.9 249.9 996.1 253.3 992.9 257.7C989.7 262.1 987.5 267.5 986.3 273.9L975.9 322.2H932.3L955.7 211.9Z" stroke="#FFD400" stroke-miterlimit="10"/>
</svg>
