<?xml version="1.0" encoding="utf-8"?>
<!-- Generator: Adobe Illustrator 25.0.1, SVG Export Plug-In . SVG Version: 6.00 Build 0)  -->
<svg version="1.1" id="Layer_1" xmlns="http://www.w3.org/2000/svg" xmlns:xlink="http://www.w3.org/1999/xlink" x="0px" y="0px"
	 viewBox="0 0 438 43" style="enable-background:new 0 0 438 43;" xml:space="preserve">
<style type="text/css">
	.st0{fill:#FFDD00;}
	.st1{fill:none;stroke:#231F20;stroke-width:0.5;stroke-miterlimit:10;}
</style>
<g>
	<path class="st0" d="M19.5,38.6c-2.5-1.3-4.3-3.3-5.2-5.9c-0.9-2.6-1-5.8-0.2-9.7l0.7-3.2c0.9-3.9,2.3-7.1,4.1-9.7
		c1.8-2.6,4.2-4.5,7-5.8c2.8-1.3,6.2-1.9,10.1-1.9c4,0,7.2,0.7,9.7,2.1c2.5,1.4,4.2,3.4,5,6c0.9,2.6,0.9,5.9,0,9.6L50.1,23
		c-0.9,4-2.2,7.3-4,9.9c-1.8,2.6-4.1,4.5-6.9,5.8c-2.8,1.3-6.2,1.9-10.2,1.9C25.2,40.6,22,39.9,19.5,38.6 M33.4,30.1
		c0.8-0.4,1.6-1.2,2.2-2.2c0.6-1,1.2-2.4,1.6-4.2l1-4.4c0.4-1.8,0.5-3.2,0.2-4.2c-0.2-1-0.7-1.8-1.4-2.2c-0.7-0.5-1.7-0.7-2.8-0.7
		c-1.2,0-2.2,0.2-3,0.6c-0.8,0.4-1.5,1.1-2.1,2.1c-0.6,1-1.1,2.3-1.4,4l-1.1,4.8c-0.4,1.7-0.5,3-0.2,4.1c0.3,1,0.7,1.8,1.4,2.2
		c0.7,0.4,1.6,0.6,2.6,0.6C31.6,30.8,32.6,30.6,33.4,30.1"/>
	<path class="st0" d="M57.4,38.9c-2.3-1.1-3.7-2.9-4.4-5.2c-0.6-2.3-0.6-5.3,0.2-9l4.6-21.4h12.5l-4.7,22.2c-0.4,1.8-0.3,3.2,0.3,4
		c0.6,0.9,1.7,1.3,3.2,1.3c1.5,0,2.8-0.4,3.7-1.3c0.9-0.8,1.6-2.2,2-4.1l4.7-22.2h12.6l-4.6,21.4c-0.8,3.7-1.9,6.6-3.5,8.9
		c-1.6,2.3-3.8,4-6.6,5.2c-2.8,1.2-6.2,1.7-10.5,1.7C62.9,40.6,59.7,40,57.4,38.9"/>
	<path class="st0" d="M97.1,3.3h18c3.5,0,6.2,0.4,8.3,1.3c2.1,0.9,3.5,2.2,4.3,3.9c0.8,1.7,0.9,3.7,0.5,6l-0.1,0.6
		c-0.5,2.2-1.4,4-2.9,5.6c-1.5,1.5-3.3,2.6-5.6,3.1V24c1.1,0.3,2,0.8,2.6,1.5c0.7,0.7,1.1,1.6,1.2,2.7c0.2,1.1,0.2,2.5,0,4.1
		l-0.3,2.7c-0.1,1-0.1,2-0.1,2.7c0,0.8,0.1,1.4,0.2,2h-12.5c-0.1-0.5-0.1-1.2,0-2.1c0-0.9,0.2-2,0.3-3.4l0.1-2.3
		c0.1-0.8,0.1-1.4-0.1-1.9c-0.2-0.5-0.6-0.9-1.2-1.1c-0.6-0.3-1.4-0.4-2.4-0.4h-3.1L102,39.7H89.4L97.1,3.3z M113.5,19.4
		c0.8-0.6,1.4-1.7,1.7-3.1l0.1-0.7c0.3-1.2,0.2-2.1-0.4-2.7c-0.6-0.6-1.5-0.9-2.7-0.9h-4.5l-1.7,8.2h4.3
		C111.6,20.4,112.7,20.1,113.5,19.4"/>
	<path class="st1" d="M134.3,38.6c-2.5-1.3-4.3-3.3-5.2-5.9c-0.9-2.6-1-5.8-0.2-9.7l0.7-3.2c0.9-3.9,2.3-7.1,4.1-9.7
		c1.8-2.6,4.2-4.5,7-5.8c2.8-1.3,6.2-1.9,10.1-1.9c4,0,7.2,0.7,9.7,2.1c2.5,1.4,4.2,3.4,5,6c0.9,2.6,0.9,5.9,0,9.6l-0.6,2.8
		c-0.9,4-2.2,7.3-4,9.9c-1.8,2.6-4.1,4.5-6.9,5.8c-2.8,1.3-6.2,1.9-10.2,1.9C140,40.6,136.8,39.9,134.3,38.6z M148.2,30.1
		c0.8-0.4,1.6-1.2,2.2-2.2c0.6-1,1.2-2.4,1.6-4.2l1-4.4c0.4-1.8,0.5-3.2,0.2-4.2c-0.2-1-0.7-1.8-1.4-2.2c-0.7-0.5-1.7-0.7-2.8-0.7
		c-1.2,0-2.2,0.2-3,0.6c-0.8,0.4-1.5,1.1-2.1,2.1c-0.6,1-1.1,2.3-1.4,4l-1.1,4.8c-0.4,1.7-0.5,3-0.2,4.1c0.3,1,0.7,1.8,1.4,2.2
		c0.7,0.4,1.6,0.6,2.6,0.6C146.3,30.8,147.4,30.6,148.2,30.1z"/>
	<polygon class="st1" points="172.2,3.3 199.8,3.3 197.9,12.4 182.9,12.4 181.6,18.1 195,18.1 193.1,26.9 179.8,26.9 177.1,39.7 
		164.5,39.7 	"/>
	<polygon class="st1" points="203.3,3.3 230.9,3.3 229,12.4 213.9,12.4 212.7,18.1 226.1,18.1 224.2,26.9 210.9,26.9 208.2,39.7 
		195.6,39.7 	"/>
	<polygon class="st1" points="233.4,3.3 261.4,3.3 259.5,12.3 244,12.3 243,17.4 256.9,17.4 255.1,25.1 241.4,25.1 240.2,30.6 
		256,30.6 254.1,39.7 225.7,39.7 	"/>
	<path class="st1" d="M264.8,3.3h18c3.5,0,6.2,0.4,8.3,1.3c2.1,0.9,3.5,2.2,4.3,3.9c0.8,1.7,0.9,3.7,0.5,6l-0.1,0.6
		c-0.5,2.2-1.4,4-2.9,5.6c-1.5,1.5-3.3,2.6-5.6,3.1V24c1.1,0.3,2,0.8,2.6,1.5c0.7,0.7,1.1,1.6,1.2,2.7c0.2,1.1,0.2,2.5,0,4.1
		l-0.3,2.7c-0.1,1-0.1,2-0.1,2.7c0,0.8,0.1,1.4,0.2,2h-12.5c-0.1-0.5-0.1-1.2,0-2.1c0-0.9,0.2-2,0.3-3.4l0.1-2.3
		c0.1-0.8,0.1-1.4-0.1-1.9c-0.2-0.5-0.6-0.9-1.2-1.1c-0.6-0.3-1.4-0.4-2.4-0.4H272l-2.3,11.3h-12.6L264.8,3.3z M281.3,19.4
		c0.8-0.6,1.4-1.7,1.7-3.1l0.1-0.7c0.3-1.2,0.2-2.1-0.4-2.7c-0.6-0.6-1.5-0.9-2.7-0.9h-4.5l-1.7,8.2h4.3
		C279.3,20.4,280.4,20.1,281.3,19.4z"/>
	<polygon class="st1" points="302.1,3.3 314.6,3.3 306.9,39.7 294.3,39.7 	"/>
	<polygon class="st1" points="319.1,3.3 332.7,3.3 338.1,20.3 338.8,23.6 339.7,19.7 343.1,3.3 354.7,3.3 347,39.7 333.3,39.7 
		327.9,22.6 327.2,19.4 326.4,23.3 322.9,39.7 311.4,39.7 	"/>
	<path class="st1" d="M358.5,38.7c-2.4-1.3-4-3.2-4.9-5.8c-0.8-2.6-0.8-5.9,0-9.8l0.7-3.1c0.9-3.9,2.3-7.2,4.2-9.7
		c1.9-2.6,4.3-4.5,7.1-5.8c2.9-1.3,6.2-1.9,10.1-1.9c3.7,0,6.7,0.6,9,1.8c2.4,1.2,4,2.8,5,5c0.9,2.1,1.1,4.7,0.6,7.6l0,0.4h-12.5
		l0.2-1c0.1-0.9,0-1.6-0.2-2.3c-0.2-0.6-0.6-1.1-1.3-1.4c-0.7-0.3-1.5-0.5-2.6-0.5c-1.1,0-2,0.2-2.9,0.7c-0.9,0.5-1.6,1.2-2.3,2.2
		c-0.7,1-1.2,2.4-1.5,4l-1.1,5.3c-0.4,1.8-0.5,3.3-0.3,4.4c0.2,1.1,0.7,1.9,1.5,2.4c0.8,0.5,1.7,0.7,2.8,0.7c0.9,0,1.8-0.2,2.6-0.5
		c0.8-0.3,1.4-0.8,1.9-1.4c0.5-0.6,0.9-1.3,1.2-2.2l0-0.2h-5.6l1.6-7.3h17.8l-0.4,1.9c-1,4.4-2.4,7.9-4.2,10.6
		c-1.8,2.7-4.1,4.7-6.9,6c-2.8,1.3-6.2,1.9-10.2,1.9C364.1,40.6,360.9,39.9,358.5,38.7z"/>
	<path class="st1" d="M394.7,39.1c-2.3-1-3.9-2.4-4.7-4.3c-0.9-1.9-1-4.1-0.4-6.8v-0.3h11.9l0,0.3c-0.2,0.8-0.2,1.5,0,2.1
		c0.2,0.6,0.6,1.1,1.2,1.5c0.6,0.4,1.5,0.5,2.5,0.5c1.4,0,2.4-0.2,3.2-0.7c0.8-0.5,1.2-1.2,1.3-2l0.1-0.3c0.1-0.7,0.1-1.2-0.2-1.6
		c-0.2-0.4-0.8-0.8-1.5-1.1c-0.8-0.4-1.9-0.8-3.5-1.2c-0.2-0.1-0.3-0.2-0.4-0.2c-0.1,0-0.2,0-0.4-0.1c-0.5-0.2-1-0.3-1.5-0.4
		c-2.8-0.7-4.9-1.6-6.4-2.6c-1.4-1-2.4-2.1-2.8-3.5c-0.4-1.3-0.4-2.9,0-4.9l0.1-0.4c0.4-2.1,1.4-4,2.8-5.6c1.5-1.6,3.4-2.8,5.8-3.7
		c2.4-0.9,5.4-1.3,8.8-1.3c5.3,0,9.1,1.1,11.3,3.3c2.2,2.2,2.9,5.3,2.2,9.1l0,0.2h-11.4l0-0.2c0.2-1.2,0-2.2-0.5-2.9
		c-0.5-0.7-1.5-1-3-1c-1.2,0-2.2,0.2-2.8,0.6c-0.7,0.4-1.1,1-1.2,1.8l-0.1,0.4c-0.1,0.4,0,0.7,0.1,1c0.1,0.3,0.3,0.6,0.7,0.8
		c0.3,0.3,0.8,0.5,1.4,0.7c0.3,0.1,0.5,0.2,0.9,0.3c0.3,0.1,0.6,0.2,1,0.3c3.9,0.8,6.8,1.8,8.8,2.9c2,1.2,3.2,2.5,3.7,3.9
		c0.5,1.5,0.6,3.3,0.1,5.4l0,0.5c-0.5,2.3-1.6,4.3-3.2,5.9c-1.6,1.6-3.6,2.9-6.2,3.7c-2.5,0.8-5.5,1.3-8.9,1.3
		C400,40.6,397,40.1,394.7,39.1z"/>
</g>
</svg>
