<?xml version="1.0" encoding="utf-8"?>
<!-- Generator: Adobe Illustrator 26.2.1, SVG Export Plug-In . SVG Version: 6.00 Build 0)  -->
<svg version="1.1" id="Layer_1" xmlns="http://www.w3.org/2000/svg" xmlns:xlink="http://www.w3.org/1999/xlink" x="0px" y="0px"
	 viewBox="0 0 838.7 369.3" style="enable-background:new 0 0 838.7 369.3;" xml:space="preserve">
<style type="text/css">
	.st0{fill:#FFFFFF;}
	.st1{fill:none;stroke:#FFD400;stroke-linecap:round;stroke-miterlimit:10;}
	.st2{fill:#FFD400;}
</style>
<g transform="translate(-78.215 -97.061)">
	<path class="st0" d="M221.7,223c0,8.8-1.5,16.5-4.6,23c-3,6.4-7.6,12-13.3,16.1c-5.8,4.3-12.9,7.4-21.4,9.5
		c-9.5,2.2-19.3,3.3-29,3.1c-9,0-16.7-1.3-23.1-3.8c-5.9-2.2-11.3-5.7-15.5-10.4c-3.9-4.4-6.6-9.8-7.7-15.6
		c-1.3-6.4-1.1-13,0.3-19.4l37.4-0.7c-0.3,2.1-0.4,4.1-0.3,6.2c0,2.1,0.6,4.2,1.6,6c1.2,2,3,3.5,5.2,4.5c2.4,1.2,5.9,1.7,10.4,1.7
		c5,0,8.8-0.5,11.6-1.4c2.3-0.7,4.3-1.9,6-3.5c1.2-1.2,2-2.7,2.3-4.3c0.3-1.3,0.4-2.6,0.4-3.9c0-0.8-0.2-1.5-0.5-2.2
		c-0.5-1-1.1-1.8-1.9-2.5c-1.2-1-2.5-1.9-3.9-2.7c-2-1.1-4.1-2.1-6.3-2.9l-24.8-9.5c-4.2-1.6-8.3-3.6-12.1-6.1c-3-2-5.7-4.4-7.9-7.2
		c-2-2.5-3.4-5.3-4.3-8.4c-0.9-3-1.3-6.2-1.3-9.4c0-4.5,0.5-9,1.4-13.4c0.9-4.3,2.4-8.4,4.5-12.2c2.2-3.9,4.9-7.4,8.2-10.5
		c3.6-3.3,7.8-6.1,12.3-8.2c5.4-2.5,11-4.2,16.9-5.3c7.2-1.3,14.6-2,22-1.9c10,0,18.4,1.2,25,3.7s11.8,5.9,15.5,10.2
		c3.7,4.4,6.1,9.7,6.8,15.3c0.8,6.4,0.5,12.8-0.9,19.1l-37.6,0.7c0.4-2.4,0.6-4.8,0.5-7.2c-0.1-2-0.7-3.9-1.8-5.5
		c-1.2-1.6-2.9-2.9-4.8-3.5c-2.8-0.9-5.7-1.3-8.7-1.2c-3.1-0.1-6.2,0.2-9.2,0.9c-2.1,0.5-4.1,1.3-5.9,2.5c-1.4,1-2.5,2.3-3.2,3.8
		s-1,3.2-1,4.9c0,2.2,0.8,4.2,2.3,5.8c1.6,1.7,4.2,3.2,8,4.7l24.8,9.2c4.3,1.6,8.4,3.5,12.3,5.8c3.2,1.9,6.1,4.2,8.7,6.9
		c2.3,2.5,4,5.4,5.1,8.6C221.1,215.9,221.7,219.4,221.7,223z"/>
	<path class="st0" d="M230.1,271.5l30.8-144.6h37.9l-9.9,45.9c1.9-2.3,4.1-4.5,6.4-6.4s4.8-3.5,7.4-4.9c2.5-1.3,5.2-2.4,8-3.1
		c2.7-0.7,5.4-1.1,8.2-1.1c4.7-0.1,9.4,0.6,13.9,2.3c6.6,2.5,11.7,7.9,13.9,14.6c1,3.1,1.7,6.3,2,9.6c0.3,3.1,0.2,6.3-0.1,9.4
		c-0.3,3-0.7,5.7-1.2,7.9l-14.9,70.4h-37.9l14.9-70c0.9-4.4,0.7-7.7-0.6-10.1c-1.3-2.4-3.8-3.5-7.7-3.5c-2.4,0-4.9,0.5-7,1.6
		s-4.1,2.5-5.7,4.3c-1.7,1.9-3.2,4.1-4.3,6.4c-1.2,2.6-2.1,5.2-2.7,8L268,271.5H230.1z"/>
	<path class="st0" d="M353.8,271.5l23.6-110.8h37.9l-2.4,11.1c1.9-2.1,4-4.1,6.3-5.9c2.2-1.7,4.6-3.2,7.1-4.5
		c2.4-1.2,4.9-2.2,7.5-2.9c2.5-0.7,5-1.1,7.6-1.1s5.3,0.1,7.9,0.4c1.7,0.2,3.4,0.5,5,1l-6.7,31.7c-0.9-0.3-1.9-0.6-2.9-0.7
		c-1.2-0.2-2.6-0.5-4.1-0.7s-3-0.4-4.7-0.6c-1.6-0.2-3.2-0.2-4.7-0.2c-3.5,0-6.9,0.8-9.9,2.4c-3.1,1.6-5.8,3.7-8.2,6.3
		c-2.4,2.6-4.4,5.6-6,8.8c-1.6,3.1-2.8,6.4-3.5,9.9l-11.9,55.9h-37.9L353.8,271.5L353.8,271.5z"/>
	<path class="st0" d="M442.8,271.5l23.6-110.8h37.9l-23.6,110.8H442.8z M467.8,140c0-2.8,0.5-5.6,1.6-8.2c1-2.5,2.7-4.6,4.7-6.3
		c2.4-1.9,5.1-3.3,8-4.1c3.7-1,7.5-1.5,11.4-1.4c6.5,0,11.3,1.1,14.2,3.4c3,2.3,4.5,5.5,4.5,9.7c0,2.8-0.5,5.6-1.5,8.2
		c-1,2.5-2.6,4.7-4.6,6.4c-2.4,1.9-5.1,3.3-8,4.1c-3.8,1.1-7.8,1.6-11.7,1.5c-6.3,0-11-1.2-14.1-3.5
		C469.3,147.4,467.6,143.8,467.8,140L467.8,140z"/>
	<path class="st0" d="M502.8,271.5l23.6-110.8h37.9l-2.4,11.1c1.9-2.1,4-4.1,6.3-5.9c2.2-1.7,4.6-3.2,7.1-4.5
		c2.4-1.2,4.9-2.2,7.5-2.9c2.5-0.7,5-1.1,7.6-1.1s5.3,0.1,7.9,0.4c1.7,0.2,3.4,0.5,5,1l-6.7,31.7c-0.9-0.3-1.9-0.6-2.9-0.7
		c-1.2-0.2-2.6-0.5-4.1-0.7s-3-0.4-4.7-0.6c-1.6-0.2-3.2-0.2-4.7-0.2c-3.5,0-6.9,0.8-9.9,2.4c-3.1,1.6-5.8,3.7-8.2,6.3
		s-4.4,5.6-6,8.8c-1.6,3.1-2.8,6.4-3.5,9.9l-11.9,55.9h-37.9L502.8,271.5L502.8,271.5z"/>
	<path class="st0" d="M600.1,208.4c0.8-3.9,1.8-7.8,3-11.8s2.8-7.9,4.7-11.7s4.1-7.4,6.7-10.7c5.3-7,12.7-12.1,21.1-14.6
		c5-1.5,10.2-2.2,15.4-2.2c2.6,0,5.1,0.3,7.6,1.1c2.1,0.7,4.1,1.7,5.9,3c1.7,1.3,3.2,2.8,4.5,4.6s2.4,3.7,3.2,5.8l2.4-11.1h37.8
		l-23.6,110.8H651l2-9.9c-3.3,3.8-7.3,7-11.7,9.4c-4.7,2.5-9.9,3.7-15.2,3.6c-4.7,0.1-9.5-0.6-14-2.1c-3.5-1.2-6.8-3.1-9.4-5.7
		c-2.4-2.4-4.3-5.3-5.6-8.5c-1.3-3.4-2.1-6.9-2.4-10.5c-0.4-3.9-0.4-7.8,0-11.7c0.4-4.1,1-8.1,1.9-12.1L600.1,208.4z M634.4,224.4
		c-0.6,2.6-1,5.1-1.3,7.7c-0.3,2.1-0.1,4.2,0.4,6.3c0.4,1.7,1.4,3.2,2.9,4.2c1.4,1,3.5,1.6,6.2,1.6c2.5,0.1,4.9-0.5,7.1-1.6
		c2-1,3.7-2.5,5.2-4.1c1.5-1.7,2.7-3.7,3.5-5.8c0.9-2.1,1.7-4.3,2.2-6.5l4.2-19.9c0.3-2.1,0.5-4.3,0.5-6.4c0.1-2-0.2-4.1-0.8-6
		c-0.5-1.7-1.6-3.3-2.9-4.4c-1.7-1.2-3.8-1.8-5.9-1.7c-2.4-0.1-4.9,0.4-7.1,1.3c-1.9,0.8-3.5,2.1-4.8,3.7c-1.3,1.7-2.4,3.6-3.1,5.6
		c-0.8,2.3-1.5,4.6-2,6.9L634.4,224.4z"/>
	<path class="st0" d="M711,271.5l23.6-110.8h37.9l-2.3,10.4c4.1-4.2,9-7.7,14.4-10.1c2.5-1.1,5.1-2,7.7-2.7c2.4-0.6,4.9-0.9,7.5-0.9
		c4-0.1,8.1,0.5,11.9,1.7c3,1,5.8,2.5,8.2,4.6c2.2,1.8,3.9,4.1,5.1,6.6c1.2,2.5,2.1,5.1,2.6,7.8c2-3.2,4.4-6.2,7.2-8.8
		c2.7-2.5,5.6-4.7,8.8-6.5c2.9-1.7,6.1-3.1,9.4-4.1c3-0.9,6.1-1.4,9.2-1.4c5.5,0,10.1,0.8,13.7,2.4c6.5,2.7,11.5,8.1,13.5,14.9
		c1,3.2,1.6,6.4,1.8,9.8c0.2,3.2,0.1,6.4-0.2,9.5c-0.4,3.1-0.8,5.7-1.2,7.9L875,271.5h-38l14.9-69.9c0.9-4.4,0.8-7.8-0.5-10.2
		c-1.2-2.4-3.4-3.5-6.6-3.5c-2.3,0-4.5,0.5-6.5,1.6c-2.1,1.1-4.1,2.5-5.7,4.3c-1.8,1.9-3.3,4.1-4.5,6.5c-1.3,2.6-2.2,5.3-2.8,8.1
		h-0.1l-13.4,63.3h-37.9l14.9-69.7c0.9-4.5,0.8-7.9-0.3-10.3c-1.1-2.4-3.4-3.6-6.9-3.6c-2.2,0-4.4,0.5-6.4,1.5c-2.1,1-4,2.4-5.6,4.1
		c-1.7,1.8-3.2,3.9-4.4,6.2c-1.3,2.5-2.2,5.1-2.9,7.8l-0.2,0.8l-13.5,63.3L711,271.5z"/>
	<path class="st1" d="M104.6,423.3L134.4,283H173l-29.9,140.3H104.6z"/>
	<path class="st1" d="M298.4,312.5l-62.5,116.8c-2.7,5.1-6.1,9.9-10.1,14.2c-3.6,3.9-7.6,7.5-11.8,10.6c-3.7,2.8-7.7,5.3-11.9,7.4
		c-3.9,1.9-7.2,3.5-10,4.6l-9.9-20c2.1-0.8,4.1-1.8,6.1-3c2.2-1.3,4.3-2.8,6.3-4.5c2.1-1.8,4.1-3.8,5.9-5.9c1.9-2.2,3.5-4.5,4.7-7.1
		l1.1-2.3h-11.5l-12.7-110.8H221l3.7,73.4l34.8-73.4H298.4z"/>
	<path class="st1" d="M327,382.4c-0.5,1.8-0.7,3.8-0.5,5.7c0.1,1.7,0.6,3.3,1.5,4.8c0.9,1.4,2.2,2.6,3.7,3.4c1.9,0.9,4,1.4,6.1,1.3
		c2.2,0.1,4.4-0.3,6.5-1c1.7-0.6,3.2-1.4,4.5-2.6c1.2-1,2.2-2.2,2.9-3.6c0.7-1.3,1.3-2.7,1.7-4.1l34.7,0.1c-1.8,5.3-4.2,10.4-7,15.2
		c-2.8,4.8-6.4,9.2-10.6,12.8c-4.5,3.8-9.7,6.8-15.2,8.8c-6.7,2.3-13.8,3.4-21,3.3c-6,0.1-11.9-0.6-17.7-1.9
		c-4.5-1.1-8.7-2.9-12.6-5.4c-3.3-2.1-6.1-4.9-8.2-8.2c-2-3.2-3.5-6.8-4.3-10.5c-0.9-4-1.2-8-1-12.1c0.2-4.4,0.8-8.8,1.8-13l3-14
		c1.5-7,3.6-13.9,6.4-20.5c2.5-6.2,6.2-11.8,10.8-16.5c4.9-4.9,10.8-8.7,17.4-11.1c7-2.7,15.7-4,26-4c9.8,0,17.6,1.3,23.4,4
		c5.9,2.6,10.2,6.4,12.9,11.1c2.8,4.8,4.2,10.6,4.2,17.3c0,7.5-0.9,15-2.6,22.4l-2.4,11.5L327,382.4z M332.9,355l29.5-3.1l0.1-0.6
		c0.9-4.8,0.5-8.3-1.3-10.5s-5.1-3.4-9.9-3.4c-2.3,0-4.5,0.4-6.6,1.2c-2,0.8-3.7,1.9-5.3,3.4c-1.6,1.4-2.9,3.1-3.9,5
		c-1.1,1.9-1.8,4-2.2,6.2L332.9,355z"/>
	<path class="st1" d="M399.4,423.3L423,312.5h37.9l-2.4,11.1c1.9-2.1,4-4.1,6.3-5.9c2.2-1.7,4.6-3.2,7.1-4.5
		c2.4-1.2,4.9-2.2,7.5-2.9c2.5-0.7,5-1.1,7.6-1.1s5.3,0.1,7.9,0.4c1.7,0.2,3.4,0.5,5,1l-6.7,31.7c-0.9-0.3-1.9-0.6-2.9-0.7
		c-1.2-0.2-2.6-0.5-4.1-0.7s-3-0.4-4.7-0.6c-1.6-0.2-3.2-0.2-4.7-0.2c-3.5,0-6.9,0.8-10,2.4s-5.8,3.7-8.2,6.3
		c-2.4,2.6-4.4,5.6-6,8.8c-1.6,3.1-2.8,6.4-3.5,9.9l-11.9,55.9L399.4,423.3L399.4,423.3z"/>
	<g>
		<path class="st2" d="M628.1,320.9c-1,0.4-2.1,0.6-3.1,0.6c-3.3,0-5.8-2.1-5.8-6c-0.2-3.2,2.2-6,5.5-6.2c0.2,0,0.4,0,0.6,0
			c1,0,2,0.1,2.8,0.5l-0.4,1.3c-0.8-0.3-1.6-0.5-2.3-0.5c-2.7,0-4.6,1.8-4.6,4.9c0,2.8,1.7,4.7,4.5,4.7c0.9,0,1.7-0.2,2.4-0.5
			L628.1,320.9z"/>
		<path class="st2" d="M636.8,309.4v4.9h5.7v-4.9h1.6v11.7h-1.6v-5.5h-5.7v5.5h-1.6v-11.7H636.8z"/>
		<path class="st2" d="M653.4,309.4v11.7h-1.6v-11.7H653.4z"/>
		<path class="st2" d="M667.4,315.6h-4.6v4.2h5.1v1.3h-6.6v-11.7h6.4v1.3h-4.8v3.7h4.6v1.2H667.4z"/>
		<path class="st2" d="M675.1,309.4h6.4v1.3h-4.8v3.9h4.4v1.3h-4.4v5.3h-1.6L675.1,309.4L675.1,309.4z"/>
		<path class="st2" d="M705.9,320.9c-1,0.4-2.1,0.6-3.1,0.6c-3.3,0-5.8-2.1-5.8-6c-0.2-3.2,2.2-6,5.5-6.2c0.2,0,0.4,0,0.6,0
			c1,0,2,0.1,2.8,0.5l-0.4,1.3c-0.8-0.3-1.6-0.5-2.3-0.5c-2.7,0-4.6,1.8-4.6,4.9c0,2.8,1.7,4.7,4.5,4.7c0.9,0,1.7-0.2,2.4-0.5
			L705.9,320.9z"/>
		<path class="st2" d="M713.1,309.7c1-0.2,2-0.3,2.9-0.2c1.2-0.1,2.4,0.2,3.4,1c0.6,0.6,1,1.4,0.9,2.2c0,1.4-0.9,2.6-2.2,3v0.1
			c1,0.4,1.7,1.4,1.8,2.3c0.2,1.1,0.5,2.2,0.9,3.2h-1.6c-0.4-0.9-0.6-1.9-0.8-2.8c-0.4-1.7-1-2.2-2.3-2.2h-1.5v5.1h-1.5L713.1,309.7
			L713.1,309.7z M714.6,315.1h1.6c1.7,0,2.6-0.9,2.6-2.2c0-1.6-1.1-2.2-2.7-2.2c-0.5,0-1,0-1.5,0.1L714.6,315.1L714.6,315.1z"/>
		<path class="st2" d="M733.8,315.6h-4.6v4.2h5.1v1.3h-6.6v-11.7h6.4v1.3h-4.8v3.7h4.6L733.8,315.6L733.8,315.6z"/>
		<path class="st2" d="M743.4,317.4l-1.2,3.7h-1.6l4-11.7h1.9l4,11.7h-1.7l-1.3-3.7H743.4z M747.3,316.2l-1.2-3.4
			c-0.3-0.8-0.4-1.5-0.6-2.2l0,0c-0.2,0.7-0.4,1.4-0.6,2.2l-1.2,3.4H747.3z"/>
		<path class="st2" d="M758.3,310.7h-3.6v-1.3h8.7v1.3h-3.6v10.5h-1.6L758.3,310.7L758.3,310.7z"/>
		<path class="st2" d="M771.4,309.4v11.7h-1.6v-11.7H771.4z"/>
		<path class="st2" d="M781.9,321.1l-3.8-11.7h1.7l1.9,5.8c0.5,1.6,1,3,1.3,4.4l0,0c0.3-1.4,0.8-2.8,1.4-4.4l2-5.8h1.7l-4.2,11.7
			H781.9z"/>
		<path class="st2" d="M800.4,315.6h-4.6v4.2h5.1v1.3h-6.6v-11.7h6.4v1.3h-4.8v3.7h4.6v1.2H800.4z"/>
		<g>
			<path class="st2" d="M824.9,315.4c0,4-2.4,6.2-5.5,6.2s-5.3-2.4-5.3-6c0-3.7,2.3-6.2,5.5-6.2
				C822.9,309.4,824.9,311.8,824.9,315.4z M815.8,315.5c0,2.5,1.4,4.8,3.7,4.8c2.4,0,3.7-2.2,3.7-4.9c0-2.3-1.2-4.8-3.7-4.8
				C817.1,310.7,815.8,313,815.8,315.5L815.8,315.5z"/>
			<path class="st2" d="M832.2,309.6h6.4v1.3h-4.8v3.9h4.4v1.3h-4.4v5.3h-1.6L832.2,309.6L832.2,309.6z"/>
			<path class="st2" d="M845.8,309.6h6.4v1.3h-4.8v3.9h4.4v1.3h-4.4v5.3h-1.6L845.8,309.6L845.8,309.6z"/>
			<path class="st2" d="M861.1,309.6v11.7h-1.6v-11.7H861.1z"/>
			<path class="st2" d="M877.2,320.9c-1,0.4-2.1,0.6-3.1,0.6c-3.3,0-5.8-2.1-5.8-6c-0.2-3.2,2.2-6,5.5-6.2c0.2,0,0.4,0,0.6,0
				c1,0,2,0.1,2.8,0.5l-0.4,1.3c-0.8-0.3-1.6-0.5-2.3-0.5c-2.7,0-4.6,1.8-4.6,4.9c0,2.8,1.7,4.7,4.5,4.7c0.9,0,1.7-0.2,2.4-0.5
				L877.2,320.9z"/>
			<path class="st2" d="M890.4,315.8h-4.6v4.2h5.1v1.3h-6.6v-11.7h6.4v1.3h-4.8v3.7h4.6v1.2H890.4z"/>
			<path class="st2" d="M898.2,309.8c1-0.2,2-0.3,2.9-0.2c1.2-0.1,2.4,0.2,3.4,1c0.6,0.6,1,1.4,0.9,2.2c0,1.4-0.9,2.6-2.2,3v0.1
				c1,0.4,1.7,1.4,1.8,2.3c0.2,1.1,0.5,2.2,0.9,3.2h-1.6c-0.4-0.9-0.6-1.9-0.8-2.8c-0.4-1.7-1-2.2-2.3-2.2h-1.5v5.1h-1.6
				L898.2,309.8L898.2,309.8z M899.6,315.2h1.6c1.7,0,2.6-0.9,2.6-2.2c0-1.6-1.1-2.2-2.7-2.2c-0.5,0-1,0-1.5,0.1L899.6,315.2
				L899.6,315.2z"/>
		</g>
	</g>
	<g>
		<path class="st2" d="M526.2,320.8c-0.8-0.5-1.4-1.2-1.9-2.1c-0.4-0.9-0.6-2.1-0.6-3.4v-0.2c0-1.4,0.2-2.5,0.6-3.5
			c0.4-0.9,1-1.6,1.8-2.1s1.8-0.7,3-0.7c1.1,0,2,0.2,2.8,0.6s1.4,0.9,1.8,1.6c0.4,0.7,0.6,1.4,0.7,2.1h-1.6c0-0.5-0.2-1-0.5-1.4
			c-0.3-0.4-0.7-0.8-1.2-1.1c-0.5-0.3-1.2-0.4-1.9-0.4c-0.8,0-1.5,0.2-2.1,0.5c-0.6,0.4-1,0.9-1.3,1.6c-0.3,0.7-0.4,1.6-0.4,2.6v0.3
			c0,1,0.2,1.9,0.5,2.6c0.3,0.7,0.7,1.2,1.3,1.6c0.6,0.4,1.3,0.5,2.1,0.5c0.7,0,1.3-0.1,1.8-0.4s0.9-0.7,1.3-1.2
			c0.3-0.5,0.5-1.2,0.5-2v0.1H529V315h5.5v0.8c0,1.2-0.2,2.2-0.6,3c-0.4,0.8-1,1.5-1.8,2s-1.7,0.7-2.9,0.7
			C528,321.5,527,321.2,526.2,320.8z"/>
		<path class="st2" d="M542.4,308.8h5.1c1.4,0,2.5,0.3,3.2,0.9c0.7,0.6,1.1,1.4,1.1,2.6c0,0.9-0.2,1.6-0.7,2.2
			c-0.4,0.6-1,0.9-1.8,1.1c0.4,0.1,0.7,0.2,1,0.4s0.5,0.5,0.6,0.8c0.2,0.3,0.3,0.7,0.4,1.2l0.2,1.3c0.1,0.4,0.1,0.8,0.2,1.1
			c0.1,0.3,0.2,0.6,0.3,0.8h-1.7c-0.1-0.2-0.2-0.4-0.2-0.7c-0.1-0.3-0.2-0.7-0.2-1.2l-0.2-1.3c-0.1-0.4-0.2-0.6-0.4-0.9
			c-0.2-0.2-0.5-0.4-0.8-0.5s-0.8-0.2-1.4-0.2h-2.9v4.8h-1.6v-12.4H542.4z M549.4,314.3c0.5-0.4,0.7-1,0.7-1.9
			c0-0.7-0.2-1.2-0.6-1.6c-0.4-0.4-1.1-0.6-2-0.6h-3.4v4.7h3.2C548.2,314.9,548.9,314.7,549.4,314.3z"/>
		<path class="st2" d="M561.7,320.8c-0.8-0.5-1.4-1.2-1.9-2.1c-0.4-0.9-0.6-2.1-0.6-3.5V315c0-1.4,0.2-2.5,0.6-3.4
			c0.4-0.9,1.1-1.6,1.9-2.1s1.8-0.7,3-0.7s2.2,0.2,3,0.7s1.5,1.2,1.9,2.1c0.4,0.9,0.6,2.1,0.6,3.4v0.1c0,1.4-0.2,2.5-0.6,3.5
			c-0.4,0.9-1.1,1.6-1.9,2.1s-1.8,0.7-3,0.7S562.5,321.2,561.7,320.8z M566.8,319.5c0.6-0.4,1-0.9,1.3-1.6c0.3-0.7,0.5-1.6,0.5-2.7
			V315c0-1.1-0.2-1.9-0.5-2.6c-0.3-0.7-0.7-1.2-1.3-1.6c-0.6-0.4-1.3-0.5-2.1-0.5s-1.6,0.2-2.1,0.5c-0.6,0.4-1,0.9-1.3,1.6
			c-0.3,0.7-0.5,1.6-0.5,2.6v0.2c0,1.1,0.2,2,0.5,2.7c0.3,0.7,0.7,1.3,1.3,1.6c0.6,0.4,1.3,0.5,2.1,0.5
			C565.5,320,566.2,319.9,566.8,319.5z"/>
		<path class="st2" d="M580.1,320.7c-0.7-0.4-1.3-0.9-1.6-1.7c-0.4-0.8-0.5-1.7-0.5-2.8v-7.4h1.6v7.3c0,1.2,0.3,2.1,0.9,2.8
			c0.6,0.6,1.4,0.9,2.5,0.9c1.1,0,1.9-0.3,2.5-0.9c0.6-0.6,0.8-1.5,0.8-2.8v-7.3h1.6v7.4c0,1.1-0.2,2.1-0.5,2.8s-0.9,1.3-1.6,1.7
			c-0.7,0.4-1.7,0.6-2.8,0.6C581.8,321.3,580.8,321.1,580.1,320.7z"/>
		<path class="st2" d="M595.7,308.8h5c0.9,0,1.7,0.1,2.4,0.4c0.7,0.3,1.1,0.7,1.5,1.3c0.3,0.6,0.5,1.3,0.5,2.1
			c0,0.9-0.2,1.6-0.5,2.3c-0.3,0.7-0.8,1.1-1.5,1.4c-0.7,0.3-1.4,0.5-2.4,0.5h-3.4v4.1h-1.6V308.8z M602.7,314.8
			c0.5-0.5,0.7-1.2,0.7-2.1c0-0.8-0.2-1.4-0.7-1.9c-0.5-0.4-1.1-0.6-2-0.6h-3.4v5.3h3.3C601.5,315.5,602.2,315.3,602.7,314.8z"/>
	</g>
</g>
</svg>
