<?xml version="1.0" encoding="utf-8"?>
<!-- Generator: Adobe Illustrator 26.2.1, SVG Export Plug-In . SVG Version: 6.00 Build 0)  -->
<svg version="1.1" id="Layer_1" xmlns="http://www.w3.org/2000/svg" xmlns:xlink="http://www.w3.org/1999/xlink" x="0px" y="0px"
	 viewBox="0 0 1587.2 290.2" style="enable-background:new 0 0 1587.2 290.2;" xml:space="preserve">
<style type="text/css">
	.st0{fill:#FFFFFF;}
	.st1{fill:#FFDD00;}
</style>
<g>
	<path class="st0" d="M52.7,214.8L76.4,103H39l8-37.8h126.6l-8,37.8h-37.4l-23.9,111.8H52.7z"/>
	<path class="st0" d="M143.1,199.7c2.8-13.1,12.1-18.9,30.8-18.9c18.5,0,25.1,5.8,22.5,18.9c-2.8,13.3-11.9,18.9-30.4,18.9
		C147.1,218.6,140.3,213,143.1,199.7z"/>
	<path class="st0" d="M286.2,146.4l2.8-13.3c10.7-48.4,40.8-71.4,88.2-71.4c44.6,0,66.5,22.5,59.5,58.9l-0.2,1.6h-51.1l0.8-4
		c1.4-11.1-3.4-17.5-16.9-17.5c-12.7,0-23.3,7.4-27.9,28.3l-4.6,22.3c-5,22.9,3.4,30.4,16.9,30.4c12.1,0,19.9-6.4,23.3-16.3l0.2-0.8
		h-22.5l6.4-30.4h73l-1.8,7.8c-11.9,53.9-39.4,76.4-87.2,76.4C297.7,218.6,275.4,195.5,286.2,146.4z"/>
	<path class="st0" d="M568.8,144.4l-15.1,70.4h-47.2l1.8-8.4l3.8-10.5h-1c-9.2,13.5-23.3,22.7-42.4,22.7c-28.5,0-38.2-16.3-33.6-38
		l0.6-2c4.6-22.1,23.3-35.6,57.1-35.6c11.7,0,21.3,2,27.9,4.2l1.6-8.2c1.8-8.6-0.2-15.9-11.5-15.9c-10.1,0-15.5,6.4-16.9,12.9
		l-0.6,2h-45.6l0.4-1.2c5.4-22.5,24.9-45.2,70.4-45.2C565.8,91.5,575.5,112.7,568.8,144.4z M517.2,164.1l-0.2,0.8
		c-3.8-1.8-10.3-3.4-16.3-3.4c-12.1,0-16.3,6.2-17.5,12.1l-0.4,2c-1.2,6,1.6,10.3,11.3,10.3C507.1,185.8,514.4,176.8,517.2,164.1z"
		/>
	<path class="st0" d="M716.2,140.8l-15.7,74H653l14.7-68.7c2.8-12.9-1.2-18.9-11.1-18.9c-12.3,0-20.1,10.3-22.9,22.9L620,214.8
		h-47.4L598,95.4h47.4l-1.8,8.2l-4.2,12.5h0.6c11.3-16.3,26.5-24.5,44-24.5C710.1,91.5,723.8,105.6,716.2,140.8z"/>
	<path class="st0" d="M822.1,95.4h47.2l-20.7,97.3c-8.8,42.2-35.6,61.7-82.4,61.7c-18.5,0-33.4-2.2-46-6l8.4-31
		c9.4,3.2,25.1,5,36.8,5c19.9,0,31-7.4,34.6-20.9v-0.4l3.6-12.5h-1c-10.3,14.1-25.1,21.3-41.6,21.3c-30.2,0-40.6-20.7-33-57.7
		l0.8-3.6c7.6-37.8,27.1-57.1,57.3-57.1c16.1,0,28.7,7.4,32.6,23.1h1l0.8-11.9L822.1,95.4z M811.2,146.2c2-9.8-0.2-19.9-13.1-19.9
		c-12.7,0-18.9,9.2-21.3,20.9l-2.2,11.1c-2.4,11.1-0.4,18.7,12.5,18.7c12.5,0,19.7-8.8,21.7-19.5L811.2,146.2z"/>
	<path class="st0" d="M999.8,144.4l-15.1,70.4h-47.2l1.8-8.4l3.8-10.5h-1c-9.2,13.5-23.3,22.7-42.4,22.7c-28.5,0-38.2-16.3-33.6-38
		l0.6-2c4.6-22.1,23.3-35.6,57.1-35.6c11.7,0,21.3,2,27.9,4.2l1.6-8.2c1.8-8.6-0.2-15.9-11.5-15.9c-10.1,0-15.5,6.4-16.9,12.9
		l-0.6,2h-45.6l0.4-1.2c5.4-22.5,24.9-45.2,70.4-45.2C996.8,91.5,1006.4,112.7,999.8,144.4z M948.1,164.1l-0.2,0.8
		c-3.8-1.8-10.3-3.4-16.3-3.4c-12.1,0-16.3,6.2-17.5,12.1l-0.4,2c-1.2,6,1.6,10.3,11.3,10.3C938.1,185.8,945.3,176.8,948.1,164.1z"
		/>
	<path class="st0" d="M1113.3,60.8h47.4l-32.8,154h-47.4l1.6-7.4l4-12.1h-1c-10.5,15.9-26.3,23.3-42.2,23.3
		c-30.2,0-40.2-21.1-31.8-60.7l1.2-6.6c8-38.6,27.3-59.7,57.7-59.7c15.9,0,27.9,7.2,32.2,23.1h1l1.2-12.7L1113.3,60.8z M1095,147.6
		c2.4-11.5-0.2-21.3-12.7-21.3c-13.1,0-19.1,10.1-21.7,22.3l-2.8,13.3c-3,13.5-1,21.7,11.9,21.7c12.1,0,19.5-9,22.1-20.7L1095,147.6
		z"/>
	<path class="st0" d="M1291.4,140.6l-15.7,74.2h-47.6l14.7-68.7c2.8-13.1-1.2-18.9-10.9-18.9c-12.5,0-20.3,10.3-22.9,22.7
		l-13.9,64.9h-47.4l32.8-154h47.2l-9,43l-4.2,12.1h0.8c11.5-17.1,27.3-24.3,43.8-24.3C1286,91.5,1298.9,105.6,1291.4,140.6z"/>
	<path class="st0" d="M1430.7,144.4l-15.1,70.4h-47.2l1.8-8.4l3.8-10.5h-1c-9.2,13.5-23.3,22.7-42.4,22.7c-28.5,0-38.2-16.3-33.6-38
		l0.6-2c4.6-22.1,23.3-35.6,57.1-35.6c11.7,0,21.3,2,27.9,4.2l1.6-8.2c1.8-8.6-0.2-15.9-11.5-15.9c-10.1,0-15.5,6.4-16.9,12.9
		l-0.6,2h-45.6l0.4-1.2c5.4-22.5,24.9-45.2,70.4-45.2C1427.7,91.5,1437.3,112.7,1430.7,144.4z M1379,164.1l-0.2,0.8
		c-3.8-1.8-10.3-3.4-16.3-3.4c-12.1,0-16.3,6.2-17.5,12.1l-0.4,2c-1.2,6,1.6,10.3,11.3,10.3C1369,185.8,1376.2,176.8,1379,164.1z"/>
	<path class="st0" d="M1552.5,93.2l-8,38.8c-4.8-1-9.6-1.4-14.7-1.4c-18.9,0-32.4,10.9-36.8,32.2l-11.1,52.1h-47.4l25.3-119.4h47.4
		l-1.8,8.2l-4.4,12.7h0.8c9-15.5,22.9-24.7,38.6-24.7C1545.3,91.5,1549.5,92.1,1552.5,93.2z"/>
</g>
<g>
	<path class="st1" d="M490.8,59.7c-1.5,0.5-4.4,1.4-7.8,1.4c-3.8,0-7-1-9.5-3.3c-2.2-2.1-3.5-5.5-3.5-9.4c0-7.5,5.2-13.1,13.7-13.1
		c2.9,0,5.2,0.6,6.3,1.2l-0.8,2.7c-1.4-0.6-3-1.1-5.6-1.1c-6.2,0-10.2,3.8-10.2,10.2s3.9,10.2,9.8,10.2c2.1,0,3.6-0.3,4.4-0.7v-7.5
		h-5.1v-2.6h8.3L490.8,59.7L490.8,59.7z"/>
	<path class="st1" d="M506.9,48.3c0-2.1,0-4-0.2-5.7h2.9l0.1,3.6h0.2c0.8-2.4,2.8-4,5-4c0.4,0,0.6,0,0.9,0.1v3.1
		c-0.3-0.1-0.7-0.1-1.1-0.1c-2.3,0-4,1.8-4.4,4.2c-0.1,0.5-0.2,1-0.2,1.5v9.7h-3.3L506.9,48.3L506.9,48.3z"/>
	<path class="st1" d="M546.5,51.6c0,6.7-4.7,9.6-9,9.6c-4.9,0-8.7-3.6-8.7-9.3c0-6.1,4-9.6,9-9.6C543,42.2,546.5,46,546.5,51.6z
		 M532.1,51.8c0,4,2.3,7,5.5,7s5.5-3,5.5-7.1c0-3.1-1.5-7-5.4-7C533.8,44.7,532.1,48.3,532.1,51.8z"/>
	<path class="st1" d="M577.1,55.8c0,1.9,0,3.5,0.2,5h-2.9l-0.2-3h-0.1c-0.9,1.5-2.8,3.4-6,3.4c-2.9,0-6.3-1.6-6.3-8V42.6h3.3v10.1
		c0,3.5,1.1,5.8,4.1,5.8c2.2,0,3.8-1.5,4.4-3c0.2-0.5,0.3-1.1,0.3-1.7V42.6h3.3L577.1,55.8L577.1,55.8z"/>
	<path class="st1" d="M593.9,48.6c0-2.3-0.1-4.2-0.2-5.9h3l0.2,3.1h0.1c1.4-2.2,3.5-3.5,6.5-3.5c4.4,0,7.7,3.7,7.7,9.2
		c0,6.5-4,9.8-8.3,9.8c-2.4,0-4.5-1.1-5.6-2.9h-0.1v9.9h-3.3L593.9,48.6L593.9,48.6z M597.1,53.4c0,0.5,0.1,0.9,0.2,1.4
		c0.6,2.3,2.6,3.9,5,3.9c3.5,0,5.5-2.9,5.5-7c0-3.6-1.9-6.8-5.4-6.8c-2.3,0-4.4,1.6-5,4.1c-0.1,0.4-0.2,0.9-0.2,1.4L597.1,53.4
		L597.1,53.4z"/>
	<path class="st1" d="M663.5,60c-1.2,0.6-3.6,1.2-6.7,1.2c-7.1,0-12.5-4.5-12.5-12.8c0-7.9,5.4-13.3,13.2-13.3c3.2,0,5.1,0.7,6,1.1
		l-0.8,2.7c-1.2-0.6-3-1.1-5.1-1.1c-5.9,0-9.9,3.8-9.9,10.4c0,6.2,3.6,10.2,9.7,10.2c2,0,4-0.4,5.3-1.1L663.5,60z"/>
	<path class="st1" d="M691.9,48.9h-9.8V58h11v2.7h-14.2V35.5h13.7v2.7h-10.4v8h9.8L691.9,48.9L691.9,48.9z"/>
	<path class="st1" d="M730.2,47.9c0,8.7-5.3,13.3-11.7,13.3c-6.7,0-11.4-5.2-11.4-12.8c0-8,5-13.3,11.7-13.3
		C725.7,35.1,730.2,40.4,730.2,47.9z M710.6,48.3c0,5.4,2.9,10.2,8.1,10.2c5.2,0,8.1-4.8,8.1-10.5c0-5-2.6-10.3-8.1-10.3
		C713.3,37.8,710.6,42.7,710.6,48.3z"/>
</g>
</svg>
