<?xml version="1.0" encoding="utf-8"?>
<!-- Generator: Adobe Illustrator 28.2.0, SVG Export Plug-In . SVG Version: 6.00 Build 0)  -->
<svg version="1.1" id="Layer_1" xmlns="http://www.w3.org/2000/svg" xmlns:xlink="http://www.w3.org/1999/xlink" x="0px" y="0px"
	 viewBox="0 0 135 135" style="enable-background:new 0 0 135 135;" xml:space="preserve">
<g>
	<g>
		<g>
			<g>
				<g>
					<g>
						<g>
							<path d="M74.39,65.58c0,0.11-0.09,0.21-0.21,0.21H60.65c-0.11,0-0.21-0.09-0.21-0.21v-5.7c0-0.11-0.09-0.21-0.21-0.21h-3.78
								c-0.11,0-0.21,0.09-0.21,0.21v15.23c0,0.11,0.09,0.21,0.21,0.21h3.78c0.11,0,0.21-0.09,0.21-0.21v-5.9
								c0-0.11,0.09-0.21,0.21-0.21h13.53c0.11,0,0.21,0.09,0.21,0.21v5.9c0,0.11,0.09,0.21,0.21,0.21h3.78
								c0.11,0,0.21-0.09,0.21-0.21V59.89c0-0.11-0.09-0.21-0.21-0.21h-3.78c-0.11,0-0.21,0.09-0.21,0.21V65.58z"/>
						</g>
					</g>
				</g>
			</g>
			<g>
				<path d="M88.63,72.09v-2.94c0-0.11,0.09-0.21,0.21-0.21h8.14c0.11,0,0.21-0.09,0.21-0.21V66c0-0.11-0.09-0.21-0.21-0.21h-8.14
					c-0.11,0-0.21-0.09-0.21-0.21v-2.63c0-0.11,0.09-0.21,0.21-0.21h12.08c0.11,0,0.21-0.09,0.21-0.21v-2.66
					c0-0.11-0.09-0.21-0.21-0.21H88.63h-3.98c-0.11,0-0.21,0.09-0.21,0.21v15.23c0,0.11,0.09,0.21,0.21,0.21h3.98h12.91
					c0.11,0,0.21-0.09,0.21-0.21V72.5c0-0.11-0.09-0.21-0.21-0.21h-12.7C88.72,72.29,88.63,72.2,88.63,72.09z"/>
			</g>
			<g>
				<path d="M51.57,59.89c0-0.11-0.09-0.21-0.21-0.21H42.5h-4.19h-8.86c-0.11,0-0.21,0.09-0.21,0.21v2.81
					c0,0.11,0.09,0.21,0.21,0.21h8.66c0.11,0,0.21,0.09,0.21,0.21v12.01c0,0.11,0.09,0.21,0.21,0.21h3.78
					c0.11,0,0.21-0.09,0.21-0.21V63.1c0-0.11,0.09-0.21,0.21-0.21h8.66c0.11,0,0.21-0.09,0.21-0.21V59.89z"/>
			</g>
			<g>
				<path d="M25.15,75.32h4.06c0.16,0,0.26-0.18,0.17-0.32L19.37,59.79c-0.04-0.06-0.1-0.09-0.17-0.09h-3.91
					c-0.07,0-0.13,0.03-0.17,0.09L5.03,75c-0.09,0.14,0.01,0.32,0.17,0.32h3.95c0.07,0,0.13-0.03,0.17-0.09l1.93-2.95
					c0.04-0.06,0.1-0.09,0.17-0.09H22.9c0.07,0,0.13,0.04,0.17,0.09l1.91,2.95C25.02,75.28,25.08,75.32,25.15,75.32z M13.64,68.65
					l3.39-5.19c0.08-0.12,0.26-0.12,0.34,0l3.35,5.19c0.09,0.14-0.01,0.32-0.17,0.32h-6.75C13.64,68.96,13.55,68.78,13.64,68.65z"/>
			</g>
			<g>
				<path d="M126.52,69.61c1.42-1,2.34-2.65,2.33-4.52c-0.03-3.02-2.58-5.41-5.6-5.41h-11.97h-3.99c-0.11,0-0.21,0.09-0.21,0.21
					V70.6v4.52c0,0.11,0.09,0.21,0.21,0.21h3.78c0.11,0,0.21-0.09,0.21-0.21V70.8c0-0.11,0.09-0.21,0.21-0.21h10.98
					c0.07,0,0.13,0.03,0.17,0.09l3.11,4.54c0.04,0.06,0.1,0.09,0.17,0.09h3.89c0.17,0,0.26-0.19,0.17-0.32l-3.5-5.11
					C126.4,69.8,126.42,69.67,126.52,69.61z M122.63,67.35h-9.66c-1.21,0-2.26-0.93-2.3-2.14c-0.04-1.25,0.96-2.27,2.21-2.27l9.66,0
					c1.21,0,2.26,0.93,2.3,2.14C124.87,66.32,123.87,67.35,122.63,67.35z"/>
			</g>
		</g>
	</g>
</g>
</svg>
