<?xml version="1.0" encoding="UTF-8"?>
<svg id="Layer_1" data-name="Layer 1" xmlns="http://www.w3.org/2000/svg" viewBox="0 0 300 150">
  <defs>
    <style>
      .cls-1 {
        fill: none;
      }

      .cls-1, .cls-2, .cls-3 {
        stroke-width: 0px;
      }

      .cls-2 {
        fill-rule: evenodd;
      }

      .cls-2, .cls-3 {
        fill: #e3282d;
      }
    </style>
  </defs>
  <g>
    <path class="cls-2" d="m278.72,65.87l-12.27,17.66,12.27,17.54h-6l-12.22-17.58,12.17-17.62h6.05Zm-29.39,0h-1.07l11.1,15.99,11.11-15.99h-6.21l-4.96,7.21-4.9-7.21h-5.08Zm-1.01,35.2l11.03-15.89,11.05,15.89h-6.14l-4.91-7.21-4.95,7.21h-6.09Zm-8.29-35.19l12.41,17.65-12.25,17.54h5.81l12.23-17.58-12.33-17.61h-5.87Z"/>
    <path class="cls-2" d="m40.24,71.69c-5.99,0-10.85,4.86-10.85,10.85s4.86,10.85,10.85,10.85,10.85-4.86,10.85-10.85-4.86-10.85-10.85-10.85m0,16.43c-3.08,0-5.58-2.5-5.58-5.58s2.51-5.59,5.58-5.59,5.58,2.5,5.58,5.59-2.5,5.58-5.58,5.58"/>
    <path class="cls-2" d="m144.43,71.69c-5.99,0-10.85,4.86-10.85,10.85s4.86,10.85,10.85,10.85,10.84-4.86,10.84-10.85-4.86-10.85-10.84-10.85m0,16.43c-3.09,0-5.59-2.5-5.59-5.58s2.5-5.59,5.59-5.59,5.58,2.5,5.58,5.59-2.5,5.58-5.58,5.58"/>
    <path class="cls-2" d="m144.43,63.98c-10.34,0-18.73,8.38-18.73,18.72s8.39,18.71,18.73,18.71,18.72-8.37,18.72-18.71-8.38-18.72-18.72-18.72m0,32.4c-7.56,0-13.68-6.13-13.68-13.68s6.12-13.68,13.68-13.68,13.67,6.13,13.67,13.68-6.13,13.68-13.67,13.68"/>
    <path class="cls-2" d="m46.13,48.51v16c-1.86-.61-3.83-.94-5.88-.94-10.47,0-18.96,8.5-18.96,18.97s8.49,18.96,18.96,18.96c2.05,0,4.02-.33,5.88-.93v.51h5.06v-11.4c-.16.24-.31.47-.48.7-.05.05-.09.11-.14.17-.13.16-.26.32-.39.47-.04.05-.1.11-.15.18-.14.14-.28.3-.43.45-.05.05-.09.09-.14.14-.16.15-.31.3-.47.46-.04.03-.07.06-.11.1-.18.15-.37.32-.55.45-.02.02-.06.05-.08.07-.2.15-.41.31-.62.45-.01,0-.03.02-.06.03-.22.15-.45.31-.68.44,0,0-.01,0-.01.01-.25.14-.5.28-.74.41-1.78.9-3.77,1.4-5.88,1.4-7.22,0-13.08-5.86-13.08-13.07s5.86-13.08,13.08-13.08c2.11,0,4.1.51,5.88,1.4.24.13.49.27.74.41,0,0,.01,0,.01.01.24.14.46.29.68.44.03.02.05.03.06.04.22.15.42.29.62.45.03.02.06.05.08.07.18.15.37.29.55.46.04.02.07.06.11.1.17.14.32.3.47.45.05.04.1.08.14.14.14.14.29.3.43.46.04.05.1.11.15.16.13.16.26.31.39.48.04.05.09.12.14.18.17.22.32.45.48.68v-26.88h-5.06Z"/>
    <rect class="cls-3" x="53.01" y="48.51" width="5.07" height="52.57"/>
    <path class="cls-2" d="m236.82,90.94c-2.5,3.3-6.47,5.44-10.93,5.44-7.55,0-13.68-6.13-13.68-13.68s6.13-13.68,13.68-13.68,13.68,6.13,13.68,13.68c0,.47-.01.94-.07,1.41h5.05c.04-.47.07-.93.07-1.41,0-10.34-8.38-18.72-18.73-18.72s-18.7,8.38-18.7,18.72,8.37,18.71,18.7,18.71c6.31,0,11.89-3.12,15.27-7.89l-4.34-2.59Z"/>
    <path class="cls-2" d="m225.89,71.69c-5.97,0-10.83,4.86-10.83,10.85s4.85,10.85,10.83,10.85c3.38,0,6.4-1.55,8.38-3.96l-4.61-2.76c-1,.9-2.31,1.45-3.77,1.45-2.52,0-4.66-1.68-5.35-4h16.08c.08-.51.12-1.04.12-1.57,0-5.99-4.85-10.85-10.85-10.85m0,5.26c2.27,0,4.21,1.35,5.09,3.28h-10.17c.88-1.94,2.83-3.28,5.08-3.28"/>
    <rect class="cls-3" x="191.46" y="48.51" width="5.07" height="52.57"/>
    <rect class="cls-3" x="198.39" y="48.51" width="5.08" height="52.57"/>
    <polygon class="cls-2" points="163.83 72.71 163.83 77.78 169.01 77.78 169.01 101.07 174.08 101.07 174.08 72.71 163.83 72.71"/>
    <path class="cls-2" d="m169.56,65.44h-5.73v5.07h10.25c-.25-15.38,10.55-16.17,12.16-16.21v-5.27c-13.29.07-16.17,10.08-16.68,16.4"/>
    <path class="cls-2" d="m186.25,61.83v-4.88c-11.66.62-10.11,13.56-10.11,13.56h10.11v-5.07h-5.19c1.31-3.48,4.36-3.64,5.19-3.61"/>
    <polygon class="cls-2" points="186.25 72.71 176 72.71 176 101.07 181.06 101.07 181.06 77.78 186.25 77.78 186.25 72.71"/>
    <rect class="cls-3" x="89.6" y="65.87" width="5.08" height="35.61"/>
    <path class="cls-2" d="m82.39,65.87v22.07c0,2.19-1.81,3.96-4.05,3.96s-4.03-1.77-4.03-3.96h0v-22.07h-5.07v22.35l.02-.02c0,.24.01.49.04.73,0,.07.01.14.03.21.03.18.05.38.1.56,0,.06,0,.12.04.18.04.22.11.45.19.67.01.06.05.13.07.2.07.16.13.3.19.45.03.08.08.17.11.25.08.15.16.29.24.44.08.13.16.26.24.38.07.11.14.2.21.3.07.1.15.2.23.32.05.06.12.12.18.19.33.39.69.74,1.08,1.06.03.02.06.04.09.08.6.47,1.27.87,2,1.2h.01c1.2.54,2.58.84,4.03.84,1.66,0,3.24-.41,4.59-1.12h0c.52-.27.99-.58,1.43-.94.04-.03.08-.06.11-.08.38-.32.74-.67,1.06-1.04.07-.07.12-.13.18-.2.08-.11.19-.24.26-.34.08-.11.15-.18.21-.29.08-.12.15-.23.22-.35.09-.15.2-.3.28-.46.04-.08.08-.17.11-.24.08-.16.14-.3.19-.46.02-.07.06-.14.08-.2.08-.21.13-.44.19-.67.02-.06.02-.12.03-.17.04-.18.08-.38.1-.55,0-.08.02-.15.02-.22.03-.24.04-.48.04-.73v-22.34h-5.07Z"/>
    <polygon class="cls-2" points="84.95 97.26 82.39 98.75 82.39 101.49 87.46 101.49 87.46 93.8 84.95 97.26"/>
    <path class="cls-2" d="m87.46,93.81c-.21.4-.9,1.21-.9,1.21-2.06,2.32-5,3.77-8.26,3.77-5.76,0-10.51-4.52-11.2-10.35v-2.9h0v-19.66h-5.07v21.38h.03c0,.26,0,.52.02.79.01.07.01.17.02.25.01.17.02.35.04.52.01.09.01.19.03.3.02.15.04.31.07.47.01.1.03.19.05.3.03.15.06.31.09.46.02.09.04.19.07.29.03.16.07.29.11.45.03.09.05.18.07.27.05.17.11.31.16.47.02.09.05.16.07.23.07.19.14.38.22.55.02.06.03.1.05.14.18.47.4.93.63,1.35.03.05.05.11.09.16.09.17.18.32.28.48.04.06.08.12.12.19.09.14.19.29.28.44.04.06.08.13.13.19.1.13.18.26.3.4.04.06.09.13.13.19.11.13.21.26.32.39.04.05.09.11.14.15.12.15.24.29.37.43.04.04.08.08.11.11.17.18.33.35.51.51,2.45,2.33,5.71,3.73,9.3,3.73,4.34,0,8.22-2.08,10.73-5.32.33-.5.89-2.3.9-2.36"/>
    <path class="cls-2" d="m124.06,65.89s-7.77-.04-13.02,3.69v-3.68h-5.08v16.54l-.02.16s.01-.03.02-.04v.04c1.17-3.08,3.01-5.35,5.08-7.01v-.03c5.66-4.6,13.02-4.7,13.02-4.7v-4.96Z"/>
    <rect class="cls-3" x="98.6" y="65.87" width="5.08" height="35.61"/>
    <path class="cls-2" d="m105.98,92.3v9.18h5.07v-12.67c1.45-11.26,12.93-10.76,12.93-10.76v-5.26c-19.26.88-18.01,19.51-18.01,19.51"/>
  </g>
  <rect class="cls-1" x="0" width="300" height="150"/>
</svg>