<?xml version="1.0" encoding="UTF-8"?>
<svg id="Layer_1" data-name="Layer 1" xmlns="http://www.w3.org/2000/svg" viewBox="0 0 300 150">
  <defs>
    <style>
      .cls-1 {
        fill: none;
      }

      .cls-1, .cls-2, .cls-3 {
        stroke-width: 0px;
      }

      .cls-2 {
        fill: #2a5caa;
      }

      .cls-3 {
        fill: #d71920;
      }
    </style>
  </defs>
  <g>
    <g>
      <g>
        <polygon class="cls-3" points="75.71 72.62 66.82 72.62 70.82 66.63 79.67 66.63 75.71 72.62"/>
        <polygon class="cls-3" points="62.83 78.6 53.86 78.6 57.86 72.62 66.82 72.62 62.83 78.6"/>
        <polygon class="cls-3" points="67.8 84.59 58.83 84.59 62.83 78.6 71.79 78.6 67.8 84.59"/>
        <polygon class="cls-3" points="55.37 89.78 47.58 89.78 51.05 84.58 58.83 84.58 55.37 89.78"/>
        <polygon class="cls-3" points="57.85 72.62 48.89 72.62 52.89 66.63 61.85 66.63 57.85 72.62"/>
        <polygon class="cls-3" points="39.93 72.62 30.96 72.62 34.96 66.63 43.92 66.63 39.93 72.62"/>
      </g>
      <polygon class="cls-3" points="44.9 78.6 35.93 78.6 39.93 72.62 48.89 72.62 44.9 78.6"/>
      <g>
        <polygon class="cls-2" points="72.34 77.74 64.63 77.74 67.35 73.57 75.06 73.57 72.34 77.74"/>
        <polygon class="cls-2" points="64.43 89.76 56.71 89.76 59.43 85.59 67.14 85.59 64.43 89.76"/>
      </g>
      <g>
        <g>
          <path class="cls-2" d="m195.53,80.72l.94-1.43,1.19-1.79h0l.39-.6h-11.5l-2.52,3.82h3.62l-3.57,5.38c-.33.49-.49.61-.49.61,0,0-.17.09-.66.09h-4.38c-.25,0-.38-.02-.45-.04.03-.08.11-.23.28-.49l10.44-15.74c.33-.5.48-.61.48-.61h0s.17-.08.67-.08h4.38c.27,0,.39.03.45.04-.03.07-.1.22-.28.49l-3.08,4.64h7.88l3.22-4.86c.72-1.09.99-1.94.78-2.52-.2-.58-.85-.87-1.93-.87h-14.71c-2.11,0-3.97,1.11-5.36,3.22l-10.96,16.52c-.72,1.09-.99,1.94-.78,2.52.2.58.85.87,1.93.87h14.71c2.11,0,3.97-1.11,5.36-3.22l3.94-5.94h0Z"/>
          <path class="cls-2" d="m119.14,66.72l-8.88,13.39-3.95,5.96c-.33.49-.49.61-.49.61,0,0-.17.09-.66.09h-4.66c-.25,0-.38-.02-.45-.04.03-.08.11-.23.28-.49l12.95-19.52h-7.88l-13.09,19.74c-.72,1.09-.99,1.94-.78,2.52.2.58.85.87,1.93.87h14.99c2.11,0,3.97-1.11,5.36-3.22l13.21-19.92h-7.88Z"/>
          <path class="cls-2" d="m177.33,67.61c-.2-.58-.85-.87-1.93-.87h-14.74c-2.11,0-3.97,1.11-5.36,3.22l-10.96,16.52c-.72,1.09-.99,1.94-.78,2.52.2.58.85.87,1.93.87h14.74c2.11,0,3.97-1.11,5.36-3.22l10.96-16.52c.72-1.09.99-1.94.78-2.52Zm-8.77,2.74l-10.44,15.74h0c-.33.49-.49.61-.49.61h0s-.17.09-.66.09h-4.45c-.25,0-.38-.02-.45-.04.03-.08.11-.23.28-.49l10.44-15.74c.33-.5.48-.61.48-.61h0s.17-.08.67-.08h4.45c.27,0,.39.03.45.04-.03.07-.1.22-.28.49Z"/>
          <polygon class="cls-2" points="235.53 66.74 220.19 89.88 228.32 89.88 243.66 66.74 235.53 66.74"/>
          <path class="cls-2" d="m222.8,78.72l5.69-8.58c.72-1.09.99-1.94.78-2.52-.2-.58-.85-.87-1.93-.87h-18.33l-15.34,23.14h7.88l5.27-7.94h1.82l-.53,7.94h8.25l.24-7.94h.83c2.11,0,3.97-1.11,5.36-3.22Zm-2.33-8.36l-5.17,7.8c-.33.49-.49.6-.49.6,0,0-.17.1-.66.1h-5.29l5.1-7.69-.05.03-1.29-1.37h3.45l-.02.02h4.25c.27,0,.39.03.45.04-.03.07-.1.22-.28.49Z"/>
          <path class="cls-2" d="m145.53,78.74l1.49-2.25,4.2-6.33c.72-1.09.99-1.94.78-2.52-.2-.58-.85-.87-1.93-.87h-18.33l-15.34,23.14h7.88l5.27-7.94h1.82l-.53,7.94h8.25l.24-7.94h.83c2.11,0,3.97-1.11,5.36-3.22Zm-2.33-8.36l-5.17,7.8c-.33.49-.49.6-.49.6,0,0-.17.1-.66.1h-5.29l5.1-7.69-.04.03-1.29-1.37h3.45l-.03.02h4.25c.27,0,.39.03.45.04-.03.07-.1.22-.28.49Z"/>
          <path class="cls-2" d="m268.97,67.61c-.2-.58-.85-.87-1.93-.87h-18.33l-15.34,23.14h7.88l4.79-7.23h10.62c2.11,0,3.97-1.11,5.36-3.22l6.16-9.29c.72-1.09.99-1.94.78-2.52Zm-8.8,2.74l-5.64,8.51c-.33.5-.49.6-.49.6,0,0-.17.1-.66.1h-5.29l5.57-8.4-.05.03-1.29-1.37h3.45l-.02.02h4.25c.27,0,.39.03.45.04-.03.07-.1.22-.28.49Z"/>
          <polygon class="cls-2" points="90.9 80.12 93.42 76.28 82.8 76.3 86.36 71.05 85.08 69.69 98.62 69.69 100.57 66.63 81.51 66.63 66.25 89.76 85.93 89.76 87.89 86.72 76.01 86.64 80.32 80.1 90.9 80.12"/>
        </g>
        <g>
          <polygon class="cls-2" points="114.58 63.94 122.19 52.17 128.23 52.17 131.05 48.07 113.69 48.09 110.87 52.19 117.11 52.18 109.45 63.94 114.58 63.94"/>
          <path class="cls-2" d="m129.95,59.42l-1.25,4.14-.04.13.07.09c.14.19,3.41.25,3.46.25h0c1.44-.01,2.6-.29,3.75-.92,1.17-.63,2.22-1.78,3.14-2.78.3-.33.59-.64.88-.94l11.14-11.35h-5.36s-10.49,10.68-10.49,10.68l3.37-10.67h-5.11s-.09.31-.09.31c-1.08,3.46-3.07,9.84-3.41,10.89l-.05.16Z"/>
          <path class="cls-2" d="m152.06,58.02h5.9c1.12,0,.77.82.24,1.29-.52.47-1.53.44-1.53.44h-8.78l-3.43,3.97s9.08.19,12.91.19,5.38-3.04,6.91-6.36c1.53-3.32-2.56-3.65-2.56-3.65h-5.74c-.28,0-1.15-.19-.58-1.08.57-.89,1.17-.68,1.17-.68h8.72l3.55-4.13c-2.18.07-8.3.04-11.15.04s-5.18,1.03-7.7,5.15c-2.52,4.12,2.07,4.81,2.07,4.81Z"/>
        </g>
      </g>
    </g>
    <g>
      <path class="cls-2" d="m87.57,94.8l.34-1.58h7.15l-.34,1.58h-2.57l-1.46,6.98h-1.9l1.46-6.98h-2.69Z"/>
      <path class="cls-2" d="m97.43,93.22l-.7,3.29h3.47l.7-3.29h1.9l-1.81,8.56h-1.9l.78-3.69h-3.47l-.78,3.69h-1.88l1.8-8.56h1.9Z"/>
      <path class="cls-2" d="m110.47,93.22l-.32,1.58h-4.65l-.38,1.84h4.31l-.31,1.46h-4.31l-.44,2.1h4.73l-.34,1.58h-6.6l1.79-8.56h6.54Z"/>
      <path class="cls-2" d="m117.9,93.22c.43,0,.82.03,1.16.08.34.06.64.16.88.31.24.15.42.35.55.61.13.26.19.59.19,1,0,.24-.04.47-.11.7-.07.23-.18.43-.32.61-.14.18-.31.33-.5.45-.2.12-.42.2-.68.23v.02c.41.11.72.33.94.64.22.32.33.68.33,1.1,0,.46-.09.87-.27,1.22-.18.35-.42.64-.73.88-.3.23-.65.41-1.04.53-.39.12-.8.18-1.24.18h-4.56l1.79-8.56h3.6Zm-.91,7.1c.43,0,.79-.12,1.06-.35.28-.23.41-.58.41-1.03,0-.22-.05-.4-.14-.53-.09-.13-.21-.23-.35-.29-.14-.07-.3-.11-.48-.13-.18-.02-.35-.02-.52-.02h-1.85l-.5,2.35h2.36Zm.54-3.63c.34,0,.64-.09.89-.28.25-.19.38-.47.38-.85,0-.34-.09-.57-.27-.69-.18-.12-.42-.19-.73-.19h-1.99l-.42,2h2.13Z"/>
      <path class="cls-2" d="m124.39,93.22l-1.81,8.56h-1.88l1.8-8.56h1.9Z"/>
      <path class="cls-2" d="m127.43,93.22l-.74,3.59h.02l3.89-3.59h2.49l-4.11,3.53,2.63,5.04h-2.12l-1.96-3.85-1.31,1.14-.56,2.71h-1.88l1.78-8.56h1.88Z"/>
      <path class="cls-2" d="m140.27,93.22l-.32,1.58h-4.65l-.38,1.84h4.31l-.31,1.46h-4.31l-.44,2.1h4.73l-.34,1.58h-6.6l1.79-8.56h6.54Z"/>
      <path class="cls-2" d="m143.01,94.8l.34-1.58h7.15l-.34,1.58h-2.57l-1.46,6.98h-1.9l1.46-6.98h-2.69Z"/>
      <path class="cls-2" d="m149.94,93.22h1.93l1.28,3.65,2.66-3.65h2.22l-4.17,5.33-.66,3.24h-1.9l.68-3.32-2.05-5.24Z"/>
      <path class="cls-2" d="m162.34,93.22c.38,0,.73.03,1.05.1s.59.2.81.38c.22.18.4.41.52.7.12.29.18.64.18,1.06,0,.29-.05.56-.14.83-.1.26-.23.5-.41.7-.18.2-.38.37-.62.51-.24.14-.5.22-.79.26v.02c.35.11.59.31.71.58.12.28.18.59.18.93,0,.19,0,.42-.03.69-.02.27-.03.53-.03.8,0,.19,0,.37.02.55.02.17.05.32.1.45h-1.84c-.02-.1-.04-.2-.06-.29-.02-.09-.02-.19-.02-.28,0-.29.02-.58.05-.87.03-.29.05-.58.05-.87,0-.21-.03-.38-.09-.51-.06-.13-.14-.24-.25-.32-.11-.08-.24-.13-.39-.16-.15-.03-.32-.04-.5-.04h-1.78l-.71,3.35h-1.87l1.79-8.56h4.09Zm-1.27,3.87c.26,0,.5-.03.73-.08.23-.05.44-.13.62-.24.18-.11.32-.25.43-.42.11-.17.16-.38.16-.62s-.04-.42-.11-.56c-.08-.14-.18-.25-.31-.32-.13-.07-.28-.12-.44-.14-.17-.02-.34-.04-.53-.04h-1.79l-.5,2.41h1.74Z"/>
      <path class="cls-2" d="m172.97,93.22l-.32,1.58h-4.65l-.38,1.84h4.31l-.31,1.46h-4.31l-.44,2.1h4.73l-.34,1.58h-6.6l1.79-8.56h6.54Z"/>
      <path class="cls-2" d="m177.01,99.7c.09.2.22.37.38.49.17.12.37.21.6.26.23.05.48.08.76.08.19,0,.38-.02.58-.07.19-.05.37-.12.52-.22.16-.1.28-.22.38-.37.1-.15.15-.34.15-.55s-.06-.38-.19-.51c-.13-.13-.29-.25-.5-.34s-.44-.18-.7-.25c-.26-.07-.52-.15-.79-.23-.27-.08-.54-.18-.79-.29-.26-.11-.49-.26-.69-.43-.2-.18-.37-.39-.49-.65-.12-.26-.19-.57-.19-.94,0-.48.1-.89.3-1.22.2-.34.46-.61.78-.82.32-.21.68-.37,1.09-.47.4-.1.81-.15,1.23-.15.44,0,.85.05,1.24.15.39.1.73.26,1.02.49.29.22.52.51.7.86.17.35.26.77.26,1.27h-1.79c0-.24-.03-.44-.1-.61-.08-.16-.18-.3-.32-.4-.14-.1-.31-.18-.5-.22-.19-.04-.4-.07-.61-.07-.18,0-.35.02-.53.05-.18.04-.34.1-.49.18-.14.08-.26.19-.35.33-.09.14-.13.3-.13.5s.08.38.23.52c.16.14.34.26.56.35.22.09.45.16.68.22s.42.09.56.13c.34.09.64.19.92.31.28.12.52.27.73.45.2.18.36.41.47.67.11.26.17.59.17.97,0,.51-.11.95-.32,1.31-.21.36-.48.65-.82.88-.33.22-.71.39-1.12.49-.42.1-.83.15-1.24.15-1.2,0-2.09-.24-2.68-.73-.59-.49-.88-1.26-.88-2.3h1.79c-.02.3.02.56.11.76Z"/>
      <path class="cls-2" d="m187.52,93.22c.43,0,.83.04,1.19.13.36.08.68.22.94.41.26.19.47.45.62.77.15.32.22.72.22,1.19s-.09.89-.27,1.27c-.18.37-.42.69-.73.94-.31.26-.66.45-1.06.59-.4.14-.82.2-1.27.2h-2.33l-.65,3.07h-1.87l1.78-8.56h3.43Zm-.46,4.03c.48,0,.86-.12,1.13-.37.28-.24.41-.62.41-1.13,0-.22-.04-.39-.11-.53-.08-.14-.18-.25-.31-.32s-.27-.13-.43-.16c-.16-.03-.32-.05-.49-.05h-1.61l-.53,2.57h1.92Z"/>
      <path class="cls-2" d="m198.16,93.22l-.32,1.58h-4.65l-.38,1.84h4.31l-.31,1.46h-4.31l-.44,2.1h4.73l-.34,1.58h-6.6l1.79-8.56h6.54Z"/>
      <path class="cls-2" d="m203.63,95c-.28-.27-.65-.4-1.11-.4-.48,0-.9.11-1.25.33-.36.22-.65.5-.88.85-.23.35-.4.74-.51,1.16-.11.43-.17.85-.17,1.25,0,.3.04.58.11.84.08.26.19.5.35.7.16.2.36.37.6.49.24.12.54.18.88.18.26,0,.5-.05.73-.14.23-.09.43-.22.61-.37s.32-.34.44-.55c.12-.21.2-.42.24-.65h1.88c-.19.6-.42,1.11-.68,1.52-.26.42-.55.75-.88,1.01-.32.26-.68.45-1.08.56-.4.12-.83.17-1.29.17-1.22,0-2.15-.32-2.81-.97-.66-.65-.99-1.58-.99-2.81,0-.7.11-1.36.32-1.98.22-.62.53-1.17.93-1.65.4-.48.9-.85,1.48-1.13.58-.28,1.23-.42,1.95-.42.5,0,.96.07,1.38.2.42.14.79.34,1.1.61.31.27.55.6.71,1,.17.4.25.85.24,1.37h-1.88c0-.53-.14-.93-.43-1.19Z"/>
      <path class="cls-2" d="m209.46,93.22l-1.81,8.56h-1.88l1.8-8.56h1.9Z"/>
      <path class="cls-2" d="m214.94,93.22l1.43,8.56h-1.87l-.28-1.91h-3.2l-1.08,1.91h-1.98l5.05-8.56h1.93Zm-.89,5.25l-.42-3.41h-.02l-1.85,3.41h2.29Z"/>
      <path class="cls-2" d="m220.25,93.22l-1.46,6.98h4.14l-.34,1.58h-6.02l1.79-8.56h1.9Z"/>
      <path class="cls-2" d="m226.67,93.22l-1.81,8.56h-1.88l1.8-8.56h1.9Z"/>
      <path class="cls-2" d="m228.04,99.7c.09.2.22.37.38.49.17.12.37.21.6.26.23.05.48.08.76.08.19,0,.38-.02.58-.07.19-.05.37-.12.52-.22.16-.1.28-.22.38-.37.1-.15.15-.34.15-.55s-.06-.38-.19-.51c-.13-.13-.29-.25-.5-.34-.2-.1-.44-.18-.7-.25-.26-.07-.52-.15-.79-.23-.27-.08-.54-.18-.79-.29-.26-.11-.49-.26-.69-.43-.2-.18-.37-.39-.49-.65-.12-.26-.19-.57-.19-.94,0-.48.1-.89.3-1.22.2-.34.46-.61.78-.82.32-.21.68-.37,1.09-.47.4-.1.81-.15,1.23-.15.44,0,.85.05,1.24.15.39.1.73.26,1.02.49.29.22.52.51.7.86.17.35.26.77.26,1.27h-1.79c0-.24-.03-.44-.1-.61-.08-.16-.18-.3-.32-.4-.14-.1-.31-.18-.5-.22-.19-.04-.4-.07-.61-.07-.18,0-.35.02-.53.05-.18.04-.34.1-.49.18-.14.08-.26.19-.35.33-.09.14-.13.3-.13.5s.08.38.23.52c.16.14.34.26.56.35.22.09.45.16.68.22.23.05.42.09.56.13.34.09.64.19.92.31.28.12.52.27.73.45s.36.41.47.67c.11.26.17.59.17.97,0,.51-.11.95-.32,1.31-.21.36-.48.65-.82.88-.33.22-.71.39-1.12.49-.42.1-.83.15-1.24.15-1.2,0-2.09-.24-2.68-.73-.59-.49-.88-1.26-.88-2.3h1.79c-.02.3.02.56.11.76Z"/>
      <path class="cls-2" d="m234.02,94.8l.34-1.58h7.15l-.34,1.58h-2.57l-1.46,6.98h-1.9l1.46-6.98h-2.69Z"/>
    </g>
  </g>
  <rect class="cls-1" width="300" height="150"/>
</svg>