<svg xmlns="http://www.w3.org/2000/svg" width="542.12" height="293.47" viewBox="0 0 542.12 293.47"><rect width="542.12" height="293.47" fill="#fd0"/><path d="M135.88,111.57H151.7l3.09,33.35h-12l-.71-20.53.13-4.84h-.13l-1.84,4.8-9.41,20.57H118.71ZM132.65,132h13.58l-.63,7.44H130.28Z" fill="#fff"/><path d="M177.33,111.57h11.2l-.76,20.93-.31,3.72h.09l1.3-3.72,7.75-20.93h12.15l-1.21,20.98-.23,3.67h.05l1.25-3.72,7.98-20.93h11.38l-14.56,33.35H199.29l1.03-20.26.23-3.23h-.09l-1.12,3.23-7.4,20.26H177.73Z" fill="#fff"/><path d="M230.71,111.57h11.47l-7,33.35H223.63Zm7,12.28h12.86l-1.79,8.43H235.91Zm13-12.28h11.57l-7.13,33.35H243.62Z" fill="#fff"/><path d="M267.1,143.93a9.53,9.53,0,0,1-4.8-5.38,16.24,16.24,0,0,1-.18-8.87l.63-3a24.79,24.79,0,0,1,3.79-8.85,15.89,15.89,0,0,1,6.43-5.29,22.16,22.16,0,0,1,9.23-1.77,18.33,18.33,0,0,1,8.87,1.88,9.61,9.61,0,0,1,4.62,5.52,16.19,16.19,0,0,1,0,8.82l-.54,2.61a25.24,25.24,0,0,1-3.69,9,15.46,15.46,0,0,1-6.37,5.31,22.57,22.57,0,0,1-9.3,1.74,18.84,18.84,0,0,1-8.69-1.79m12.77-7.77a5.4,5.4,0,0,0,2-2,12.9,12.9,0,0,0,1.46-3.81l.89-4a9.591,9.591,0,0,0,.23-3.87,3.11,3.11,0,0,0-1.3-2,4.79,4.79,0,0,0-2.6-.63,5.93,5.93,0,0,0-2.78.58,5,5,0,0,0-1.93,1.93,12.09,12.09,0,0,0-1.3,3.68l-1,4.43a8.08,8.08,0,0,0-.18,3.72,3.07,3.07,0,0,0,1.32,2,4.43,4.43,0,0,0,2.35.58,6,6,0,0,0,2.78-.6" fill="#fff"/><path d="M302.77,111.57h11.47l-5.29,24.97H321.5l-1.83,8.38H295.69Z" fill="#fff"/><path d="M330.06,111.57H355.7l-1.8,8.25H339.79l-.94,4.66h12.68l-1.57,7.13H337.37l-1.12,5.02h14.47l-1.75,8.29H322.98Z" fill="#fff"/><path d="M128.03,146.27h12.46l4.93,15.64.67,3,.81-3.63,3.14-15.01h10.58l-7.08,33.34H141.03l-4.93-15.64-.67-2.96-.76,3.59-3.14,15.01H120.95Z" fill="#231f20"/><path d="M165.59,146.27h25.63l-1.79,8.25H175.32l-.95,4.66h12.69l-1.57,7.12H172.9l-1.13,5.02h14.48l-1.75,8.29H158.51Z" fill="#231f20"/><path d="M193.02,146.27h11.2l-.76,20.93-.31,3.72h.09l1.29-3.72,7.76-20.93h12.14l-1.21,20.97-.22,3.68h.05l1.25-3.72,7.98-20.93h11.38l-14.57,33.34H214.98l1.03-20.25.22-3.23h-.09l-1.12,3.23-7.39,20.25H193.42Z" fill="#231f20"/><path d="M269.16,146.27H285l3.09,33.34h-12l-.72-20.52.13-4.84h-.13L273.55,159l-9.41,20.57H252Zm-3.23,20.44h13.58l-.63,7.44H263.56Z" fill="#231f20"/><path d="M297.93,146.27h12.46l4.93,15.64.67,3,.81-3.63,3.14-15.01h10.57l-7.08,33.34h-12.5L306,163.97l-.68-2.96-.76,3.59-3.13,15.01H290.85Z" fill="#231f20"/><path d="M334.9,178.67a8.83,8.83,0,0,1-4.46-5.35,17.929,17.929,0,0,1,0-9l.63-2.87a23.89,23.89,0,0,1,3.85-8.89,16.33,16.33,0,0,1,6.54-5.29,22.4,22.4,0,0,1,9.24-1.77,18.69,18.69,0,0,1,8.27,1.61,9.21,9.21,0,0,1,4.54,4.55,11.59,11.59,0,0,1,.54,7v.36H352.56l.22-.94a5.069,5.069,0,0,0-.2-2.06,2.22,2.22,0,0,0-1.19-1.3,5.41,5.41,0,0,0-2.42-.45,5.59,5.59,0,0,0-2.66.63,5.91,5.91,0,0,0-2.13,2,10.18,10.18,0,0,0-1.39,3.66l-1,4.84a9.6,9.6,0,0,0-.25,4.05,3.21,3.21,0,0,0,1.37,2.18,5,5,0,0,0,2.6.62,6.41,6.41,0,0,0,2.37-.42,4.36,4.36,0,0,0,1.78-1.28,6.71,6.71,0,0,0,1.09-2v-.18h-5.11l1.48-6.68h16.31l-.4,1.7a28.39,28.39,0,0,1-3.86,9.73,15.27,15.27,0,0,1-6.34,5.49,22,22,0,0,1-9.3,1.77,18.49,18.49,0,0,1-8.65-1.75" fill="#231f20"/><path d="M370.49,146.27h11.47l-5.29,24.96h12.55l-1.84,8.38H363.41Z" fill="#231f20"/><path d="M397.78,146.27h25.63l-1.79,8.25H407.5l-.94,4.66h12.69l-1.57,7.12h-12.6l-1.12,5.02h14.48l-1.75,8.29H390.7Z" fill="#231f20"/></svg>