<svg xmlns="http://www.w3.org/2000/svg" width="542.119" height="293.47" viewBox="0 0 542.119 293.47"><rect width="542.119" height="293.47" fill="#1a1818"/><path d="M97.32,115.38l13.8-26.45h6.8l2.57,26.45h-4.85l-.4-6.24h-9.63l-3,6.24ZM107.63,105H115l-.78-12.15h-.61Z" fill="#fd0"/><path d="M156.55,108.58a8.76,8.76,0,0,1-1.22,3.06,7.24,7.24,0,0,1-2.15,2.12,9.321,9.321,0,0,1-3,1.22,17,17,0,0,1-3.86.4h-10.4l5.63-26.45h10.71a10.66,10.66,0,0,1,3,.38,5.3,5.3,0,0,1,2.14,1.15,4,4,0,0,1,1.15,1.89,5.33,5.33,0,0,1,0,2.61l-.28,1.37a7.831,7.831,0,0,1-.63,1.82,6.16,6.16,0,0,1-1.06,1.5,5.8,5.8,0,0,1-1.47,1.11,5.66,5.66,0,0,1-1.86.61,5.18,5.18,0,0,1,1.79.6,3.69,3.69,0,0,1,1.3,1.18,4.36,4.36,0,0,1,.65,1.75,6.37,6.37,0,0,1-.11,2.27ZM152,106.51a2.2,2.2,0,0,0-.55-2.24,4.15,4.15,0,0,0-2.82-.78h-5.27l-1.65,7.78h4.93a11.5,11.5,0,0,0,1.83-.13,3.88,3.88,0,0,0,1.48-.51,3.21,3.21,0,0,0,1.09-1.08,5.591,5.591,0,0,0,.7-1.8Zm1.53-11a3.82,3.82,0,0,0,.06-1.24,1.61,1.61,0,0,0-.42-.92,2.1,2.1,0,0,0-1-.57,5.2,5.2,0,0,0-1.55-.19h-5l-1.51,7.07h5c2.34,0,3.73-1,4.17-3.11Z" fill="#fd0"/><path d="M183.66,98a7.27,7.27,0,0,1-2,3.74,9.91,9.91,0,0,1-3.84,2.26,6.56,6.56,0,0,1,1.19.71,2.8,2.8,0,0,1,.76.92,3.64,3.64,0,0,1,.37,1.27,10.269,10.269,0,0,1,0,1.77v3a4.88,4.88,0,0,0,0,1.08,5,5,0,0,0,.15,1,7.182,7.182,0,0,0,.26.92,6,6,0,0,0,.3.73h-5.16a1.76,1.76,0,0,1-.21-.5c-.07-.24-.13-.51-.19-.82s-.1-.66-.14-1a7.849,7.849,0,0,1,0-1.08v-3.11a3.36,3.36,0,0,0-.25-1.45,2.61,2.61,0,0,0-.7-1,3.14,3.14,0,0,0-1-.57,5.61,5.61,0,0,0-1.22-.24H167.7l-2.06,9.77h-5l5.63-26.45h10.51c3,0,5.09.59,6.31,1.79s1.54,3.08,1,5.68Zm-4.73-1.18a6.8,6.8,0,0,0,.15-1.5,2.21,2.21,0,0,0-.37-1.19,2.13,2.13,0,0,0-1.05-.79,5.22,5.22,0,0,0-1.91-.29h-5.42l-1.81,8.5h4.9a6.78,6.78,0,0,0,2.05-.28,5,5,0,0,0,1.56-.78,4.15,4.15,0,0,0,1.08-1.21,5.33,5.33,0,0,0,.61-1.54Z" fill="#fd0"/><path d="M182.72,115.38l13.8-26.45h6.79l2.57,26.45H201l-.4-6.24H191l-3,6.24ZM193,105h7.35l-.78-12.15H199Z" fill="#fd0"/><path d="M218.58,96.4h-.19l-.19,1.91-3.58,17.07h-4.79l5.63-26.45h4.9L227,107.57h.32l.15-1.63,3.53-17h5l-5.63,26.45h-5Z" fill="#fd0"/><path d="M242.72,88.93H253.1a10.3,10.3,0,0,1,4.42.81A5.84,5.84,0,0,1,260.06,92a7.3,7.3,0,0,1,.93,3.4,17.37,17.37,0,0,1-.4,4.24l-1.06,5a20.389,20.389,0,0,1-1.36,4.15,11.61,11.61,0,0,1-2.33,3.4,10.51,10.51,0,0,1-3.49,2.3,12.75,12.75,0,0,1-4.85.84H237.09Zm.25,22.34H248a7,7,0,0,0,2-.3,5.3,5.3,0,0,0,1.84-1,6.61,6.61,0,0,0,1.48-1.84,9.61,9.61,0,0,0,1-2.81l1.25-5.85c.44-2.09.39-3.68-.17-4.77a3.355,3.355,0,0,0-3.3-1.64h-5.34Z" fill="#fd0"/><path d="M271.26,115.38l13.79-26.45h6.8l2.57,26.45h-4.85l-.4-6.24h-9.62l-3.05,6.24ZM281.56,105h7.35l-.78-12.15h-.61Z" fill="#fd0"/><path d="M307.12,96.4h-.19l-.19,1.91-3.58,17.07h-4.79L304,88.93h4.9l6.65,18.64h.31l.16-1.63,3.53-17h5l-5.63,26.45h-5Z" fill="#fd0"/><path d="M331.26,88.93h10.38a10.33,10.33,0,0,1,4.42.81A5.76,5.76,0,0,1,348.59,92a7.07,7.07,0,0,1,.93,3.4,16.44,16.44,0,0,1-.4,4.24l-1.05,5a20.391,20.391,0,0,1-1.36,4.15,11.611,11.611,0,0,1-2.33,3.4,10.61,10.61,0,0,1-3.49,2.3,12.79,12.79,0,0,1-4.85.84H325.63Zm.24,22.34h5.08a7,7,0,0,0,2-.3,5.17,5.17,0,0,0,1.83-1,6.46,6.46,0,0,0,1.49-1.84,9.611,9.611,0,0,0,1-2.81l1.25-5.85a7.44,7.44,0,0,0-.17-4.77c-.56-1.1-1.66-1.64-3.3-1.64h-5.34Z" fill="#fd0"/><path d="M117.92,140.44a7.18,7.18,0,0,0,.17-2,3.48,3.48,0,0,0-.49-1.67,3.05,3.05,0,0,0-1.29-1.16,5,5,0,0,0-2.25-.43,6.88,6.88,0,0,0-2.77.51,5.57,5.57,0,0,0-2,1.45,7.85,7.85,0,0,0-1.36,2.25,16.581,16.581,0,0,0-.87,2.91l-1.15,5.34a11.55,11.55,0,0,0-.3,2.86,4.93,4.93,0,0,0,.51,2.17,3.17,3.17,0,0,0,1.41,1.37,5.39,5.39,0,0,0,2.43.48,5.8,5.8,0,0,0,4-1.35,7,7,0,0,0,2.06-3.83h4.78a13.31,13.31,0,0,1-1.21,3.42,10.55,10.55,0,0,1-2.22,3,10.671,10.671,0,0,1-3.34,2.1,12.19,12.19,0,0,1-4.59.79,13,13,0,0,1-3.58-.44A8.12,8.12,0,0,1,103.3,157a6.22,6.22,0,0,1-1.65-1.83,7.87,7.87,0,0,1-.86-2.32,10.54,10.54,0,0,1-.18-2.66,18.12,18.12,0,0,1,.38-2.86l1-4.75a24.1,24.1,0,0,1,.81-2.91,16.551,16.551,0,0,1,1.21-2.71,12.379,12.379,0,0,1,1.72-2.34,10.1,10.1,0,0,1,2.29-1.85,11.42,11.42,0,0,1,3-1.22,14.76,14.76,0,0,1,3.73-.43,11,11,0,0,1,3.14.4,7.44,7.44,0,0,1,2.32,1.09,6.1,6.1,0,0,1,1.55,1.62,6.87,6.87,0,0,1,.89,1.95,8,8,0,0,1,.29,2.14,9.48,9.48,0,0,1-.21,2.14Z" fill="#fd0"/><path d="M126.1,142.56a22.472,22.472,0,0,1,.83-2.91,15.93,15.93,0,0,1,1.26-2.71,13,13,0,0,1,1.75-2.34,10.17,10.17,0,0,1,2.34-1.85,11.861,11.861,0,0,1,3-1.22,14.81,14.81,0,0,1,3.73-.43,12.82,12.82,0,0,1,3.55.43,7.531,7.531,0,0,1,2.51,1.22,5.61,5.61,0,0,1,1.59,1.85,7.8,7.8,0,0,1,.8,2.34,11.469,11.469,0,0,1,.13,2.71,20.162,20.162,0,0,1-.41,2.91l-1,4.59a24.311,24.311,0,0,1-.84,2.95,15.161,15.161,0,0,1-1.25,2.71,13,13,0,0,1-1.75,2.34A10.17,10.17,0,0,1,140,157a11.69,11.69,0,0,1-3,1.2,14.71,14.71,0,0,1-3.72.44,12.87,12.87,0,0,1-3.56-.44,7.61,7.61,0,0,1-2.51-1.2,5.68,5.68,0,0,1-1.59-1.84,7.62,7.62,0,0,1-.8-2.31,11.471,11.471,0,0,1-.15-2.65,21.059,21.059,0,0,1,.39-2.86Zm8,12a6.85,6.85,0,0,0,2.65-.48,5.82,5.82,0,0,0,2-1.38,7.92,7.92,0,0,0,1.43-2.18,15.209,15.209,0,0,0,.92-2.9l1.11-5.21a13.83,13.83,0,0,0,.35-3.12,4.86,4.86,0,0,0-.5-2.25,3.09,3.09,0,0,0-1.43-1.36,5.59,5.59,0,0,0-2.44-.46,6.93,6.93,0,0,0-2.78.51,5.55,5.55,0,0,0-2,1.46,7.56,7.56,0,0,0-1.37,2.28,17.261,17.261,0,0,0-.89,2.94L130,147.64a12.85,12.85,0,0,0-.3,2.87,5,5,0,0,0,.52,2.17,3.21,3.21,0,0,0,1.42,1.38,5.41,5.41,0,0,0,2.47.48Z" fill="#fd0"/><path d="M158.09,137.4H158l-.15,1.78L154,158.08h-4.8l5.63-26.45H161l3.15,17.31v.92h.11l.41-.92,10.45-17.31h6.34l-5.61,26.45h-4.8l4.22-18.89.58-1.79h-.11l-10,16.7H161Z" fill="#fd0"/><path d="M191.56,137.4h-.12l-.16,1.78-3.8,18.9h-4.8l5.63-26.45h6.19l3.15,17.31v.92h.1l.42-.92,10.45-17.31H215l-5.62,26.45h-4.79l4.22-18.89.57-1.79h-.1l-10,16.7H194.5Z" fill="#fd0"/><path d="M242,131.63l-3.74,17.57a12.56,12.56,0,0,1-1.31,3.51,11,11,0,0,1-2.43,3,11.85,11.85,0,0,1-3.61,2.11,13.661,13.661,0,0,1-4.85.8,14.529,14.529,0,0,1-3.42-.36,8.7,8.7,0,0,1-2.55-1,6.11,6.11,0,0,1-1.76-1.52,6.4,6.4,0,0,1-1-1.91,7.191,7.191,0,0,1-.38-2.19,9.4,9.4,0,0,1,.24-2.34l3.77-17.69h5l-3.78,17.83a5.57,5.57,0,0,0-.1,1.78,3.49,3.49,0,0,0,.59,1.63,3.6,3.6,0,0,0,1.46,1.2,5.79,5.79,0,0,0,2.51.47,7.38,7.38,0,0,0,2.76-.47,6.29,6.29,0,0,0,2-1.2,5.68,5.68,0,0,0,1.25-1.63,7.42,7.42,0,0,0,.64-1.79l3.71-17.8Z" fill="#fd0"/><path d="M251,139.11h-.19l-.19,1.91L247,158.08h-4.8l5.63-26.45h4.9l6.66,18.65h.31l.16-1.63,3.53-17h5l-5.64,26.45h-5Z" fill="#fd0"/><path d="M269.47,158.08l5.63-26.45h5l-5.63,26.45Z" fill="#fd0"/><path d="M299,140.44a7.58,7.58,0,0,0,.17-2,3.59,3.59,0,0,0-.49-1.67,3.11,3.11,0,0,0-1.29-1.16,5,5,0,0,0-2.25-.43,6.88,6.88,0,0,0-2.77.51,5.49,5.49,0,0,0-2,1.45,8.1,8.1,0,0,0-1.37,2.25,16.58,16.58,0,0,0-.87,2.91L287,147.66a12.1,12.1,0,0,0-.31,2.86,4.92,4.92,0,0,0,.52,2.17,3.17,3.17,0,0,0,1.41,1.37,5.36,5.36,0,0,0,2.43.48,5.76,5.76,0,0,0,4-1.35,7,7,0,0,0,2.07-3.83h4.78a13.7,13.7,0,0,1-1.21,3.42,10.44,10.44,0,0,1-5.57,5.07,12.17,12.17,0,0,1-4.58.79,13,13,0,0,1-3.58-.44,8.12,8.12,0,0,1-2.56-1.22,6.22,6.22,0,0,1-1.65-1.83,7.87,7.87,0,0,1-.86-2.32,10.541,10.541,0,0,1-.18-2.66,17,17,0,0,1,.38-2.86l1-4.75a24.1,24.1,0,0,1,.81-2.91,16.547,16.547,0,0,1,1.21-2.71,12.331,12.331,0,0,1,1.71-2.34,10.16,10.16,0,0,1,2.3-1.85,11.28,11.28,0,0,1,3-1.22,14.761,14.761,0,0,1,3.73-.43,11,11,0,0,1,3.14.4,7.279,7.279,0,0,1,2.31,1.09,6,6,0,0,1,1.56,1.62,7.16,7.16,0,0,1,.89,1.95,8,8,0,0,1,.29,2.14,9.479,9.479,0,0,1-.22,2.14Z" fill="#fd0"/><path d="M302.55,158.08l13.8-26.45h6.8l2.57,26.45h-4.85l-.4-6.24h-9.63l-3,6.24Zm10.31-10.35h7.35l-.78-12.15h-.61Z" fill="#fd0"/><path d="M342.47,135.75l-4.74,22.33h-5l4.74-22.33h-7.52l.87-4.12H350.9l-.89,4.12Z" fill="#fd0"/><path d="M349,158.08l5.63-26.45h5L354,158.08Z" fill="#fd0"/><path d="M362.64,142.56a22.471,22.471,0,0,1,.83-2.91,15.929,15.929,0,0,1,1.26-2.71,13,13,0,0,1,1.75-2.34,10.61,10.61,0,0,1,2.34-1.85,11.86,11.86,0,0,1,3-1.22,14.841,14.841,0,0,1,3.74-.43,12.8,12.8,0,0,1,3.54.43,7.53,7.53,0,0,1,2.51,1.22,5.61,5.61,0,0,1,1.59,1.85,7.8,7.8,0,0,1,.8,2.34,11.469,11.469,0,0,1,.13,2.71,20.162,20.162,0,0,1-.41,2.91l-1,4.59a26.228,26.228,0,0,1-.83,2.95,15.932,15.932,0,0,1-1.26,2.71,12.533,12.533,0,0,1-1.75,2.34,10.17,10.17,0,0,1-2.34,1.85,11.541,11.541,0,0,1-3,1.2,14.691,14.691,0,0,1-3.71.44,12.9,12.9,0,0,1-3.57-.44,7.61,7.61,0,0,1-2.51-1.2,5.8,5.8,0,0,1-1.59-1.84,7.621,7.621,0,0,1-.8-2.31,11,11,0,0,1-.14-2.65,18.319,18.319,0,0,1,.39-2.86Zm8,12a6.93,6.93,0,0,0,2.66-.48,5.79,5.79,0,0,0,2-1.38,7.7,7.7,0,0,0,1.43-2.18,14.53,14.53,0,0,0,.92-2.9l1.11-5.21a13.891,13.891,0,0,0,.36-3.12,5,5,0,0,0-.51-2.25,3,3,0,0,0-1.43-1.36,5.57,5.57,0,0,0-2.43-.46,7,7,0,0,0-2.79.51,5.72,5.72,0,0,0-2,1.46,7.769,7.769,0,0,0-1.37,2.28,17.261,17.261,0,0,0-.89,2.94l-1.13,5.25a12.23,12.23,0,0,0-.29,2.87,4.82,4.82,0,0,0,.51,2.17,3.21,3.21,0,0,0,1.42,1.38,5.44,5.44,0,0,0,2.44.46Z" fill="#fd0"/><path d="M394.52,139.11h-.2l-.19,1.91-3.58,17.06h-4.79l5.63-26.45h4.9l6.65,18.65h.32l.15-1.63,3.53-17h5l-5.63,26.45h-5Z" fill="#fd0"/><path d="M433,149.32a8.33,8.33,0,0,1-3,6.94q-3,2.38-8.7,2.38a11.62,11.62,0,0,1-4.13-.66,7,7,0,0,1-2.76-1.82,5.68,5.68,0,0,1-1.35-2.73,8.411,8.411,0,0,1,.07-3.45l4.85-.1a7.65,7.65,0,0,0-.11,1,4,4,0,0,0,.08,1,3.691,3.691,0,0,0,.36,1,2.55,2.55,0,0,0,.77.84,4.11,4.11,0,0,0,1.28.57,7,7,0,0,0,1.91.22,8.67,8.67,0,0,0,2.78-.38,4.4,4.4,0,0,0,1.71-1,3.3,3.3,0,0,0,.87-1.37,5.167,5.167,0,0,0,.24-1.55,2.8,2.8,0,0,0-.17-1,2.25,2.25,0,0,0-.52-.8,3.45,3.45,0,0,0-.93-.65,9.181,9.181,0,0,0-1.4-.57l-4.45-1.53a8,8,0,0,1-3.61-2.21,5.1,5.1,0,0,1-1.12-3.37,11.748,11.748,0,0,1,.23-2.31,8.279,8.279,0,0,1,.74-2.13,7.78,7.78,0,0,1,1.37-1.85,7.51,7.51,0,0,1,2.08-1.46,12.572,12.572,0,0,1,2.91-1,18.919,18.919,0,0,1,3.83-.34,12.83,12.83,0,0,1,4.35.63,6.12,6.12,0,0,1,2.68,1.77,5.37,5.37,0,0,1,1.2,2.7,10.709,10.709,0,0,1-.12,3.45l-4.86.08a8.63,8.63,0,0,0,.08-1.8,2.78,2.78,0,0,0-.47-1.45,2.64,2.64,0,0,0-1.26-.94,6.35,6.35,0,0,0-2.32-.34,9.12,9.12,0,0,0-2.46.29,4.5,4.5,0,0,0-1.64.82,3.12,3.12,0,0,0-.9,1.24,4.25,4.25,0,0,0-.28,1.57,2.55,2.55,0,0,0,.58,1.73,4.22,4.22,0,0,0,2,1.14l4.62,1.57a12.171,12.171,0,0,1,2.14.94,6.18,6.18,0,0,1,1.54,1.23,4.61,4.61,0,0,1,.94,1.58,6,6,0,0,1,.35,2.12Z" fill="#fd0"/><path d="M117.92,183.15a7.25,7.25,0,0,0,.17-2,3.51,3.51,0,0,0-.49-1.67,3,3,0,0,0-1.29-1.15,5,5,0,0,0-2.25-.44,6.71,6.71,0,0,0-2.77.52,5.57,5.57,0,0,0-2,1.45,7.59,7.59,0,0,0-1.36,2.25,16.08,16.08,0,0,0-.87,2.91l-1.15,5.33a11.651,11.651,0,0,0-.3,2.86,4.89,4.89,0,0,0,.51,2.17,3.14,3.14,0,0,0,1.41,1.38,5.39,5.39,0,0,0,2.43.48,5.8,5.8,0,0,0,4-1.35,7.07,7.07,0,0,0,2.06-3.83h4.78a13.31,13.31,0,0,1-1.21,3.42,10.47,10.47,0,0,1-5.56,5.07,12.391,12.391,0,0,1-4.59.79,12.58,12.58,0,0,1-3.58-.45,8.11,8.11,0,0,1-2.56-1.21,6.13,6.13,0,0,1-1.65-1.84,7.77,7.77,0,0,1-.86-2.32,10.51,10.51,0,0,1-.18-2.66A18,18,0,0,1,101,190l1-4.75a24.249,24.249,0,0,1,.81-2.92,16.449,16.449,0,0,1,1.21-2.7,12.769,12.769,0,0,1,1.72-2.35,10.669,10.669,0,0,1,2.29-1.85,11.41,11.41,0,0,1,3-1.21,14.74,14.74,0,0,1,3.73-.44,11.351,11.351,0,0,1,3.14.4,7.45,7.45,0,0,1,2.32,1.1,6.22,6.22,0,0,1,1.55,1.61,7.06,7.06,0,0,1,.89,2,8,8,0,0,1,.29,2.14,9.48,9.48,0,0,1-.21,2.14Z" fill="#fd0"/><path d="M126.1,185.27a22.608,22.608,0,0,1,.83-2.92,15.84,15.84,0,0,1,1.26-2.7,13.409,13.409,0,0,1,1.75-2.35,10.73,10.73,0,0,1,2.34-1.85,11.85,11.85,0,0,1,3-1.21,14.8,14.8,0,0,1,3.73-.44,12.8,12.8,0,0,1,3.55.44,7.52,7.52,0,0,1,2.51,1.21,5.81,5.81,0,0,1,1.59,1.85,8,8,0,0,1,.8,2.35,11.381,11.381,0,0,1,.13,2.7,20.288,20.288,0,0,1-.41,2.92l-1,4.59a24.31,24.31,0,0,1-.84,2.95,15.489,15.489,0,0,1-1.25,2.71,13,13,0,0,1-1.75,2.34A10.13,10.13,0,0,1,140,199.7a11.7,11.7,0,0,1-3,1.21,14.71,14.71,0,0,1-3.72.44,12.87,12.87,0,0,1-3.56-.44,7.62,7.62,0,0,1-2.51-1.21,5.54,5.54,0,0,1-1.59-1.83,7.809,7.809,0,0,1-.8-2.31,11.471,11.471,0,0,1-.15-2.65,20.85,20.85,0,0,1,.39-2.86Zm8,12a6.85,6.85,0,0,0,2.65-.48,5.82,5.82,0,0,0,2-1.38,8,8,0,0,0,1.43-2.19,15.1,15.1,0,0,0,.92-2.89l1.11-5.21a13.83,13.83,0,0,0,.35-3.12,4.86,4.86,0,0,0-.5-2.25,3.16,3.16,0,0,0-1.43-1.37,5.74,5.74,0,0,0-2.44-.46,6.76,6.76,0,0,0-2.78.52,5.55,5.55,0,0,0-2,1.46,7.64,7.64,0,0,0-1.37,2.27,17.66,17.66,0,0,0-.89,2.95L130,190.35a12.77,12.77,0,0,0-.3,2.86,5,5,0,0,0,.52,2.18,3.21,3.21,0,0,0,1.42,1.38,5.41,5.41,0,0,0,2.47.48Z" fill="#fd0"/><path d="M158,181.81h-.19l-.19,1.92L154,200.79h-4.8l5.63-26.45h4.9L166.4,193h.31l.16-1.64,3.53-17h5l-5.63,26.45h-5Z" fill="#fd0"/><path d="M196.46,192a8.33,8.33,0,0,1-3,6.94c-2,1.58-4.9,2.38-8.7,2.38a11.581,11.581,0,0,1-4.13-.66,7,7,0,0,1-2.76-1.82,5.77,5.77,0,0,1-1.36-2.74,8.37,8.37,0,0,1,.08-3.44l4.85-.1a6.12,6.12,0,0,0-.11,1,4,4,0,0,0,.08,1,3.38,3.38,0,0,0,.36,1,2.39,2.39,0,0,0,.76.83,4.29,4.29,0,0,0,1.29.58,7.429,7.429,0,0,0,1.91.22,8.561,8.561,0,0,0,2.77-.38,4.5,4.5,0,0,0,1.72-1,3.34,3.34,0,0,0,.86-1.37,4.88,4.88,0,0,0,.25-1.55,2.76,2.76,0,0,0-.17-1,2.17,2.17,0,0,0-.52-.8,3.55,3.55,0,0,0-.93-.65,9.92,9.92,0,0,0-1.41-.58l-4.44-1.53a7.86,7.86,0,0,1-3.61-2.2,5.11,5.11,0,0,1-1.12-3.37,11.75,11.75,0,0,1,.22-2.31,8,8,0,0,1,.75-2.13,7.57,7.57,0,0,1,3.45-3.31,12.181,12.181,0,0,1,2.9-1,19,19,0,0,1,3.84-.35,12.6,12.6,0,0,1,4.35.64,6.12,6.12,0,0,1,2.68,1.77,5.27,5.27,0,0,1,1.19,2.7,10.36,10.36,0,0,1-.11,3.44l-4.87.09a8.1,8.1,0,0,0,.09-1.81,2.77,2.77,0,0,0-.47-1.44,2.69,2.69,0,0,0-1.27-.95,6.47,6.47,0,0,0-2.31-.34,8.83,8.83,0,0,0-2.47.3,4.53,4.53,0,0,0-1.63.82,2.88,2.88,0,0,0-.9,1.24,4.21,4.21,0,0,0-.28,1.57,2.61,2.61,0,0,0,.57,1.73,4.26,4.26,0,0,0,2,1.14l4.62,1.56a13,13,0,0,1,2.14,1,6.15,6.15,0,0,1,1.54,1.22,4.75,4.75,0,0,1,.94,1.59A6,6,0,0,1,196.46,192Z" fill="#fd0"/><path d="M225.78,174.34,222,191.91a12.56,12.56,0,0,1-1.31,3.51,11,11,0,0,1-2.43,3,12.051,12.051,0,0,1-3.61,2.11,13.619,13.619,0,0,1-4.85.8,14.591,14.591,0,0,1-3.42-.36,9.11,9.11,0,0,1-2.55-1,6.11,6.11,0,0,1-1.76-1.52,6.4,6.4,0,0,1-1-1.91,7.19,7.19,0,0,1-.38-2.19A9.4,9.4,0,0,1,201,192l3.77-17.69h5l-3.79,17.83a5.53,5.53,0,0,0-.1,1.77,3.6,3.6,0,0,0,.59,1.64,3.76,3.76,0,0,0,1.46,1.2,5.82,5.82,0,0,0,2.51.47,7.47,7.47,0,0,0,2.77-.47,6.76,6.76,0,0,0,2-1.2,5.591,5.591,0,0,0,1.25-1.64,7.281,7.281,0,0,0,.64-1.79l3.79-17.81Z" fill="#fd0"/><path d="M226,200.79l5.63-26.45h5l-4.76,22.35h11.61l-.89,4.1Z" fill="#fd0"/><path d="M258.07,178.46l-4.75,22.33h-5l4.74-22.33h-7.52l.87-4.12H266.5l-.89,4.12Z" fill="#fd0"/><path d="M260.2,200.79,274,174.34h6.8l2.57,26.45h-4.85l-.4-6.24h-9.63l-3,6.24Zm10.31-10.36h7.35l-.78-12.14h-.61Z" fill="#fd0"/><path d="M296.07,181.81h-.19l-.19,1.92-3.58,17.06h-4.8l5.63-26.45h4.9L304.5,193h.31l.16-1.64,3.53-17h5l-5.63,26.45h-5Z" fill="#fd0"/><path d="M332.36,183.15a7.66,7.66,0,0,0,.17-2,3.63,3.63,0,0,0-.49-1.67,3.09,3.09,0,0,0-1.29-1.15,5,5,0,0,0-2.25-.44,6.71,6.71,0,0,0-2.77.52,5.49,5.49,0,0,0-2,1.45,7.821,7.821,0,0,0-1.37,2.25,16.078,16.078,0,0,0-.87,2.91l-1.14,5.33a12.211,12.211,0,0,0-.31,2.86,4.89,4.89,0,0,0,.52,2.17,3.14,3.14,0,0,0,1.41,1.38,5.36,5.36,0,0,0,2.43.48,5.76,5.76,0,0,0,4-1.35,7,7,0,0,0,2.07-3.83h4.78a13.7,13.7,0,0,1-1.21,3.42,10.44,10.44,0,0,1-5.57,5.07,12.369,12.369,0,0,1-4.58.79,12.58,12.58,0,0,1-3.58-.45,8.11,8.11,0,0,1-2.56-1.21,6.13,6.13,0,0,1-1.65-1.84,7.769,7.769,0,0,1-.86-2.32,10.51,10.51,0,0,1-.18-2.66,16.906,16.906,0,0,1,.38-2.85l1-4.75a24.247,24.247,0,0,1,.81-2.92,16.452,16.452,0,0,1,1.21-2.7,12.718,12.718,0,0,1,1.71-2.35,10.729,10.729,0,0,1,2.3-1.85,11.269,11.269,0,0,1,3-1.21,14.739,14.739,0,0,1,3.73-.44,11.35,11.35,0,0,1,3.14.4,7.29,7.29,0,0,1,2.31,1.1,6.1,6.1,0,0,1,1.56,1.61,7.36,7.36,0,0,1,.89,2,8,8,0,0,1,.29,2.14,9.479,9.479,0,0,1-.22,2.14Z" fill="#fd0"/><path d="M350.88,191.15l-2.05,9.64h-5l2.06-9.64-4.75-16.81h5.28l2.82,12.34,8-12.34h5.52Z" fill="#fd0"/></svg>