<svg xmlns="http://www.w3.org/2000/svg" width="257" height="257" viewBox="0 0 257 257"><g transform="translate(-5985 246)"><circle cx="128.5" cy="128.5" r="128.5" transform="translate(5985 -246)" fill="#fff"/><g transform="translate(5994 -237)" fill="none" stroke="#fd0" stroke-width="10"><circle cx="119.5" cy="119.5" r="119.5" stroke="none"/><circle cx="119.5" cy="119.5" r="114.5" fill="none"/></g><g transform="translate(-0.454 1.22)"><path d="M124.7,126h5.52a7,7,0,0,1,2.54.42,3,3,0,0,1,1.6,1.29,3.1,3.1,0,0,1,.25,2.2l-.1.25a4.37,4.37,0,0,1-.95,2.05,3.7,3.7,0,0,1-2,1.14h0a2.89,2.89,0,0,1,1.93,1.22,3.08,3.08,0,0,1,.25,2.27v.21a7,7,0,0,1-1.05,2.48,4.43,4.43,0,0,1-1.95,1.52,8.08,8.08,0,0,1-3.09.51h-6.22Zm4.6,12.32a2.17,2.17,0,0,0,.8-1.23v-.27a1.43,1.43,0,0,0-.19-1.39,2.28,2.28,0,0,0-1.6-.42h-2l-.78,3.74h2.1a2.71,2.71,0,0,0,1.64-.43m1.07-6.49a2.05,2.05,0,0,0,.72-1.1v-.21a1.63,1.63,0,0,0,0-.93.93.93,0,0,0-.5-.53,2.32,2.32,0,0,0-1-.18h-2l-.71,3.36h1.93a2.4,2.4,0,0,0,1.49-.41" transform="translate(5956.656 -271.19)" fill="#231f20"/><path d="M138.12,126h5.67a7.15,7.15,0,0,1,3,.53,2.93,2.93,0,0,1,1.58,1.55,4.53,4.53,0,0,1,.13,2.58l-.08.23a4.73,4.73,0,0,1-1.18,2.36,4.09,4.09,0,0,1-2.18,1.23v.09a1.93,1.93,0,0,1,1.08.62,2.64,2.64,0,0,1,.5,1.2,5.55,5.55,0,0,1,0,1.64l-.18,1.54a9.7,9.7,0,0,0-.06,1.16,3.249,3.249,0,0,0,.12.87h-3.64a9.7,9.7,0,0,1,0-1,12.437,12.437,0,0,1,.13-1.46l.08-1.37a1.79,1.79,0,0,0-.1-.95,1.07,1.07,0,0,0-.59-.57,2.86,2.86,0,0,0-1.11-.18h-1.6l-1.2,5.52H134.8Zm5.72,6.72a2.67,2.67,0,0,0,.91-1.68l.09-.29a1.49,1.49,0,0,0-.19-1.37,1.76,1.76,0,0,0-1.39-.46h-2.14l-.9,4.3h1.93a2.67,2.67,0,0,0,1.69-.5" transform="translate(5956.656 -271.19)" fill="#231f20"/><path d="M154.75,126h4.77l1.15,15.6H157l-.4-11.08v-1.41h-.06l-.55,1.41-5.1,11.08H147Zm-2.39,9.77h5.5l-.38,2.83h-5.92Z" transform="translate(5956.656 -271.19)" fill="#231f20"/><path d="M165.48,125.97h3.87l2.43,8.53.34,1.19.32-1.38,1.78-8.34h3.49l-3.34,15.6H170.5l-2.41-8.5-.32-1.18h-.04l-.31,1.37-1.73,8.31h-3.52Z" transform="translate(5956.656 -271.19)" fill="#231f20"/><path d="M180.41,126h5.3a6.21,6.21,0,0,1,3.47.84,3.8,3.8,0,0,1,1.63,2.46,9.76,9.76,0,0,1-.17,4.07l-.21.95a14,14,0,0,1-1.44,4.17,5.79,5.79,0,0,1-2.41,2.35,8.36,8.36,0,0,1-3.81.76H177.1Zm4.28,12.27A3,3,0,0,0,186,137a7.12,7.12,0,0,0,.79-2.37l.4-1.82a7.741,7.741,0,0,0,.15-2.33,1.51,1.51,0,0,0-.7-1.19A3.14,3.14,0,0,0,185,129h-1.55l-2.08,9.62h1.55a4.22,4.22,0,0,0,1.78-.35" transform="translate(5956.656 -271.19)" fill="#231f20"/><path d="M151.26,160.29a3,3,0,0,1-1.43-1.54,4,4,0,0,1-.16-2.24l.08-.36a5.74,5.74,0,0,1,1.66-2.87,8.19,8.19,0,0,1,3.34-1.89l.72,2.18a5.1,5.1,0,0,0-.75.3,3,3,0,0,0-.62.39,3.15,3.15,0,0,0-.66.74,2.7,2.7,0,0,0-.39,1v.25a1.54,1.54,0,0,0,0,1,1.19,1.19,0,0,0,.58.65,2.2,2.2,0,0,0,1,.22,4.4,4.4,0,0,0,2.23-.61,5.3,5.3,0,0,0,1.8-1.84,9.81,9.81,0,0,0,1.15-3.18l.19-.72h3l-.17.78c-.07.27-.15.57-.23.9a12.58,12.58,0,0,1-1.83,3.87,8.75,8.75,0,0,1-2.91,2.62,7.93,7.93,0,0,1-3.9,1,5.65,5.65,0,0,1-2.73-.57m7.31.18a4.65,4.65,0,0,1-1.82-1.39,12.54,12.54,0,0,1-1.79-3,2.929,2.929,0,0,1-.24-.51c-.06-.18-.13-.36-.2-.56s-.31-.62-.5-1.07c-.44-1.05-.75-1.87-.94-2.45a8.8,8.8,0,0,1-.37-1.53,3.7,3.7,0,0,1,0-1.25l.06-.27a4.62,4.62,0,0,1,1-2,4.81,4.81,0,0,1,1.81-1.35,6.07,6.07,0,0,1,2.46-.49,4.68,4.68,0,0,1,2.3.49,2.32,2.32,0,0,1,1.12,1.25,3.11,3.11,0,0,1,.11,1.67,5.62,5.62,0,0,1-.83,1.93,6.69,6.69,0,0,1-1.67,1.64,13.2,13.2,0,0,1-2.67,1.4L156,151l.19-.1.21-.12a5.16,5.16,0,0,0,1.14-.69,3,3,0,0,0,.65-.73,2.89,2.89,0,0,0,.35-.95,1,1,0,0,0-.14-.82.89.89,0,0,0-.76-.31,1.52,1.52,0,0,0-.94.31,1.37,1.37,0,0,0-.51.84l-.07.26a3.5,3.5,0,0,0,0,1,5.169,5.169,0,0,0,.29,1.23c.15.45.38,1.07.69,1.87.07.21.13.37.18.49s.13.27.24.48a3,3,0,0,0,.22.55c.08.14.16.31.26.52a10.819,10.819,0,0,0,1.21,2.12,2.66,2.66,0,0,0,1.12.93,4.11,4.11,0,0,0,1.41.21h.46l-.59,2.77h-.67a6.39,6.39,0,0,1-2.27-.37" transform="translate(5956.656 -271.19)" fill="#231f20"/><path d="M73.48,179.12a3.35,3.35,0,0,1-1.55-2.24,9.16,9.16,0,0,1,.16-3.84l.55-2.64a11.5,11.5,0,0,1,1.47-3.87,5.85,5.85,0,0,1,2.47-2.22,7.88,7.88,0,0,1,3.45-.72,5.89,5.89,0,0,1,3.25.77,3.51,3.51,0,0,1,1.54,2.1,7.07,7.07,0,0,1,0,3.18v.21h-3.6l.09-.38a4.48,4.48,0,0,0,.06-1.52,1.46,1.46,0,0,0-.53-.93,2.1,2.1,0,0,0-1.32-.34,2.64,2.64,0,0,0-2.4,1.4,7,7,0,0,0-.75,2l-.71,3.3a5.63,5.63,0,0,0-.1,2,1.69,1.69,0,0,0,.6,1.08,2,2,0,0,0,1.18.33,2.86,2.86,0,0,0,1.35-.3,2.93,2.93,0,0,0,1-.92,4.34,4.34,0,0,0,.66-1.55l.11-.4H84l-.08.21a9.45,9.45,0,0,1-1.35,3.2,6.3,6.3,0,0,1-2.36,2.07,7.56,7.56,0,0,1-3.54.76,6,6,0,0,1-3.19-.73" transform="translate(5956.656 -271.19)" fill="#231f20"/><path d="M87.31,179.1a3.66,3.66,0,0,1-1.71-2.27,7.46,7.46,0,0,1,.1-3.79l.57-2.68a12.11,12.11,0,0,1,1.43-3.8,5.79,5.79,0,0,1,2.38-2.23,7.64,7.64,0,0,1,3.48-.74,6.08,6.08,0,0,1,3.28.79,3.93,3.93,0,0,1,1.66,2.31,7.41,7.41,0,0,1-.12,3.77L97.82,173a12.45,12.45,0,0,1-1.45,3.85,6.1,6.1,0,0,1-2.32,2.23,7.34,7.34,0,0,1-3.5.75,6.27,6.27,0,0,1-3.24-.75m5.08-2.68a3,3,0,0,0,1.06-1.1,6.77,6.77,0,0,0,.71-2l.68-3.15A6.14,6.14,0,0,0,95,168.1a1.58,1.58,0,0,0-.6-1.09,2.12,2.12,0,0,0-1.26-.33,3,3,0,0,0-1.44.33,2.66,2.66,0,0,0-1,1.07,7.13,7.13,0,0,0-.7,2l-.71,3.32a5,5,0,0,0-.1,1.95,1.75,1.75,0,0,0,.64,1.11,1.94,1.94,0,0,0,1.2.36,2.8,2.8,0,0,0,1.44-.36" transform="translate(5956.656 -271.19)" fill="#231f20"/><path d="M101.97,163.91h4.54l.88,8.52v.86h.07l.46-.86,4.49-8.52h4.52l-3.32,15.6h-3.47l1.75-8.36.46-1.89h-.06l-.44.8-3.95,7.4h-2.63l-.84-7.4-.08-.8h-.06l-.34,1.89-1.76,8.36H98.66Z" transform="translate(5956.656 -271.19)" fill="#231f20"/><path d="M119.64,163.91h4.53l.89,8.52v.86h.06l.46-.86,4.5-8.52h4.51l-3.32,15.6h-3.46l1.74-8.36.46-1.89h-.06l-.44.8-3.95,7.4h-2.62l-.85-7.4-.08-.8h-.06l-.34,1.89-1.76,8.36h-3.53Z" transform="translate(5956.656 -271.19)" fill="#231f20"/><path d="M136.29,179.17a3,3,0,0,1-1.45-2.08,9.26,9.26,0,0,1,.17-3.63l2-9.55h3.61l-2.06,9.87a3.2,3.2,0,0,0,0,2.27,1.66,1.66,0,0,0,1.58.73,2.43,2.43,0,0,0,1.82-.73,4.66,4.66,0,0,0,1-2.27l2.1-9.87h3.6l-2,9.55a10.49,10.49,0,0,1-1.39,3.62,5.79,5.79,0,0,1-2.34,2.09,8.07,8.07,0,0,1-3.49.68,6.4,6.4,0,0,1-3.22-.68" transform="translate(5956.656 -271.19)" fill="#231f20"/><path d="M151.16,163.91h3.87l2.43,8.52.34,1.2.31-1.38,1.79-8.34h3.48l-3.34,15.6h-3.86l-2.42-8.5-.31-1.18h-.04l-.32,1.37-1.72,8.31h-3.53Z" transform="translate(5956.656 -271.19)" fill="#231f20"/><path d="M166.09,163.91h3.64l-3.32,15.6h-3.63Z" transform="translate(5956.656 -271.19)" fill="#231f20"/><path d="M171.38,179.12a3.37,3.37,0,0,1-1.54-2.24A9,9,0,0,1,170,173l.54-2.64a11.94,11.94,0,0,1,1.47-3.87,6,6,0,0,1,2.47-2.22,7.9,7.9,0,0,1,3.46-.72,5.92,5.92,0,0,1,3.25.77,3.51,3.51,0,0,1,1.54,2.1,7.37,7.37,0,0,1,0,3.18v.21h-3.59l.09-.38a4.48,4.48,0,0,0,.06-1.52,1.43,1.43,0,0,0-.54-.93,2.07,2.07,0,0,0-1.31-.34A2.73,2.73,0,0,0,176,167a2.77,2.77,0,0,0-1,1.07,6.71,6.71,0,0,0-.75,2l-.71,3.3a5.63,5.63,0,0,0-.1,2,1.65,1.65,0,0,0,.6,1.08,2,2,0,0,0,1.18.33,2.89,2.89,0,0,0,1.35-.3,2.93,2.93,0,0,0,1-.92,4.34,4.34,0,0,0,.66-1.55l.11-.4h3.57l-.09.21a9.25,9.25,0,0,1-1.34,3.2,6.38,6.38,0,0,1-2.36,2.07,7.58,7.58,0,0,1-3.54.76,6.09,6.09,0,0,1-3.2-.73" transform="translate(5956.656 -271.19)" fill="#231f20"/><path d="M188.86,163.91h4.77l1.15,15.6h-3.72l-.4-11.09v-1.4h-.06l-.55,1.4-5.1,11.09h-3.84Zm-2.4,9.76H192l-.38,2.84H185.7Z" transform="translate(5956.656 -271.19)" fill="#231f20"/><path d="M200.09,166.91h-3.65l.65-3h10.86l-.61,3h-3.66L201,179.51h-3.58Z" transform="translate(5956.656 -271.19)" fill="#231f20"/><path d="M209.46,163.91h3.63l-3.31,15.6h-3.64Z" transform="translate(5956.656 -271.19)" fill="#231f20"/><path d="M215,179.1a3.73,3.73,0,0,1-1.71-2.27,7.47,7.47,0,0,1,.11-3.79l.57-2.68a12.12,12.12,0,0,1,1.42-3.8,5.87,5.87,0,0,1,2.39-2.23,7.62,7.62,0,0,1,3.47-.74,6.09,6.09,0,0,1,3.29.79,3.93,3.93,0,0,1,1.66,2.31,7.52,7.52,0,0,1-.12,3.77l-.56,2.56a12.7,12.7,0,0,1-1.45,3.85,6.1,6.1,0,0,1-2.32,2.23,7.37,7.37,0,0,1-3.5.75,6.33,6.33,0,0,1-3.25-.75m5.09-2.68a3,3,0,0,0,1.06-1.1,6.77,6.77,0,0,0,.71-2l.67-3.15a5.94,5.94,0,0,0,.12-2.07A1.58,1.58,0,0,0,222,167a2.14,2.14,0,0,0-1.26-.33,3,3,0,0,0-1.44.33,2.66,2.66,0,0,0-1,1.07,7.131,7.131,0,0,0-.7,2l-.72,3.32a4.94,4.94,0,0,0-.09,1.95,1.71,1.71,0,0,0,.64,1.11,1.94,1.94,0,0,0,1.2.36,2.85,2.85,0,0,0,1.44-.36" transform="translate(5956.656 -271.19)" fill="#231f20"/><path d="M229.66,163.91h3.87l2.43,8.52.34,1.2.32-1.38,1.78-8.34h3.49l-3.35,15.6h-3.86l-2.41-8.5-.32-1.18h-.04l-.32,1.37-1.72,8.31h-3.52Z" transform="translate(5956.656 -271.19)" fill="#231f20"/></g></g></svg>