<svg xmlns="http://www.w3.org/2000/svg" width="219" height="77" viewBox="0 0 219 77"><g transform="translate(-1238 -3489)"><rect width="219" height="77" transform="translate(1238 3489)" fill="#fff" opacity="0"/><g transform="translate(1249.7 3487.7)"><path d="M25.3,52.143,30.755,26.4H43.46c5.521,0,9.246,2.062,8.315,6.519l-.067.4c-.532,2.528-2.2,4.457-5.654,5.122v.133c3.525.6,4.989,2.794,4.39,5.987l-.067.333c-1.064,4.989-4.922,7.317-11.441,7.317Zm9.845-5.987h3.392c1.929,0,2.927-.665,3.193-2l.067-.333c.333-1.663-.466-2.262-2.395-2.262H36.076Zm2.129-9.645h3.259c1.863,0,2.727-.6,2.993-1.863v-.266c.333-1.4-.266-2-2.062-2H38.138Z" transform="translate(0 -0.368)" fill="#fff"/><path d="M84.955,33.466l-1.4,6.652a10.519,10.519,0,0,0-2.528-.266c-3.259,0-5.588,1.863-6.319,5.521l-1.929,8.98H64.6L68.99,33.8h8.182l-.333,1.463-.732,2.2h.133A7.734,7.734,0,0,1,82.893,33.2,7.317,7.317,0,0,1,84.955,33.466Z" transform="translate(-13.158 -2.645)" fill="#fff"/><path d="M114.319,42.346l-2.594,12.106H103.61l.333-1.463.665-1.8h-.2a8.739,8.739,0,0,1-7.317,3.925c-4.922,0-6.585-2.794-5.787-6.519l.133-.333c.8-3.792,3.991-6.12,9.845-6.12a14.428,14.428,0,0,1,4.789.732l.266-1.4c.333-1.463,0-2.727-2-2.727a2.87,2.87,0,0,0-2.927,2.2l-.133.333H93.5l.067-.2c.931-3.858,4.257-7.783,12.106-7.783C113.854,33.233,115.517,36.892,114.319,42.346Zm-8.914,3.392-.067.133a6.808,6.808,0,0,0-2.794-.6c-2.062,0-2.794,1.064-2.993,2.062l-.067.333c-.2,1.064.266,1.8,1.929,1.8,2.328,0,3.592-1.53,3.991-3.725Z" transform="translate(-22.035 -2.678)" fill="#fff"/><path d="M151.745,41.647l-2.727,12.705h-8.182l2.528-11.84c.466-2.2-.2-3.259-1.929-3.259-2.129,0-3.459,1.8-3.925,3.925l-2.328,11.109H127l4.39-20.554h8.182l-.333,1.4-.732,2.129h.133A9.069,9.069,0,0,1,146.224,33C150.681,33.133,153.009,35.594,151.745,41.647Z" transform="translate(-34.05 -2.578)" fill="#fff"/><path d="M184.276,25.3h8.182L186.8,51.775h-8.182l.266-1.264.665-2.062h-.2A8.686,8.686,0,0,1,172.1,52.44c-5.188,0-6.918-3.659-5.455-10.443l.2-1.131c1.4-6.652,4.723-10.31,9.911-10.31,2.727,0,4.789,1.264,5.521,3.991h.2l.2-2.2Zm-3.126,14.9c.4-2-.067-3.659-2.2-3.659-2.262,0-3.259,1.729-3.725,3.858l-.532,2.262c-.532,2.328-.2,3.725,2.062,3.725,2.062,0,3.326-1.53,3.792-3.592Z" transform="translate(-47.158)" fill="#fff"/><path d="M208.628,52.143l4.124-19.224H206.3l1.4-6.519h21.818l-1.463,6.519H221.6l-4.058,19.224Z" transform="translate(-60.601 -0.368)"/></g></g></svg>