<svg xmlns="http://www.w3.org/2000/svg" width="219" height="77" viewBox="0 0 219 77">
  <g id="BrandT-small" transform="translate(-2599 -3726)">
    <rect id="Rectangle_125" data-name="Rectangle 125" width="219" height="77" transform="translate(2599 3726)" fill="#fff" opacity="0"/>
    <g id="BrandT-01" transform="translate(2612.68 3730.81)">
      <path id="Path_2547" data-name="Path 2547" d="M25.32,46.682,30.7,21.31H43.255c5.456,0,9.1,2.013,8.217,6.446l-.066.407c-.551,2.525-2.151,4.367-5.561,5.017v.1c3.476.616,4.945,2.735,4.328,5.9l-.066.341c-1.023,4.912-4.879,7.214-11.253,7.214Zm9.719-5.9h3.371c1.876,0,2.9-.656,3.174-1.967l.066-.341c.348-1.672-.439-2.249-2.38-2.249H35.989ZM37.085,31.3h3.2c1.81,0,2.662-.616,2.938-1.843l.033-.275c.341-1.4-.275-1.967-2.013-1.967H37.963Z" transform="translate(0 -0.386)" fill="#fff"/>
      <path id="Path_2548" data-name="Path 2548" d="M84.644,28.415,83.28,34.973a12.053,12.053,0,0,0-2.485-.243c-3.207,0-5.5,1.843-6.243,5.456l-1.876,8.846H64.63l4.3-20.257h8.046l-.3,1.41-.748,2.151h.138a7.68,7.68,0,0,1,6.558-4.2A6.728,6.728,0,0,1,84.644,28.415Z" transform="translate(-13.531 -2.736)" fill="#fff"/>
      <path id="Path_2549" data-name="Path 2549" d="M114.008,37.1l-2.531,11.922h-8.014l.308-1.43.656-1.777h-.171a8.446,8.446,0,0,1-7.214,3.856c-4.84,0-6.479-2.761-5.692-6.446l.1-.341c.787-3.751,3.935-6.033,9.686-6.033a15.26,15.26,0,0,1,4.741.715l.275-1.4c.308-1.469,0-2.7-1.967-2.7a2.761,2.761,0,0,0-2.859,2.184l-.1.341H93.5l.072-.21c.918-3.817,4.23-7.673,11.935-7.673C113.523,28.133,115.162,31.714,114.008,37.1Zm-8.761,3.344-.039.131A7.128,7.128,0,0,0,102.447,40c-2.046,0-2.761,1.056-2.964,2.046l-.072.341c-.2,1.023.275,1.738,1.915,1.738,2.243,0,3.5-1.535,3.948-3.679Z" transform="translate(-22.665 -2.73)" fill="#fff"/>
      <path id="Path_2550" data-name="Path 2550" d="M151.369,36.488l-2.662,12.538H140.66l2.485-11.66c.479-2.184-.2-3.207-1.876-3.207-2.079,0-3.41,1.738-3.882,3.889l-2.321,10.978H127l4.3-20.257h8.046l-.308,1.4-.715,2.118h.1a8.863,8.863,0,0,1,7.469-4.164C150.346,28.133,152.66,30.52,151.369,36.488Z" transform="translate(-35.001 -2.73)" fill="#fff"/>
      <path id="Path_2551" data-name="Path 2551" d="M184.017,20.19h8.046L186.509,46.3h-8.053l.275-1.259.656-2.046h-.17a8.473,8.473,0,0,1-7.161,3.935c-5.115,0-6.82-3.581-5.39-10.3l.2-1.121c1.364-6.558,4.643-10.132,9.791-10.132,2.7,0,4.741,1.233,5.456,3.935h.17l.2-2.144Zm-3.1,14.729c.407-1.967-.033-3.613-2.151-3.613-2.216,0-3.24,1.705-3.679,3.784l-.5,2.249c-.512,2.289-.171,3.685,2.013,3.685,2.046,0,3.279-1.535,3.751-3.515Z" transform="translate(-48.487 0)" fill="#fff"/>
      <path id="Path_2552" data-name="Path 2552" d="M208.609,46.689l4.059-18.945H206.32l1.364-6.413h21.49l-1.423,6.413H221.4l-4.026,18.945Z" transform="translate(-62.305 -0.392)" fill="#fd0"/>
    </g>
  </g>
</svg>
