<svg id="Layer_1" data-name="Layer 1" xmlns="http://www.w3.org/2000/svg" viewBox="0 0 200 200"><defs><style>.cls-1{fill:#fd0;}.cls-2,.cls-4{fill:#fff;}.cls-3{fill:#231f20;}.cls-3,.cls-4{fill-rule:evenodd;}</style></defs><circle class="cls-1" cx="100" cy="100" r="60"/><path class="cls-2" d="M99.44,149.71a50,50,0,1,1,50-50A50.06,50.06,0,0,1,99.44,149.71Zm0-90.94a40.95,40.95,0,1,0,40.95,40.94A41,41,0,0,0,99.44,58.77Z"/><path class="cls-3" d="M120.35,65.33l-3.22.75c-3.54,1.4-5,3.79-6.89,6.81-.33.43-1.26.38-1.79.6a6.14,6.14,0,0,0-2.17,1.65,5.74,5.74,0,0,0,3.37,9.13c6.71,1.44,9.1-8,3.14-10.78.24-1,1-1.54,1.42-2.39A3.91,3.91,0,0,1,117.88,73c.75,1.33.52,3.61.82,5.31l1.5,11.53q-10.94,10.92-21.85,21.85l-5.62,5.61c-.63.64-1.44,2-2.39,2.17-1.29.31-4.26-3.36-5-4.11L70,99.91c-.4-1.21.8-1.92,1.35-2.47L76.79,92,99.47,69.23c2.78.11,9.12,1.91,10.85.59a1.49,1.49,0,0,0,0-1.19c-.45-.93-1.59-.69-2.77-.9s-8-1.38-8.91-1l-2.91,2.77L75.59,89.66c-1.74,1.75-7.34,6.42-8,8.53-1,3.25,2.16,5.15,3.59,6.58L83,116.6c1.57,1.57,3.33,4.21,5.47,5.09,3.59,1.47,7.23-3.87,9-5.61L122.74,90.7c-.22-1.89-.45-3.79-.67-5.68-1-5.46,0-14.77-5.24-15.94V69a16.49,16.49,0,0,1,3.29-1.12c6.85-1.28,12.56,5.8,10.63,12.2a9.84,9.84,0,0,1-6.29,6.51c-.33.45-.69,1.2-.15,1.72.55,1,2,.3,2.7-.08a12.71,12.71,0,0,0,4.79-4.41C137.37,74.91,130.24,65.17,120.35,65.33ZM111.22,81.8a3.14,3.14,0,0,1-3.45-4.34,4.16,4.16,0,0,1,1.65-1.65c.35,1,0,3.2.38,4.42a1.42,1.42,0,0,0,1.57.3c1-.49.6-3.13.6-4.57C114.4,75.83,114.42,81.14,111.22,81.8Z"/><path class="cls-3" d="M123.57,97c-.22-1.25-.18-2-.75-2.77l-1-.15-.82.6c-.32,1.37.26,3,.3,4.49L99,121.46c-1.9,1.9-3.79,3.8-5.69,5.69-.66.66-1.45,1.95-2.47,2.17-1.23.27-5-4.19-5.84-5L70.58,109.79c-.47-1.32,1-1.62.52-3.22a1.85,1.85,0,0,0-1.49-.45A4.28,4.28,0,0,0,69,112l14.67,14.59c1.67,1.67,3.56,4.7,6.21,5.24,3.19.65,7.51-5.19,9.13-6.81l21-21c.8-.81,3.66-3.2,3.89-4.2C123.82,98.89,123.69,97.94,123.57,97Z"/><path class="cls-4" d="M104.56,95.79c-.36-.89-3.2-2.72-4.12-3.21.07-2.72.87-6.22-2.32-6.14l-3.89,2.69c-.92.53-3.6-1.58-5.09-1.27-3,.63-.63,4.75-.15,6.51-.68,1-3.38,3.56-2.77,5.24s4.11,1.19,6.06,1.12l1.5,2.1c3.21,4.56,4.92.82,5.54-3.22C101.14,99.32,105.6,98.42,104.56,95.79Zm-8.46,6c-1.7-1.5-1.34-3.52-4.71-3.52l-2.18.08c.78-1.12,1.55-2.25,2.32-3.37.38-1.47-.81-3.11-1.12-4.27,3.4,1.28,5.18,1.61,7.49-1.19l.15,4c.51,1.34,2.49,1.87,3.44,2.84C98.15,96.89,96.47,98.34,96.1,101.78Z"/></svg>