<svg id="Layer_1" data-name="Layer 1" xmlns="http://www.w3.org/2000/svg" viewBox="0 0 476.82 443.77"><defs><style>.cls-1{fill:#ffd400;fill-rule:evenodd;}</style></defs><path class="cls-1" d="M322.77,80.06,309,83.25c-15.1,6-21.16,16.15-29.36,29.05-1.42,1.83-5.38,1.6-7.66,2.55a25.89,25.89,0,0,0-9.26,7c-12,15.5-1.89,35.45,14.36,38.94,28.64,6.16,38.83-34.18,13.41-46,1-4.39,4.39-6.59,6.07-10.22,7.73,0,12.86,3.07,15.64,8,3.21,5.7,2.22,15.41,3.51,22.67q3.18,24.57,6.38,49.15-46.59,46.6-93.21,93.21L205,301.58c-2.69,2.7-6.15,8.29-10.21,9.26-5.51,1.31-18.18-14.35-21.39-17.56L108,227.53c-1.73-5.15,3.41-8.21,5.74-10.54l23.3-23.3q48.36-48.51,96.72-97c11.87.49,38.93,8.15,46.29,2.56.49-1.69.94-3.54,0-5.11-1.93-3.95-6.79-2.93-11.81-3.83-5.55-1-34.26-5.9-38-4.47L217.75,97.61,131.89,183.8c-7.46,7.45-31.31,27.38-34.16,36.39-4.38,13.87,9.21,22,15.32,28.08l50.44,50.44c6.7,6.7,14.18,18,23.3,21.7,15.33,6.29,30.85-16.48,38.3-23.94L333,188.27q-1.43-12.14-2.87-24.26c-4.11-23.29-.07-63-22.34-68V95.7c4.37-1.75,8.67-3.79,14-4.79,29.22-5.45,53.56,24.74,45.33,52a41.91,41.91,0,0,1-26.81,27.77c-1.43,1.93-2.95,5.11-.64,7.34,2.33,4,8.42,1.3,11.49-.32a54.45,54.45,0,0,0,20.43-18.83C395.37,120.9,365,79.36,322.77,80.06Zm-38.94,70.22c-10.81,2.21-18.65-8.95-14.69-18.51,1.4-3.36,4.26-5,7-7,1.48,4.49.11,13.66,1.59,18.84,1.62,1.19,4.23,2.79,6.71,1.27,4.39-2.08,2.58-13.32,2.55-19.47C297.41,124.81,297.5,147.48,283.83,150.28Z"/><path class="cls-1" d="M336.49,215.08c-.93-5.35-.76-8.5-3.19-11.81l-4.15-.64-3.51,2.55c-1.37,5.84,1.11,12.61,1.28,19.15L231.8,319.46l-24.26,24.26c-2.81,2.8-6.19,8.32-10.54,9.25-5.24,1.13-21.39-17.88-24.89-21.38L110.5,269.66c-2-5.61,4.16-6.91,2.24-13.72-2.08-1.56-3.11-2.06-6.39-1.92a18.26,18.26,0,0,0-2.55,24.9l62.56,62.24c7.13,7.13,15.21,20,26.5,22.35,13.61,2.78,32-22.16,38.94-29.05l89.69-89.38c3.44-3.43,15.61-13.61,16.6-17.87Q337.3,221.14,336.49,215.08Z"/><path class="cls-1" d="M255.42,210c-1.52-3.81-13.65-11.63-17.56-13.72.31-11.59,3.69-26.5-9.89-26.18l-16.6,11.49c-3.93,2.25-15.34-6.75-21.71-5.42-12.77,2.66-2.7,20.25-.64,27.77-2.9,4.33-14.43,15.19-11.81,22.34,2.72,7.41,17.51,5.06,25.86,4.79l6.38,8.94c13.68,19.44,21,3.5,23.62-13.73C240.85,225,259.89,221.19,255.42,210Zm-36.07,25.54c-7.27-6.39-5.71-15-20.11-15l-9.26.32,9.9-14.36c1.58-6.27-3.46-13.27-4.79-18.19,14.5,5.45,22.08,6.82,31.92-5.11q.31,8.61.64,17.23c2.18,5.75,10.66,8,14.68,12.13C228.11,214.63,220.94,220.84,219.35,235.51Z"/></svg>