<svg width="375" height="166" viewBox="0 0 375 166" fill="none" xmlns="http://www.w3.org/2000/svg">
<path d="M79.6001 83.68L87.8201 45H107C115.32 45 120.89 48.07 119.54 54.83L119.43 55.45C118.6 59.3 116.16 62.11 110.96 63.09L110.9 63.25C116.21 64.19 118.44 67.41 117.51 72.2L117.4 72.71C115.84 80.2 109.97 83.71 100.24 83.71L79.6001 83.68ZM94.4201 74.68H99.5701C102.43 74.68 103.99 73.68 104.4 71.68L104.51 71.16C105.03 68.61 103.83 67.72 100.87 67.72H95.9301L94.4201 74.68ZM97.5401 60.22H102.43C105.19 60.22 106.43 59.29 106.9 57.42V57C107.42 54.87 106.49 54 103.84 54H98.8401L97.5401 60.22Z" fill="white"/>
<path d="M149.44 52.22L147.36 62.22C146.109 61.9691 144.836 61.8485 143.56 61.86C138.67 61.86 135.19 64.67 134.04 70.18L131.18 83.65H118.91L125.46 52.76H137.74L137.27 54.89L136.12 58.17H136.33C138.67 54.17 142.26 51.77 146.33 51.77C147.384 51.7602 148.433 51.9119 149.44 52.22Z" fill="white"/>
<path d="M180.32 65.4801L176.42 83.68H164.2L164.67 81.49L165.67 78.7901H165.41C164.225 80.6215 162.593 82.1219 160.669 83.1504C158.745 84.1789 156.592 84.7018 154.41 84.67C147.02 84.67 144.53 80.45 145.72 74.84L145.88 74.32C147.08 68.6 151.88 65.1101 160.65 65.1101C163.102 65.0918 165.542 65.4596 167.88 66.2L168.29 64.07C168.76 61.84 168.24 59.96 165.29 59.96C164.298 59.9234 163.325 60.2369 162.54 60.8457C161.756 61.4545 161.211 62.3198 161 63.2901L160.84 63.8101H149L149.1 63.5C150.51 57.68 155.55 51.8 167.3 51.8C179.54 51.8 182 57.2601 180.32 65.4801ZM167 70.57L166.95 70.78C165.621 70.2056 164.189 69.9062 162.74 69.9001C159.62 69.9001 158.52 71.51 158.21 73.02L158.11 73.5401C157.8 75.1 158.52 76.1901 161.02 76.1901C164.36 76.1901 166.23 73.85 167 70.57Z" fill="white"/>
<path d="M218.44 64.5401L214.39 83.68H202.11L205.91 65.89C206.64 62.56 205.6 61 203.05 61C199.88 61 197.85 63.66 197.12 66.93L193.58 83.68H181.31L187.86 52.7901H200.14L199.67 54.92L198.58 58.14H198.73C201.64 53.93 205.6 51.8 210.12 51.8C216.88 51.8 220.42 55.4401 218.44 64.5401Z" fill="white"/>
<path d="M247.66 43.8401H259.94L251.46 83.6801H239.19L239.6 81.7501L240.6 78.6301H240.34C239.174 80.4703 237.561 81.9856 235.652 83.0347C233.742 84.0838 231.599 84.6326 229.42 84.6301C221.62 84.6301 219.02 79.1701 221.21 68.9201L221.52 67.2001C223.6 57.2001 228.59 51.7601 236.44 51.7601C240.55 51.7601 243.67 53.6301 244.76 57.7601H245.02L245.34 54.4801L247.66 43.8401ZM242.93 66.3101C243.56 63.3101 242.88 60.8001 239.66 60.8001C236.28 60.8001 234.72 63.4001 234.04 66.5701L233.31 70.0001C232.53 73.4801 233.05 75.6201 236.38 75.6201C239.5 75.6201 241.38 73.2801 242.1 70.2601L242.93 66.3101Z" fill="white"/>
<path d="M264.1 83.68L270.23 54.76H260.56L262.64 45H295.4L293.32 54.77H283.65L277.46 83.69L264.1 83.68Z" fill="#FFDD00"/>
<path d="M39.9399 120.91L44.8399 97.9099H52.9299C57.1499 97.9099 60.2499 99.6199 59.4099 103.71L59.3499 104.05C59.1671 105.183 58.651 106.236 57.8674 107.075C57.0838 107.914 56.0682 108.5 54.9499 108.76V108.86C57.6499 109.48 58.7099 111.31 58.1499 113.97L58.0899 114.28C57.1899 118.56 54.6099 120.95 49.0899 120.95L39.9399 120.91ZM46.0799 116.66H49.1799C51.2899 116.66 52.3999 115.76 52.7399 114.18L52.8099 113.87C53.2099 111.87 52.3399 111.17 50.1999 111.17H47.2599L46.0799 116.66ZM48.0799 107.11H50.9999C52.9999 107.11 53.9999 106.27 54.2799 104.82V104.54C54.6599 102.93 54.0399 102.12 52.0799 102.12H49.1799L48.0799 107.11Z" fill="#FFDD00"/>
<path d="M59.75 120.91L64.65 97.9099H73C78.3 97.9099 80.81 100.27 79.85 104.73L79.79 105.14C79.5509 106.409 78.9528 107.583 78.0665 108.522C77.1803 109.462 76.0431 110.127 74.79 110.44V110.56C76.79 111.09 77.45 112.98 77.14 115.71L76.89 117.91C76.7375 118.906 76.7612 119.922 76.96 120.91H71.59C71.5376 119.688 71.5811 118.465 71.72 117.25L71.87 115.25C71.99 113.57 71.25 112.7 69.17 112.7H66.82L65.08 120.89L59.75 120.91ZM67.68 108.57H70.57C71.0362 108.608 71.5055 108.554 71.9508 108.411C72.3962 108.268 72.809 108.039 73.1657 107.736C73.5223 107.433 73.8157 107.063 74.0293 106.647C74.2428 106.23 74.3722 105.776 74.41 105.31L74.54 104.88C74.88 103.21 74.17 102.21 72.18 102.21H69.05L67.68 108.57Z" fill="#FFDD00"/>
<path d="M92.3902 120.91L92.2402 116.48H85.3502L83.3502 120.91H77.7002L89.1402 97.9099H96.2102L97.8502 120.91H92.3902ZM87.2802 112.29H92.1102L91.8302 104.51V102.4H91.7702L90.8702 104.51L87.2802 112.29Z" fill="#FFDD00"/>
<path d="M100.11 120.91L105.01 97.9099H110.71L114.31 110.5L114.77 112.27L115.2 110.27L117.84 97.9299H123L118.1 120.93H112.4L108.8 108.37L108.34 106.64L107.9 108.64L105.3 120.95L100.11 120.91Z" fill="#FFDD00"/>
<path d="M122.15 120.91L127.05 97.9099H134.83C141.44 97.9099 143.64 101.73 142.12 108.76L141.81 110.22C140.26 117.54 137.44 120.95 130.46 120.95L122.15 120.91ZM128.41 116.51H130.71C133.59 116.51 135.42 115.24 136.35 110.68L136.91 108.07C137.84 103.55 136.63 102.24 133.72 102.24H131.45L128.41 116.51Z" fill="#FFDD00"/>
<path d="M153.09 111.36L153.89 107.45C155.35 100.57 158.95 97.45 164.89 97.45C171.12 97.45 172.98 101.14 171.89 106.35L171.79 106.69H166.55L166.65 106.13C167.08 103.65 166.65 102.01 164.01 102.01C161.84 102.01 160.17 103.25 159.36 107.01L158.36 111.88C157.55 115.63 158.76 116.88 160.81 116.88C162.86 116.88 164.56 115.67 165.27 112.76L165.4 112.17H170.64L170.57 112.51C169.4 117.75 166.17 121.41 159.91 121.41C154 121.41 151.63 118.24 153.09 111.36Z" fill="white"/>
<path d="M173.18 111.36L174.01 107.36C175.47 100.63 178.82 97.3601 184.8 97.3601C190.78 97.3601 193.42 100.83 191.93 107.5L191.13 111.28C189.61 118.07 186.41 121.36 180.43 121.36C174.45 121.36 171.69 118.15 173.18 111.36ZM185.67 111.76L186.67 107.11C187.54 103.24 186.36 101.97 184.07 101.97C181.78 101.97 180.22 103.24 179.45 106.97L178.45 111.8C177.64 115.56 178.88 116.86 180.99 116.86C183.25 116.85 184.86 115.51 185.67 111.76Z" fill="white"/>
<path d="M192.36 120.91L197.26 97.9099H203L206.59 110.5L207.06 112.27L207.49 110.27L210.13 97.9299H215.28L210.38 120.93H204.67L201.08 108.37L200.61 106.64L200.18 108.64L197.57 120.95L192.36 120.91Z" fill="white"/>
<path d="M214.81 113.78V113.62H220V113.78C219.66 115.45 220 117.13 222.67 117.13C224.67 117.13 225.83 116.13 226.18 114.58L226.24 114.34C226.64 112.34 225.49 111.92 222.42 110.74C218.33 109.41 216.59 107.64 217.37 103.86L217.43 103.58C218.24 99.8899 221.43 97.4099 226.43 97.4099C231.95 97.4099 234.15 100.32 233.26 104.85V105H228.26V104.85C228.56 103.08 228.16 101.69 225.77 101.69C223.88 101.69 222.86 102.62 222.61 103.83V104.07C222.3 105.56 223.39 106.07 225.46 106.77C230.77 108.41 232.28 110.65 231.46 114.58L231.4 114.9C230.53 118.9 227.09 121.41 221.97 121.41C216.33 121.41 213.78 118.65 214.81 113.78Z" fill="white"/>
<path d="M234.52 112L237.52 97.8899H242.85L239.78 112.43C239.1 115.53 240 116.9 242.17 116.9C244.34 116.9 245.74 115.53 246.42 112.43L249.49 97.8899H254.82L251.82 111.97C250.42 118.45 247.23 121.43 241.15 121.43C235.07 121.43 233.16 118.46 234.52 112Z" fill="white"/>
<path d="M253.53 120.91L258.43 97.9099H263.76L259.76 116.52H268L267 120.95L253.53 120.91Z" fill="white"/>
<path d="M270.39 120.91L274.39 102.31H269L269.93 97.8701H286L285 102.31H279.63L275.63 120.91H270.39Z" fill="white"/>
<path d="M283.32 120.91L288.22 97.9099H293.55L288.65 120.91H283.32Z" fill="white"/>
<path d="M292.68 120.91L297.58 97.9099H303.28L306.88 110.5L307.34 112.27L307.77 110.27L310.4 97.9299H315.55L310.65 120.93H305L301.4 108.37L300.94 106.64L300.51 108.64L297.91 120.95L292.68 120.91Z" fill="white"/>
<path d="M316 111.36L316.84 107.42C318.33 100.57 321.84 97.4199 327.84 97.4199C333.84 97.4199 335.84 100.89 334.78 106.1V106.32H329.51L329.57 105.91C330.04 103.53 329.57 101.91 326.97 101.91C324.86 101.91 323.06 103.25 322.32 106.81L321.2 112C320.39 115.75 321.7 117 323.84 117C326.19 117 327.56 115.73 328.14 113.38L328.3 112.79H324.7L325.57 108.69H334.31L333.82 110.9C332.33 117.81 329.29 121.41 322.97 121.41C317 121.41 314.5 118.24 316 111.36Z" fill="white"/>
</svg>
