<?xml version="1.0" encoding="utf-8"?>
<!-- Generator: Adobe Illustrator 25.0.1, SVG Export Plug-In . SVG Version: 6.00 Build 0)  -->
<svg version="1.1" id="Layer_1" xmlns="http://www.w3.org/2000/svg" xmlns:xlink="http://www.w3.org/1999/xlink" x="0px" y="0px"
	 viewBox="0 0 471 109.3" style="enable-background:new 0 0 471 109.3;" xml:space="preserve">
<style type="text/css">
	.st0{fill:none;stroke:#FFDD00;stroke-miterlimit:10;}
	.st1{fill:#FFFFFF;}
</style>
<g>
	<path class="st0" d="M53.3,56.2l0.7-3.5c2.8-12.4,10.2-18.4,22.6-18.4c12.5,0,18.4,6.5,15.5,18.8l-0.6,3
		c-2.9,12.7-9.9,18.7-22.4,18.7C57.2,75,50.4,68.8,53.3,56.2z M77.9,57.1l1-4.7c1.4-5.8-0.7-7.5-4.3-7.5c-3.5,0-5.8,1.7-7,7.1
		l-1.1,5.3c-1.2,5.6,1.1,7.3,4.1,7.3C74.1,64.5,76.6,62.7,77.9,57.1z"/>
	<path class="st0" d="M95,58.1l4.9-22.8h13.3l-5,23.7c-0.8,3.9,0.5,5.6,3.7,5.6s5.1-1.7,6-5.6l5-23.7h13.4l-4.8,22.8
		c-2.4,11.3-8.3,16.9-21.8,16.9C96.3,75,92.5,69.6,95,58.1z"/>
	<path class="st0" d="M133.3,74l8.2-38.7h19.1c11.1,0,15.4,4.6,13.8,12l-0.2,0.7c-1,4.5-4.2,8.1-8.9,9.3l-0.1,0.2
		c3.7,1,4.7,3.8,4.2,8.7l-0.3,2.9c-0.2,1.9-0.2,3.6,0.1,5h-13.3c-0.2-1.1-0.1-3,0.3-5.9l0.2-2.4c0.3-2.4-0.8-3.7-4-3.7h-3.2l-2.5,12
		L133.3,74L133.3,74z M151,53.3h4.5c2.6,0,4.6-1,5.3-4.3l0.2-0.7c0.5-2.6-0.7-3.7-3.4-3.7h-4.7L151,53.3z"/>
	<path class="st1" d="M179.7,56.2l0.7-3.4c2.7-12.6,10.6-18.5,22.6-18.5c12.2,0,17.5,6,15.5,16.3l-0.1,0.5h-13.2l0.3-1.3
		c0.5-3.3-0.8-5.1-4.3-5.1c-3.3,0-5.9,1.6-7.2,7.3l-1.1,5.3c-1.2,5.6,0.9,7.2,4,7.2c2.9,0,5.6-1.5,6.6-5.1l0.3-1.3H217l-0.1,0.6
		C214.4,69,207,75,194.9,75C182.6,75,177,69,179.7,56.2z"/>
	<path class="st1" d="M217.9,74l8.2-38.7h13.4l-6.1,28.9h14.5l-2,9.8H217.9z"/>
	<path class="st1" d="M249.6,74l8.2-38.7h13.4L263,74H249.6z"/>
	<path class="st1" d="M268.8,74l8.2-38.7h29.8l-2,9.6h-16.4l-1.1,5.4H302l-1.8,8.2h-14.7l-1.3,5.8H301l-2,9.7H268.8z"/>
	<path class="st1" d="M303.3,74l8.2-38.7H326l5.7,18.1l0.8,3.4l0.9-4.2l3.7-17.4h12.3l-8.2,38.7h-14.5l-5.6-18.1l-0.8-3.4l-0.9,4.2
		L315.7,74H303.3z"/>
	<path class="st1" d="M354.1,74l6.1-28.9h-9.7l2.1-9.8h32.8l-2.1,9.8h-9.7L367.4,74H354.1z"/>
	<path class="st1" d="M381.1,61.5l0.1-0.3h12.6l-0.1,0.3c-0.5,2.4,0.2,4.4,4,4.4c3,0,4.4-1.2,4.8-2.9l0.1-0.3
		c0.4-2.1-0.8-2.8-6.3-4.5c-10.4-2.3-12.6-5.8-11.3-12l0.1-0.5c1.4-6.5,7.3-11.3,18.7-11.3c11.6,0,15.7,5.3,14.2,13.2l-0.1,0.3
		h-12.1l0.1-0.3c0.4-2.4-0.3-4.2-3.6-4.2c-2.8,0-4.1,1.1-4.4,2.5l-0.1,0.4c-0.3,1.6,0.7,2.5,4.2,3.3c12.7,2.7,14.8,6.8,13.5,13.1
		l-0.1,0.5c-1.6,7.3-8.5,11.6-19.3,11.6C384.4,75,379.4,69.8,381.1,61.5z"/>
</g>
</svg>
