<svg xmlns="http://www.w3.org/2000/svg" width="219" height="77" viewBox="0 0 219 77"><g transform="translate(-1478 -3488)"><rect width="219" height="77" transform="translate(1478 3488)" fill="#fff" opacity="0"/><g transform="translate(1477.983 3487)"><path d="M12.5,40.3l.5-2.5C15,28.4,20.9,24,29.8,24s13,4.5,11.5,12.1l-.1.4H31.4l.2-1c.3-2.5-.6-3.8-3.2-3.8s-4.4,1.2-5.3,5.4L22.3,41c-.9,4.1.7,5.4,2.9,5.4a4.835,4.835,0,0,0,4.9-3.8l.2-1h9.8L40,42c-1.8,7.6-7.4,12-16.3,12S10.5,49.7,12.5,40.3Z" fill="#fff"/><path d="M42,42.5l.3-1.3c1.5-7.5,6.4-11.4,14.5-11.4s12,3.9,10.4,11.6l-.3,1.4c-1.5,7.6-6.4,11.5-14.5,11.5S40.4,50.1,42,42.5Zm15.7.6.5-2.6c.7-3.1-.6-4.1-2.5-4.1s-3.5,1-4.3,4.2l-.6,2.6c-.7,3.1.6,4.1,2.5,4.1C55.4,47.4,56.9,46.4,57.7,43.1Z" fill="#fff"/><path d="M67.5,53.3l4.9-22.9h9.1L81.1,32l-.9,2.4h.2a9.946,9.946,0,0,1,8.4-4.7c3.8,0,5.8,2,6.2,4.7h.2a9.946,9.946,0,0,1,8.4-4.7c6.8,0,6.6,5.6,5.7,10.1l-2.9,13.6H97.3l2.8-13c.4-1.9.3-3.8-1.8-3.8s-3.6,2-4.1,4.2L91.5,53.4H82.4L85.3,40c.4-1.8.2-3.5-1.9-3.5s-3.7,2.1-4.1,4.2L76.6,53.3H67.5Z" fill="#fff"/><path d="M110,53.3l4.9-22.9H124l-.3,1.6-.8,2.4h.2a9.946,9.946,0,0,1,8.4-4.7c3.9,0,5.8,2,6.2,4.7h.2a9.946,9.946,0,0,1,8.4-4.7c6.8,0,6.6,5.6,5.7,10.1l-2.9,13.6H140l2.8-13c.4-1.9.4-3.8-1.8-3.8s-3.6,2-4.1,4.2L134,53.4h-9.1l2.9-13.3c.4-1.8.2-3.5-1.9-3.5s-3.6,2.1-4.1,4.2l-2.7,12.6H110Z" fill="#fff"/><path d="M153.4,45.6v-.2H162v.2c-.3,2,.9,2.7,2.7,2.7s2.7-.5,2.9-1.5v-.2c.3-1.1-.5-1.7-3.5-2.2-7.8-1.3-9.3-3.7-8.4-7.6l.1-.3c.8-3.6,4.1-6.8,12.4-6.8,8.1,0,10.5,3.4,9.7,7.8v.2h-8.2v-.2c.1-1.2-.6-2-2.6-2-1.7,0-2.3.6-2.5,1.3V37c-.2,1.1.7,1.6,3.4,2,7.5,1.1,9.6,3.4,8.7,7.8l-.1.3c-.9,4.4-4.9,7-12.8,7C155.6,54,152.3,50.6,153.4,45.6Z" fill="#fff"/><path d="M183.6,53.3l4.6-21.4H181l1.5-7.3h24.3l-1.5,7.3h-7.2l-4.6,21.4h-9.9Z"/></g></g></svg>