<svg xmlns="http://www.w3.org/2000/svg" width="219" height="77" viewBox="0 0 219 77"><g transform="translate(-4.725 -5.37)"><rect width="219" height="77" transform="translate(4.725 5.37)" fill="#fff" opacity="0"/><path d="M17.21,45.64l.54-2.55c2-9.33,7.83-13.72,16.78-13.72S47.48,33.84,46,41.44l-.08.38h-9.8l.2-1c.34-2.47-.62-3.78-3.16-3.78s-4.4,1.16-5.33,5.44L27,46.41c-.88,4.13.66,5.36,2.94,5.36A4.74,4.74,0,0,0,34.83,48l.23-1h9.76l-.08.42c-1.85,7.56-7.36,12-16.31,12S15.21,55.05,17.21,45.64Z" fill="#fff"/><path d="M46.71,47.84,47,46.49c1.5-7.52,6.4-11.42,14.5-11.42s12,3.94,10.41,11.57L71.62,48c-1.54,7.6-6.4,11.49-14.54,11.49S45.13,55.47,46.71,47.84Zm15.69.65.54-2.62c.7-3.08-.58-4.13-2.47-4.13s-3.54,1-4.28,4.25l-.57,2.62c-.7,3.12.61,4.12,2.46,4.12,2.05,0,3.55-1,4.32-4.24Z" fill="#fff"/><path d="M72.23,58.71l4.86-22.9h9.1l-.34,1.58L85,39.78h.19a9.89,9.89,0,0,1,8.41-4.71c3.85,0,5.82,2,6.17,4.71H100a10.11,10.11,0,0,1,8.37-4.71c6.82,0,6.59,5.56,5.66,10.07l-2.89,13.57H102l2.78-13c.42-1.93.35-3.78-1.78-3.78s-3.62,2-4.12,4.24l-2.7,12.57h-9.1L90,45.41c.39-1.81.16-3.51-1.89-3.51S84.46,44,84,46.14L81.34,58.71Z" fill="#fff"/><path d="M114.76,58.71l4.86-22.9h9.1l-.34,1.58-.81,2.39h.19a9.89,9.89,0,0,1,8.41-4.71c3.85,0,5.82,2,6.17,4.71h.19a10.11,10.11,0,0,1,8.37-4.71c6.82,0,6.59,5.56,5.66,10.07l-2.89,13.57h-9.1l2.78-13c.42-1.93.35-3.78-1.78-3.78s-3.62,2-4.12,4.24l-2.7,12.57h-9.1l2.85-13.3c.39-1.81.16-3.51-1.89-3.51S127,44,126.53,46.14l-2.66,12.57Z" fill="#fff"/><path d="M158.11,51v-.23h8.6V51c-.34,2,.85,2.7,2.74,2.7s2.66-.5,2.86-1.47V52c.27-1.12-.54-1.66-3.54-2.2-7.83-1.35-9.26-3.66-8.41-7.59l.08-.35c.77-3.62,4.12-6.79,12.41-6.79,8.1,0,10.49,3.36,9.68,7.75V43H174.3v-.19c.12-1.16-.62-2-2.58-2-1.7,0-2.32.58-2.51,1.27v.2c-.19,1.11.66,1.58,3.39,2,7.52,1.12,9.61,3.43,8.72,7.75l-.08.35c-.92,4.39-4.93,7-12.8,7C160.34,59.41,157,56,158.11,51Z" fill="#fff"/><path d="M188.3,58.71l4.55-21.44h-7.18L187.22,30h24.29L210,37.27h-7.2l-4.59,21.44Z" fill="#fd0"/></g></svg>