<?xml version="1.0" encoding="utf-8"?>
<!-- Generator: Adobe Illustrator 25.0.1, SVG Export Plug-In . SVG Version: 6.00 Build 0)  -->
<svg version="1.1" id="Layer_1" xmlns="http://www.w3.org/2000/svg" xmlns:xlink="http://www.w3.org/1999/xlink" x="0px" y="0px"
	 viewBox="0 0 632.3 109.3" style="enable-background:new 0 0 632.3 109.3;" xml:space="preserve">
<style type="text/css">
	.st0{fill:#FFDD00;}
	.st1{fill:none;stroke:#FFDD00;stroke-miterlimit:10;}
</style>
<g>
	<path class="st0" d="M44.8,62.7l0.7-3.4c2.7-12.6,10.6-18.5,22.6-18.5c12.2,0,17.5,6,15.5,16.3l-0.1,0.5H70.4l0.3-1.3
		c0.5-3.3-0.8-5.1-4.3-5.1c-3.3,0-5.9,1.6-7.2,7.3l-1.1,5.3C56.9,69.3,59,71,62,71c2.9,0,5.6-1.5,6.6-5.1l0.3-1.3h13.2L82,65.1
		C79.5,75.3,72,81.3,60,81.3C47.7,81.3,42.1,75.4,44.8,62.7z"/>
	<path class="st0" d="M85.4,62.7l0.7-3.5c2.8-12.5,10.2-18.5,22.6-18.5c12.5,0,18.4,6.5,15.5,18.8l-0.6,3
		c-2.9,12.7-9.9,18.7-22.4,18.7C89.3,81.3,82.5,75.3,85.4,62.7z M110,63.5l1-4.7c1.4-5.8-0.7-7.5-4.3-7.5c-3.5,0-5.8,1.7-7,7.1
		l-1.1,5.3c-1.2,5.6,1.1,7.3,4.1,7.3C106.2,70.9,108.7,69.1,110,63.5z"/>
	<path class="st0" d="M124.4,80.3l8.2-38.7h14.5l5.7,18.1l0.8,3.4l0.9-4.2l3.7-17.4h12.3l-8.2,38.7h-14.5l-5.6-18.1l-0.8-3.4
		l-0.9,4.2l-3.7,17.4H124.4z"/>
	<path class="st0" d="M168,80.3l8.2-38.7h14.5l5.7,18.1l0.8,3.4l0.9-4.2l3.7-17.4H214l-8.2,38.7h-14.5l-5.6-18.1l-0.8-3.4l-0.9,4.2
		l-3.7,17.4H168z"/>
	<path class="st0" d="M211.6,80.3l8.2-38.7h29.8l-2,9.6h-16.4l-1.1,5.4h14.7l-1.8,8.2h-14.7l-1.3,5.8h16.8l-2,9.7H211.6z"/>
	<path class="st0" d="M248.5,62.7l0.7-3.4c2.7-12.6,10.6-18.5,22.6-18.5c12.2,0,17.5,6,15.5,16.3l-0.1,0.5H274l0.3-1.3
		c0.5-3.3-0.8-5.1-4.3-5.1c-3.3,0-5.9,1.6-7.2,7.3l-1.1,5.3c-1.2,5.6,0.9,7.2,4,7.2c2.9,0,5.6-1.5,6.6-5.1l0.3-1.3h13.2l-0.1,0.6
		c-2.5,10.2-9.9,16.2-22,16.2C251.4,81.3,245.8,75.4,248.5,62.7z"/>
	<path class="st0" d="M293.1,80.3l6.1-28.9h-9.7l2.1-9.8h32.8l-2.1,9.8h-9.7l-6.2,28.9H293.1z"/>
	<path class="st1" d="M343,80.3l-0.5-38.7h13l-0.8,24.3l-0.4,4.3h0.1l1.6-4.3l8.9-24.3h14.2l-1.5,24.3l-0.3,4.3h0.1l1.5-4.3
		l9.2-24.3h13.3l-16.9,38.7H368l1.3-23.5l0.3-3.7h-0.1l-1.3,3.7l-8.6,23.5H343z"/>
	<path class="st1" d="M396.3,80.3l8.2-38.7h13.4l-8.2,38.7H396.3z"/>
	<path class="st1" d="M422.7,80.3l6.1-28.9h-9.7l2.1-9.8H454l-2.1,9.8h-9.7l-6.2,28.9H422.7z"/>
	<path class="st1" d="M480.6,41.6H494l-8.2,38.7h-13.4l3.1-14.7h-9.9l-3.1,14.7h-13.4l8.2-38.7h13.4l-3,14.2h9.9L480.6,41.6z"/>
	<path class="st1" d="M511.7,64.4l4.9-22.8h13.4l-5,23.7c-0.8,3.9,0.5,5.6,3.7,5.6c3.2,0,5.1-1.7,6-5.6l5-23.7H553l-4.8,22.8
		c-2.4,11.3-8.3,16.9-21.8,16.9C513,81.3,509.2,75.9,511.7,64.4z"/>
	<path class="st1" d="M550.9,67.9l0.1-0.3h12.6l-0.1,0.3c-0.5,2.4,0.2,4.4,4,4.4c3,0,4.4-1.2,4.8-2.9l0.1-0.3
		c0.4-2.1-0.8-2.8-6.3-4.5c-10.4-2.3-12.6-5.8-11.3-12l0.1-0.5c1.4-6.5,7.3-11.3,18.7-11.3c11.6,0,15.7,5.3,14.2,13.2l-0.1,0.3
		h-12.1l0.1-0.3c0.4-2.4-0.3-4.2-3.6-4.2c-2.8,0-4.1,1.1-4.4,2.5l-0.1,0.4c-0.3,1.6,0.7,2.5,4.2,3.3c12.7,2.7,14.8,6.8,13.5,13.1
		l-0.1,0.5c-1.6,7.3-8.5,11.6-19.3,11.6C554.2,81.3,549.2,76.2,550.9,67.9z"/>
</g>
</svg>
