<svg id="Layer_1" data-name="Layer 1" xmlns="http://www.w3.org/2000/svg" viewBox="0 0 200 200"><defs><style>.cls-1{fill:#fd0;}.cls-2,.cls-4{fill:#fff;}.cls-3,.cls-4,.cls-5{fill-rule:evenodd;}.cls-5{fill:#231f20;}</style></defs><circle class="cls-1" cx="100" cy="100" r="60"/><path class="cls-2" d="M100,150a50,50,0,1,1,50-50A50.06,50.06,0,0,1,100,150Zm0-90.95A41,41,0,1,0,141,100,41,41,0,0,0,100,59.05Z"/><path class="cls-3" d="M130.24,78.44a9.21,9.21,0,0,0-5.65-5.23c-2-.64-5-.41-7.62-.41H102.78c-3.5,0-9.33-.51-12.1.35-7.4,2.28-6.52,8.77-6.52,18.15,0,3.49-.34,7.68.7,10.18,2.84,6.85,10.22,5.65,19.6,5.59l10.71,9.6c.78.76,2.83,3.28,4.42,2.61a2,2,0,0,0,1-1.22l.06-11c5.87,0,9.2-2.92,10.12-7.8l.06-10C130.88,85.72,131.32,81.08,130.24,78.44Zm-3.14,21a5.68,5.68,0,0,1-4.77,4c-1.53.26-3.58-.38-4.6.35s-.65,7.57-.64,9.72l-8.38-7.45c-1-.78-1.86-2.31-3.2-2.62h-3.43c-5.55,0-11.34.93-13.5-2.62-1.5-2.46-.81-11.65-.81-15.76,0-2-.17-4.33.58-5.65,1.2-2.1,2.06-2.05,4.3-3h22.69c4,0,7.82-.44,10.07,1.34,2.73,2.15,1.86,8.81,1.86,13.61C127.27,93.71,127.69,97.49,127.1,99.45Z"/><path class="cls-4" d="M99.4,88c-2.47,1.06-1.65,4.15.64,3.61A1.84,1.84,0,0,0,99.4,88Zm7.92,0c-.53.23-1,.33-1.28.76a1.84,1.84,0,1,0,1.28-.76Zm7.91,0c-.59.25-1.08.38-1.4.88a1.83,1.83,0,1,0,1.4-.88Z"/><path class="cls-5" d="M103.42,113.06a2,2,0,0,0-1.17-1.57,51.13,51.13,0,0,0-8,0c-1.13.44-2,1.77-2.86,2.5L83,121.44c0-2.17.45-8.84-.64-9.66s-3.19-.1-4.83-.41a5.65,5.65,0,0,1-4.77-5.12v-5.12C72.76,96.44,72,89,74,86.3a5.76,5.76,0,0,1,3.08-1.86c1.13-.28,2.1,0,2.68-.82a1.89,1.89,0,0,0-1.22-2.91c-2-.38-4,.76-5.12,1.46-5.22,3.38-4.31,9.12-4.31,17.45,0,2.59-.36,5.79.18,8.09,1,4.55,4.33,7.33,10.06,7.27v8.61c0,1.54-.13,2.9.81,3.49,1.7,1,3.46-1.27,4.25-2L95.56,115C98,115,103.84,115.77,103.42,113.06Z"/></svg>