<svg id="Layer_1" data-name="Layer 1" xmlns="http://www.w3.org/2000/svg" viewBox="0 0 476.82 443.77"><defs><style>.cls-1{fill:#ffd400;fill-rule:evenodd;}</style></defs><path class="cls-1" d="M375.22,124.35a41.77,41.77,0,0,0-25.53-23.69c-9-2.89-22.82-1.84-34.49-1.84H251c-15.83,0-42.21-2.29-54.76,1.58-33.46,10.32-29.48,39.7-29.48,82.13,0,15.77-1.54,34.74,3.16,46.06,12.87,31,46.25,25.53,88.71,25.27L307,297.29c3.54,3.44,12.8,14.84,20,11.85a9,9,0,0,0,4.74-5.53q.13-24.87.26-49.75c26.59.14,41.65-13.2,45.8-35.27l.27-45C378.12,157.27,380.12,136.3,375.22,124.35Zm-14.21,95c-3,9.85-10.56,16.3-21.59,18.16-6.92,1.17-16.18-1.72-20.79,1.58-5,3.56-2.93,34.25-2.9,44l-37.9-33.69c-4.35-3.51-8.44-10.44-14.48-11.85H247.82c-25.11,0-51.3,4.21-61.07-11.84-6.79-11.16-3.69-52.73-3.69-71.34,0-9.28-.75-19.58,2.64-25.53,5.43-9.53,9.3-9.3,19.47-13.69H307.83c18,0,35.36-2,45.54,6,12.35,9.77,8.43,39.88,8.43,61.6C361.8,193.41,363.69,210.54,361,219.38Z"/><path class="cls-1" d="M235.71,167.78c-11.19,4.78-7.46,18.76,2.89,16.33C247.72,182,246.53,167.52,235.71,167.78Zm35.8,0c-2.36,1-4.43,1.5-5.79,3.43-4,5.68.86,14.77,8.68,12.9C283.47,181.93,282.22,167.65,271.51,167.78Zm35.8,0c-2.66,1.14-4.86,1.71-6.32,3.95-3.72,5.72,1.75,14,8.95,12.38C319.12,182.08,317.87,167.79,307.31,167.78Z"/><path class="cls-1" d="M253.87,281a9,9,0,0,0-5.26-7.1c-2.5-1-34-.92-36.33,0-5.1,2-8.79,8-12.9,11.32l-37.9,33.69c0-9.81,2.07-40-2.9-43.7s-14.4-.45-21.84-1.84c-12.33-2.3-19.53-10.49-21.59-23.16V227c0-21.21-3.57-55.08,5.79-67.12,3-3.89,8.46-7.08,13.95-8.43,5.11-1.24,9.49-.12,12.11-3.68,4-5.4-.15-12.11-5.53-13.16-8.9-1.75-18.32,3.44-23.16,6.58-23.62,15.31-19.48,41.27-19.48,79,0,11.74-1.62,26.2.79,36.59,4.78,20.57,19.62,33.19,45.54,32.9v39c0,7-.61,13.14,3.68,15.79,7.69,4.75,15.63-5.76,19.22-9.21l50.28-45.54C229.48,289.84,255.79,293.24,253.87,281Z"/></svg>