<svg width="500" height="166" viewBox="0 0 500 166" fill="none" xmlns="http://www.w3.org/2000/svg">
<path d="M29.1499 107.62L29.9499 103.72C31.4099 96.83 35.0099 93.72 40.9499 93.72C47.1799 93.72 49.0399 97.41 47.9499 102.62L47.8499 102.96H42.5999L42.6999 102.4C43.1299 99.92 42.6999 98.28 40.0599 98.28C37.8899 98.28 36.2199 99.52 35.4099 103.28L34.4099 108.15C33.5999 111.9 34.8099 113.15 36.8599 113.15C38.9099 113.15 40.6099 111.94 41.3199 109.03L41.4499 108.44H46.6899L46.6199 108.78C45.4499 114.02 42.2199 117.68 35.9599 117.68C30.0499 117.67 27.6899 114.51 29.1499 107.62Z" fill="#FFDD00"/>
<path d="M49.2399 107.62L50.0699 103.62C51.5299 96.9001 54.8799 93.6201 60.8599 93.6201C66.8399 93.6201 69.4799 97.0901 67.9999 103.76L67.1899 107.54C65.6699 114.33 62.4799 117.62 56.4899 117.62C50.6599 117.67 47.7499 114.41 49.2399 107.62ZM61.7299 108.03L62.7299 103.38C63.5999 99.5001 62.4199 98.2301 60.1299 98.2301C57.8399 98.2301 56.2799 99.5001 55.5099 103.23L54.5099 108.07C53.6999 111.82 54.9399 113.07 57.0499 113.07C59.3099 113.11 60.9299 111.78 61.7299 108V108.03Z" fill="#FFDD00"/>
<path d="M68.4199 117.17L73.3199 94.1699H79.9999L81.2999 106.72V108.06H81.3999L82.0499 106.72L88.6999 94.1399H95.3699L90.4699 117.14H85.3199L87.9999 104.83L88.6499 102.07H88.5899L87.9399 103.25L81.9999 114.17H78.1899L76.9199 103.25L76.7699 102.07H76.6999L76.2099 104.83L73.5699 117.17H68.4199Z" fill="#FFDD00"/>
<path d="M94.5 117.17L99.39 94.1699H106.06L107.36 106.72V108.06H107.46L108.11 106.72L114.74 94.1699H121.41L116.51 117.17H111.36L114 104.83L114.65 102.07H114.59L113.94 103.25L108.02 114.17H104.23L103 103.25L102.85 102.07H102.78L102.29 104.83L99.65 117.17H94.5Z" fill="#FFDD00"/>
<path d="M122 108.24L125 94.1399H130.33L127.26 108.68C126.58 111.78 127.48 113.14 129.65 113.14C131.82 113.14 133.22 111.78 133.9 108.68L137 94.1399H142.33L139.33 108.21C137.93 114.69 134.74 117.67 128.66 117.67C122.58 117.67 120.66 114.72 122 108.24Z" fill="#FFDD00"/>
<path d="M141 117.17L145.89 94.1699H151.6L155.2 106.76L155.66 108.52L156.1 106.52L158.73 94.1799H163.88L158.98 117.18H153.28L149.68 104.63L149.21 102.89L148.78 104.89L146.17 117.2L141 117.17Z" fill="#FFDD00"/>
<path d="M163.07 117.17L167.97 94.1699H173.3L168.4 117.17H163.07Z" fill="#FFDD00"/>
<path d="M173.73 107.62L174.54 103.72C175.99 96.83 179.59 93.72 185.48 93.72C191.71 93.72 193.57 97.41 192.48 102.62L192.39 102.96H187.15L187.24 102.4C187.67 99.92 187.24 98.28 184.6 98.28C182.43 98.28 180.76 99.52 179.95 103.28L178.95 108.15C178.14 111.9 179.35 113.15 181.4 113.15C183.45 113.15 185.15 111.94 185.86 109.03L185.99 108.44H191.23L191.17 108.78C189.99 114.02 186.76 117.68 180.5 117.68C174.63 117.67 172.27 114.51 173.73 107.62Z" fill="#FFDD00"/>
<path d="M204.86 117.17L204.7 112.74H197.82L195.82 117.17H190.21L201.65 94.1699H208.72L210.36 117.17H204.86ZM199.74 108.55H204.58L204.3 100.77V98.6599H204.24L203.34 100.77L199.74 108.55Z" fill="#FFDD00"/>
<path d="M214.22 117.17L218.22 98.5699H212.82L213.75 94.1399H229.87L228.87 98.5699H223.51L219.51 117.17H214.22Z" fill="#FFDD00"/>
<path d="M227.14 117.17L232.04 94.1699H237.38L232.48 117.17H227.14Z" fill="#FFDD00"/>
<path d="M237.81 107.62L238.64 103.62C240.1 96.9001 243.45 93.6201 249.43 93.6201C255.41 93.6201 258.05 97.0901 256.57 103.76L255.76 107.54C254.24 114.33 251.05 117.62 245.06 117.62C239.23 117.67 236.32 114.41 237.81 107.62ZM250.3 108.03L251.3 103.38C252.17 99.5001 250.99 98.2301 248.7 98.2301C246.41 98.2301 244.85 99.5001 244.08 103.23L243.08 108.07C242.27 111.82 243.51 113.07 245.62 113.07C247.88 113.11 249.5 111.78 250.3 108V108.03Z" fill="#FFDD00"/>
<path d="M257 117.17L261.89 94.1699H267.6L271.2 106.76L271.66 108.52L272.1 106.52L274.73 94.1799H279.88L274.98 117.18H269.3L265.71 104.63L265.24 102.89L264.81 104.89L262.2 117.2L257 117.17Z" fill="#FFDD00"/>
<path d="M289.3 107.62L290.1 103.72C291.56 96.83 295.16 93.72 301.05 93.72C307.28 93.72 309.14 97.41 308.05 102.62L307.95 102.96H302.71L302.81 102.4C303.24 99.92 302.81 98.28 300.17 98.28C298 98.28 296.33 99.52 295.52 103.28L294.52 108.15C293.71 111.9 294.92 113.15 296.97 113.15C299.02 113.15 300.72 111.94 301.43 109.03L301.56 108.44H306.8L306.73 108.78C305.56 114.02 302.33 117.68 296.07 117.68C290.2 117.67 287.84 114.51 289.3 107.62Z" fill="white"/>
<path d="M309.38 107.62L310.22 103.62C311.68 96.9001 315.03 93.6201 321.01 93.6201C326.99 93.6201 329.63 97.0901 328.14 103.76L327.34 107.54C325.82 114.33 322.62 117.62 316.64 117.62C310.81 117.67 307.9 114.41 309.38 107.62ZM321.88 108.03L322.88 103.38C323.75 99.5001 322.57 98.2301 320.28 98.2301C317.99 98.2301 316.43 99.5001 315.66 103.23L314.66 108.07C313.85 111.82 315.09 113.07 317.2 113.07C319.46 113.11 321.07 111.78 321.88 108V108.03Z" fill="white"/>
<path d="M328.57 117.17L333.47 94.1699H339.18L342.77 106.76L343.24 108.52L343.67 106.52L346.31 94.1799H351.46L346.56 117.18H340.85L337.26 104.63L336.79 102.89L336.36 104.89L333.75 117.2L328.57 117.17Z" fill="white"/>
<path d="M351 110V109.85H356.18V110C355.83 111.68 356.18 113.35 358.84 113.35C360.89 113.35 362 112.35 362.35 110.81L362.41 110.56C362.81 108.61 361.66 108.14 358.59 106.96C354.5 105.63 352.77 103.86 353.54 100.08L353.6 99.7999C354.41 96.1099 357.6 93.6299 362.6 93.6299C368.11 93.6299 370.32 96.5499 369.42 101.07V101.23H364.42V101.07C364.73 99.3099 364.32 97.9099 361.93 97.9099C360.04 97.9099 359.02 98.8399 358.77 100.05V100.3C358.46 101.79 359.55 102.3 361.62 102.99C366.93 104.64 368.45 106.87 367.62 110.81L367.56 111.12C366.69 115.12 363.25 117.63 358.13 117.63C352.54 117.67 350 114.91 351 110Z" fill="white"/>
<path d="M370.73 108.24L373.73 94.1399H379.06L376 108.68C375.32 111.78 376.22 113.14 378.39 113.14C380.56 113.14 381.96 111.78 382.64 108.68L385.71 94.1399H391L388 108.21C386.6 114.69 383.41 117.67 377.33 117.67C371.25 117.67 369.37 114.72 370.73 108.24Z" fill="white"/>
<path d="M389.74 117.17L394.63 94.1699H400L396 112.77H404.25L403.25 117.2L389.74 117.17Z" fill="white"/>
<path d="M406.6 117.17L410.6 98.5699H405.2L406.13 94.1399H422.26L421.26 98.5699H415.9L411.9 117.17H406.6Z" fill="white"/>
<path d="M419.53 117.17L424.43 94.1699H429.76L424.86 117.17H419.53Z" fill="white"/>
<path d="M428.89 117.17L433.79 94.1699H439.49L443.09 106.76L443.55 108.52L443.98 106.52L446.61 94.1799H451.76L446.86 117.18H441.16L437.56 104.63L437.1 102.89L436.67 104.89L434.07 117.2L428.89 117.17Z" fill="white"/>
<path d="M452.23 107.62L453.07 103.69C454.56 96.8299 458.07 93.6899 464.07 93.6899C470.07 93.6899 472.07 97.1599 471.01 102.37V102.59H465.74L465.8 102.19C466.27 99.7999 465.8 98.1899 463.2 98.1899C461.09 98.1899 459.29 99.5199 458.55 103.09L457.43 108.23C456.62 111.99 457.93 113.23 460.07 113.23C462.42 113.23 463.79 111.96 464.37 109.6L464.53 109.01H460.93L461.8 104.92H470.54L470.05 107.12C468.56 114.03 465.52 117.63 459.2 117.63C453.16 117.67 450.71 114.51 452.23 107.62Z" fill="white"/>
<path d="M122 69.5201L122.73 66.0901C125.38 53.5101 133.29 47.5801 145.35 47.5801C157.57 47.5801 162.83 53.5801 160.85 63.8601L160.75 64.3801H147.51L147.77 63.0801C148.24 59.7501 146.94 57.9801 143.5 57.9801C140.06 57.9801 137.58 59.5401 136.33 65.3101L135.23 70.5601C134.04 76.1301 136.12 77.7901 139.23 77.7901C140.756 77.8555 142.254 77.3734 143.455 76.4308C144.656 75.4882 145.481 74.1473 145.78 72.6501L146.09 71.3501H159.25L159.14 71.9201C156.65 82.1101 149.21 88.1401 137.14 88.1401C124.83 88.1401 119.27 82.2101 122 69.5201Z" fill="white"/>
<path d="M161.75 72.49L162.12 70.67C164.12 60.53 170.75 55.28 181.67 55.28C192.59 55.28 197.79 60.58 195.67 70.88L195.31 72.65C193.23 82.89 186.67 88.14 175.7 88.14C164.73 88.14 159.62 82.79 161.75 72.49ZM182.92 73.37L183.65 69.84C184.58 65.68 182.87 64.27 180.32 64.27C177.61 64.27 175.53 65.68 174.55 69.99L173.77 73.53C172.83 77.74 174.6 79.09 177.09 79.09C179.85 79.09 181.88 77.74 182.92 73.37Z" fill="white"/>
<path d="M196.18 87.15L202.73 56.26H215L214.54 58.4L213.44 61.62H213.7C214.891 59.6914 216.553 58.0976 218.53 56.9885C220.507 55.8793 222.733 55.2914 225 55.28C230.2 55.28 232.85 57.93 233.32 61.62H233.58C234.788 59.7114 236.451 58.1328 238.42 57.0261C240.389 55.9195 242.602 55.3195 244.86 55.28C254.07 55.28 253.76 62.77 252.51 68.85L248.61 87.15H236.38L240.12 69.58C240.69 66.98 240.59 64.48 237.73 64.48C234.87 64.48 232.84 67.13 232.16 70.2L228.52 87.2H216.25L220.1 69.26C220.62 66.82 220.31 64.53 217.55 64.53C214.79 64.53 212.66 67.34 212.04 70.25L208.45 87.25L196.18 87.15Z" fill="white"/>
<path d="M253.53 87.15L260.09 56.26H272.36L271.89 58.4L270.8 61.62H271.06C272.252 59.6858 273.919 58.0882 275.901 56.9787C277.884 55.8691 280.118 55.2844 282.39 55.28C287.59 55.28 290.25 57.93 290.71 61.62H291C292.209 59.7106 293.874 58.1316 295.845 57.025C297.815 55.9183 300.03 55.3187 302.29 55.28C311.49 55.28 311.18 62.77 309.93 68.85L306 87.15H293.73L297.48 69.58C298.05 66.98 297.94 64.48 295.08 64.48C292.22 64.48 290.2 67.13 289.52 70.2L285.88 87.2H273.61L277.46 69.26C277.97 66.82 277.66 64.53 274.91 64.53C272.16 64.53 270.02 67.34 269.39 70.25L265.81 87.25L253.53 87.15Z" fill="white"/>
<path d="M312 76.75V76.44H323.6L323.55 76.75C323.08 79.46 324.69 80.39 327.24 80.39C329.79 80.39 330.83 79.72 331.09 78.39L331.14 78.08C331.51 76.57 330.41 75.84 326.36 75.08C315.8 73.26 313.88 70.14 315.02 64.84L315.12 64.37C316.12 59.48 320.69 55.22 331.87 55.22C342.79 55.22 346.01 59.74 344.92 65.67V65.88H333.82L333.88 65.62C334 64.12 333 63 330.39 63C328.1 63 327.27 63.78 327.01 64.72L327 65C326.74 66.51 327.88 67.13 331.58 67.76C341.72 69.26 344.52 72.38 343.33 78.21L343.22 78.68C341.98 84.6 336.57 88.14 325.96 88.14C315 88.09 310.53 83.51 312 76.75Z" fill="white"/>
<path d="M352.7 87.15L358.83 58.24H349.16L351.24 48.46H384L381.92 58.24H372.25L366.06 87.15H352.7Z" fill="#FFDD00"/>
</svg>
