<svg width="229" height="89" viewBox="0 0 229 89" fill="none" xmlns="http://www.w3.org/2000/svg">
<path d="M59.3008 27.1H73.7008C77.0008 27.1 79.6008 27.7 81.5008 28.8C83.4008 29.9 84.7008 31.6 85.3008 33.7C85.9008 35.8 85.9008 38.3 85.3008 41.3L84.8008 43.7C84.2008 46.7 83.2008 49.3 81.9008 51.3C80.6008 53.3 78.8008 54.9 76.5008 56C74.2008 57.1 71.3008 57.6 67.8008 57.6H52.8008L59.3008 27.1ZM70.9008 49.5C71.7008 49.1 72.4008 48.6 73.0008 47.7C73.6008 46.9 74.0008 45.7 74.3008 44.3L75.2008 40.3C75.5008 38.9 75.5008 37.7 75.3008 36.9C75.1008 36.1 74.7008 35.5 74.0008 35.2C73.4008 34.9 72.5008 34.7 71.3008 34.7H68.4008L65.0008 50H68.0008C69.1008 50 70.1008 49.8 70.9008 49.5Z" fill="white"/>
<path d="M90.3016 33.2H99.9016L94.7016 57.5H85.1016L90.3016 33.2ZM92.5016 30.8C91.8016 30.5 91.3016 30.1 91.0016 29.6C90.7016 29 90.7016 28.3 90.9016 27.4C91.2016 26.1 91.8016 25.1 92.8016 24.5C93.8016 23.9 95.2016 23.6 97.2016 23.6C98.4016 23.6 99.4016 23.7 100.102 24C100.802 24.3 101.402 24.7 101.602 25.3C101.902 25.9 101.902 26.6 101.702 27.5C101.402 28.8 100.802 29.8 99.8016 30.4C98.8016 31 97.4016 31.3 95.4016 31.3C94.2016 31.2 93.2016 31 92.5016 30.8Z" fill="white"/>
<path d="M103.2 65.2C101.7 65 100.2 64.7 98.9004 64.3L100.6 58C101.6 58.3 102.7 58.6 104.2 58.7C105.6 58.9 106.9 58.9 108.1 58.9C109.5 58.9 110.6 58.7 111.6 58.4C112.6 58.1 113.3 57.6 113.9 57C114.5 56.4 114.9 55.6 115.2 54.6L115.9 52.1H115.4L116.3 51.4C115.3 53.1 114 54.3 112.4 55.2C110.8 56.1 109.2 56.5 107.3 56.5C105.3 56.5 103.7 56.1 102.5 55.2C101.3 54.3 100.6 53 100.3 51.2C100 49.4 100.1 47.3 100.6 44.8L100.7 44C101.2 41.4 102 39.3 103.1 37.6C104.1 35.9 105.4 34.6 107 33.7C108.6 32.8 110.4 32.4 112.4 32.4C113.6 32.4 114.7 32.6 115.7 33C116.7 33.4 117.4 34 118.1 34.8C118.7 35.6 119.1 36.6 119.2 37.8L118.7 38V37.1H119.4L119.6 34.7L119.9 33.2H129.5L125 53C124.4 55.9 123.4 58.2 121.9 60.1C120.5 61.9 118.6 63.3 116.4 64.2C114.1 65.1 111.4 65.5 108.2 65.5C106.4 65.5 104.7 65.4 103.2 65.2ZM114.6 49.3C115.2 48.9 115.7 48.5 116.1 47.9C116.5 47.3 116.7 46.7 116.9 45.9L117.3 43.5C117.5 42.8 117.5 42.1 117.4 41.5C117.3 40.9 117 40.4 116.6 40C116.2 39.6 115.5 39.4 114.7 39.4C113.9 39.4 113.2 39.6 112.6 40C112 40.4 111.5 40.9 111.2 41.5C110.8 42.1 110.6 42.9 110.4 43.7L109.9 46C109.7 46.8 109.7 47.4 109.8 48C109.9 48.6 110.2 49 110.6 49.3C111 49.6 111.6 49.8 112.5 49.8C113.3 49.8 114 49.7 114.6 49.3Z" fill="white"/>
<path d="M133.2 33.2H142.8L137.6 57.5H128L133.2 33.2ZM135.4 30.8C134.7 30.5 134.2 30.1 133.9 29.6C133.6 29 133.6 28.3 133.8 27.4C134.1 26.1 134.7 25.1 135.7 24.5C136.7 23.9 138.1 23.6 140.1 23.6C141.3 23.6 142.3 23.7 143 24C143.7 24.3 144.3 24.7 144.5 25.3C144.8 25.9 144.8 26.6 144.6 27.5C144.3 28.8 143.7 29.8 142.7 30.4C141.7 31 140.3 31.3 138.3 31.3C137.2 31.2 136.2 31 135.4 30.8Z" fill="white"/>
<path d="M148.301 56.6C146.201 55.5 144.701 53.9 143.901 51.7C143.101 49.5 143.101 46.8 143.701 43.6L144.301 40.9C145.101 37.7 146.201 35 147.801 32.8C149.301 30.7 151.301 29.1 153.701 28C156.101 26.9 158.901 26.4 162.101 26.4C165.401 26.4 168.101 27 170.201 28.1C172.301 29.2 173.701 30.9 174.401 33.1C175.101 35.3 175.101 38 174.401 41.2L173.901 43.6C173.201 46.9 172.001 49.7 170.501 51.8C169.001 54 167.101 55.6 164.701 56.6C162.301 57.7 159.501 58.2 156.201 58.2C153.101 58.3 150.501 57.7 148.301 56.6ZM151.801 57.1H160.601L159.301 63.4H150.501L151.801 57.1ZM160.001 49.5C160.701 49.1 161.301 48.5 161.901 47.7C162.401 46.9 162.901 45.7 163.201 44.2L164.001 40.6C164.301 39.1 164.401 37.9 164.201 37.1C164.001 36.2 163.601 35.6 163.001 35.2C162.401 34.8 161.601 34.6 160.601 34.6C159.601 34.6 158.701 34.8 158.101 35.1C157.401 35.5 156.801 36 156.301 36.9C155.801 37.7 155.401 38.8 155.101 40.3L154.201 44.3C153.901 45.7 153.801 46.8 154.001 47.7C154.201 48.6 154.601 49.2 155.201 49.5C155.801 49.9 156.501 50 157.301 50C158.401 50.1 159.301 49.9 160.001 49.5Z" fill="black"/>
</svg>
