<svg xmlns="http://www.w3.org/2000/svg" width="50" height="50" viewBox="0 0 50 50"><g transform="translate(-12.87 -9.55)"><circle cx="25" cy="25" r="25" transform="translate(12.87 9.55)" fill="#fd0"/><path d="M48.33,49.84a.21.21,0,0,1-.22-.21v-1a1.45,1.45,0,0,0-1.45-1.44h-2.4a1.45,1.45,0,0,0-1.45,1.44v1a.215.215,0,0,1-.43,0v-1a1.88,1.88,0,0,1,1.88-1.88h2.4a1.89,1.89,0,0,1,1.89,1.88v1a.21.21,0,0,1-.22.21Zm-7.88,0a.21.21,0,0,1-.22-.21v-1a1.45,1.45,0,0,0-1.45-1.44h-2.4a1.45,1.45,0,0,0-1.45,1.44v1a.215.215,0,0,1-.43,0v-1a1.88,1.88,0,0,1,1.88-1.88h2.4a1.89,1.89,0,0,1,1.89,1.88v1a.21.21,0,0,1-.22.21Zm-7.3,0a.21.21,0,0,1-.22-.21v-1a1.44,1.44,0,0,0-1.44-1.44h-2.4a1.45,1.45,0,0,0-1.45,1.44v1a.22.22,0,1,1-.44,0v-1a1.89,1.89,0,0,1,1.89-1.88h2.4a1.88,1.88,0,0,1,1.88,1.88v1a.21.21,0,0,1-.22.21Zm12.27-3.41a1.78,1.78,0,1,1,1.78-1.78,1.78,1.78,0,0,1-1.78,1.78Zm-1.34-1.67a1.341,1.341,0,1,0,2.68-.11V44.5a1.78,1.78,0,0,1-1.1-.27,1.78,1.78,0,0,1-1.58.53Zm0-.44a1.15,1.15,0,0,0,.26,0,1.35,1.35,0,0,0,1.08-.54.21.21,0,0,1,.15-.09.25.25,0,0,1,.16.05,1.37,1.37,0,0,0,.87.3,1.35,1.35,0,0,0-2.52.25Zm-6.57,2.11a1.765,1.765,0,1,1,.03,0ZM36.2,44.76a1.341,1.341,0,1,0,2.68-.11V44.5a1.78,1.78,0,0,1-1.1-.27,1.83,1.83,0,0,1-1.58.53Zm0-.44a1.15,1.15,0,0,0,.26,0,1.36,1.36,0,0,0,1.08-.54.22.22,0,0,1,.14-.09.26.26,0,0,1,.17.05,1.37,1.37,0,0,0,.87.3,1.35,1.35,0,0,0-2.52.25Zm-6,2.11a1.78,1.78,0,1,1,.04,0Zm-1.3-1.67a1.35,1.35,0,0,0,2.69-.11.76.76,0,0,0,0-.15,1.81,1.81,0,0,1-1.1-.27,1.72,1.72,0,0,1-1.28.55,1.51,1.51,0,0,1-.31-.02Zm0-.44a1.09,1.09,0,0,0,.26,0,1.33,1.33,0,0,0,1.07-.54.24.24,0,0,1,.15-.09.22.22,0,0,1,.16.05,1.4,1.4,0,0,0,.88.3,1.35,1.35,0,0,0-2.52.25Z"/><path d="M45.52,42.45a.22.22,0,0,1-.22-.22v-3l-14.85-.16v3.09a.22.22,0,0,1-.22.22.21.21,0,0,1-.21-.22V38.85a.21.21,0,0,1,.22-.22l15.28.17a.21.21,0,0,1,.21.22v3.21a.21.21,0,0,1-.21.22Z"/><path d="M37.82,42.17a.25.25,0,0,1-.22-.27V35.52a.22.22,0,1,1,.44,0V41.9A.25.25,0,0,1,37.82,42.17Z"/><path d="M37.82,37.3a9,9,0,1,1,9-9A9,9,0,0,1,37.82,37.3Zm0-17.6a8.58,8.58,0,1,0,8.58,8.58,8.58,8.58,0,0,0-8.58-8.58Z"/><path d="M37.82,37.3c-1.57,0-3-1.47-3.91-3.93a.2.2,0,0,1,0-.17.21.21,0,0,1,.13-.11.69.69,0,0,0,.48-.55.71.71,0,0,0-.16-.56.69.69,0,0,0-.69-.23.25.25,0,0,1-.17,0,.19.19,0,0,1-.09-.14,16,16,0,0,1-.33-3.3,16.5,16.5,0,0,1,.36-3.48.24.24,0,0,1,.1-.14.2.2,0,0,1,.17,0,.72.72,0,0,0,.86-.56v-.12a.7.7,0,0,0-.48-.66.21.21,0,0,1-.13-.11A.2.2,0,0,1,34,23c.9-2.39,2.3-3.76,3.85-3.76s3.1,1.55,4,4.13c.06.17.11.34.16.51h0a15.65,15.65,0,0,1,.59,4.37,16.72,16.72,0,0,1-.32,3.3.21.21,0,0,1-.1.13.18.18,0,0,1-.16,0,.52.52,0,0,0-.17,0,.69.69,0,0,0-.69.69.71.71,0,0,0,.49.67.2.2,0,0,1,.13.11.25.25,0,0,1,0,.17C40.85,35.83,39.39,37.3,37.82,37.3Zm-3.43-3.88c.82,2.16,2.09,3.44,3.43,3.44s2.61-1.28,3.42-3.45a1.13,1.13,0,0,1,.59-2.12,16.2,16.2,0,0,0,.27-3,16,16,0,0,0-.51-4.06,21.57,21.57,0,0,1-3.74.33h0a21.59,21.59,0,0,1-2.89-.2,1.13,1.13,0,0,1-1.11.74,15.83,15.83,0,0,0-.31,3.19,16.39,16.39,0,0,0,.27,3,1.124,1.124,0,0,1,.58,2.13Zm3.45-9.31a22.12,22.12,0,0,0,3.62-.31,2.761,2.761,0,0,0-.08-.27c-.81-2.4-2.14-3.83-3.56-3.83s-2.55,1.22-3.37,3.3a1.12,1.12,0,0,1,.57.94,20.55,20.55,0,0,0,2.82.19Z"/><path d="M46.62,28.5H29a.22.22,0,1,1,0-.44H46.6a.22.22,0,1,1,0,.44Z"/><path d="M37.82,37.3a.22.22,0,0,1-.22-.22V19.48a.22.22,0,0,1,.22-.22.21.21,0,0,1,.21.22v17.6a.21.21,0,0,1-.21.22Z"/><path d="M33.89,25.09A1.13,1.13,0,0,1,32.76,24h0a20.91,20.91,0,0,1-2.15-.61.217.217,0,0,1,.14-.41c.69.23,1.4.43,2.1.6a1.13,1.13,0,0,1,2.17.4,21.61,21.61,0,0,0,9.86-1,.217.217,0,0,1,.14.41,22,22,0,0,1-10.07,1A1.11,1.11,0,0,1,33.89,25.09Zm0-1.83a.7.7,0,0,0-.68.56.59.59,0,0,0,0,.14.7.7,0,0,0,1.39.11h0v-.11A.71.71,0,0,0,33.89,23.26Z"/><path d="M45,33.47h-.07c-.73-.25-1.48-.46-2.24-.64a.216.216,0,1,1,.1-.42c.77.18,1.54.4,2.28.65a.22.22,0,0,1,.13.28A.2.2,0,0,1,45,33.47Zm-14.27,0a.2.2,0,0,1-.2-.15.21.21,0,0,1,.13-.27,23.3,23.3,0,0,1,2.29-.65.23.23,0,0,1,.26.17.22.22,0,0,1-.17.26c-.73.17-1.48.38-2.24.63Zm4.06-1a.21.21,0,0,1-.21-.18.22.22,0,0,1,.18-.25,21.54,21.54,0,0,1,6.21,0,.217.217,0,0,1-.06.43,21.42,21.42,0,0,0-6.09,0Z"/><path d="M41.79,33.56a1.138,1.138,0,1,1,1.12-.96,1.14,1.14,0,0,1-1.12.96Zm0-1.83a.7.7,0,1,0,.69.8.68.68,0,0,0-.16-.56.7.7,0,0,0-.53-.24Z"/><path d="M33.84,33.56a1.13,1.13,0,0,1,0-2.26,1.14,1.14,0,0,1,1.12,1.31,1.13,1.13,0,0,1-1.12.95Zm0-1.83a.71.71,0,1,0,.53.25.69.69,0,0,0-.53-.25Z"/></g></svg>