<svg id="Layer_1" data-name="Layer 1" xmlns="http://www.w3.org/2000/svg" viewBox="0 0 50 50"><defs><style>.cls-1{fill:#fd0;}</style></defs><circle class="cls-1" cx="25" cy="25" r="25"/><path d="M41.22,33.72H13.89a.27.27,0,0,1-.26-.27v-16a.27.27,0,0,1,.26-.27H41.22a.27.27,0,0,1,.27.27v16A.27.27,0,0,1,41.22,33.72Zm-27.06-.53H41V17.72H14.16Z" transform="translate(-2.56 -3.03)"/><path d="M43.56,17.72h-32a.27.27,0,0,1-.26-.27v-2.3a.27.27,0,0,1,.26-.27h32a.27.27,0,0,1,.27.27v2.3A.27.27,0,0,1,43.56,17.72Zm-31.74-.54H43.29V15.41H11.82Z" transform="translate(-2.56 -3.03)"/><path d="M28.6,15.41H26.52a.27.27,0,0,1-.27-.26V13.52a1.31,1.31,0,0,1,2.62,0v1.63A.27.27,0,0,1,28.6,15.41Zm-1.81-.53h1.54V13.52a.77.77,0,0,0-1.54,0Z" transform="translate(-2.56 -3.03)"/><path d="M40.18,43.85a.27.27,0,0,1-.27-.27V42.35a1.74,1.74,0,0,0-1.74-1.74h-2.9a1.75,1.75,0,0,0-1.75,1.74v1.23a.26.26,0,0,1-.26.27.27.27,0,0,1-.27-.27V42.35a2.28,2.28,0,0,1,2.28-2.28h2.9a2.28,2.28,0,0,1,2.27,2.28v1.23A.27.27,0,0,1,40.18,43.85Zm-9.52,0a.27.27,0,0,1-.26-.27V42.35a1.75,1.75,0,0,0-1.75-1.74h-2.9A1.74,1.74,0,0,0,24,42.35v1.23a.27.27,0,1,1-.53,0V42.35a2.28,2.28,0,0,1,2.27-2.28h2.9a2.28,2.28,0,0,1,2.28,2.28v1.23A.27.27,0,0,1,30.66,43.85Zm-8.8,0a.27.27,0,0,1-.27-.27V42.35a1.74,1.74,0,0,0-1.74-1.74H17a1.74,1.74,0,0,0-1.74,1.74v1.23a.27.27,0,1,1-.54,0V42.35A2.29,2.29,0,0,1,17,40.07h2.9a2.28,2.28,0,0,1,2.28,2.28v1.23A.27.27,0,0,1,21.86,43.85Zm14.81-4.13a2.15,2.15,0,1,1,2.15-2.14A2.15,2.15,0,0,1,36.67,39.72Zm-1.62-2a1.62,1.62,0,0,0,3.23-.13,1.15,1.15,0,0,0,0-.19A2.09,2.09,0,0,1,37,37.08,2.14,2.14,0,0,1,35.05,37.71Zm.05-.53a1.62,1.62,0,0,0,1.59-.62.29.29,0,0,1,.18-.11.24.24,0,0,1,.2.06,1.71,1.71,0,0,0,1,.36,1.62,1.62,0,0,0-3,.31Zm-8,2.54A2.15,2.15,0,1,1,29.23,37s0,0,0,0v0a2.18,2.18,0,0,1,.07.52A2.15,2.15,0,0,1,27.15,39.72Zm-1.61-2a1.62,1.62,0,0,0,3.23-.13,1.15,1.15,0,0,0,0-.19,2.12,2.12,0,0,1-1.32-.32A2.12,2.12,0,0,1,25.54,37.71Zm.05-.53a1.62,1.62,0,0,0,1.59-.62.29.29,0,0,1,.19-.11.26.26,0,0,1,.2.06,1.6,1.6,0,0,0,1,.36,1.62,1.62,0,0,0-3,.31Zm-7.24,2.54a2.15,2.15,0,1,1,2.15-2.14A2.14,2.14,0,0,1,18.35,39.72Zm-1.61-2A1.62,1.62,0,0,0,20,37.58a1.15,1.15,0,0,0,0-.19,2.08,2.08,0,0,1-1.32-.31A2.14,2.14,0,0,1,16.74,37.71Zm0-.53a1.61,1.61,0,0,0,1.6-.62.27.27,0,0,1,.18-.11.25.25,0,0,1,.2.06,1.68,1.68,0,0,0,1,.36A1.6,1.6,0,0,0,18.35,36,1.63,1.63,0,0,0,16.78,37.18Z" transform="translate(-2.56 -3.03)"/><path d="M27.9,29.53a3.78,3.78,0,1,1,3.77-3.78A3.79,3.79,0,0,1,27.9,29.53Zm0-7.34a3.56,3.56,0,1,0,3.55,3.56A3.57,3.57,0,0,0,27.9,22.19Z" transform="translate(-2.56 -3.03)"/><path d="M25.25,23.32a.11.11,0,0,1-.08,0L23.05,21a.11.11,0,0,1,0-.16.1.1,0,0,1,.15,0l2.12,2.34a.1.1,0,0,1,0,.15A.11.11,0,0,1,25.25,23.32Z" transform="translate(-2.56 -3.03)"/><path d="M31,24.05a.13.13,0,0,1-.09,0,.12.12,0,0,1,0-.16l2.07-1.74a.1.1,0,0,1,.15,0,.11.11,0,0,1,0,.15L31,24A.11.11,0,0,1,31,24.05Z" transform="translate(-2.56 -3.03)"/><path d="M32.75,29.54a.11.11,0,0,1-.08,0l-1.79-1.66a.11.11,0,0,1,0-.15.1.1,0,0,1,.15,0l1.79,1.66a.11.11,0,0,1,0,.15A.1.1,0,0,1,32.75,29.54Z" transform="translate(-2.56 -3.03)"/><path d="M30.59,31.31a.11.11,0,0,1-.1-.06l-1-2.19a.1.1,0,0,1,.05-.14.11.11,0,0,1,.15,0l1,2.19a.1.1,0,0,1-.05.14Z" transform="translate(-2.56 -3.03)"/><path d="M22.12,31.14a.13.13,0,0,1-.09,0,.11.11,0,0,1,0-.16l3.26-2.61a.11.11,0,0,1,.15,0,.12.12,0,0,1,0,.16l-3.27,2.61A.09.09,0,0,1,22.12,31.14Z" transform="translate(-2.56 -3.03)"/><path d="M27.92,22.19h0a.11.11,0,0,1-.11-.11l0-2.41a.11.11,0,0,1,.11-.11h0a.1.1,0,0,1,.1.11l0,2.41A.11.11,0,0,1,27.92,22.19Z" transform="translate(-2.56 -3.03)"/><path d="M28,19.85a.53.53,0,0,1-.53-.53.53.53,0,0,1,1.06,0A.53.53,0,0,1,28,19.85ZM28,19a.31.31,0,1,0,.31.31A.31.31,0,0,0,28,19Z" transform="translate(-2.56 -3.03)"/><path d="M33.33,22.45a.53.53,0,1,1,.53-.52A.52.52,0,0,1,33.33,22.45Zm0-.83a.31.31,0,1,0,.31.31A.31.31,0,0,0,33.33,21.62Z" transform="translate(-2.56 -3.03)"/><path d="M22.85,21.09a.53.53,0,1,1,.53-.53A.53.53,0,0,1,22.85,21.09Zm0-.84a.31.31,0,1,0,.31.31A.31.31,0,0,0,22.85,20.25Z" transform="translate(-2.56 -3.03)"/><path d="M21.79,31.82a.53.53,0,1,1,.53-.53A.53.53,0,0,1,21.79,31.82Zm0-.84a.31.31,0,1,0,.31.31A.31.31,0,0,0,21.79,31Z" transform="translate(-2.56 -3.03)"/><path d="M30.77,32.11a.53.53,0,1,1,.53-.53A.53.53,0,0,1,30.77,32.11Zm0-.84a.31.31,0,1,0,.31.31A.31.31,0,0,0,30.77,31.27Z" transform="translate(-2.56 -3.03)"/><path d="M33.05,30.24a.53.53,0,1,1,.53-.52A.52.52,0,0,1,33.05,30.24Zm0-.84a.31.31,0,0,0-.31.32.31.31,0,0,0,.62,0A.31.31,0,0,0,33.05,29.4Z" transform="translate(-2.56 -3.03)"/><path d="M27.9,28.34a2.59,2.59,0,1,1,2.58-2.59A2.59,2.59,0,0,1,27.9,28.34Zm0-5a2.37,2.37,0,1,0,2.36,2.37A2.37,2.37,0,0,0,27.9,23.38Z" transform="translate(-2.56 -3.03)"/><path d="M27.6,26.7,26.87,26a.14.14,0,0,1,0-.17.13.13,0,0,1,.18,0l.55.55,1.46-1.46a.13.13,0,0,1,.18,0,.12.12,0,0,1,0,.17Z" transform="translate(-2.56 -3.03)"/></svg>