<svg xmlns="http://www.w3.org/2000/svg" width="265.698" height="80.756" viewBox="0 0 265.698 80.756"><g transform="translate(-69.61 -36.76)"><path d="M77.83,36.76H96.18q6.3,0,10,2.19A10.62,10.62,0,0,1,111,45.13a19,19,0,0,1,0,9.62l-.62,3a28.11,28.11,0,0,1-3.72,9.65,16.45,16.45,0,0,1-6.89,6,25.71,25.71,0,0,1-11.08,2.08H69.61ZM92.49,65.21A6.1,6.1,0,0,0,95.12,63a12.29,12.29,0,0,0,1.63-4.29l1.1-5.15a10.12,10.12,0,0,0,.1-4.29A3.34,3.34,0,0,0,96.31,47a7.36,7.36,0,0,0-3.4-.65H89.16L85,65.88h3.8a9.25,9.25,0,0,0,3.69-.67Z" fill="#fff"/><path d="M119.22,36.76h14.45l5.72,18.15.78,3.49.94-4.22,3.64-17.42H157l-8.21,38.69H134.3L128.58,57.3l-.78-3.43L126.91,58l-3.64,17.42H111Z" fill="#fff"/><path d="M171.89,36.76h18.36l3.59,38.69H180l-.83-23.82.16-5.61h-.16L177,51.58,166.07,75.45H152Zm-3.74,23.72h15.76l-.73,8.63H165.39Z" fill="#fff"/><path d="M100.86,95.65v.37a16.83,16.83,0,0,1-3.22,7.38l-.07.07c-.64-.92-1.3-2-2-3.14a7.8,7.8,0,0,1-.65-1.14,8.08,8.08,0,0,0-.7-1.2c-.13-.31-.23-.57-.32-.79a31.16,31.16,0,0,0,5.75-2.43,16.33,16.33,0,0,0,4.89-4,11.93,11.93,0,0,0,2.26-4.94,6.73,6.73,0,0,0-.36-4.47,7,7,0,0,0-3.72-3.2,19.31,19.31,0,0,0-7.57-1.22,23,23,0,0,0-8,1.25,12.79,12.79,0,0,0-5.3,3.46,10.81,10.81,0,0,0-2.53,5.12l-.2.73a7,7,0,0,0,.13,3,22.07,22.07,0,0,0,1.44,4,18.32,18.32,0,0,0-5.94,3.68,14.82,14.82,0,0,0-4.53,7.7l-.1.72a8.18,8.18,0,0,0,.49,5.62A8.36,8.36,0,0,0,75.07,116a22.43,22.43,0,0,0,8.53,1.35,31.22,31.22,0,0,0,11.83-2.17,13.311,13.311,0,0,0,2.73,1.26,19.15,19.15,0,0,0,6,.86h3.79l1.72-8.11h-1.56a14.78,14.78,0,0,1-3.46-.38,1.62,1.62,0,0,0,.18-.19,26.12,26.12,0,0,0,5.57-10c.28-1.08.5-1.91.67-2.5l.11-.42ZM90.62,87.59l.1-.57a3,3,0,0,1,1.09-1.72,3.26,3.26,0,0,1,2-.62,2,2,0,0,1,1.72.65A2.13,2.13,0,0,1,95.77,87,5.36,5.36,0,0,1,95,88.76a5.42,5.42,0,0,1-1.59,1.4,14.579,14.579,0,0,1-2.21,1.11,9.65,9.65,0,0,1-.52-1.78,5.29,5.29,0,0,1-.06-1.9Zm-7.18,20.59A2.4,2.4,0,0,1,82.09,107a3,3,0,0,1-.16-1.82l.06-.58a5,5,0,0,1,.91-1.94,7.55,7.55,0,0,1,1.31-1.34c.74,1.29,1.36,2.32,1.83,3.08.28.41.51.79.7,1.11s.45.74.76,1.23.75,1.12,1.12,1.65a18.282,18.282,0,0,1-2.68.22,6.42,6.42,0,0,1-2.5-.43Z" fill="none" stroke="#fd0" stroke-miterlimit="10" stroke-width="0.3"/><path d="M130.5,77.76l.57,27.36v1.45h.16l.57-1.4,12.38-27.41h14.25l-20,38.69h-18.1L116.9,77.76Z" fill="#fff"/><path d="M166.12,77.76h18.36l3.59,38.69H174.18l-.83-23.82.16-5.61h-.16l-2.13,5.56L160.3,116.45H146.21Zm-3.74,23.72h15.75l-.72,8.63H159.62Z" fill="#fff"/><path d="M199.5,77.76h13.32l-6.14,29h14.56l-2.13,9.72H191.29Z" fill="#fff"/><path d="M228.83,115.57a8.52,8.52,0,0,1-4.65-5.49q-1-3.66.23-9.54l4.89-22.78h13.31l-5,23.61c-.42,1.94-.3,3.37.34,4.29a3.85,3.85,0,0,0,3.4,1.38,5.62,5.62,0,0,0,3.93-1.35,7.9,7.9,0,0,0,2.11-4.32l5-23.61H265.8l-4.83,22.78a25.43,25.43,0,0,1-3.77,9.49,15.8,15.8,0,0,1-7,5.51,28.84,28.84,0,0,1-11.1,1.85Q232.46,117.39,228.83,115.57Z" fill="#fff"/><path d="M271,77.76h29.75l-2.08,9.57H282.29l-1.09,5.41h14.71L294.09,101H279.48l-1.3,5.82H295l-2,9.62H262.79Z" fill="#fff"/><path d="M303.66,115.8a9.39,9.39,0,0,1-5-4.57,11.06,11.06,0,0,1-.47-7.21v-.31h12.63v.31a5,5,0,0,0,0,2.24,2.52,2.52,0,0,0,1.25,1.56,5.43,5.43,0,0,0,2.71.57,6.19,6.19,0,0,0,3.38-.78,3,3,0,0,0,1.4-2.13l.15-.31a2.37,2.37,0,0,0-.18-1.72,3.8,3.8,0,0,0-1.61-1.2,29,29,0,0,0-3.67-1.3,2.231,2.231,0,0,0-.44-.18l-.39-.07a13.22,13.22,0,0,0-1.61-.42A21.39,21.39,0,0,1,305,97.55a7.19,7.19,0,0,1-3-3.67,10.35,10.35,0,0,1,0-5.2l.1-.47a12.24,12.24,0,0,1,3-5.92,15.37,15.37,0,0,1,6.22-4,27.34,27.34,0,0,1,9.36-1.43q8.47,0,12,3.53t2.32,9.7l-.06.26H322.9l.05-.26a3.89,3.89,0,0,0-.52-3.07c-.55-.73-1.61-1.09-3.17-1.09a5.75,5.75,0,0,0-3,.67A2.66,2.66,0,0,0,315,88.48l-.11.41a2,2,0,0,0,.08,1.09,2.17,2.17,0,0,0,.7.89,4.521,4.521,0,0,0,1.51.72,3.771,3.771,0,0,0,.91.32,8.17,8.17,0,0,1,1.07.31,30.9,30.9,0,0,1,9.3,3.09,8.58,8.58,0,0,1,4,4.19,10.44,10.44,0,0,1,.13,5.77v.52a13.05,13.05,0,0,1-3.36,6.27,16,16,0,0,1-6.55,4,29.91,29.91,0,0,1-9.49,1.35,23.74,23.74,0,0,1-9.53-1.61Z" fill="#fff"/></g></svg>