<svg xmlns="http://www.w3.org/2000/svg" xmlns:xlink="http://www.w3.org/1999/xlink" width="65" height="65" viewBox="0 0 65 65"><defs><clipPath id="a"><path d="M1906.953,625.335a1.375,1.375,0,0,1-.254-.027.784.784,0,0,1-.822-.224l.054-.055c-1.239-.6-3.521-2.27-7.857-6.419a34.19,34.19,0,0,1-6.877-8.736,13.036,13.036,0,0,1,.045-12,9.311,9.311,0,0,1,7.537-4.988,10.672,10.672,0,0,1,7.88,2.8,9.019,9.019,0,0,1,7.194-2.823,10.188,10.188,0,0,1,8.1,5.452,12.564,12.564,0,0,1,.245,11.562,34.269,34.269,0,0,1-6.875,8.734c-4.4,4.21-6.688,5.876-7.923,6.453l.064.073A.679.679,0,0,1,1906.953,625.335Z" fill="none"/></clipPath></defs><g transform="translate(-1874.123 -574.713)"><circle cx="32.5" cy="32.5" r="32.5" transform="translate(1874.123 574.713)" fill="#fd0"/><g clip-path="url(#a)"><path d="M1913.719,604.166a2.1,2.1,0,1,0-2.095-2.1A2.1,2.1,0,0,0,1913.719,604.166Zm0-3.344a1.249,1.249,0,1,1-1.249,1.249A1.251,1.251,0,0,1,1913.719,600.822Z"/><path d="M1913.719,605.908a3.837,3.837,0,1,0-3.837-3.837A3.841,3.841,0,0,0,1913.719,605.908Zm0-6.827a2.99,2.99,0,1,1-2.99,2.99A2.993,2.993,0,0,1,1913.719,599.081Z"/><path d="M1913.719,607.649a5.578,5.578,0,1,0-5.578-5.578A5.585,5.585,0,0,0,1913.719,607.649Zm0-10.31a4.732,4.732,0,1,1-4.732,4.732A4.738,4.738,0,0,1,1913.719,597.339Z"/><path d="M1913.719,609.39a7.319,7.319,0,1,0-7.319-7.319A7.327,7.327,0,0,0,1913.719,609.39Zm0-13.792a6.473,6.473,0,1,1-6.473,6.473A6.481,6.481,0,0,1,1913.719,595.6Z"/><path d="M1904.658,602.071a9.059,9.059,0,1,0,7.821-8.976A9.062,9.062,0,0,0,1904.658,602.071Zm7.937-8.138a8.215,8.215,0,1,1-7.09,8.138A8.189,8.189,0,0,1,1912.595,593.933Z"/><path d="M1904.036,598.3a.424.424,0,0,0,.558-.218,9.964,9.964,0,0,1,3.489-4.222.423.423,0,1,0-.48-.7,10.818,10.818,0,0,0-3.785,4.58A.423.423,0,0,0,1904.036,598.3Z"/><path d="M1923.675,602.071a9.957,9.957,0,1,1-19.617-2.412.423.423,0,0,0-.821-.2,10.8,10.8,0,1,0,19.841-2.78.423.423,0,0,0-.732.424A9.949,9.949,0,0,1,1923.675,602.071Z"/><path d="M1913.719,614.614a12.546,12.546,0,0,0,12.352-14.732.423.423,0,1,0-.833.147,11.7,11.7,0,1,1-19.8-6.216.423.423,0,1,0-.6-.6,12.543,12.543,0,0,0,8.883,21.4Z"/><path d="M1906,614.089a14.283,14.283,0,0,0,21.945-10.714c0-.013,0-.026,0-.039a.423.423,0,0,0-.844-.038,13.438,13.438,0,0,1-22.605,8.546.423.423,0,0,0-.625.567,17.383,17.383,0,0,1,3.567,12.224.423.423,0,0,0,.843.077,18.3,18.3,0,0,0-1.478-9.021Q1906.443,614.87,1906,614.089Z"/><path d="M1909.685,618.748c-.092-.422-.2-.84-.319-1.252a16.038,16.038,0,0,0,19.484-10.131.423.423,0,1,0-.8-.279,15.2,15.2,0,0,1-19.189,9.371.425.425,0,0,0-.536.536,18.652,18.652,0,0,1,.532,1.937c.131.589.235,1.2.31,1.827a19.782,19.782,0,0,1,.078,3.847.423.423,0,1,0,.844.06,20.46,20.46,0,0,0-.082-4.008C1909.93,620.005,1909.821,619.363,1909.685,618.748Z"/><path d="M1928.723,610.788a.424.424,0,0,0-.582.139,16.945,16.945,0,0,1-16.9,7.885.425.425,0,0,0-.478.494c.1.568.183,1.158.24,1.754a21.515,21.515,0,0,1,.033,3.641.423.423,0,0,0,.844.063,22.238,22.238,0,0,0-.035-3.784c-.04-.425-.1-.844-.16-1.257a17.791,17.791,0,0,0,17.172-8.353.422.422,0,0,0-.139-.582Z"/><path d="M1888.494,602.1c.53-.038,1.064-.058,1.588-.058a20.976,20.976,0,0,1,6.175.923.425.425,0,0,0,.547-.418,17.164,17.164,0,0,1,.276-3.572,16.828,16.828,0,0,1,1.665-4.8.41.41,0,0,0,.049-.2.423.423,0,0,0-.8-.2,17.66,17.66,0,0,0-1.749,5.037,17.972,17.972,0,0,0-.3,3.173,21.855,21.855,0,0,0-5.87-.8c-.545,0-1.1.02-1.65.061a.423.423,0,1,0,.062.843Z"/><path d="M1913.719,621.58a19.462,19.462,0,0,0,8.153-1.78.423.423,0,0,0-.354-.769,18.606,18.606,0,0,1-7.8,1.7c-.153,0-.306,0-.459-.007a.427.427,0,0,0-.435.458,23.32,23.32,0,0,1,.018,3.532.423.423,0,1,0,.845.041,23.14,23.14,0,0,0,.01-3.179Z"/><path d="M1926.964,615.219a15.322,15.322,0,0,1-4.3,3.151.423.423,0,0,0,.375.759,16.129,16.129,0,0,0,4.531-3.326.424.424,0,0,0-.013-.6A.423.423,0,0,0,1926.964,615.219Z"/><path d="M1891.134,598.473c.116,0,.233.009.347.016.583.034,1.158.086,1.711.157a.441.441,0,0,0,.3-.079.434.434,0,0,0,.167-.264,20.381,20.381,0,0,1,.548-2.225.443.443,0,0,0,.018-.123.423.423,0,0,0-.828-.124c-.2.638-.359,1.286-.492,1.933-.451-.05-.91-.093-1.377-.12-.119-.007-.239-.012-.36-.017a.423.423,0,1,0-.036.846Z"/><path d="M1924.2,619.582a20.4,20.4,0,0,1-9.1,2.848.422.422,0,0,0-.4.432c.006.252,0,.964-.046,1.751a.423.423,0,1,0,.844.053c.029-.475.044-.952.047-1.424a21.26,21.26,0,0,0,9.09-2.934.424.424,0,0,0,.205-.363.422.422,0,0,0-.64-.363Z"/><path d="M1890.683,619.219a.423.423,0,0,0-.13.836,3.035,3.035,0,0,1,2.412,2.022.423.423,0,0,0,.823-.138.44.44,0,0,0-.022-.137A3.88,3.88,0,0,0,1890.683,619.219Z"/><path d="M1890.083,617.376a5.865,5.865,0,0,0-.9.07.423.423,0,0,0,.133.836,4.849,4.849,0,0,1,5.61,4.784.423.423,0,1,0,.846,0A5.7,5.7,0,0,0,1890.083,617.376Z"/><path d="M1893.563,616.434a.423.423,0,1,0-.394.749,6.648,6.648,0,0,1,3.51,6.657.423.423,0,0,0,.841.1,7.664,7.664,0,0,0,.05-.871A7.474,7.474,0,0,0,1893.563,616.434Z"/><path d="M1892.072,616.727a.423.423,0,1,0,.253-.807,7.524,7.524,0,0,0-4.147-.1.423.423,0,1,0,.214.818,6.714,6.714,0,0,1,1.691-.217A6.639,6.639,0,0,1,1892.072,616.727Z"/><path d="M1890.083,613.781a9.283,9.283,0,0,0-2.65.384.423.423,0,1,0,.241.811,8.444,8.444,0,0,1,10.847,8.09,8.566,8.566,0,0,1-.092,1.251.423.423,0,0,0,.837.124,9.287,9.287,0,0,0-9.183-10.66Z"/><path d="M1894.263,612.8a10.9,10.9,0,0,0-4.181-.818,11.054,11.054,0,0,0-3.179.463.423.423,0,0,0,.243.811,10.268,10.268,0,0,1,6.756.31l.007,0h0a10.232,10.232,0,0,1,6.293,11.024.423.423,0,1,0,.836.125,11.077,11.077,0,0,0-6.779-11.92Z"/><path d="M1895.473,611.366a12.913,12.913,0,0,0-8.89-.7.423.423,0,1,0,.229.814,12.037,12.037,0,0,1,15.2,13.2.423.423,0,0,0,.838.114,12.877,12.877,0,0,0-7.374-13.429Z"/><path d="M1896.735,609.981a14.711,14.711,0,0,0-10.261-1.145.423.423,0,1,0,.208.82,13.829,13.829,0,0,1,17.138,15.032.423.423,0,0,0,.841.1,14.8,14.8,0,0,0-.786-6.754A14.64,14.64,0,0,0,1896.735,609.981Z"/><path d="M1905.344,616.855a16.371,16.371,0,0,0-2.417-4.1h0l-.012-.013a15.519,15.519,0,0,0-1.074-1.209h0l-.008-.008a16.5,16.5,0,0,0-15.248-4.557.423.423,0,0,0,.178.827,15.779,15.779,0,0,1,3.319-.353,15.584,15.584,0,0,1,11.143,4.672c.33.41.684.807,1.053,1.183h0a15.511,15.511,0,0,1,2.294,3.911l0,0,0,.007.01.023a15.1,15.1,0,0,1,1.016,7.461.423.423,0,1,0,.842.078,15.946,15.946,0,0,0-1.087-7.89A.311.311,0,0,0,1905.344,616.855Z"/><path d="M1887.078,605.9a17.717,17.717,0,0,1,3-.258,17.364,17.364,0,0,1,8.835,2.4l.006,0,.006,0,.017.011a17.453,17.453,0,0,1,3.34,2.564.423.423,0,0,0,.636-.554,13.436,13.436,0,0,1,.223-16.3.428.428,0,0,0,.09-.261.423.423,0,0,0-.755-.262,14.279,14.279,0,0,0-1.606,15.069q-.71-.519-1.467-.971l-.029-.019a18.216,18.216,0,0,0-9.3-2.538,18.585,18.585,0,0,0-3.148.27.423.423,0,0,0,.144.834Z"/><path d="M1887.646,603.995a19.5,19.5,0,0,1,2.436-.152,19.174,19.174,0,0,1,8.184,1.825.425.425,0,0,0,.6-.468,15.325,15.325,0,0,1-.1-5.708,15,15,0,0,1,2.255-5.732.423.423,0,1,0-.707-.464,15.825,15.825,0,0,0-2.382,6.053,16.059,16.059,0,0,0-.034,5.225,20,20,0,0,0-7.808-1.578,20.414,20.414,0,0,0-2.542.159.423.423,0,1,0,.106.84Z"/><path d="M1889.668,600.251l.414,0a22.9,22.9,0,0,1,4.55.454.431.431,0,0,0,.367-.1.427.427,0,0,0,.138-.274,17.24,17.24,0,0,1,.247-1.742,18.444,18.444,0,0,1,1.093-3.669.423.423,0,0,0-.781-.325,19.244,19.244,0,0,0-1.143,3.836c-.087.45-.158.907-.211,1.364a23.113,23.113,0,0,0-4.26-.387l-.439,0s-.457-.005-.459.413C1889.183,600.26,1889.668,600.251,1889.668,600.251Z"/></g></g></svg>