<svg xmlns="http://www.w3.org/2000/svg" width="50" height="50" viewBox="0 0 50 50"><g transform="translate(-12.87 -9.55)"><circle cx="25" cy="25" r="25" transform="translate(12.87 9.55)" fill="#fd0"/><path d="M49,49.45c-2.67,0-6.71-1.23-11.26-3.54a.24.24,0,0,1-.14-.23.25.25,0,0,1,.14-.23c.85-.43,1.68-.88,2.46-1.33a46.81,46.81,0,0,0,6.25-4.28.26.26,0,0,1,.36,0h0a25.17,25.17,0,0,1,3.67,3.59.31.31,0,0,1,.06.19.32.32,0,0,1-.1.18.48.48,0,0,0-.21.41.54.54,0,0,0,.83.44.24.24,0,0,1,.35.08c.87,1.42,1.08,2.6.6,3.43S50.53,49.45,49,49.45ZM38.44,45.68c6.47,3.2,12.09,4.2,13.19,2.31.35-.62.19-1.55-.48-2.7a1.26,1.26,0,0,1-.33.05,1.02,1.02,0,0,1-.79-1.64,25.88,25.88,0,0,0-3.37-3.28,47.42,47.42,0,0,1-6.14,4.18C39.83,44.94,39.14,45.32,38.44,45.68Z"/><path d="M50.82,45.34a1.164,1.164,0,1,1,.62-.13,1.14,1.14,0,0,1-.62.13Zm0-1.56a.52.52,0,0,0-.53.52.53.53,0,0,0,1.06,0,.52.52,0,0,0-.53-.52Z"/><path d="M49.52,32a1,1,0,1,1,1-1,.41.41,0,0,1,0,.11A1,1,0,0,1,49.52,32Zm0-1.56a.53.53,0,1,0,0,1.05A.52.52,0,0,0,50,31v-.06a.53.53,0,0,0-.48-.54Z"/><path d="M41.37,37.07H34.88a.26.26,0,0,1-.26-.26V35.76a.26.26,0,0,1,.26-.25h6.49a.26.26,0,0,1,.26.25v1.05a.26.26,0,0,1-.26.26Zm-6.23-.51h6V36h-6Z"/><path d="M41.37,36H34.88a.26.26,0,0,1-.26-.26V34.67a.26.26,0,0,1,.26-.26h6.49a.26.26,0,0,1,.26.26v1.09A.26.26,0,0,1,41.37,36Zm-6.23-.51h6v-.58h-6Z"/><path d="M41.37,34.93H34.88a.26.26,0,0,1-.26-.26V33.48a.26.26,0,0,1,.26-.26h6.49a.26.26,0,0,1,.26.26v1.19a.26.26,0,0,1-.26.26Zm-6.23-.52h6v-.67h-6Z"/><path d="M40.24,39H36a.26.26,0,0,1-.26-.26V36.81a.26.26,0,0,1,.26-.25h4.23a.25.25,0,0,1,.26.25v1.92a.26.26,0,0,1-.25.27Zm-4-.52H40v-1.4H36.27Z"/><path d="M38.81,40.65H37.45a.25.25,0,0,1-.26-.26V38.73a.26.26,0,0,1,.26-.26h1.36a.26.26,0,0,1,.26.26v1.66a.26.26,0,0,1-.26.26Zm-1.11-.51h.85V39H37.7Z"/><path d="M29.12,40.31a.25.25,0,0,1-.16-.06c-4.31-3.52-6.28-6.66-5.28-8.4.62-1.08,2.32-1.44,4.89-1a.25.25,0,0,1,.17.11.21.21,0,0,1,0,.19v.1a.52.52,0,0,0,.52.53.53.53,0,0,0,.52-.42.31.31,0,0,1,.12-.16.3.3,0,0,1,.19,0,32.59,32.59,0,0,1,4.7,1.59h.05a.26.26,0,0,1,.26.25v3.1a.27.27,0,0,1-.22.26,46.23,46.23,0,0,0-5.63,3.91.27.27,0,0,1-.13,0Zm-2.44-9.14c-1.31,0-2.2.32-2.56.94-.82,1.43,1.14,4.41,5,7.61a46.37,46.37,0,0,1,5.49-3.8V33.2a30.911,30.911,0,0,0-4.39-1.5,1.021,1.021,0,1,1-2-.41,11.72,11.72,0,0,0-1.54-.12ZM34.88,36.08Z"/><path d="M29.3,32.26a1,1,0,0,1-1-1,1.11,1.11,0,0,1,0-.19h0a1.031,1.031,0,0,1,2.05.15.89.89,0,0,1,0,.22A1,1,0,0,1,29.3,32.26Zm-.52-1.14v.1a.52.52,0,0,0,.52.53.53.53,0,0,0,.52-.42.45.45,0,0,0,0-.11.524.524,0,0,0-1.04-.1Z"/><path d="M25.76,50.17a1,1,0,0,1-1-1,.9.9,0,0,1,0-.23,1.031,1.031,0,0,1,2.05.23.45.45,0,0,1,0,.11,1,1,0,0,1-1.05.89Zm0-1.56a.52.52,0,0,0-.51.4.49.49,0,0,0,0,.12.52.52,0,0,0,.52.53.53.53,0,0,0,.53-.49h0a.52.52,0,0,0-.54-.56Z"/><path d="M41.37,37.07H40.24a.26.26,0,0,1-.25-.26.25.25,0,0,1,.25-.25h.87V32.45a.29.29,0,0,1,.11-.21,5.46,5.46,0,1,0-6.19,0,.26.26,0,0,1,.11.21v4.11H36a.255.255,0,1,1,0,.51H34.88a.26.26,0,0,1-.26-.26V32.59a6,6,0,1,1,7,0v4.22A.26.26,0,0,1,41.37,37.07Z"/><path d="M25,49.21h-.09a2.16,2.16,0,0,1-1.23-.95c-1-1.72,1-4.86,5.28-8.39a48.222,48.222,0,0,1,5.75-4,.26.26,0,0,1,.35.09.27.27,0,0,1-.09.36,45.94,45.94,0,0,0-5.68,3.94c-4,3.26-6,6.29-5.17,7.74a1.7,1.7,0,0,0,1,.72.25.25,0,0,1,.16.33.27.27,0,0,1-.28.16Z"/><path d="M26.69,49.45h-.15a.26.26,0,0,1,0-.51h0c2.62,0,6.82-1.25,11.21-3.48.85-.43,1.68-.88,2.46-1.33a46.81,46.81,0,0,0,6.25-4.28c4-3.25,6-6.28,5.16-7.73a2,2,0,0,0-1.38-.83.26.26,0,0,1,.1-.51,2.48,2.48,0,0,1,1.72,1.08c1,1.73-1,4.87-5.27,8.39a47.541,47.541,0,0,1-6.32,4.32c-.79.46-1.63.92-2.49,1.35C33.61,48.13,29.41,49.45,26.69,49.45Z"/><path d="M41.43,33.05a.26.26,0,0,1-.24-.16.27.27,0,0,1,.15-.34,23.47,23.47,0,0,1,7.39-1.89.26.26,0,0,1,.26.25.24.24,0,0,1-.24.26A23.22,23.22,0,0,0,41.53,33Z"/><path d="M50.34,43.94a.28.28,0,0,1-.2-.1,25.93,25.93,0,0,0-3.61-3.53.26.26,0,0,1,0-.36.27.27,0,0,1,.37,0,25.85,25.85,0,0,1,3.68,3.61.26.26,0,0,1,0,.36A.25.25,0,0,1,50.34,43.94Z"/><path d="M49,49.45c-2.67,0-6.71-1.23-11.26-3.54-.86-.43-1.7-.89-2.49-1.35A46.4,46.4,0,0,1,29,40.25c-4.31-3.52-6.28-6.66-5.28-8.4.62-1.08,2.32-1.44,4.89-1a.258.258,0,1,1-.08.51c-2.31-.37-3.86-.09-4.37.78-.84,1.45,1.19,4.49,5.17,7.74a46.819,46.819,0,0,0,6.23,4.27c.79.46,1.62.9,2.47,1.33,6.65,3.38,12.52,4.47,13.64,2.54.37-.65.17-1.66-.6-2.9a.26.26,0,0,1,.09-.35.25.25,0,0,1,.35.08c.87,1.42,1.08,2.6.6,3.43S50.53,49.45,49,49.45Z"/><path d="M34.78,33.24h-.1A32.181,32.181,0,0,0,30,31.64a.26.26,0,0,1,.12-.5,31.64,31.64,0,0,1,4.74,1.61.24.24,0,0,1,.14.33A.25.25,0,0,1,34.78,33.24Z"/><path d="M37.78,21.38a.26.26,0,0,1-.26-.26V19.19a.26.26,0,0,1,.26-.25.25.25,0,0,1,.25.25v1.93a.25.25,0,0,1-.25.26Z"/><path d="M40.1,21.6H40a.26.26,0,0,1-.18-.32l.5-1.87a.24.24,0,0,1,.31-.18.25.25,0,0,1,.18.31l-.49,1.87a.26.26,0,0,1-.22.19Z"/><path d="M42.28,22.42a.31.31,0,0,1-.13,0,.26.26,0,0,1-.09-.35l1-1.68a.253.253,0,1,1,.44.25l-1,1.68a.26.26,0,0,1-.22.1Z"/><path d="M33.37,22.74a.28.28,0,0,1-.23-.13l-1-1.68a.26.26,0,0,1,.09-.35.25.25,0,0,1,.35.1l1,1.67a.26.26,0,0,1-.09.35A.33.33,0,0,1,33.37,22.74Z"/><path d="M35.48,21.77a.26.26,0,0,1-.24-.19l-.5-1.87a.25.25,0,0,1,.18-.31.26.26,0,0,1,.32.18l.49,1.87a.25.25,0,0,1-.18.31Z"/><path d="M34.4,30.79a.25.25,0,0,1-.22-.13l-.32-.56a.25.25,0,0,1,.06-.33l.84-.66a1.615,1.615,0,0,0-.1-.36l-1.06-.16a.26.26,0,0,1-.22-.25v-.65a.24.24,0,0,1,.22-.25l1.06-.17a2.42,2.42,0,0,1,.1-.36l-.84-.66a.25.25,0,0,1-.06-.33l.32-.56a.24.24,0,0,1,.31-.11l1,.39c.09-.09.17-.18.26-.26l-.39-1a.25.25,0,0,1,.11-.31l.56-.33a.26.26,0,0,1,.33.06l.67.84.36-.1.16-1.06a.27.27,0,0,1,.25-.22h.65a.25.25,0,0,1,.25.22l.16,1.06.37.1.66-.84a.26.26,0,0,1,.33-.06l.56.33a.24.24,0,0,1,.11.31l-.39,1a3.189,3.189,0,0,1,.26.26l1-.39a.24.24,0,0,1,.31.11l.33.56a.26.26,0,0,1-.07.33l-.83.66a2.37,2.37,0,0,1,.09.36l1.07.17a.24.24,0,0,1,.21.25v.64a.26.26,0,0,1-.21.26l-1.07.16a1.582,1.582,0,0,1-.09.36l.83.66a.26.26,0,0,1,.07.33l-.33.56a.24.24,0,0,1-.31.11l-1.17-.46a.253.253,0,1,1,.19-.47l1,.37.1-.17L41,29.39a.25.25,0,0,1,0-.29,3,3,0,0,0,.16-.62.23.23,0,0,1,.21-.21l1-.16v-.2l-1-.16a.23.23,0,0,1-.21-.21,3,3,0,0,0-.16-.62.25.25,0,0,1,.07-.29l.81-.65-.1-.17-1,.37a.25.25,0,0,1-.3-.08,3.05,3.05,0,0,0-.44-.44.27.27,0,0,1-.09-.3l.38-1-.17-.1-.65.8a.25.25,0,0,1-.29.08,3.25,3.25,0,0,0-.63-.17.24.24,0,0,1-.21-.21l-.15-1H38l-.16,1a.24.24,0,0,1-.2.21,4.2,4.2,0,0,0-.64.17.25.25,0,0,1-.29-.08l-.64-.8-.18.1.38,1a.26.26,0,0,1-.08.3,3.19,3.19,0,0,0-.45.45.26.26,0,0,1-.3.07l-1-.37-.1.17.81.65a.25.25,0,0,1,.08.29,2.72,2.72,0,0,0-.17.62.23.23,0,0,1-.21.21l-1,.16v.2l1,.16a.23.23,0,0,1,.21.21,2.72,2.72,0,0,0,.17.62.25.25,0,0,1-.08.29l-.81.65.1.17,1-.37a.25.25,0,0,1,.34.14.26.26,0,0,1-.15.33l-1.17.46Z"/><path d="M42.21,33.74H34a.26.26,0,0,1,0-.52h8.17a.26.26,0,0,1,0,.52Z"/><path d="M42.21,34.93H34a.26.26,0,1,1,0-.52h8.17a.26.26,0,0,1,0,.52Z"/><path d="M42.21,36H34a.26.26,0,0,1-.25-.26.25.25,0,0,1,.25-.25h8.17a.256.256,0,0,1,.04.51Z"/><path d="M40.24,39H38.81a.26.26,0,0,1,0-.52H40v-1.4H36.27v1.4h1.18a.26.26,0,0,1,0,.52H36a.26.26,0,0,1-.26-.26V36.81a.26.26,0,0,1,.26-.25h4.23a.25.25,0,0,1,.26.25v1.92a.26.26,0,0,1-.25.27Z"/><path d="M38.81,40.65H37.45a.25.25,0,0,1-.26-.26V38.73a.26.26,0,0,1,.26-.26h1.36a.26.26,0,0,1,.26.26v1.66a.26.26,0,0,1-.26.26Zm-1.11-.51h.85V39H37.7Z"/><path d="M29.3,32.26a1,1,0,0,1-1-1,1.11,1.11,0,0,1,0-.19h0a1.031,1.031,0,0,1,2.05.15.89.89,0,0,1,0,.22A1,1,0,0,1,29.3,32.26Zm-.52-1.14v.1a.52.52,0,0,0,.52.53.53.53,0,0,0,.52-.42.45.45,0,0,0,0-.11.524.524,0,0,0-1.04-.1Z"/><path d="M50.82,45.34a1.164,1.164,0,1,1,.62-.13,1.14,1.14,0,0,1-.62.13Zm0-1.56a.51.51,0,0,0-.32.1h0a.48.48,0,0,0-.21.41.53.53,0,1,0,1.06,0A.52.52,0,0,0,50.82,43.78ZM50.34,43.68Z"/><path d="M25.76,50.17a1,1,0,0,1-1-1,.9.9,0,0,1,0-.23h0a1.032,1.032,0,1,1,2.05.24.45.45,0,0,1,0,.11A1,1,0,0,1,25.76,50.17ZM25.25,49a.49.49,0,0,0,0,.12.52.52,0,0,0,.52.53.53.53,0,0,0,.53-.49h0a.53.53,0,0,0-1-.12Z"/><path d="M49.52,32a1,1,0,0,1-1-1h0a1.04,1.04,0,1,1,2.08,0,.41.41,0,0,1,0,.11A1,1,0,0,1,49.52,32Zm-.53-1h0a.53.53,0,0,0,.53.52A.52.52,0,0,0,50,31s0,0,0-.06a.53.53,0,1,0-1.06,0Z"/></g></svg>