<svg xmlns="http://www.w3.org/2000/svg" width="564.994" height="58.781" viewBox="0 0 564.994 58.781"><g transform="translate(-13 -47.682)"><path d="M24.87,49.14H51.34q9.07,0,14.37,3.15a15.3,15.3,0,0,1,7.05,8.92q1.76,5.77,0,13.88l-.9,4.35A40.38,40.38,0,0,1,66.5,93.35a23.79,23.79,0,0,1-9.94,8.59q-6.3,3-16,3H13ZM46,90.16a8.73,8.73,0,0,0,3.79-3.26,17.83,17.83,0,0,0,2.36-6.19l1.57-7.42a14.53,14.53,0,0,0,.15-6.19A4.78,4.78,0,0,0,51.53,64a10.63,10.63,0,0,0-4.91-1h-5.4l-6,28.13h5.47A13.35,13.35,0,0,0,46,90.16Z" fill="#fff"/><path d="M84.57,49.14h20.85l8.25,26.17,1.12,5,1.35-6.08,5.25-25.12h17.7l-11.85,55.8H106.32L98.07,78.76l-1.13-5-1.27,6-5.25,25.13H72.72Z" fill="#fff"/><path d="M160.54,49.14H187l5.17,55.8h-20L171,70.59l.22-8.1H171l-3.08,8-15.75,34.43H131.82Zm-5.4,34.2h22.73l-1.05,12.45H151.17Z" fill="#fff"/><path d="M244.14,74.94l-.08.52a24.3,24.3,0,0,1-4.65,10.65l-.09.11a51.5,51.5,0,0,1-2.83-4.53,10.37,10.37,0,0,1-.94-1.65,11.62,11.62,0,0,0-1-1.73l-.46-1.15a43.5,43.5,0,0,0,8.29-3.5,23.24,23.24,0,0,0,7-5.77,17.29,17.29,0,0,0,3.27-7.13,9.66,9.66,0,0,0-.53-6.45,10,10,0,0,0-5.36-4.61q-4-1.76-10.91-1.76a33.1,33.1,0,0,0-11.52,1.8,18.73,18.73,0,0,0-7.65,5,15.54,15.54,0,0,0-3.63,7.39l-.3,1a10.33,10.33,0,0,0,.18,4.31,33.8,33.8,0,0,0,2.08,5.83,26.92,26.92,0,0,0-8.56,5.31A21.31,21.31,0,0,0,200,89.71l-.15,1.05a11.73,11.73,0,0,0,.71,8.1,12,12,0,0,0,6.42,5.4q4.65,2,12.3,1.95a45.09,45.09,0,0,0,17.06-3.14,19.069,19.069,0,0,0,3.94,1.83,28.07,28.07,0,0,0,8.62,1.24l5.48.07,2.47-11.7H254.6a21.36,21.36,0,0,1-5-.55l.27-.27a37.62,37.62,0,0,0,8-14.48c.4-1.55.72-2.75,1-3.6L259,75ZM229.36,63.31l.15-.82A4.22,4.22,0,0,1,231.09,60a4.6,4.6,0,0,1,2.85-.9,2.86,2.86,0,0,1,2.47.94,3,3,0,0,1,.38,2.44A7.35,7.35,0,0,1,235.62,65a7.92,7.92,0,0,1-2.28,2,23.792,23.792,0,0,1-3.2,1.59,14.219,14.219,0,0,1-.74-2.57,7.69,7.69,0,0,1-.04-2.71ZM219,93a3.53,3.53,0,0,1-1.95-1.72,4.17,4.17,0,0,1-.22-2.63l.07-.82A7.49,7.49,0,0,1,218.22,85a11.61,11.61,0,0,1,1.9-1.94c1.07,1.87,2,3.36,2.64,4.45.4.6.74,1.14,1,1.61s.64,1.06,1.09,1.76,1.08,1.63,1.62,2.39a26,26,0,0,1-3.87.31A9.33,9.33,0,0,1,219,93Z" fill="none" stroke="#fd0" stroke-miterlimit="10" stroke-width="0.5"/><path d="M282.57,49.14l.82,39.45v2.1h.23l.82-2,17.85-39.52h20.55L294,104.94H267.9l-4.95-55.8Z" fill="#fff"/><path d="M333.94,49.14h26.48l5.17,55.8h-20l-1.2-34.35.22-8.1h-.22l-3.08,8-15.75,34.43H305.22Zm-5.4,34.2h22.73l-1,12.45h-25.7Z" fill="#fff"/><path d="M382.09,49.14h19.2l-8.85,41.77h21l-3.08,14H370.24Z" fill="#fff"/><path d="M424.39,103.66a12.21,12.21,0,0,1-6.71-7.91q-1.47-5.3.33-13.76l7.05-32.85h19.2L437,83.19q-.9,4.2.49,6.18t4.91,2a8.06,8.06,0,0,0,5.66-2q2.15-1.95,3-6.22l7.2-34h19.35l-7,32.85a36.56,36.56,0,0,1-5.44,13.68,22.71,22.71,0,0,1-10.05,8q-6.35,2.67-16,2.67T424.39,103.66Z" fill="#fff"/><path d="M485.22,49.14h42.89l-3,13.8H501.49l-1.57,7.8h21.22l-2.63,11.92H497.44l-1.88,8.4h24.23l-2.93,13.88h-43.5Z" fill="#fff"/><path d="M532.31,104A13.53,13.53,0,0,1,525,97.4q-2-4.31-.68-10.39v-.45h18.23l-.08.45a7,7,0,0,0,0,3.23,3.62,3.62,0,0,0,1.8,2.25,7.8,7.8,0,0,0,3.9.82,8.92,8.92,0,0,0,4.88-1.12,4.33,4.33,0,0,0,2-3.08l.23-.45a3.42,3.42,0,0,0-.26-2.47,5.4,5.4,0,0,0-2.33-1.73,40.708,40.708,0,0,0-5.29-1.87,2.848,2.848,0,0,0-.63-.26l-.57-.12a22.711,22.711,0,0,0-2.32-.6,30.821,30.821,0,0,1-9.75-3.94A10.27,10.27,0,0,1,530,72.39a14.921,14.921,0,0,1,0-7.5l.15-.68a17.67,17.67,0,0,1,4.31-8.55,22.2,22.2,0,0,1,9-5.74,39.441,39.441,0,0,1,13.5-2.06q12.23,0,17.25,5.1t3.38,13.95l-.08.38h-17.4l.08-.38a5.63,5.63,0,0,0-.75-4.42q-1.2-1.58-4.58-1.58a8.24,8.24,0,0,0-4.35,1,3.84,3.84,0,0,0-1.87,2.7l-.15.6a3,3,0,0,0,.11,1.57,3.18,3.18,0,0,0,1,1.28,6.809,6.809,0,0,0,2.18,1,5.47,5.47,0,0,0,1.31.45,11.226,11.226,0,0,1,1.54.45q8.92,1.8,13.42,4.46c3,1.78,4.92,3.79,5.74,6a15,15,0,0,1,.19,8.32l-.08.75a18.87,18.87,0,0,1-4.83,9,23.06,23.06,0,0,1-9.45,5.74,43.17,43.17,0,0,1-13.69,2Q537.57,106.29,532.31,104Z" fill="#fff"/></g></svg>