<svg xmlns="http://www.w3.org/2000/svg" width="50" height="50" viewBox="0 0 50 50"><g transform="translate(-12.87 -9.55)"><circle cx="25" cy="25" r="25" transform="translate(12.87 9.55)" fill="#fd0"/><path d="M43.08,45.26H33.42a.26.26,0,0,1-.26-.26V38.65a8.76,8.76,0,1,1,10.19,0V45a.27.27,0,0,1-.27.26Zm-9.4-.53h9.14V38.51a.27.27,0,0,1,.11-.22,8.23,8.23,0,1,0-9.36,0,.27.27,0,0,1,.11.22Z"/><path d="M37.74,21.92a.27.27,0,0,1-.27-.26V18.78a.27.27,0,0,1,.53,0v2.88A.26.26,0,0,1,37.74,21.92Z"/><path d="M41.18,22.25h-.07a.26.26,0,0,1-.18-.32l.74-2.78A.28.28,0,0,1,42,19a.27.27,0,0,1,.19.33l-.75,2.78A.26.26,0,0,1,41.18,22.25Z"/><path d="M44.43,23.46a.35.35,0,0,1-.14,0,.27.27,0,0,1-.09-.36l1.43-2.5a.27.27,0,0,1,.46.27l-1.44,2.49A.25.25,0,0,1,44.43,23.46Z"/><path d="M47.24,25.47a.265.265,0,0,1-.18-.45l2-2a.27.27,0,0,1,.38.38l-2,2A.27.27,0,0,1,47.24,25.47Z"/><path d="M28.5,26.14a.29.29,0,0,1-.19-.08l-2-2a.27.27,0,1,1,.38-.38l2,2a.275.275,0,0,1-.19.46Z"/><path d="M31.17,23.93a.26.26,0,0,1-.23-.13L29.5,21.31a.264.264,0,0,1,.46-.26l1.44,2.49a.26.26,0,0,1-.1.36.28.28,0,0,1-.13.03Z"/><path d="M34.32,22.5a.26.26,0,0,1-.25-.2l-.75-2.78a.26.26,0,0,1,.19-.32.27.27,0,0,1,.32.19l.75,2.77a.27.27,0,0,1-.19.33Z"/><path d="M32.71,35.92a.28.28,0,0,1-.23-.13L32,35a.26.26,0,0,1,.06-.34l1.31-1a7,7,0,0,1-.18-.69l-1.66-.25a.26.26,0,0,1-.22-.26v-1a.26.26,0,0,1,.22-.26l1.66-.25c.05-.23.11-.46.18-.68l-1.31-1a.26.26,0,0,1-.06-.34l.48-.84a.26.26,0,0,1,.32-.11l1.57.62a3.38,3.38,0,0,1,.5-.5l-.62-1.57a.25.25,0,0,1,.12-.32l.83-.48a.26.26,0,0,1,.33.06l1,1.32a4.85,4.85,0,0,1,.68-.19l.25-1.66a.26.26,0,0,1,.26-.22h1a.26.26,0,0,1,.26.22l.25,1.66a5,5,0,0,1,.69.19l1-1.31a.26.26,0,0,1,.34-.07l.83.48a.26.26,0,0,1,.11.32L41.64,28a3.94,3.94,0,0,1,.5.5l1.56-.62A.27.27,0,0,1,44,28l.47.83a.26.26,0,0,1-.06.34l-1.31,1a4.27,4.27,0,0,1,.18.68l1.66.25a.26.26,0,0,1,.22.26v1a.26.26,0,0,1-.22.26l-1.66.25a4.39,4.39,0,0,1-.18.69l1.31,1a.26.26,0,0,1,.06.34l-.47.83a.27.27,0,0,1-.33.11L42,35.22a.26.26,0,0,1-.15-.34.25.25,0,0,1,.34-.15l1.53.6.25-.44-1.28-1a.26.26,0,0,1-.08-.3,4.31,4.31,0,0,0,.25-1A.28.28,0,0,1,43,32.4l1.63-.25v-.5L43,31.41a.28.28,0,0,1-.22-.22,4,4,0,0,0-.25-1,.28.28,0,0,1,.08-.31l1.28-1-.25-.43-1.53.6a.26.26,0,0,1-.3-.08,4.21,4.21,0,0,0-.7-.7.26.26,0,0,1-.07-.3l.6-1.53-.44-.25-1,1.28a.25.25,0,0,1-.3.08,4.91,4.91,0,0,0-1-.25.27.27,0,0,1-.22-.22l-.25-1.62H38l-.25,1.62a.25.25,0,0,1-.22.22,4.63,4.63,0,0,0-.94.25.25.25,0,0,1-.3-.08l-1-1.28-.43.25.6,1.53a.26.26,0,0,1-.08.3,4.63,4.63,0,0,0-.7.7.26.26,0,0,1-.3.08l-1.53-.6-.25.43,1.28,1a.28.28,0,0,1,.08.31,4.56,4.56,0,0,0-.25,1,.28.28,0,0,1-.22.22l-1.62.24v.5l1.62.25a.27.27,0,0,1,.22.22,4.91,4.91,0,0,0,.25,1,.26.26,0,0,1-.08.3l-1.28,1,.25.44,1.53-.6a.25.25,0,0,1,.34.15.26.26,0,0,1-.15.34l-1.74.68A.15.15,0,0,1,32.71,35.92Z"/><path d="M44.33,40.3H32.17a.27.27,0,0,1,0-.53H44.33a.27.27,0,0,1,0,.53Z"/><path d="M44.33,42.08H32.17a.27.27,0,0,1,0-.53H44.33a.27.27,0,0,1,0,.53Z"/><path d="M44.33,43.7H32.17a.27.27,0,0,1,0-.53H44.33a.27.27,0,0,1,0,.53Z"/><path d="M41.4,48.12H35.1a.27.27,0,0,1-.26-.27V45a.27.27,0,0,1,.26-.27h6.3a.26.26,0,0,1,.26.27v2.85a.26.26,0,0,1-.26.27Zm-6-.53h5.77V45.26h-5.8Z"/><path d="M39.26,50.59h-2a.26.26,0,0,1-.26-.26V47.85a.26.26,0,0,1,.26-.26h2a.27.27,0,0,1,.27.26v2.48a.27.27,0,0,1-.27.26Zm-1.76-.53H39V48.12H37.5Z"/><path d="M38.47,34.2a1,1,0,0,0,.89-1.05.89.89,0,0,0-.18-.58,1.49,1.49,0,0,0-.71-.36Zm-.4-4.6a1,1,0,0,0-.61.31.92.92,0,0,0-.22.6.85.85,0,0,0,.19.57,1.18,1.18,0,0,0,.64.34Zm0,5.83v-.66a2.61,2.61,0,0,1-.81-.23,1.48,1.48,0,0,1-.54-.52,1.82,1.82,0,0,1-.26-.88l.67-.12a1.69,1.69,0,0,0,.27.79,1,1,0,0,0,.67.39V32.12a4.18,4.18,0,0,1-.84-.35,1.28,1.28,0,0,1-.49-.49,1.53,1.53,0,0,1-.17-.72,1.45,1.45,0,0,1,.51-1.15,1.66,1.66,0,0,1,1-.36v-.32h.4v.32a1.56,1.56,0,0,1,.91.34,1.51,1.51,0,0,1,.53,1l-.69.1a1.1,1.1,0,0,0-.24-.6.86.86,0,0,0-.51-.28v1.92a6.6,6.6,0,0,1,.66.19,2,2,0,0,1,.51.34,1.31,1.31,0,0,1,.3.46,1.63,1.63,0,0,1,.1.59,1.58,1.58,0,0,1-.44,1.15,1.63,1.63,0,0,1-1.13.5v.67Z" fill="none"/></g></svg>