<svg id="Layer_1" data-name="Layer 1" xmlns="http://www.w3.org/2000/svg" viewBox="0 0 200 200"><defs><style>.cls-1{fill:#fd0;}.cls-2{fill:#231f20;}.cls-3{fill:#fff;}.cls-4{fill:#375a64;}.cls-5{fill:#ececec;}.cls-6{fill:#1a2e35;}.cls-7{fill:#ff4f5b;}</style></defs><circle class="cls-1" cx="100" cy="100" r="60"/><path class="cls-2" d="M100,150a50,50,0,1,1,50-50A50.06,50.06,0,0,1,100,150Zm0-90.95A41,41,0,1,0,141,100,41,41,0,0,0,100,59.05Z"/><path class="cls-3" d="M124.85,160l-40.77,0a8.89,8.89,0,0,1-8.87-8.89l0-102.21A8.88,8.88,0,0,1,84.11,40l40.77,0a8.89,8.89,0,0,1,8.88,8.89l0,102.21A8.88,8.88,0,0,1,124.85,160Z"/><path class="cls-2" d="M124.84,43.64h-7.9a2,2,0,0,0-1.92,2v1.43a2,2,0,0,1-1.92,2H97.69a2,2,0,0,1-1.92-2V45.63a2,2,0,0,0-1.92-2h-9.7a6.21,6.21,0,0,0-6.22,6.21l0,99.77a6.21,6.21,0,0,0,6.21,6.22l40.69,0a6.23,6.23,0,0,0,6.23-6.22l0-99.77A6.22,6.22,0,0,0,124.84,43.64Z"/><path class="cls-4" d="M109.1,133.2a2.58,2.58,0,0,1-.43,0l-1.17,0c-1,0-2.34,0-3.84,0s-2.86,0-3.84,0l-1.17,0a2.58,2.58,0,0,1-.43,0l.43,0,1.17,0,3.84,0,3.84,0,1.17,0Z"/><path class="cls-3" d="M124.64,122.33l-1.3-1.29-1.22,1.22v-3.7h2.52Zm-1.3-1.45,0,0,1.13,1.14v-3.39h-2.3V122Z"/><path class="cls-3" d="M91.86,121.94l-.61-.27a1.62,1.62,0,0,1-.78.24,1.68,1.68,0,1,1,1.66-1.69,1.65,1.65,0,0,1-.41,1.12Zm-1.41-3.27a1.57,1.57,0,0,0,0,3.13,1.67,1.67,0,0,0,.75-.24l0,0,.44.2-.1-.43,0,0a1.55,1.55,0,0,0,.41-1.06A1.57,1.57,0,0,0,90.45,118.67Z"/><path class="cls-3" d="M95.74,121.68,95,120l-1.29-1.19,3.14,0ZM94,118.93l1.11,1,.58,1.44,1-2.48Z"/><rect class="cls-3" x="94.98" y="119.34" width="2.05" height="0.11" transform="matrix(0.84, -0.55, 0.55, 0.84, -49.58, 71.67)"/><path class="cls-1" d="M86.91,119.17a1,1,0,0,0-1-.79,1,1,0,0,0-.92.85,1,1,0,0,0-1.92,0,1.28,1.28,0,0,0,.24.94,4,4,0,0,0,.69.73l1,.91,1-.93a4.21,4.21,0,0,0,.67-.73A1.36,1.36,0,0,0,86.91,119.17Z"/><circle class="cls-5" cx="86.62" cy="64.44" r="2.13"/><path class="cls-3" d="M123.83,110.09s-9,.08-20,.08-20,0-20-.08,9-.08,20-.08S123.83,110.05,123.83,110.09Z"/><path class="cls-3" d="M105.62,113.46c0,.05-4.87.08-10.88.08s-10.88,0-10.88-.08,4.87-.07,10.88-.07S105.62,113.42,105.62,113.46Z"/><path class="cls-6" d="M102.93,149.72a.85.85,0,1,1-1.7,0,.87.87,0,0,1,.86-.86A.85.85,0,0,1,102.93,149.72Z"/><path class="cls-6" d="M105.56,149.74a.85.85,0,1,1-.84-.87A.85.85,0,0,1,105.56,149.74Z"/><path class="cls-6" d="M108.19,149.75a.85.85,0,1,1-1.69,0,.85.85,0,1,1,1.69,0Z"/><rect class="cls-1" x="81.51" y="68.67" width="47.29" height="28.92"/><polygon class="cls-2" points="85.88 97.59 99.43 79.45 107.83 90.8 113.52 84.73 124.69 97.58 85.88 97.59"/><path class="cls-2" d="M111.39,77.23a3.06,3.06,0,1,1-3.06-3.06A3.06,3.06,0,0,1,111.39,77.23Z"/><path class="cls-3" d="M128.67,124.46c0-.62,0-26.74-.07-65.42l.07.07H81.39l.07-.08c0,24.47,0,47.11,0,65.42l-.06-.06,47.28.06-47.28.06h-.07v-.06c0-18.31,0-40.95,0-65.42V59h47.43V59c0,19.36,0,35.72,0,47.25,0,5.75,0,10.3,0,13.41,0,1.55,0,2.74,0,3.55v.91C128.68,124.36,128.67,124.46,128.67,124.46Z"/><path class="cls-3" d="M118.59,134.57c-.94.07-2.48.34-5,2.93l-.1.11c-1.31,1.71-2.55-3.17-2.77-5a1.91,1.91,0,0,0-2.58-1.48L102,134a2.81,2.81,0,0,0-1.78.06,1.82,1.82,0,0,0-1.16,2.16l2.47,9.89L97.4,160h14.12l1.93-12.93,1-3.51c.18-.76.42-1.66.75-2.69a7.33,7.33,0,0,1,1.73-2.59,13.26,13.26,0,0,1,2.3-1.67,1.37,1.37,0,0,1,.2-.13,1.24,1.24,0,0,0,.34-.3C120.44,135.51,119.85,134.47,118.59,134.57Z"/><path class="cls-1" d="M125.5,124.83l-4.85,9.51-2.42-.68L106,143.58a2.48,2.48,0,0,1-3.43-.31L98,137.88s9.36-4,11.09-7.37-.27-4.09-.27-4.09l4.41-5Z"/><path class="cls-3" d="M119.21,105.43s-7.09-1.57-17.08-11.18S87.45,71.89,86.23,72s-6.56-2.41-16.72,19.67-6.15,27.22-4.13,27.18,15.74-3.87,24.31-2.9,19.58,5.44,19.58,5.44Z"/><path class="cls-7" d="M134.29,117.46l-2.42,4.61-1.08,2.06a6,6,0,0,1-7.84,2.66l-15.21-5.3,8.86-20.23,15.2,8.1A6,6,0,0,1,134.29,117.46Z"/><path class="cls-1" d="M134.29,117.46l-2.42,4.61-1.08,2.06a6,6,0,0,1-7.84,2.66l-15.21-5.3,8.86-20.23,15.2,8.1A6,6,0,0,1,134.29,117.46Z"/><path class="cls-2" d="M70.33,92c-5.4,12-7.65,22.62-5,23.81s9.14-7.55,14.54-19.52,7.65-22.62,5-23.81S75.74,80.06,70.33,92Z"/><polygon class="cls-2" points="135.6 124.11 131.47 122.82 134.03 117.97 137.12 119.89 135.6 124.11"/><polyline class="cls-2" points="131.47 122.82 132.32 123.09 134.4 118.2 134.03 117.97"/><path class="cls-1" d="M81.35,89.36s-6.17-3.82-9.55,4.51,3.12,9.71,3.12,9.71A55.56,55.56,0,0,0,81.35,89.36Z"/><path class="cls-2" d="M99.45,137.22a12.18,12.18,0,0,0,2,2.87,4.05,4.05,0,0,0,3.14,1.28,2.48,2.48,0,0,0,2.27-2.25,1.45,1.45,0,0,0,1.87-.33,3.23,3.23,0,0,0,.67-1.94,1.82,1.82,0,0,0,2.31-.63,3,3,0,0,0,.3-2.53,9,9,0,0,0-1.22-2.32,3.13,3.13,0,0,0,1.72-.18,1.11,1.11,0,0,0,.57-1.45,1.45,1.45,0,0,0-.85-.54,5.27,5.27,0,0,0-2.5-.4c-.22,0,.38,2.5-5.59,5.93A50.73,50.73,0,0,1,99.45,137.22Z"/><path d="M112.88,140.83s-.4,0-1,0a6.2,6.2,0,0,0-2.42.58,6.11,6.11,0,0,0-2,1.52c-.42.5-.61.85-.63.84a.86.86,0,0,1,.11-.26,4.74,4.74,0,0,1,.43-.64,5.75,5.75,0,0,1,2-1.6,5.43,5.43,0,0,1,3.26-.48A1.23,1.23,0,0,1,112.88,140.83Z"/><path class="cls-3" d="M99.84,135.63c1,.92,1.62,1.94,2.63,2.87.46.42,1.17,1.22,1.78,1.33s1,0,1.25-.55-.16-1.1-.4-1.48c-.64-1-1.26-1.8-1.74-2.58-.22-.37.07-.44.18-.27.46.48,1.15.89,1.56,1.41.57.72.67,1.67,2.16,1.37a1.4,1.4,0,0,0,.55-.23,1.48,1.48,0,0,0,.34-1.77,4.66,4.66,0,0,0-.82-1.25,3.73,3.73,0,0,0,2.32,1.55,1.4,1.4,0,0,0,1.41-.77,1.82,1.82,0,0,0-.56-1.85,19.81,19.81,0,0,0-2.52-2.58,1.9,1.9,0,0,0-1.22-.45,1.8,1.8,0,0,0-1.5.55,2,2,0,0,0-.4,1.54,2.57,2.57,0,0,0-2.35,0,3.27,3.27,0,0,0-1.3,1.88Z"/><path class="cls-3" d="M106.77,130.09a1.57,1.57,0,0,1-.18-1.76c.22-.43.5-.86.78-1,1.24-.42,6.66.52,6.61,1.72s-.45,1.78-3.38,1.35l-1.33-.17-.71,1.06Z"/><path d="M107.74,135.12a7.12,7.12,0,0,0-3-2.7,1.6,1.6,0,0,1,.57.2,5.17,5.17,0,0,1,2.16,1.95A1.73,1.73,0,0,1,107.74,135.12Z"/><path d="M108.65,131.43s-.38-.26-.87-.56a4.77,4.77,0,0,0-.63-.35c-.17-.08-.28-.1-.28-.13s.13,0,.32,0a2.49,2.49,0,0,1,.67.32A2,2,0,0,1,108.65,131.43Z"/><path d="M109.56,130.32a2.47,2.47,0,0,1-1-.12,2,2,0,0,1-.67-.35c-.14-.13-.21-.23-.19-.25a3.71,3.71,0,0,0,.91.45A6.48,6.48,0,0,1,109.56,130.32Z"/><path d="M104.3,136.61a3.11,3.11,0,0,1-.49-.64,5.74,5.74,0,0,0-1.27-1.44,2.53,2.53,0,0,0-1.79-.47,3.43,3.43,0,0,0-.75.24s0-.06.17-.14a1.9,1.9,0,0,1,.57-.21,2.5,2.5,0,0,1,1.89.46,5.27,5.27,0,0,1,1.27,1.5A4.88,4.88,0,0,1,104.3,136.61Z"/></svg>