<svg id="Layer_1" data-name="Layer 1" xmlns="http://www.w3.org/2000/svg" viewBox="0 0 476.82 443.77"><defs><style>.cls-1{fill:#ffd400;}</style></defs><polygon class="cls-1" points="327.09 242.19 321.74 254.79 330.19 257.44 334.11 246.55 327.09 242.19"/><polygon class="cls-1" points="326.14 241.6 327.09 242.19 327.09 242.19 326.14 241.6"/><path class="cls-1" d="M165.72,179.48c-8.7,21.48,8,25,8,25a143,143,0,0,0,16.57-36.65S174.42,158,165.72,179.48Z"/><path class="cls-1" d="M244.89,279.06a8.24,8.24,0,0,0-2.93,3.6,8.62,8.62,0,0,0-1.64.15A6.47,6.47,0,0,1,245.2,284a9.82,9.82,0,0,1,1.91,1.9l.6-.34c1.19,1.17,2.84,2.2,3.85,3.48,1.47,1.85,1.73,4.29,5.56,3.51a3.36,3.36,0,0,0,1.42-.59,3.81,3.81,0,0,0,.89-4.55,9,9,0,0,0-1.24-2.08c.14.31.21.51.18.52a24.92,24.92,0,0,0-3.34-4,21.17,21.17,0,0,0-4.32-2.9C249.94,278.55,247.18,277.55,244.89,279.06Z"/><path class="cls-1" d="M255.3,281.49a13.12,13.12,0,0,1,2.41,2.92c.12.2.23.39.32.56,1.44,1.56,3.05,3,5.27,3.18a3.57,3.57,0,0,0,3.62-2c.77-1.74-.33-3.42-1.43-4.78a49.35,49.35,0,0,0-4.94-5.18c-.33-.2-1.09-.77-2.07-1.38a16.41,16.41,0,0,0-1.64-.9c-.4-.19-.64-.25-.69-.3s-.21-.06-.32-.06c-1.34,0-3,.25-3.85,1.41a5.36,5.36,0,0,0-1.06,3.89,8.3,8.3,0,0,1,1.24.49A12.94,12.94,0,0,1,255.3,281.49Z"/><path class="cls-1" d="M320.4,219.41l-39.19-20.88-3,6.92c-7.84-3.81-19.9-11.17-34.28-25-25.75-24.76-37.85-57.65-41-57.49s-16.92-6.23-43.09,50.71-15.87,70.16-10.66,70.06,40.58-10,62.67-7.45c17.61,2,39.22,9.72,47.26,12.77l-.71,1.62L269,254.38l-7.92,9a4.29,4.29,0,0,1,2.14,2.46,16.17,16.17,0,0,0-5.8,0c-.73.25-1.45,1.33-2,2.45a4,4,0,0,0,.48,4.55l1.34.94a8.77,8.77,0,0,1,3.3,2.2l1.69-2.54a9.8,9.8,0,0,1-1.83-.33,5,5,0,0,1-1.72-.91c-.38-.32-.54-.59-.51-.63a11.53,11.53,0,0,0,2.35,1.16,22.66,22.66,0,0,1,2.56.67l2.67.36c3.14.46,5.15.47,6.44.12a3.34,3.34,0,0,1-1.58,1.79,8.24,8.24,0,0,1-4.44.45,23.06,23.06,0,0,1,3.13,6,7.71,7.71,0,0,1-.75,6.52c-1.3,1.86-4,2.77-6,1.62a8.45,8.45,0,0,1-1.72,5c-1.19,1.34-3.39,1.93-4.83.85,0,3-2.86,5.49-5.85,5.79a10.45,10.45,0,0,1-8.09-3.3,30.84,30.84,0,0,1-5.08-7.41s1-.4,3.3-1.62a54.86,54.86,0,0,0,4.47,4.93c1.18,1.09,3,3.15,4.6,3.42s2.59.07,3.22-1.41c.51-1.2-.4-2.83-1-3.82s-1.4-2.11-2.06-3.06a9.91,9.91,0,0,1-1.27-1.65,15.15,15.15,0,0,0-3.26-3.7,6.56,6.56,0,0,0-4.62-1.23,8.48,8.48,0,0,0-1.94.62s.13-.16.44-.35a4.57,4.57,0,0,1,1.43-.53,9.71,9.71,0,0,0-1.2.27,4.68,4.68,0,0,0-3,5.56l.66,2.65c-2.15,1-3.55,1.63-3.55,1.63l5.59,6.49,3.69,14.73-15.54,51.68-41,0a16,16,0,0,1-16-16l0-106.46-7,.71,0,109.59a22.89,22.89,0,0,0,22.88,22.9l37.91,0,0,0h40.44v0l26.78,0a22.91,22.91,0,0,0,22.91-22.9l0-86.35a31.92,31.92,0,0,1-7,2.94l0,79.57a16,16,0,0,1-16,16l-25.08,0,7.35-49.22,2.69-9.06c.47-2,1.1-4.28,1.94-6.93a18.91,18.91,0,0,1,4.46-6.67c2.76-2.8,4.07-2.82,5.92-4.31.17-.1.35-.26.51-.34a2.89,2.89,0,0,0,.9-.78c1.6-1.73.07-4.4-3.17-4.14a13.67,13.67,0,0,0-6.72,2.36l5.78-4.7,6.25,1.73L301,265.44a15.47,15.47,0,0,0,16.75-8l2.8-5.32,5.56-10.56.68-1.31A15.49,15.49,0,0,0,320.4,219.41ZM149,236.1c-6.78-3.06-1-30.55,12.95-61.39s30.72-53.37,37.5-50.31,1,30.55-12.95,61.39S155.75,239.16,149,236.1Zm120,64.37A15.65,15.65,0,0,0,262.7,302a15.43,15.43,0,0,0-5.07,3.93c-1.07,1.26-1.56,2.18-1.62,2.15a2.38,2.38,0,0,1,.3-.67,11.91,11.91,0,0,1,1.1-1.66,14.4,14.4,0,0,1,11.52-5.52,11.58,11.58,0,0,1,2,.18,2,2,0,0,1,.7.18C271.61,300.62,270.59,300.42,268.93,300.47Zm4.54-8.51c-.08.1-.17.18-.25.28a1.89,1.89,0,0,1-1.43.9l2.86-2.33C274.26,291.19,273.88,291.53,273.47,292Z"/><path class="cls-1" d="M169.94,92.55a16.05,16.05,0,0,1,16.05-16h25a5.07,5.07,0,0,1,4.95,5.18V85.4a5.07,5.07,0,0,0,4.95,5.18l39.72,0a5.06,5.06,0,0,0,4.95-5.17v-3.7a5.06,5.06,0,0,1,4.95-5.17l20.38,0a16,16,0,0,1,16,16l0,114.83,7,3.63,0-120.92A22.89,22.89,0,0,0,291,67.26l-105.12-.07A22.91,22.91,0,0,0,163,90.09v67.77c2.36-3.89,4.89-8.22,7-11.8Z"/></svg>