<svg width="375" height="166" viewBox="0 0 375 166" fill="none" xmlns="http://www.w3.org/2000/svg">
<path d="M117.5 40.3H135.9C140.1 40.3 143.4 41 145.9 42.5C148.3 44 150 46 150.8 48.7C151.6 51.4 151.6 54.6 150.8 58.3L150.2 61.3C149.4 65.1 148.2 68.4 146.5 70.9C144.8 73.5 142.5 75.5 139.6 76.9C136.7 78.3 133 79 128.5 79H109.4L117.5 40.3ZM132.2 68.8C133.2 68.3 134.1 67.6 134.8 66.5C135.5 65.4 136.1 64 136.4 62.2L137.5 57.1C137.8 55.3 137.9 53.8 137.6 52.8C137.3 51.8 136.8 51 136 50.6C135.2 50.2 134.1 49.9 132.6 49.9H128.9L124.7 69.4H128.5C129.9 69.4 131.1 69.2 132.2 68.8Z" fill="white"/>
<path d="M156.901 48.1H169.101L162.501 79H150.301L156.901 48.1ZM159.701 45C158.801 44.7 158.201 44.1 157.801 43.4C157.501 42.7 157.401 41.8 157.701 40.6C158.001 38.9 158.801 37.7 160.101 36.9C161.301 36.1 163.201 35.7 165.701 35.7C167.201 35.7 168.501 35.9 169.401 36.2C170.301 36.5 171.001 37.1 171.301 37.8C171.601 38.5 171.701 39.5 171.401 40.6C171.101 42.3 170.301 43.5 169.001 44.3C167.701 45.1 165.901 45.4 163.401 45.4C161.901 45.5 160.601 45.3 159.701 45Z" fill="white"/>
<path d="M173.301 88.8C171.401 88.5 169.501 88.2 167.801 87.6L169.901 79.6C171.101 80 172.601 80.3 174.401 80.5C176.201 80.7 177.901 80.8 179.401 80.8C181.101 80.8 182.601 80.6 183.801 80.2C185.001 79.8 186.001 79.2 186.801 78.4C187.601 77.6 188.101 76.6 188.401 75.4L188.301 75.3L189.201 72.1H188.501L189.601 71.2C188.301 73.3 186.601 74.9 184.701 76C182.801 77.1 180.601 77.6 178.301 77.6C175.701 77.6 173.701 77 172.201 75.9C170.701 74.8 169.801 73.1 169.401 70.8C169.001 68.6 169.101 65.9 169.801 62.7L170.001 61.7C170.701 58.4 171.701 55.7 173.001 53.5C174.301 51.3 176.001 49.7 178.001 48.6C180.001 47.5 182.301 46.9 184.901 46.9C186.501 46.9 187.801 47.2 189.101 47.7C190.301 48.2 191.301 49 192.101 50C192.901 51 193.401 52.3 193.501 53.8L192.801 54L192.701 52.9H193.501L193.801 49.8L194.201 47.9H206.501L201.101 73.1C200.301 76.7 199.001 79.7 197.201 82.1C195.401 84.5 193.001 86.2 190.201 87.3C187.301 88.4 183.801 89 179.801 89C177.401 89.2 175.201 89.1 173.301 88.8ZM187.801 68.5C188.601 68 189.301 67.5 189.701 66.7C190.201 66 190.501 65.1 190.701 64.2L191.301 61.2C191.501 60.3 191.601 59.5 191.501 58.7C191.401 57.9 191.001 57.3 190.401 56.8C189.801 56.3 189.001 56.1 187.901 56.1C186.901 56.1 186.001 56.3 185.301 56.8C184.601 57.3 184.001 57.9 183.501 58.7C183.101 59.5 182.701 60.4 182.501 61.5L181.901 64.4C181.701 65.4 181.701 66.2 181.801 66.9C181.901 67.6 182.201 68.2 182.801 68.6C183.301 69 184.101 69.2 185.201 69.2C186.101 69.2 187.001 69 187.801 68.5Z" fill="white"/>
<path d="M211.5 48.1H223.7L217.1 79H204.9L211.5 48.1ZM214.3 45C213.4 44.7 212.8 44.1 212.4 43.4C212.1 42.7 212 41.8 212.3 40.6C212.6 38.9 213.4 37.7 214.7 36.9C215.9 36.1 217.8 35.7 220.3 35.7C221.8 35.7 223.1 35.9 224 36.2C224.9 36.5 225.6 37.1 225.9 37.8C226.2 38.5 226.3 39.5 226 40.6C225.7 42.3 224.9 43.5 223.6 44.3C222.3 45.1 220.5 45.4 218 45.4C216.5 45.5 215.2 45.3 214.3 45Z" fill="white"/>
<path d="M230.7 77.9C228 76.5 226.1 74.4 225.1 71.7C224.1 69 224 65.5 224.9 61.4L225.6 58C226.6 53.9 228 50.5 230 47.7C232 44.9 234.4 42.9 237.5 41.6C240.6 40.3 244.1 39.5 248.2 39.5C252.4 39.5 255.9 40.2 258.5 41.7C261.1 43.2 262.9 45.3 263.9 48.1C264.8 50.9 264.8 54.3 263.9 58.3L263.3 61.3C262.4 65.5 260.9 69 259 71.8C257.1 74.6 254.6 76.6 251.6 78C248.6 79.4 245 80 240.8 80C236.8 79.9 233.4 79.2 230.7 77.9ZM235.1 78.4H246.3L244.6 86.4H233.4L235.1 78.4ZM245.5 68.8C246.4 68.3 247.2 67.6 247.9 66.5C248.6 65.4 249.1 64 249.6 62.1L250.6 57.5C251 55.6 251.1 54.1 250.9 53C250.7 51.9 250.2 51.1 249.4 50.6C248.6 50.1 247.6 49.9 246.4 49.9C245.1 49.9 244 50.1 243.2 50.6C242.3 51.1 241.6 51.8 241 52.8C240.4 53.8 239.9 55.3 239.5 57.1L238.4 62.2C238 64 237.9 65.4 238.2 66.5C238.5 67.6 239 68.4 239.7 68.8C240.4 69.3 241.4 69.5 242.4 69.5C243.5 69.5 244.6 69.3 245.5 68.8Z" fill="#FFDD00"/>
<path d="M40.4 93.2H48.2C50.4 93.2 52.1 93.6 53.3 94.4C54.5 95.2 55.4 96.4 55.7 98C56.1 99.6 56 101.6 55.5 104L55.2 105.4C54.7 107.9 54 110 53.1 111.6C52.2 113.2 51 114.3 49.5 115.1C48 115.9 46.1 116.2 43.9 116.2H35.5L40.4 93.2ZM46.7 111.3C47.4 110.9 48.1 110.4 48.6 109.5C49.1 108.7 49.5 107.5 49.8 106L50.4 103.3C50.7 101.8 50.7 100.7 50.6 99.9C50.5 99.1 50.1 98.5 49.6 98.1C49 97.8 48.2 97.6 47.2 97.6H44.9L41.8 111.8H44.1C45.1 111.8 46 111.7 46.7 111.3Z" fill="#FFDD00"/>
<path d="M60.9996 93.2H66.3996L61.4996 116.2H56.0996L60.9996 93.2Z" fill="#FFDD00"/>
<path d="M68.9003 115.7C67.7003 115 66.9003 113.9 66.6003 112.4C66.2003 110.9 66.3003 109 66.8003 106.7L67.6003 102.8C68.1003 100.5 68.8003 98.6 69.8003 97.2C70.8003 95.7 72.0003 94.6 73.4003 93.9C74.8003 93.2 76.6003 92.8 78.6003 92.8C80.5003 92.8 82.1003 93.2 83.2003 93.9C84.3003 94.6 85.1003 95.6 85.5003 96.9C85.9003 98.2 85.9003 99.7 85.5003 101.5V101.7H80.2003L80.3003 101.3C80.5003 100.4 80.5003 99.7 80.4003 99.1C80.3003 98.5 80.0003 98.1 79.6003 97.8C79.2003 97.5 78.5003 97.3 77.7003 97.3C77.0003 97.3 76.3003 97.5 75.7003 97.8C75.1003 98.1 74.6003 98.6 74.1003 99.4C73.6003 100.2 73.3003 101.1 73.0003 102.2L71.9003 107.3C71.7003 108.5 71.6003 109.5 71.8003 110.2C72.0003 110.9 72.3003 111.5 72.8003 111.8C73.3003 112.1 73.9003 112.3 74.7003 112.3C75.4003 112.3 76.1003 112.2 76.7003 111.9C77.3003 111.6 77.8003 111.2 78.1003 110.6C78.4003 110 78.7003 109.4 79.0003 108.6L79.2003 108.1H75.6003L76.4003 103.9H85.2003L84.7003 106.1C84.2003 108.5 83.5003 110.5 82.6003 112C81.7003 113.5 80.6003 114.7 79.1003 115.5C77.7003 116.3 75.9003 116.7 73.8003 116.7C71.7003 116.7 70.1003 116.4 68.9003 115.7Z" fill="#FFDD00"/>
<path d="M90.4996 93.2H95.8996L90.9996 116.2H85.5996L90.4996 93.2Z" fill="#FFDD00"/>
<path d="M102.5 97.6H97.0996L98.0996 93.2H114.1L113.2 97.6H107.8L103.8 116.2H98.4996L102.5 97.6Z" fill="#FFDD00"/>
<path d="M119.199 93.2H126.199L127.899 116.2H122.399L121.799 99.8V97.7H121.699L120.899 99.8L113.399 116.2H107.699L119.199 93.2ZM115.699 107.6H123.799L123.199 111.8H114.499L115.699 107.6Z" fill="#FFDD00"/>
<path d="M134.999 93.2H140.399L136.499 111.8H144.699L143.799 116.2H130.199L134.999 93.2Z" fill="#FFDD00"/>
<path d="M158.6 115.7C157.4 115 156.7 113.9 156.3 112.4C156 110.9 156 109 156.5 106.7L157.3 102.8C157.8 100.5 158.5 98.6 159.5 97.1C160.5 95.6 161.7 94.5 163.1 93.8C164.6 93.1 166.3 92.7 168.2 92.7C170.2 92.7 171.8 93.1 173 93.8C174.2 94.6 174.9 95.6 175.3 96.9C175.7 98.2 175.7 99.8 175.3 101.6L175.2 101.9H169.9L170 101.3C170.2 100.4 170.2 99.6 170.1 99.1C170 98.6 169.7 98.1 169.3 97.7C168.9 97.4 168.2 97.2 167.4 97.2C166.7 97.2 166 97.4 165.4 97.7C164.8 98 164.3 98.5 163.9 99.3C163.5 100 163.1 101 162.8 102.3L161.7 107.2C161.5 108.4 161.4 109.4 161.6 110.1C161.8 110.8 162 111.4 162.5 111.7C163 112 163.5 112.2 164.2 112.2C165 112.2 165.6 112.1 166.2 111.8C166.8 111.5 167.3 111.1 167.7 110.5C168.1 109.9 168.4 109.1 168.7 108.2L168.9 107.6H174.2L174.1 107.9C173.7 109.8 173 111.3 172.1 112.6C171.2 113.9 170 114.9 168.6 115.7C167.2 116.5 165.4 116.8 163.4 116.8C161.3 116.7 159.7 116.4 158.6 115.7Z" fill="white"/>
<path d="M178.999 115.6C177.699 114.9 176.899 113.8 176.499 112.3C176.099 110.8 176.099 108.9 176.699 106.7L177.499 102.7C177.999 100.4 178.699 98.6 179.599 97.1C180.499 95.6 181.699 94.5 183.099 93.8C184.499 93.1 186.199 92.7 188.199 92.7C190.199 92.7 191.799 93.1 193.099 93.9C194.299 94.7 195.099 95.8 195.499 97.3C195.899 98.8 195.899 100.7 195.299 102.9L194.499 106.7C193.999 109 193.299 110.9 192.399 112.4C191.499 113.9 190.299 115 188.999 115.7C187.599 116.4 185.899 116.8 183.799 116.8C181.799 116.7 180.199 116.4 178.999 115.6ZM186.499 111.7C187.099 111.3 187.599 110.8 188.099 110.1C188.499 109.4 188.899 108.4 189.199 107.1L190.199 102.4C190.399 101.1 190.499 100.1 190.399 99.3C190.299 98.5 189.999 98 189.499 97.7C188.999 97.4 188.399 97.2 187.599 97.2C186.799 97.2 186.099 97.4 185.499 97.7C184.899 98 184.399 98.5 183.999 99.3C183.599 100 183.199 101 182.999 102.2L181.899 107.1C181.699 108.3 181.599 109.2 181.799 110C181.999 110.8 182.299 111.3 182.699 111.6C183.099 111.9 183.799 112.1 184.499 112.1C185.199 112.2 185.899 112 186.499 111.7Z" fill="white"/>
<path d="M200.6 93.2H206.3L209.9 105.8L210.4 107.6L210.9 105.6L213.5 93.3H218.6L213.7 116.3H208L204.4 103.7L203.9 102H203.8L203.3 104L200.8 116.3H195.6L200.6 93.2Z" fill="white"/>
<path d="M220.8 115.8C219.6 115.2 218.8 114.3 218.4 113.2C218 112.1 217.9 110.7 218.3 109.1V108.9H223.5L223.4 109.1C223.3 109.7 223.2 110.3 223.3 110.8C223.4 111.3 223.7 111.7 224.1 112C224.5 112.3 225.2 112.5 226 112.5C227 112.5 227.7 112.3 228.3 111.8C228.9 111.4 229.3 110.7 229.4 109.9L229.5 109.7C229.6 109.1 229.6 108.6 229.4 108.2C229.2 107.8 228.9 107.5 228.4 107.2C227.9 106.9 227.2 106.6 226.2 106.2C226.1 106.1 226 106.1 225.9 106.1C225.8 106.1 225.8 106 225.7 106C225.5 105.9 225.2 105.8 225 105.7C223.8 105.3 222.8 104.8 222.1 104.2C221.4 103.6 220.9 102.9 220.7 102.1C220.4 101.3 220.4 100.3 220.7 99.1L220.8 98.8C221.1 97.6 221.6 96.5 222.4 95.6C223.2 94.7 224.2 93.9 225.5 93.4C226.8 92.9 228.2 92.6 229.9 92.6C232.6 92.6 234.5 93.3 235.7 94.6C236.8 95.9 237.2 97.8 236.7 100.1V100.3H231.7V100.1C231.9 99.1 231.8 98.3 231.5 97.7C231.1 97.1 230.4 96.8 229.3 96.8C228.3 96.8 227.6 97 227.1 97.4C226.6 97.8 226.2 98.3 226.1 98.9V99.2C226 99.6 226 100 226.2 100.3C226.4 100.6 226.6 100.8 226.9 101C227.2 101.2 227.6 101.4 228.2 101.6C228.3 101.7 228.5 101.8 228.6 101.8C228.7 101.8 228.9 101.9 229 101.9C230.8 102.5 232.1 103.1 233.1 103.8C234.1 104.5 234.7 105.3 235 106.3C235.3 107.3 235.3 108.4 235 109.7L234.9 110C234.6 111.4 234 112.5 233.2 113.5C232.4 114.5 231.3 115.2 230 115.7C228.7 116.2 227.2 116.5 225.5 116.5C223.5 116.7 222 116.4 220.8 115.8Z" fill="white"/>
<path d="M239.8 115.7C238.7 115 237.9 114 237.7 112.6C237.4 111.2 237.5 109.4 237.9 107.3L240.9 93.2H246.2L243.2 107.8C242.8 109.3 242.8 110.4 243.3 111.1C243.7 111.8 244.5 112.2 245.6 112.2C246.7 112.2 247.6 111.8 248.3 111.1C249 110.4 249.5 109.3 249.8 107.8L252.9 93.2H258.2L255.3 107.3C254.8 109.5 254.2 111.2 253.3 112.6C252.4 114 251.2 115 249.8 115.7C248.4 116.4 246.7 116.7 244.6 116.7C242.6 116.7 241 116.4 239.8 115.7Z" fill="white"/>
<path d="M261.8 93.2H267.2L263.3 111.8H271.5L270.6 116.2H257L261.8 93.2Z" fill="white"/>
<path d="M277.8 97.6H272.4L273.4 93.2H289.4L288.5 97.6H283.1L279.1 116.2H273.8L277.8 97.6Z" fill="white"/>
<path d="M291.599 93.2H296.999L292.099 116.2H286.699L291.599 93.2Z" fill="white"/>
<path d="M300.9 93.2H306.6L310.2 105.8L310.7 107.6L311.2 105.6L313.8 93.3H318.9L314 116.3H308.3L304.7 103.7L304.2 102H304.1L303.6 104L301.1 116.3H296L300.9 93.2Z" fill="white"/>
<path d="M321.5 115.7C320.3 115 319.5 113.9 319.2 112.4C318.8 110.9 318.9 109 319.4 106.7L320.2 102.8C320.7 100.5 321.4 98.6 322.4 97.2C323.4 95.7 324.6 94.6 326 93.9C327.4 93.2 329.2 92.8 331.2 92.8C333.1 92.8 334.7 93.2 335.8 93.9C336.9 94.6 337.7 95.6 338.1 96.9C338.5 98.2 338.5 99.7 338.1 101.5V101.7H332.8L332.9 101.3C333.1 100.4 333.1 99.7 333 99.1C332.9 98.5 332.6 98.1 332.2 97.8C331.8 97.5 331.1 97.3 330.3 97.3C329.6 97.3 328.9 97.5 328.3 97.8C327.7 98.1 327.2 98.6 326.7 99.4C326.2 100.2 325.9 101.1 325.6 102.2L324.5 107.3C324.3 108.5 324.2 109.5 324.4 110.2C324.6 110.9 324.9 111.5 325.4 111.8C325.9 112.1 326.5 112.3 327.3 112.3C328 112.3 328.7 112.2 329.3 111.9C329.9 111.6 330.4 111.2 330.7 110.6C331.1 110.1 331.3 109.4 331.6 108.6L331.8 108.1H328.2L329 103.9H337.8L337.3 106.1C336.8 108.5 336 110.5 335.2 112C334.4 113.5 333.2 114.7 331.7 115.5C330.3 116.3 328.5 116.7 326.4 116.7C324.3 116.7 322.7 116.4 321.5 115.7Z" fill="white"/>
</svg>
