<svg xmlns="http://www.w3.org/2000/svg" width="240.362" height="105" viewBox="0 0 240.362 105"><g transform="translate(4.59 -22.46)"><rect width="240" height="105" transform="translate(-4.59 22.46)" fill="rgba(255,255,255,0)"/><path d="M81.73,67.07,90,28.39h19.14c9.51,0,15.39,4.78,13.41,14.09l-.2.88c-2,9.26-7.7,14.35-18,14.35H97.07l-2,9.36ZM99.18,48h4.5c2.7,0,4.58-1.13,5.35-4.72l.21-.84c.57-2.92-.57-4.27-3.48-4.27h-4.53Z" transform="translate(0 6)" fill="#fff"/><path d="M143.3,67.07l-.2-6.39H132.33l-2.91,6.39H115.27l19.91-38.68h18.46l3.59,38.68Zm-7-15h6.5l-.26-8.79.1-5.67h-.16l-2.18,5.67Z" transform="translate(0 6)" fill="#fff"/><path d="M160.31,54.65l.05-.32h12.58v.32c-.47,2.39.21,4.36,4,4.36,3,0,4.42-1.19,4.79-2.91l.1-.31c.42-2.13-.78-2.81-6.29-4.52-10.4-2.29-12.58-5.78-11.28-12l.1-.47c1.4-6.5,7.33-11.34,18.67-11.34,11.6,0,15.7,5.3,14.2,13.21v.31H185.06l.05-.25c.37-2.39-.31-4.16-3.64-4.16-2.81,0-4.06,1.09-4.37,2.55v.36c-.31,1.56.68,2.5,4.21,3.32,12.69,2.71,14.77,6.77,13.47,13.1l-.1.52C193,63.75,186.18,68,175.28,68,163.53,68,158.54,62.91,160.31,54.65Z" transform="translate(0 6)" fill="#fff"/><path d="M203.47,67.07l6.13-28.91h-9.67L202,28.39h32.76l-2.08,9.77H223l-6.19,28.91Z" transform="translate(0 6)" fill="#fff"/><path d="M56.87,114.38,56.41,75.7h13L68.58,100l-.42,4.32h.1L69.82,100l8.9-24.28H92.91L91.46,100l-.32,4.32h.11L92.67,100l9.21-24.29h13.29l-16.9,38.68H81.84l1.3-23.5.26-3.68h-.11L82,90.88l-8.63,23.5Z" transform="translate(0 1)" fill="none" stroke="#fff" stroke-miterlimit="10" stroke-width="1"/><path d="M111.79,96.77l.72-3.49c2.76-12.48,10.16-18.46,22.63-18.46s18.35,6.48,15.53,18.83l-.62,3c-2.85,12.65-9.92,18.65-22.38,18.65C115.67,115.3,108.93,109.3,111.79,96.77Zm24.59.78,1-4.74c1.36-5.82-.72-7.54-4.26-7.54s-5.77,1.67-7,7.13L125,97.65c-1.25,5.56,1.09,7.28,4,7.28,3.67,0,6.08-1.77,7.38-7.38Z" transform="translate(0 1)" fill="none" stroke="#fff" stroke-miterlimit="10" stroke-width="1"/><path d="M150.79,114.38,159,75.7h19.14c11.13,0,15.39,4.57,13.83,12l-.15.73a11.9,11.9,0,0,1-8.95,9.26l-.05.16c3.74,1,4.68,3.84,4.16,8.73l-.31,2.82a15.261,15.261,0,0,0,.1,5H173.51a28.21,28.21,0,0,1,.26-5.88l.21-2.39c.26-2.45-.78-3.7-3.95-3.7h-3.36l-2.55,12Zm17.73-20.54H173c2.6,0,4.58-1,5.26-4.26l.15-.73c.52-2.6-.67-3.69-3.38-3.69H170.3Z" transform="translate(0 1)" fill="none" stroke="#fff" stroke-miterlimit="10" stroke-width="1"/><path d="M190.41,114.38l8.26-38.67H212l-3,14.14h3l8.37-14.14h14.45L222,94.3l-.05.26,5.88,19.75H213.34l-3.27-14.79H207l-3.18,14.86Z" transform="translate(0 1)" fill="none" stroke="#fff" stroke-miterlimit="10" stroke-width="1"/></g></svg>