<svg xmlns="http://www.w3.org/2000/svg" width="240.16" height="105" viewBox="0 0 240.16 105"><g transform="translate(-22 -23.47)"><rect width="240" height="105" transform="translate(22 23.47)" fill="rgba(255,255,255,0)"/><path d="M30,67l8.22-38.68h19.1c11.13,0,15.4,4.57,13.84,12l-.16.73a11.91,11.91,0,0,1-8.94,9.26L62,50.5c3.75,1,4.68,3.84,4.16,8.73l-.31,2.86a15.26,15.26,0,0,0,.11,5H52.69A27.45,27.45,0,0,1,53,61.22l.2-2.39c.26-2.45-.78-3.7-4-3.7H45.88l-2.54,12ZM47.7,46.49h4.53c2.6,0,4.57-1,5.25-4.26l.16-.73c.52-2.6-.68-3.69-3.38-3.69H49.52Z" transform="translate(0 7)" fill="#fff"/><path d="M69.59,67l8.22-38.68h29.8l-2,9.56H89.15L88,43.32h14.72L101,51.54H86.29L85,57.36h16.85l-2,9.67Z" transform="translate(0 7)" fill="#fff"/><path d="M106.46,49.41l.73-3.43c2.65-12.58,10.56-18.51,22.62-18.51,12.22,0,17.47,6,15.5,16.28l-.11.52H132l.26-1.3c.46-3.33-.84-5.1-4.27-5.1s-5.93,1.56-7.17,7.33l-1.1,5.26c-1.19,5.56.89,7.22,4,7.22a6.4,6.4,0,0,0,6.55-5.14l.31-1.3h13.16l-.11.57C141.1,62,133.66,68,121.6,68,109.32,68,103.76,62.09,106.46,49.41Z" transform="translate(0 7)" fill="#fff"/><path d="M144.63,67l8.22-38.68h29.79l-2,9.56H164.18L163,43.32h14.72L176,51.54H161.32L160,57.36h16.85l-2,9.67Z" transform="translate(0 7)" fill="#fff"/><path d="M179.11,67l8.21-38.68h14.46l5.67,18.14.78,3.44.88-4.16,3.75-17.42h12.27L216.91,67H202.4l-5.61-18.14L196,45.45l-.88,4.16L191.38,67Z" transform="translate(0 7)" fill="#fff"/><path d="M229.91,67l6.14-28.91h-9.68l2.08-9.77h32.76l-2.08,9.77h-9.67L243.27,67Z" transform="translate(0 7)" fill="#fff"/><path d="M83.32,114.34l-.47-38.68h13L95,99.94l-.41,4.35h.11L96.27,100l8.89-24.28h14.2L117.9,100l-.31,4.32h.1l1.46-4.32,9.2-24.28h13.26l-16.9,38.65H108.28l1.3-23.5.26-3.69h-.1l-1.31,3.69-8.63,23.5Z" transform="translate(0 2)" fill="none" stroke="#fff" stroke-miterlimit="10" stroke-width="1"/><path d="M138.23,96.72l.73-3.49c2.75-12.48,10.19-18.46,22.62-18.46s18.36,6.5,15.55,18.83l-.63,3c-2.86,12.69-9.93,18.69-22.41,18.69C142.13,115.29,135.37,109.29,138.23,96.72Zm24.6.78,1-4.74c1.35-5.82-.73-7.54-4.27-7.54s-5.77,1.67-7,7.13l-1.15,5.25c-1.25,5.56,1.09,7.28,4.06,7.28C159.08,104.88,161.53,103.11,162.83,97.5Z" transform="translate(0 2)" fill="none" stroke="#fff" stroke-miterlimit="10" stroke-width="1"/><path d="M177.23,114.34l8.22-38.68h19.13c11.13,0,15.4,4.57,13.84,12l-.16.73a11.91,11.91,0,0,1-8.94,9.26l-.06.16c3.75,1,4.68,3.84,4.16,8.73l-.31,2.86a15.26,15.26,0,0,0,.11,5H200a27.45,27.45,0,0,1,.27-5.87l.2-2.39c.26-2.45-.78-3.7-4-3.7h-3.33l-2.54,12ZM195,93.8h4.53c2.6,0,4.57-1,5.25-4.26l.15-.73c.53-2.6-.67-3.69-3.37-3.69h-4.74Z" transform="translate(0 2)" fill="none" stroke="#fff" stroke-miterlimit="10" stroke-width="1"/><path d="M216.85,114.34l8.22-38.68h13.36l-3,14.14h2.91l8.37-14.14h14.5L248.42,94.29v.26l5.87,19.76h-14.5l-3.28-14.84h-3.12l-3.17,14.87Z" transform="translate(0 2)" fill="none" stroke="#fff" stroke-miterlimit="10" stroke-width="1"/></g></svg>