<svg xmlns="http://www.w3.org/2000/svg" width="240.362" height="105" viewBox="0 0 240.362 105"><g transform="translate(4.59 -23.05)"><rect width="240" height="105" transform="translate(-4.59 23.05)" fill="rgba(255,255,255,0)"/><path d="M56.87,113.8l-.46-38.68h13L68.58,99.4l-.42,4.31h.1l1.56-4.32,8.9-24.28H92.91L91.46,99.39l-.32,4.32h.11l1.42-4.31,9.21-24.28h13.29L98.27,113.8H81.84l1.3-23.5.26-3.69h-.11L82,90.3l-8.63,23.5Z" transform="translate(0 2)" fill="none" stroke="#fff" stroke-miterlimit="10" stroke-width="1"/><path d="M111.79,96.18l.72-3.49c2.76-12.48,10.16-18.46,22.63-18.46s18.35,6.48,15.53,18.83l-.62,3c-2.85,12.65-9.92,18.65-22.38,18.65C115.67,114.71,108.93,108.71,111.79,96.18Zm24.59.78,1-4.74c1.36-5.82-.72-7.54-4.26-7.54s-5.77,1.67-7,7.13L125,97.06c-1.25,5.56,1.09,7.28,4,7.28,3.67,0,6.08-1.77,7.38-7.34Z" transform="translate(0 2)" fill="none" stroke="#fff" stroke-miterlimit="10" stroke-width="1"/><path d="M150.79,113.8,159,75.12h19.14c11.13,0,15.39,4.57,13.83,12l-.15.73a11.91,11.91,0,0,1-8.95,9.26l-.05.16c3.74,1,4.68,3.84,4.16,8.73l-.31,2.81a15.261,15.261,0,0,0,.1,5H173.51a28.111,28.111,0,0,1,.26-5.87l.21-2.39c.26-2.45-.78-3.7-3.95-3.7h-3.36l-2.55,12Zm17.73-20.54H173c2.6,0,4.58-1,5.26-4.26l.15-.73c.52-2.6-.67-3.69-3.38-3.69H170.3Z" transform="translate(0 2)" fill="none" stroke="#fff" stroke-miterlimit="10" stroke-width="1"/><path d="M190.41,113.8l8.26-38.68H212l-3,14.14h3l8.37-14.14h14.45L222,93.71l-.05.26,5.88,19.76H213.34l-3.27-14.8H207l-3.18,14.87Z" transform="translate(0 2)" fill="none" stroke="#fff" stroke-miterlimit="10" stroke-width="1"/><path d="M92.28,66.73l8.22-38.68H115l5.67,18.14.77,3.47.88-4.16L126,28.08h12.3l-8.21,38.65H115.58L110,48.59l-.83-3.44-.88,4.16L104.6,66.73Z" transform="translate(0 6)" fill="#fff"/><path d="M135.91,66.73l8.22-38.68h29.8l-2,9.56H155.46L154.32,43H169l-1.77,8.22H152.6l-1.3,5.82h16.85l-2,9.67Z" transform="translate(0 6)" fill="#fff"/><path d="M176.47,66.73,176,28.05h13l-.83,24.28-.41,4.33h.1l1.54-4.33,8.89-24.28h14.2L211,52.33l-.29,4.33h.11l1.45-4.32,9.21-24.28h13.26l-16.9,38.7H201.4l1.3-23.5.26-3.69h-.1l-1.3,3.69-8.63,23.5Z" transform="translate(0 6)" fill="#fff"/></g></svg>