<svg xmlns="http://www.w3.org/2000/svg" width="159.054" height="72.8" viewBox="0 0 159.054 72.8"><g transform="translate(-71.594 -17.8)"><path d="M93.3,17.8H106l5.1,16.1.7,3.1.8-3.7,3.2-15.4h10.9L119.4,52H106.6l-5.1-16.1-.7-3-.8,3.7L96.8,52H86Z" fill="#fff"/><path d="M131.8,17.8h26.3l-1.8,8.5H141.8l-1,4.8h13l-1.6,7.3H139.3l-1.2,5.2H153l-1.8,8.5H124.5Z" fill="#fff"/><path d="M160,17.8h11.5l-.8,21.5-.3,3.8h.1l1.3-3.8,8-21.5h12.5L191,39.3l-.2,3.8h0l1.3-3.8,8.2-21.5H212L197,52H182.5l1.1-20.8.2-3.3h-.1l-1.1,3.3L175,52H160.4Z" fill="#fff"/><path d="M72.1,54.8H83.6l-.8,21.5-.3,3.8h.1l1.3-3.8,8-21.5h12.5l-1.2,21.5-.2,3.8h0l1.3-3.8,8.2-21.5H124L109,89H94.6l1.1-20.8.2-3.3h-.1l-1.1,3.3L87,89H72.5Z" fill="none" stroke="#fd0" stroke-miterlimit="10" stroke-width="1"/><path d="M126.1,88a9.788,9.788,0,0,1-4.9-5.5,16.183,16.183,0,0,1-.2-9.1l.6-3a27.179,27.179,0,0,1,3.9-9.1,15.811,15.811,0,0,1,6.6-5.4,23.006,23.006,0,0,1,9.5-1.8,18.631,18.631,0,0,1,9.1,1.9,9.832,9.832,0,0,1,4.7,5.7,17.415,17.415,0,0,1,0,9.1l-.6,2.7a26.3,26.3,0,0,1-3.8,9.3,16.419,16.419,0,0,1-6.5,5.5,23.006,23.006,0,0,1-9.5,1.8A23.777,23.777,0,0,1,126.1,88Zm13.1-8a5.686,5.686,0,0,0,2.1-2,14.441,14.441,0,0,0,1.5-3.9l.9-4.1a9.408,9.408,0,0,0,.2-4,3.2,3.2,0,0,0-1.3-2.1,5.4,5.4,0,0,0-2.7-.6,6.527,6.527,0,0,0-2.9.6,5.464,5.464,0,0,0-2,2,10.514,10.514,0,0,0-1.3,3.8l-1,4.6a8.482,8.482,0,0,0-.2,3.8,2.965,2.965,0,0,0,1.4,2.1,4.751,4.751,0,0,0,2.4.6A11.08,11.08,0,0,0,139.2,80Z" fill="none" stroke="#fd0" stroke-miterlimit="10" stroke-width="1"/><path d="M162.7,54.8h16.9a18.916,18.916,0,0,1,7.8,1.3,7.175,7.175,0,0,1,4,3.6,8.914,8.914,0,0,1,.4,5.7l-.1.6a9.68,9.68,0,0,1-2.7,5.2,10.692,10.692,0,0,1-5.2,2.9v.2a6.055,6.055,0,0,1,2.5,1.4,4.891,4.891,0,0,1,1.2,2.5,11.993,11.993,0,0,1,0,3.8l-.3,2.5a24.4,24.4,0,0,0-.1,2.6,11.077,11.077,0,0,0,.2,1.9H175.5a6.555,6.555,0,0,1,0-2,22.287,22.287,0,0,1,.3-3.2l.1-2.2a3.526,3.526,0,0,0-.1-1.8,2.345,2.345,0,0,0-1.1-1.1,6.174,6.174,0,0,0-2.2-.4h-2.9L167.2,89H155.4ZM178.1,70a4.827,4.827,0,0,0,1.6-2.9l.1-.6a2.324,2.324,0,0,0-.4-2.5,3.666,3.666,0,0,0-2.6-.8h-4.2L171,70.9h4A4.964,4.964,0,0,0,178.1,70Z" fill="none" stroke="#fd0" stroke-miterlimit="10" stroke-width="1"/><path d="M197.7,54.8h11.8l-2.7,12.5h2.7l7.4-12.5h12.8L218.4,71.3v.3L223.6,89H210.8l-2.9-13.2H205L202.2,89H190.4Z" fill="none" stroke="#fd0" stroke-miterlimit="10" stroke-width="1"/></g></svg>