<?xml version="1.0" encoding="utf-8"?>
<!-- Generator: Adobe Illustrator 25.0.1, SVG Export Plug-In . SVG Version: 6.00 Build 0)  -->
<svg version="1.1" id="Layer_1" xmlns="http://www.w3.org/2000/svg" xmlns:xlink="http://www.w3.org/1999/xlink" x="0px" y="0px"
	 viewBox="0 0 738 180.9" style="enable-background:new 0 0 738 180.9;" xml:space="preserve">
<style type="text/css">
	.st0{fill:#FFDD00;}
	.st1{fill:none;stroke:#231F20;stroke-width:0.75;stroke-miterlimit:10;}
</style>
<g>
	<polygon class="st0" points="27.4,57.9 52.7,57.9 62.7,89.6 64,95.7 65.7,88.3 72,57.9 93.5,57.9 79.1,125.5 53.8,125.5 43.7,93.8 
		42.4,87.8 40.8,95.1 34.5,125.5 13,125.5 	"/>
	<polygon class="st0" points="103.6,57.9 155.6,57.9 152,74.6 123.4,74.6 121.4,84.1 147.2,84.1 144,98.5 118.4,98.5 116.2,108.7 
		145.5,108.7 142,125.5 89.2,125.5 	"/>
	<polygon class="st0" points="159.3,57.9 182,57.9 180.5,100.3 179.8,107.9 180,107.9 182.7,100.3 198.4,57.9 223.1,57.9 
		220.6,100.4 220.1,107.9 220.2,107.9 222.8,100.3 239,57.9 262.1,57.9 232.5,125.5 203.9,125.5 206,84.4 206.4,77.9 206.2,77.9 
		204,84.4 188.9,125.5 160.1,125.5 	"/>
	<path class="st0" d="M263.6,124.4c-4.2-1.8-7.2-4.5-8.8-8c-1.6-3.5-1.9-7.7-0.8-12.6v-0.5h22.1l-0.1,0.5c-0.3,1.5-0.3,2.8,0,3.9
		c0.3,1.2,1,2.1,2.2,2.7c1.2,0.7,2.7,1,4.7,1c2.5,0,4.5-0.5,5.9-1.4c1.4-0.9,2.2-2.2,2.5-3.7l0.3-0.5c0.2-1.3,0.1-2.3-0.3-3
		c-0.5-0.7-1.4-1.4-2.8-2.1c-1.4-0.7-3.6-1.4-6.4-2.3c-0.4-0.2-0.6-0.3-0.8-0.3c-0.2,0-0.4-0.1-0.7-0.1c-1-0.3-1.9-0.5-2.8-0.7
		c-5.2-1.3-9.2-2.9-11.8-4.8c-2.7-1.9-4.4-4-5.1-6.4c-0.8-2.4-0.7-5.5,0-9.1l0.2-0.8c0.8-3.9,2.5-7.4,5.2-10.4c2.7-3,6.3-5.3,10.9-7
		c4.5-1.7,10-2.5,16.4-2.5c9.9,0,16.9,2.1,20.9,6.2c4.1,4.1,5.4,9.8,4.1,16.9l-0.1,0.5h-21.1l0.1-0.5c0.4-2.3,0.1-4.1-0.9-5.4
		c-1-1.3-2.8-1.9-5.5-1.9c-2.2,0-4,0.4-5.3,1.2c-1.3,0.8-2,1.9-2.3,3.3l-0.2,0.7c-0.1,0.7-0.1,1.4,0.1,1.9c0.2,0.5,0.6,1.1,1.2,1.5
		c0.6,0.5,1.5,0.9,2.6,1.3c0.5,0.2,1,0.4,1.6,0.5c0.6,0.1,1.2,0.3,1.9,0.5c7.2,1.5,12.6,3.3,16.3,5.4c3.6,2.2,6,4.6,7,7.3
		c1,2.7,1.1,6.1,0.2,10.1l-0.1,0.9c-1,4.2-2.9,7.9-5.9,11c-2.9,3.1-6.8,5.4-11.5,7c-4.7,1.6-10.2,2.4-16.6,2.4
		C273.4,127.2,267.9,126.3,263.6,124.4"/>
	<path class="st1" d="M372,89.2l-0.1,0.6c-1.1,5.3-3,9.6-5.6,12.9c0,0-0.1,0.1-0.1,0.1c-1.1-1.6-2.3-3.4-3.4-5.5
		c-0.5-0.7-0.9-1.4-1.1-2c-0.3-0.6-0.7-1.3-1.2-2.1c-0.2-0.6-0.4-1-0.5-1.4c3.9-1.3,7.3-2.7,10.1-4.2c3.7-2.1,6.6-4.5,8.6-7
		c2-2.5,3.3-5.4,4-8.6c0.7-2.9,0.5-5.5-0.6-7.8c-1.1-2.3-3.3-4.2-6.5-5.6c-3.2-1.4-7.7-2.1-13.2-2.1c-5.4,0-10.1,0.7-14,2.2
		c-3.9,1.5-7,3.5-9.3,6c-2.3,2.6-3.7,5.6-4.4,9l-0.4,1.3c-0.3,1.5-0.2,3.3,0.2,5.2c0.5,2,1.3,4.3,2.5,7.1c-4.1,1.6-7.6,3.7-10.4,6.4
		c-4.2,3.9-6.8,8.4-7.9,13.5l-0.2,1.3c-0.8,3.8-0.6,7,0.9,9.8c1.4,2.8,4,5,7.8,6.6c3.8,1.6,8.7,2.4,14.9,2.4
		c7.5,0,14.4-1.3,20.7-3.8c1.6,1,3.2,1.7,4.8,2.2c3.1,1,6.6,1.5,10.5,1.5l6.6,0.1l3-14.2h-2.7c-2.2,0-4.2-0.2-6.1-0.7
		c0.1-0.1,0.2-0.2,0.3-0.3c4.4-4.9,7.7-10.8,9.7-17.6c0.5-1.9,0.9-3.3,1.2-4.4l0.2-0.7L372,89.2z M354.1,75l0.2-1
		c0.3-1.3,0.9-2.3,1.9-3c1-0.7,2.1-1.1,3.5-1.1c1.5,0,2.5,0.4,3,1.1c0.5,0.8,0.7,1.7,0.5,3c-0.3,1.2-0.8,2.2-1.4,3
		c-0.6,0.9-1.6,1.7-2.8,2.5c-1,0.6-2.3,1.3-3.9,1.9c-0.4-1.1-0.8-2.2-0.9-3.1C353.9,77.1,353.9,76,354.1,75z M341.5,111.1
		c-1.2-0.5-1.9-1.2-2.4-2.1c-0.4-0.9-0.5-2-0.3-3.2l0.1-1c0.3-1.3,0.8-2.4,1.6-3.4c0.7-0.9,1.4-1.6,2.3-2.3c1.3,2.3,2.4,4.1,3.2,5.4
		c0.5,0.7,0.9,1.4,1.2,2c0.3,0.6,0.8,1.3,1.3,2.1c0.7,1,1.3,2,2,2.9c-1.5,0.2-3.1,0.4-4.7,0.4C344.1,111.8,342.7,111.6,341.5,111.1z
		"/>
	<path class="st0" d="M404.6,57.9h33.3c5,0,9.3,0.7,12.9,2c3.6,1.3,6.2,3.2,7.9,5.8c1.7,2.5,2.1,5.7,1.3,9.5l-0.2,0.9
		c-0.8,3.6-2.4,6.6-4.7,8.8c-2.4,2.2-5.7,3.8-10.1,4.6l-0.1,0.3c4.6,0.8,7.9,2.5,9.9,5.3c2,2.7,2.5,6.2,1.7,10.4l-0.2,1
		c-0.8,4.4-2.6,8.1-5.1,10.9c-2.6,2.9-5.9,4.9-10.1,6.3c-4.2,1.3-9.1,2-14.9,2h-35.9L404.6,57.9z M430.9,108.6
		c1.4-0.9,2.3-2.2,2.6-4l0.2-0.9c0.4-2.2,0.1-3.8-0.9-4.7c-1-0.9-2.9-1.3-5.6-1.3h-8.5l-2.5,12.2h8.9
		C427.6,109.9,429.5,109.5,430.9,108.6 M435.5,83.3c1.3-0.8,2.1-2,2.5-3.7L438,79c0.3-1.3,0.3-2.3,0-3.1c-0.3-0.8-0.9-1.4-1.8-1.7
		c-0.9-0.4-2.1-0.5-3.6-0.5h-8.8l-2.3,10.9h8.6C432.4,84.5,434.2,84.1,435.5,83.3"/>
	<polygon class="st0" points="473.8,57.9 497.1,57.9 486.3,108.5 511.8,108.5 508.1,125.5 459.4,125.5 	"/>
	<path class="st0" d="M527.3,123.5c-4.7-2.4-8-6.1-9.7-10.9c-1.8-4.9-1.9-10.9-0.4-18l1.3-6c1.7-7.2,4.3-13.2,7.7-18
		c3.4-4.8,7.8-8.3,13.1-10.7c5.3-2.4,11.5-3.6,18.7-3.6c7.4,0,13.4,1.3,18,3.8c4.6,2.5,7.7,6.3,9.4,11.2c1.6,4.9,1.6,10.9,0,17.9
		l-1.1,5.3c-1.6,7.4-4.1,13.5-7.5,18.3c-3.4,4.8-7.7,8.4-12.9,10.8c-5.2,2.4-11.5,3.5-18.9,3.5C537.9,127.2,532,126,527.3,123.5
		 M553.2,107.8c1.6-0.8,3-2.2,4.1-4c1.2-1.9,2.2-4.5,3-7.7l1.8-8.1c0.7-3.3,0.9-6,0.5-7.9c-0.4-1.9-1.3-3.3-2.6-4.1
		c-1.3-0.8-3.1-1.3-5.3-1.3c-2.2,0-4.1,0.4-5.6,1.2c-1.5,0.8-2.8,2.1-3.9,3.9c-1.1,1.8-2,4.3-2.6,7.5l-2,9c-0.7,3.1-0.8,5.6-0.4,7.6
		c0.5,1.9,1.4,3.3,2.7,4.1c1.3,0.8,2.9,1.2,4.8,1.2C549.7,109,551.6,108.6,553.2,107.8"/>
	<path class="st0" d="M598.5,123.6c-4.5-2.4-7.5-6-9-10.9c-1.5-4.9-1.6-11,0-18.2l1.3-5.8c1.7-7.3,4.3-13.3,7.8-18.1
		c3.5-4.8,7.9-8.3,13.3-10.7c5.3-2.4,11.6-3.6,18.7-3.6c6.8,0,12.4,1.1,16.8,3.3c4.4,2.2,7.5,5.3,9.2,9.2c1.8,4,2.1,8.7,1.1,14.1
		l-0.1,0.7h-23.2l0.5-1.9c0.1-1.6,0-3-0.4-4.2c-0.4-1.2-1.2-2-2.4-2.6c-1.2-0.6-2.9-0.9-4.9-0.9c-2,0-3.8,0.4-5.4,1.3
		c-1.6,0.9-3,2.2-4.3,4.1c-1.3,1.9-2.2,4.4-2.8,7.4l-2.1,9.8c-0.8,3.4-1,6.1-0.5,8.2c0.5,2.1,1.4,3.6,2.8,4.4
		c1.4,0.9,3.2,1.3,5.3,1.3c1.8,0,3.4-0.3,4.8-0.9c1.5-0.6,2.7-1.4,3.6-2.6c0.9-1.2,1.7-2.5,2.2-4l0.1-0.4h-10.4l3-13.6h33.1
		l-0.8,3.5c-1.8,8.1-4.4,14.7-7.8,19.7c-3.4,5-7.7,8.7-12.9,11.1c-5.2,2.4-11.5,3.6-18.9,3.6C608.8,127.2,603,126,598.5,123.6"/>
	<path class="st0" d="M667.6,124.4c-4.2-1.8-7.2-4.5-8.8-8c-1.6-3.5-1.9-7.7-0.8-12.6v-0.5h22.1l-0.1,0.5c-0.3,1.5-0.3,2.8,0,3.9
		c0.3,1.2,1,2.1,2.2,2.7c1.2,0.7,2.7,1,4.7,1c2.5,0,4.5-0.5,5.9-1.4c1.4-0.9,2.2-2.2,2.5-3.7l0.3-0.5c0.2-1.3,0.1-2.3-0.3-3
		c-0.5-0.7-1.4-1.4-2.8-2.1c-1.4-0.7-3.6-1.4-6.4-2.3c-0.4-0.2-0.6-0.3-0.8-0.3c-0.2,0-0.4-0.1-0.7-0.1c-1-0.3-1.9-0.5-2.8-0.7
		c-5.2-1.3-9.2-2.9-11.8-4.8c-2.7-1.9-4.4-4-5.1-6.4c-0.8-2.4-0.7-5.5,0-9.1l0.2-0.8c0.8-3.9,2.5-7.4,5.2-10.4c2.7-3,6.3-5.3,10.9-7
		c4.5-1.7,10-2.5,16.4-2.5c9.9,0,16.9,2.1,20.9,6.2c4.1,4.1,5.4,9.8,4.1,16.9l-0.1,0.5h-21.1l0.1-0.5c0.4-2.3,0.1-4.1-0.9-5.4
		c-1-1.3-2.8-1.9-5.5-1.9c-2.2,0-4,0.4-5.3,1.2c-1.3,0.8-2,1.9-2.3,3.3l-0.2,0.7c-0.1,0.7-0.1,1.4,0.1,1.9c0.2,0.5,0.6,1.1,1.2,1.5
		c0.6,0.5,1.5,0.9,2.6,1.3c0.5,0.2,1,0.4,1.6,0.5c0.6,0.1,1.2,0.3,1.9,0.5c7.2,1.5,12.6,3.3,16.3,5.4c3.6,2.2,6,4.6,7,7.3
		c1,2.7,1.1,6.1,0.2,10.1l-0.1,0.9c-1,4.2-2.9,7.9-5.9,11c-2.9,3.1-6.8,5.4-11.5,7c-4.7,1.6-10.2,2.4-16.6,2.4
		C677.4,127.2,671.9,126.3,667.6,124.4"/>
</g>
</svg>
