<?xml version="1.0" encoding="utf-8"?>
<!-- Generator: Adobe Illustrator 25.0.1, SVG Export Plug-In . SVG Version: 6.00 Build 0)  -->
<svg version="1.1" id="Layer_1" xmlns="http://www.w3.org/2000/svg" xmlns:xlink="http://www.w3.org/1999/xlink" x="0px" y="0px"
	 viewBox="0 0 187.5 134.5" style="enable-background:new 0 0 187.5 134.5;" xml:space="preserve">
<style type="text/css">
	.st0{fill:#FFDD00;}
	.st1{fill:none;stroke:#231F20;stroke-miterlimit:10;}
</style>
<polygon class="st0" points="44.5,37.8 53.2,37.8 56.6,48.7 57,50.7 57.6,48.2 59.8,37.8 67.1,37.8 62.2,60.9 53.5,60.9 50.1,50.1 
	49.7,48 49.1,50.5 47,60.9 39.7,60.9 "/>
<polygon class="st0" points="70.5,37.8 88.3,37.8 87,43.5 77.2,43.5 76.6,46.8 85.4,46.8 84.3,51.7 75.6,51.7 74.8,55.2 84.8,55.2 
	83.6,60.9 65.6,60.9 "/>
<polygon class="st0" points="89.5,37.8 97.2,37.8 96.7,52.3 96.5,54.9 96.6,54.9 97.5,52.3 102.8,37.8 111.2,37.8 110.4,52.3 
	110.2,54.9 110.3,54.9 111.1,52.3 116.7,37.8 124.5,37.8 114.4,60.9 104.7,60.9 105.4,46.9 105.6,44.7 105.5,44.7 104.7,46.9 
	99.6,60.9 89.8,60.9 "/>
<path class="st0" d="M125.1,60.5c-1.3-0.5-2.4-1.5-3-2.7c-0.6-1.4-0.7-2.9-0.3-4.3v-0.2h7.5v0.2c-0.1,0.4-0.1,0.9,0,1.3
	c0.1,0.4,0.4,0.7,0.8,0.9c0.5,0.3,1.1,0.4,1.6,0.3c0.7,0,1.4-0.1,2-0.5c0.5-0.3,0.8-0.7,0.8-1.3l0.1-0.2c0.1-0.3,0.1-0.7-0.1-1
	c-0.3-0.3-0.6-0.6-1-0.7c-0.7-0.3-1.4-0.6-2.2-0.8c-0.1,0-0.2-0.1-0.3-0.1l-0.2,0c-0.3-0.1-0.7-0.2-1-0.2c-1.4-0.3-2.8-0.9-4-1.6
	c-0.8-0.5-1.4-1.3-1.8-2.2c-0.3-1-0.3-2.1,0-3.1l0.1-0.3c0.3-1.3,0.9-2.5,1.8-3.5c1-1.1,2.3-1.9,3.7-2.4c1.8-0.6,3.7-0.9,5.6-0.8
	c3.4,0,5.8,0.7,7.1,2.1s1.9,3.3,1.4,5.8v0.2h-7.2v-0.2c0.2-0.6,0-1.3-0.3-1.8c-0.5-0.5-1.2-0.7-1.9-0.7c-0.6,0-1.2,0.1-1.8,0.4
	c-0.4,0.2-0.7,0.6-0.8,1.1l-0.1,0.2c0,0.2,0,0.4,0.1,0.7c0.1,0.2,0.2,0.4,0.4,0.5c0.3,0.2,0.6,0.4,0.9,0.4c0.2,0.1,0.4,0.1,0.5,0.2
	c0.2,0,0.4,0.1,0.6,0.2c1.9,0.3,3.8,0.9,5.6,1.8c1.1,0.5,1.9,1.4,2.4,2.5c0.4,1.1,0.4,2.3,0.1,3.4v0.3c-0.3,1.4-1,2.7-2,3.7
	c-1.1,1.1-2.4,1.9-3.9,2.4c-1.8,0.6-3.7,0.8-5.7,0.8C128.7,61.6,126.8,61.2,125.1,60.5"/>
<path class="st1" d="M58.2,72.5v0.2c-0.3,1.6-0.9,3.1-1.9,4.4c0,0,0,0-0.1,0.1c-0.4-0.6-0.8-1.2-1.2-1.8c-0.1-0.2-0.3-0.4-0.4-0.7
	c-0.1-0.2-0.3-0.5-0.4-0.7c-0.1-0.2-0.1-0.3-0.2-0.5c1.2-0.4,2.3-0.9,3.4-1.5c1.1-0.6,2.1-1.4,2.9-2.3c0.7-0.9,1.1-1.9,1.3-3
	c0.2-0.9,0.2-1.8-0.2-2.7c-0.5-0.9-1.3-1.6-2.2-1.9c-1.4-0.5-3-0.8-4.5-0.7c-1.6,0-3.2,0.2-4.8,0.8c-1.2,0.4-2.3,1.1-3.2,2.1
	c-0.8,0.9-1.3,1.9-1.5,3l-0.1,0.4c-0.1,0.6-0.1,1.2,0.1,1.8c0.2,0.8,0.5,1.6,0.9,2.4c-1.3,0.5-2.5,1.3-3.5,2.2
	c-1.3,1.2-2.3,2.8-2.7,4.6L40,79c-0.3,1.1-0.2,2.3,0.3,3.4c0.6,1,1.5,1.8,2.6,2.2h0c1.6,0.6,3.4,0.9,5.1,0.8c2.4,0,4.8-0.4,7-1.3
	c0.5,0.3,1.1,0.6,1.7,0.8V85c1.2,0.4,2.4,0.5,3.6,0.5h2.3l1-4.8h-0.9c-0.7,0-1.4-0.1-2.1-0.2c0-0.1,0.1-0.1,0.1-0.1
	c1.5-1.7,2.7-3.8,3.3-6c0.2-0.6,0.3-1.1,0.4-1.5l0.1-0.2H58.2z M52.2,67.7l0.1-0.3c0.1-0.4,0.3-0.8,0.7-1c0.3-0.2,0.8-0.4,1.2-0.4
	c0.4,0,0.7,0.1,1,0.4c0.2,0.3,0.2,0.7,0.2,1c-0.1,0.4-0.3,0.7-0.5,1c-0.3,0.3-0.6,0.6-0.9,0.8c-0.4,0.3-0.9,0.5-1.3,0.7
	c-0.1-0.3-0.2-0.7-0.3-1C52.2,68.5,52.2,68.1,52.2,67.7z M47.9,80c-0.4-0.1-0.6-0.4-0.8-0.7c-0.1-0.3-0.2-0.7-0.1-1.1v-0.3
	c0.1-0.4,0.3-0.8,0.6-1.2c0.2-0.3,0.5-0.5,0.7-0.8c0.4,0.8,0.8,1.4,1.1,1.8l0.4,0.7c0.1,0.2,0.3,0.4,0.5,0.7c0.2,0.3,0.4,0.7,0.7,1
	c-0.5,0.1-1.1,0.1-1.6,0.1C48.9,80.2,48.4,80.2,47.9,80z"/>
<path class="st0" d="M44.5,85.8h11.4c1.5,0,3,0.2,4.4,0.7c1.1,0.4,2,1.1,2.7,2c0.6,1,0.7,2.1,0.5,3.2L63.4,92
	c-0.2,1.1-0.8,2.2-1.6,3c-1,0.8-2.2,1.4-3.4,1.6v0.1c1.3,0.1,2.5,0.8,3.4,1.8c0.7,1,0.9,2.3,0.6,3.5l-0.1,0.3
	c-0.2,1.4-0.8,2.7-1.8,3.7c-0.9,1-2.1,1.7-3.4,2.1c-1.6,0.5-3.4,0.7-5.1,0.7H39.7L44.5,85.8z M53.5,103.1c0.5-0.3,0.8-0.8,0.9-1.3
	l0.1-0.3c0.2-0.5,0.1-1.2-0.3-1.6c-0.6-0.4-1.2-0.5-1.9-0.4h-2.9l-0.9,4.2h3C52.2,103.6,52.9,103.5,53.5,103.1 M55.1,94.5
	c0.4-0.3,0.7-0.7,0.8-1.2L56,93c0.1-0.3,0.1-0.7,0-1c-0.1-0.3-0.3-0.5-0.6-0.6c-0.4-0.1-0.8-0.2-1.2-0.2h-3l-0.8,3.7h2.9
	C53.9,95,54.6,94.8,55.1,94.5"/>
<polygon class="st0" points="68.1,85.8 76.1,85.8 72.4,103.1 81.1,103.1 79.8,108.9 63.2,108.9 "/>
<path class="st0" d="M86.4,108.2c-1.6-0.8-2.7-2.1-3.3-3.7c-0.6-2-0.7-4.1-0.1-6.1l0.4-2c0.5-2.2,1.4-4.3,2.6-6.2
	c1.1-1.6,2.7-2.9,4.4-3.7c2-0.9,4.2-1.3,6.4-1.2c2.1-0.1,4.2,0.4,6.1,1.3c1.5,0.8,2.7,2.2,3.2,3.8c0.6,2,0.6,4.1,0,6.1l-0.4,1.8
	c-0.4,2.2-1.3,4.4-2.6,6.2c-1.1,1.6-2.6,2.9-4.4,3.7c-2,0.9-4.2,1.3-6.4,1.2C90.3,109.5,88.3,109.1,86.4,108.2 M95.2,102.8
	c0.6-0.3,1.1-0.8,1.4-1.4c0.5-0.8,0.8-1.7,1-2.6l0.6-2.8c0.2-0.9,0.3-1.8,0.2-2.7c-0.1-0.6-0.4-1.1-0.9-1.4
	c-0.5-0.3-1.2-0.5-1.8-0.4c-0.7,0-1.3,0.1-1.9,0.4c-0.6,0.3-1,0.8-1.3,1.3c-0.4,0.8-0.7,1.6-0.9,2.5l-0.7,3.1
	c-0.2,0.8-0.3,1.7-0.1,2.6c0.1,0.6,0.4,1.1,0.9,1.4c0.5,0.3,1.1,0.4,1.6,0.4C93.9,103.3,94.6,103.2,95.2,102.8"/>
<path class="st0" d="M110.6,108.2c-1.5-0.8-2.6-2.1-3.1-3.7c-0.5-2-0.5-4.2,0-6.2l0.4-2c0.5-2.2,1.4-4.3,2.7-6.2
	c1.2-1.6,2.7-2.9,4.5-3.7c2-0.9,4.2-1.3,6.4-1.2c2-0.1,3.9,0.3,5.7,1.1c1.4,0.6,2.5,1.7,3.2,3.1c0.6,1.5,0.7,3.2,0.4,4.8v0.2h-7.9
	L123,94c0-0.5,0-1-0.1-1.4c-0.1-0.4-0.4-0.7-0.8-0.9c-0.5-0.2-1.1-0.3-1.7-0.3c-0.6,0-1.3,0.1-1.8,0.4c-0.6,0.3-1.1,0.8-1.5,1.4
	c-0.5,0.8-0.8,1.6-1,2.5l-0.7,3.3c-0.3,0.9-0.3,1.9-0.2,2.8c0.1,0.6,0.5,1.2,1,1.5c0.6,0.3,1.2,0.5,1.8,0.4c0.6,0,1.1-0.1,1.6-0.3
	c0.5-0.2,0.9-0.5,1.2-0.9c0.3-0.4,0.6-0.9,0.8-1.4v-0.1H118l1-4.6h11.3l-0.3,1.2c-0.5,2.4-1.4,4.7-2.7,6.7c-1.1,1.6-2.6,3-4.4,3.8
	c-2,0.9-4.2,1.3-6.4,1.2C114.5,109.6,112.4,109.1,110.6,108.2"/>
<path class="st0" d="M134.2,108.5c-1.3-0.5-2.4-1.5-3-2.7c-0.6-1.4-0.7-2.9-0.3-4.3v-0.2h7.5v0.2c-0.1,0.4-0.1,0.9,0,1.3
	c0.1,0.4,0.4,0.7,0.7,0.9c0.5,0.3,1.1,0.4,1.6,0.3c0.7,0,1.4-0.1,2-0.5c0.5-0.3,0.8-0.7,0.8-1.3l0.1-0.2c0.1-0.3,0-0.7-0.1-1
	c-0.3-0.3-0.6-0.6-1-0.7c-0.7-0.3-1.4-0.6-2.2-0.8c-0.1-0.1-0.2-0.1-0.3-0.1h-0.2c-0.3-0.1-0.7-0.2-1-0.2c-1.4-0.3-2.8-0.9-4-1.6
	c-0.8-0.5-1.4-1.3-1.8-2.2c-0.3-1-0.3-2.1,0-3.1l0.1-0.3c0.3-1.3,0.9-2.5,1.8-3.5c1-1.1,2.3-1.9,3.7-2.4c1.8-0.6,3.7-0.9,5.6-0.8
	c3.4,0,5.7,0.7,7.1,2.1s1.9,3.3,1.4,5.8v0.2h-7.2v-0.2c0.2-0.6,0-1.3-0.3-1.8c-0.5-0.5-1.2-0.7-1.9-0.7c-0.6,0-1.2,0.1-1.8,0.4
	c-0.4,0.2-0.7,0.7-0.8,1.1l-0.1,0.2c-0.1,0.2-0.1,0.4,0,0.7c0.1,0.2,0.2,0.4,0.4,0.5c0.3,0.2,0.6,0.3,0.9,0.4
	c0.2,0.1,0.4,0.1,0.5,0.2c0.2,0,0.4,0.1,0.6,0.2c2,0.3,3.9,0.9,5.7,1.8c1.1,0.5,1.9,1.4,2.4,2.5c0.3,1.1,0.4,2.3,0.1,3.4v0.3
	c-0.3,1.4-1,2.7-2,3.7c-1.1,1.1-2.4,1.9-3.9,2.4c-1.8,0.6-3.7,0.8-5.7,0.8C138,109.5,136.1,109.2,134.2,108.5"/>
</svg>
