<svg xmlns="http://www.w3.org/2000/svg" width="710.084" height="72.309" viewBox="0 0 710.084 72.309"><g transform="translate(-13 -55.75)"><path d="M27.4,57.9H52.7l10,31.7L64,95.7l1.7-7.4L72,57.9H93.5L79.1,125.5H53.8L43.7,93.8l-1.3-6-1.6,7.3-6.3,30.4H13Z" fill="#fd0"/><path d="M103.6,57.9h52L152,74.6H123.4l-2,9.5h25.8L144,98.5H118.4l-2.2,10.2h29.3L142,125.5H89.2Z" fill="#fd0"/><path d="M159.3,57.9H182l-1.5,42.4-.7,7.6h.2l2.7-7.6,15.7-42.4h24.7l-2.5,42.5-.5,7.5h.1l2.6-7.6L239,57.9h23.1l-29.6,67.6H203.9L206,84.4l.4-6.5h-.2L204,84.4l-15.1,41.1H160.1Z" fill="#fd0"/><path d="M263.6,124.4c-4.2-1.8-7.2-4.5-8.8-8s-1.9-7.7-.8-12.6v-.5h22.1l-.1.5a8.514,8.514,0,0,0,0,3.9,3.955,3.955,0,0,0,2.2,2.7,9.116,9.116,0,0,0,4.7,1,10.943,10.943,0,0,0,5.9-1.4,5.56,5.56,0,0,0,2.5-3.7l.3-.5a4.659,4.659,0,0,0-.3-3,7.488,7.488,0,0,0-2.8-2.1,52.84,52.84,0,0,0-6.4-2.3,2,2,0,0,0-.8-.3c-.2,0-.4-.1-.7-.1-1-.3-1.9-.5-2.8-.7-5.2-1.3-9.2-2.9-11.8-4.8-2.7-1.9-4.4-4-5.1-6.4-.8-2.4-.7-5.5,0-9.1l.2-.8a21.835,21.835,0,0,1,5.2-10.4,26.707,26.707,0,0,1,10.9-7,46.762,46.762,0,0,1,16.4-2.5c9.9,0,16.9,2.1,20.9,6.2,4.1,4.1,5.4,9.8,4.1,16.9l-.1.5H297.4l.1-.5q.6-3.45-.9-5.4c-1-1.3-2.8-1.9-5.5-1.9a10.147,10.147,0,0,0-5.3,1.2,4.853,4.853,0,0,0-2.3,3.3l-.2.7a3.929,3.929,0,0,0,.1,1.9,3.338,3.338,0,0,0,1.2,1.5,8.961,8.961,0,0,0,2.6,1.3,7.494,7.494,0,0,0,1.6.5,18.029,18.029,0,0,1,1.9.5c7.2,1.5,12.6,3.3,16.3,5.4,3.6,2.2,6,4.6,7,7.3s1.1,6.1.2,10.1l-.1.9a23.183,23.183,0,0,1-5.9,11,27.618,27.618,0,0,1-11.5,7,51.461,51.461,0,0,1-16.6,2.4q-10.05.15-16.5-2.7" fill="#fd0"/><path d="M372,89.2l-.1.6a30.625,30.625,0,0,1-5.6,12.9l-.1.1a52.93,52.93,0,0,1-3.4-5.5,8.084,8.084,0,0,1-1.1-2q-.45-.9-1.2-2.1c-.2-.6-.4-1-.5-1.4a65.546,65.546,0,0,0,10.1-4.2,29.736,29.736,0,0,0,8.6-7,20.62,20.62,0,0,0,4-8.6,11.407,11.407,0,0,0-.6-7.8c-1.1-2.3-3.3-4.2-6.5-5.6s-7.7-2.1-13.2-2.1a39.2,39.2,0,0,0-14,2.2,24.161,24.161,0,0,0-9.3,6,19.037,19.037,0,0,0-4.4,9l-.4,1.3a13.274,13.274,0,0,0,.2,5.2,47.478,47.478,0,0,0,2.5,7.1,30.989,30.989,0,0,0-10.4,6.4,25.451,25.451,0,0,0-7.9,13.5l-.2,1.3c-.8,3.8-.6,7,.9,9.8q2.1,4.2,7.8,6.6c3.8,1.6,8.7,2.4,14.9,2.4a55.647,55.647,0,0,0,20.7-3.8,20.514,20.514,0,0,0,4.8,2.2,34.131,34.131,0,0,0,10.5,1.5l6.6.1,3-14.2H385a23.748,23.748,0,0,1-6.1-.7l.3-.3a45.14,45.14,0,0,0,9.7-17.6c.5-1.9.9-3.3,1.2-4.4l.2-.7ZM354.1,75l.2-1a4.775,4.775,0,0,1,1.9-3,5.837,5.837,0,0,1,3.5-1.1,3.5,3.5,0,0,1,3,1.1,4.1,4.1,0,0,1,.5,3,8.343,8.343,0,0,1-1.4,3,9.937,9.937,0,0,1-2.8,2.5,23.715,23.715,0,0,1-3.9,1.9,14.932,14.932,0,0,1-.9-3.1A7.434,7.434,0,0,1,354.1,75Zm-12.6,36.1a4.576,4.576,0,0,1-2.4-2.1,5.606,5.606,0,0,1-.3-3.2l.1-1a8.22,8.22,0,0,1,1.6-3.4,12.522,12.522,0,0,1,2.3-2.3c1.3,2.3,2.4,4.1,3.2,5.4a15.074,15.074,0,0,1,1.2,2c.3.6.8,1.3,1.3,2.1.7,1,1.3,2,2,2.9a35.732,35.732,0,0,1-4.7.4A13.18,13.18,0,0,1,341.5,111.1Z" fill="none" stroke="#fff" stroke-miterlimit="10" stroke-width="1.5"/><path d="M404.6,57.9h33.3a38,38,0,0,1,12.9,2,15.1,15.1,0,0,1,7.9,5.8c1.7,2.5,2.1,5.7,1.3,9.5l-.2.9a17.08,17.08,0,0,1-4.7,8.8A19.785,19.785,0,0,1,445,89.5l-.1.3c4.6.8,7.9,2.5,9.9,5.3,2,2.7,2.5,6.2,1.7,10.4l-.2,1a22.138,22.138,0,0,1-5.1,10.9,22.655,22.655,0,0,1-10.1,6.3,50.216,50.216,0,0,1-14.9,2H390.3Zm26.3,50.7a5.632,5.632,0,0,0,2.6-4l.2-.9c.4-2.2.1-3.8-.9-4.7s-2.9-1.3-5.6-1.3h-8.5l-2.5,12.2h8.9a10.612,10.612,0,0,0,5.8-1.3m4.6-25.3a5.545,5.545,0,0,0,2.5-3.7V79a5.377,5.377,0,0,0,0-3.1,2.778,2.778,0,0,0-1.8-1.7,9.176,9.176,0,0,0-3.6-.5h-8.8l-2.3,10.9h8.6a11.285,11.285,0,0,0,5.4-1.3" fill="#fd0"/><path d="M473.8,57.9h23.3l-10.8,50.6h25.5l-3.7,17H459.4Z" fill="#fd0"/><path d="M527.3,123.5a19.215,19.215,0,0,1-9.7-10.9c-1.8-4.9-1.9-10.9-.4-18l1.3-6a51.26,51.26,0,0,1,7.7-18,31.732,31.732,0,0,1,13.1-10.7A44.884,44.884,0,0,1,558,56.3c7.4,0,13.4,1.3,18,3.8a19.639,19.639,0,0,1,9.4,11.2c1.6,4.9,1.6,10.9,0,17.9l-1.1,5.3q-2.4,11.1-7.5,18.3a32.055,32.055,0,0,1-12.9,10.8c-5.2,2.4-11.5,3.5-18.9,3.5q-10.65.15-17.7-3.6m25.9-15.7a10.45,10.45,0,0,0,4.1-4,26.858,26.858,0,0,0,3-7.7l1.8-8.1a20.489,20.489,0,0,0,.5-7.9A6.051,6.051,0,0,0,560,76a10.114,10.114,0,0,0-5.3-1.3,11.892,11.892,0,0,0-5.6,1.2,10.4,10.4,0,0,0-3.9,3.9,22.469,22.469,0,0,0-2.6,7.5l-2,9a18.512,18.512,0,0,0-.4,7.6,6.517,6.517,0,0,0,2.7,4.1,9,9,0,0,0,4.8,1.2,15.9,15.9,0,0,0,5.5-1.4" fill="#fd0"/><path d="M598.5,123.6a17.788,17.788,0,0,1-9-10.9c-1.5-4.9-1.6-11,0-18.2l1.3-5.8a49.323,49.323,0,0,1,7.8-18.1,32.3,32.3,0,0,1,13.3-10.7,45.21,45.21,0,0,1,18.7-3.6q10.2,0,16.8,3.3a18.691,18.691,0,0,1,9.2,9.2c1.8,4,2.1,8.7,1.1,14.1l-.1.7H634.4l.5-1.9a11.135,11.135,0,0,0-.4-4.2,4.38,4.38,0,0,0-2.4-2.6,11.285,11.285,0,0,0-4.9-.9,10.792,10.792,0,0,0-5.4,1.3,12.773,12.773,0,0,0-4.3,4.1,20.076,20.076,0,0,0-2.8,7.4l-2.1,9.8c-.8,3.4-1,6.1-.5,8.2a6.451,6.451,0,0,0,2.8,4.4,9.7,9.7,0,0,0,5.3,1.3,12.085,12.085,0,0,0,4.8-.9,8,8,0,0,0,3.6-2.6,14.122,14.122,0,0,0,2.2-4l.1-.4H620.5l3-13.6h33.1l-.8,3.5c-1.8,8.1-4.4,14.7-7.8,19.7a31.281,31.281,0,0,1-12.9,11.1q-7.8,3.6-18.9,3.6c-7.4.3-13.2-.9-17.7-3.3" fill="#fd0"/><path d="M667.6,124.4c-4.2-1.8-7.2-4.5-8.8-8s-1.9-7.7-.8-12.6v-.5h22.1l-.1.5a8.514,8.514,0,0,0,0,3.9,3.955,3.955,0,0,0,2.2,2.7,9.116,9.116,0,0,0,4.7,1,10.943,10.943,0,0,0,5.9-1.4,5.56,5.56,0,0,0,2.5-3.7l.3-.5a4.659,4.659,0,0,0-.3-3,7.488,7.488,0,0,0-2.8-2.1,52.838,52.838,0,0,0-6.4-2.3,2,2,0,0,0-.8-.3c-.2,0-.4-.1-.7-.1-1-.3-1.9-.5-2.8-.7-5.2-1.3-9.2-2.9-11.8-4.8-2.7-1.9-4.4-4-5.1-6.4-.8-2.4-.7-5.5,0-9.1l.2-.8a21.835,21.835,0,0,1,5.2-10.4,26.707,26.707,0,0,1,10.9-7,46.762,46.762,0,0,1,16.4-2.5c9.9,0,16.9,2.1,20.9,6.2,4.1,4.1,5.4,9.8,4.1,16.9l-.1.5H701.4l.1-.5q.6-3.45-.9-5.4c-1-1.3-2.8-1.9-5.5-1.9a10.147,10.147,0,0,0-5.3,1.2,4.853,4.853,0,0,0-2.3,3.3l-.2.7a3.93,3.93,0,0,0,.1,1.9,3.338,3.338,0,0,0,1.2,1.5,8.96,8.96,0,0,0,2.6,1.3,7.494,7.494,0,0,0,1.6.5,18.034,18.034,0,0,1,1.9.5c7.2,1.5,12.6,3.3,16.3,5.4,3.6,2.2,6,4.6,7,7.3s1.1,6.1.2,10.1l-.1.9a23.183,23.183,0,0,1-5.9,11,27.618,27.618,0,0,1-11.5,7,51.461,51.461,0,0,1-16.6,2.4q-10.05.15-16.5-2.7" fill="#fd0"/></g></svg>