<svg xmlns="http://www.w3.org/2000/svg" width="396" height="124" viewBox="0 0 396 124"><g transform="translate(-1781 177)"><rect width="396" height="124" transform="translate(1781 -177)" fill="#fff" opacity="0"/><g transform="translate(1788.99 -172.975)"><path d="M19,59.67l.73-3.49C22.44,43.7,29.88,37.72,42.31,37.72s18.36,6.5,15.55,18.83l-.63,3c-2.86,12.7-9.93,18.73-22.41,18.73C22.86,78.28,16.1,72.25,19,59.67Zm24.6.78,1-4.74c1.35-5.82-.73-7.54-4.27-7.54s-5.77,1.67-7,7.13l-1.14,5.25c-1.25,5.57,1.09,7.28,4.06,7.28,3.56,0,6.01-1.77,7.31-7.38Z" fill="none" stroke="#fd0" stroke-miterlimit="10" stroke-width="1"/><path d="M60.66,61.38l4.89-22.77H78.92l-5,23.66c-.83,3.9.52,5.61,3.75,5.61s5.14-1.71,6-5.61l5-23.66H102L97.17,61.38c-2.39,11.34-8.27,16.9-21.79,16.9S58.22,72.88,60.66,61.38Z" fill="none" stroke="#fd0" stroke-miterlimit="10" stroke-width="1"/><path d="M99,77.3l8.21-38.69h19.14c11.13,0,15.39,4.57,13.83,12l-.15.72a11.89,11.89,0,0,1-9,9.26v.16c3.74,1,4.68,3.85,4.16,8.73l-.31,2.86a15.68,15.68,0,0,0,.1,5H121.71a28.69,28.69,0,0,1,.26-5.88l.21-2.39c.26-2.45-.78-3.69-4-3.69H114.9l-2.55,12Zm17.73-20.55h4.52c2.6,0,4.58-1,5.26-4.26l.15-.73c.52-2.6-.67-3.69-3.38-3.69h-4.73Z" fill="none" stroke="#fd0" stroke-miterlimit="10" stroke-width="1"/><path d="M143.19,38.61h13.62L157.43,66l-.05,1.46h.16l.57-1.46,12.38-27.35h14.25l-20,38.69h-18.1Z" fill="#fff"/><path d="M200.54,77.3l-.2-6.4H189.57l-2.91,6.4H172.51l19.92-38.69h18.46l3.59,38.69Zm-7-15h6.5l-.26-8.79.1-5.67h-.16l-2.18,5.67Z" fill="#fff"/><path d="M217.65,77.3l8.22-38.69h13.36l-6.14,28.91H247.6l-2,9.78Z" fill="#fff"/><path d="M250.83,61.38l4.88-22.77h13.37L264,62.27c-.83,3.9.52,5.61,3.75,5.61s5.15-1.71,6-5.61l5-23.66h13.37l-4.84,22.77c-2.39,11.34-8.27,16.9-21.79,16.9S248.38,72.88,250.83,61.38Z" fill="#fff"/><path d="M289.15,77.3l8.21-38.69h29.8l-2,9.56H308.7l-1.14,5.41h14.71l-1.76,8.22H305.84l-1.3,5.82h16.85l-2,9.68Z" fill="#fff"/><path d="M324.56,64.87l.05-.31H337.2l-.05.31c-.47,2.39.2,4.37,4,4.37,3,0,4.42-1.2,4.78-2.92L346,66c.41-2.13-.78-2.81-6.29-4.52-10.41-2.29-12.59-5.78-11.29-12l.11-.47c1.4-6.5,7.33-11.34,18.66-11.34,11.6,0,15.71,5.31,14.2,13.21l-.05.26H349.31l.06-.26c.36-2.39-.32-4.16-3.64-4.16-2.81,0-4.06,1.09-4.37,2.55l-.05.36c-.32,1.56.67,2.5,4.21,3.33,12.69,2.7,14.77,6.76,13.47,13.11l-.11.52c-1.61,7.33-8.47,11.64-19.34,11.64C327.78,78.28,322.79,73.14,324.56,64.87Z" fill="#fff"/></g></g></svg>