<svg xmlns="http://www.w3.org/2000/svg" width="396" height="124" viewBox="0 0 396 124"><g transform="translate(-1319 177)"><rect width="396" height="124" transform="translate(1319 -177)" fill="#fff" opacity="0"/><g transform="translate(1385.649 -172.72)"><path d="M10,59.67l.72-3.49c2.76-12.48,10.2-18.46,22.63-18.46s18.35,6.5,15.54,18.83l-.62,3c-2.86,12.69-9.93,18.72-22.41,18.72C13.91,78.28,7.15,72.25,10,59.67Zm24.59.78,1-4.74c1.36-5.82-.72-7.54-4.26-7.54s-5.77,1.67-7,7.13l-1.14,5.25c-1.25,5.57,1.09,7.28,4.05,7.28,3.62,0,6.06-1.77,7.36-7.38Z" fill="none" stroke="#fd0" stroke-miterlimit="10" stroke-width="1"/><path d="M51.71,61.38,56.6,38.61H70L65,62.27c-.83,3.9.52,5.61,3.74,5.61s5.15-1.71,6-5.61l5-23.66H93.05L88.22,61.38c-2.4,11.34-8.27,16.9-21.79,16.9S49.27,72.88,51.71,61.38Z" fill="none" stroke="#fd0" stroke-miterlimit="10" stroke-width="1"/><path d="M90,77.3l8.22-38.69h19.14c11.12,0,15.39,4.57,13.83,12l-.16.72a11.87,11.87,0,0,1-8.94,9.26l-.05.16c3.74,1,4.68,3.85,4.16,8.73l-.31,2.86a15.68,15.68,0,0,0,.1,5H112.76a28,28,0,0,1,.26-5.88l.21-2.39c.26-2.45-.78-3.69-4-3.69H106l-2.55,12Zm17.74-20.55h4.52c2.6,0,4.58-1,5.25-4.26l.16-.73c.52-2.6-.68-3.69-3.38-3.69h-4.73Z" fill="none" stroke="#fd0" stroke-miterlimit="10" stroke-width="1"/><path d="M129.66,77.3l8.21-38.69h18.41c12.69,0,17.16,6.81,14.82,17.94l-.67,3.12c-2.34,11.07-8,17.63-21.58,17.63Zm15.39-9.62h3.8c4.1,0,6.76-1.67,7.9-7.18l1.14-5.25c1.1-5.36-.78-7-4.94-7h-3.74Z" fill="#fff"/><path d="M171.15,77.3l8.22-38.69h14.46l5.66,18.14.78,3.44.89-4.16,3.74-17.42h12.27L209,77.3H194.45l-5.62-18.15L188,55.71l-.88,4.17-3.7,17.42Z" fill="#fff"/><path d="M240.16,77.3,240,70.9H229.18l-2.91,6.4H212.13L232,38.61h18.5l3.59,38.69Zm-7-15h6.5l-.26-8.79.1-5.67h-.15l-2.19,5.67Z" fill="#fff"/></g></g></svg>