<svg xmlns="http://www.w3.org/2000/svg" width="396" height="124" viewBox="0 0 396 124"><g transform="translate(-1781 348)"><g transform="translate(1795.525 -344.67)"><path d="M12.13,60.66l.73-3.49c2.76-12.48,10.19-18.46,22.62-18.46S53.84,45.21,51,57.54l-.62,3C47.55,73.24,40.47,79.27,28,79.27,16,79.27,9.27,73.24,12.13,60.66Zm24.6.78,1-4.74c1.35-5.82-.73-7.54-4.26-7.54s-5.78,1.67-7,7.13l-1.15,5.25c-1.24,5.56,1.1,7.28,4.06,7.28C33,68.82,35.43,67.05,36.73,61.44Z" fill="none" stroke="#231f20" stroke-miterlimit="10" stroke-width="1"/><path d="M53.84,62.37,58.72,39.6H72.09L67,63.26c-.83,3.9.53,5.61,3.75,5.61s5.15-1.71,6-5.61l5-23.66H95.18L90.34,62.37C88,73.71,82.07,79.27,68.55,79.27S51.39,73.86,53.84,62.37Z" fill="none" stroke="#231f20" stroke-miterlimit="10" stroke-width="1"/><path d="M92.16,78.28l8.22-38.68h19.13c11.13,0,15.4,4.57,13.84,12l-.16.72a11.9,11.9,0,0,1-8.94,9.26l-.06.16c3.75,1,4.68,3.84,4.16,8.73L128,73.29a15.29,15.29,0,0,0,.11,5H114.88a28.61,28.61,0,0,1,.26-5.87l.21-2.39c.26-2.45-.78-3.7-3.95-3.7h-3.33l-2.55,12Zm17.73-20.54h4.53c2.6,0,4.57-1,5.25-4.26l.16-.73c.52-2.6-.68-3.69-3.39-3.69h-4.73Z" fill="none" stroke="#231f20" stroke-miterlimit="10" stroke-width="1"/><path d="M136.36,39.6H150l.61,27.4-.05,1.45h.15l.57-1.45,12.38-27.4h14.25l-20,38.68h-18.1Z" fill="#fff"/><path d="M193.72,78.28l-.21-6.39H182.74l-2.91,6.39H165.69L185.6,39.6h18.46l3.59,38.68Zm-7-15h6.5L193,54.47l.1-5.67h-.15l-2.19,5.67Z" fill="#fff"/><path d="M210.82,78.28,219,39.6h13.4l-6.13,28.91h14.5l-2,9.77Z" fill="#fff"/><path d="M244,62.37l4.89-22.77h13.36l-5,23.66c-.83,3.9.52,5.61,3.74,5.61s5.15-1.71,6-5.61L272,39.6h13.36l-4.83,22.77c-2.4,11.34-8.27,16.9-21.79,16.9S241.55,73.86,244,62.37Z" fill="#fff"/><path d="M282.32,78.28l8.22-38.68h29.8l-2,9.56H301.87l-1.14,5.41h14.72l-1.77,8.22H299l-1.3,5.82h16.85l-2,9.67Z" fill="#fff"/><path d="M317.73,65.86l.06-.32h12.58l-.05.32c-.47,2.39.21,4.36,4,4.36,3,0,4.42-1.19,4.79-2.91l.1-.31c.42-2.13-.78-2.81-6.29-4.52-10.4-2.29-12.59-5.78-11.29-12l.11-.47c1.4-6.5,7.33-11.34,18.67-11.34,11.59,0,15.7,5.31,14.19,13.21l-.05.26H342.49l.05-.26c.36-2.39-.31-4.16-3.64-4.16-2.81,0-4.06,1.09-4.37,2.55v.36c-.31,1.56.67,2.5,4.21,3.33,12.69,2.7,14.77,6.76,13.47,13.1l-.1.52c-1.62,7.34-8.48,11.65-19.35,11.65C321,79.27,316,74.12,317.73,65.86Z" fill="#fff"/></g><rect width="396" height="124" transform="translate(1781 -348)" fill="#fff" opacity="0"/></g></svg>