<?xml version="1.0" encoding="utf-8"?>
<!-- Generator: Adobe Illustrator 23.1.0, SVG Export Plug-In . SVG Version: 6.00 Build 0)  -->
<svg version="1.1" id="Layer_1" xmlns="http://www.w3.org/2000/svg" xmlns:xlink="http://www.w3.org/1999/xlink" x="0px" y="0px"
	 viewBox="0 0 375 203" style="enable-background:new 0 0 375 203;" xml:space="preserve">
<style type="text/css">
	.st0{fill:#FFDD00;}
	.st1{fill:none;stroke:#FFFFFF;stroke-miterlimit:10;}
</style>
<rect width="375" height="203"/>
<g>
	<g>
		<path class="st0" d="M45.4,99.4c-2.5-1.3-4.3-3.3-5.2-5.9c-0.9-2.6-1-5.8-0.2-9.7l0.7-3.2c0.9-3.9,2.3-7.1,4.1-9.7s4.2-4.5,7-5.8
			c2.8-1.3,6.2-1.9,10.1-1.9c4,0,7.2,0.7,9.7,2.1s4.2,3.4,5,6c0.9,2.6,0.9,5.9,0,9.6L76,83.8c-0.9,4-2.2,7.3-4,9.9
			c-1.8,2.6-4.1,4.5-6.9,5.8c-2.8,1.3-6.2,1.9-10.2,1.9C51.1,101.4,47.9,100.7,45.4,99.4 M59.3,90.9c0.8-0.4,1.6-1.2,2.2-2.2
			c0.6-1,1.2-2.4,1.6-4.2l1-4.4c0.4-1.8,0.5-3.2,0.2-4.2c-0.2-1-0.7-1.8-1.4-2.2c-0.7-0.5-1.7-0.7-2.8-0.7c-1.2,0-2.2,0.2-3,0.6
			s-1.5,1.1-2.1,2.1c-0.6,1-1.1,2.3-1.4,4l-1.1,4.8c-0.4,1.7-0.5,3-0.2,4.1c0.3,1,0.7,1.8,1.4,2.2c0.7,0.4,1.6,0.6,2.6,0.6
			C57.5,91.6,58.5,91.4,59.3,90.9"/>
		<path class="st0" d="M83.3,99.7c-2.3-1.1-3.7-2.9-4.4-5.2c-0.6-2.3-0.6-5.3,0.2-9l4.6-21.4h12.5l-4.7,22.2c-0.4,1.8-0.3,3.2,0.3,4
			c0.6,0.9,1.7,1.3,3.2,1.3s2.8-0.4,3.7-1.3c0.9-0.8,1.6-2.2,2-4.1l4.7-22.2H118l-4.6,21.4c-0.8,3.7-1.9,6.6-3.5,8.9
			c-1.6,2.3-3.8,4-6.6,5.2c-2.8,1.2-6.2,1.7-10.5,1.7C88.8,101.4,85.6,100.8,83.3,99.7"/>
		<path class="st0" d="M123,64.1h18c3.5,0,6.2,0.4,8.3,1.3c2.1,0.9,3.5,2.2,4.3,3.9c0.8,1.7,0.9,3.7,0.5,6l-0.1,0.6
			c-0.5,2.2-1.4,4-2.9,5.6c-1.5,1.5-3.3,2.6-5.6,3.1v0.2c1.1,0.3,2,0.8,2.6,1.5c0.7,0.7,1.1,1.6,1.2,2.7c0.2,1.1,0.2,2.5,0,4.1
			l-0.3,2.7c-0.1,1-0.1,2-0.1,2.7c0,0.8,0.1,1.4,0.2,2h-12.5c-0.1-0.5-0.1-1.2,0-2.1c0-0.9,0.2-2,0.3-3.4l0.1-2.3
			c0.1-0.8,0.1-1.4-0.1-1.9s-0.6-0.9-1.2-1.1c-0.6-0.3-1.4-0.4-2.4-0.4h-3.1l-2.3,11.2h-12.6L123,64.1z M139.4,80.2
			c0.8-0.6,1.4-1.7,1.7-3.1l0.1-0.7c0.3-1.2,0.2-2.1-0.4-2.7c-0.6-0.6-1.5-0.9-2.7-0.9h-4.5l-1.7,8.2h4.3
			C137.5,81.2,138.6,80.9,139.4,80.2"/>
	</g>
	<g>
		<path class="st1" d="M45.4,137.7c-2.5-1.3-4.3-3.3-5.2-5.9s-1-5.8-0.2-9.7l0.7-3.2c0.9-3.9,2.3-7.1,4.1-9.7c1.8-2.6,4.2-4.5,7-5.8
			c2.8-1.3,6.2-1.9,10.1-1.9c4,0,7.2,0.7,9.7,2.1s4.2,3.4,5,6c0.9,2.6,0.9,5.9,0,9.6L76,122c-0.9,4-2.2,7.3-4,9.9
			c-1.8,2.6-4.1,4.5-6.9,5.8c-2.8,1.3-6.2,1.9-10.2,1.9C51.1,139.7,47.9,139,45.4,137.7z M59.3,129.2c0.8-0.4,1.6-1.2,2.2-2.2
			c0.6-1,1.2-2.4,1.6-4.2l1-4.4c0.4-1.8,0.5-3.2,0.2-4.2c-0.2-1-0.7-1.8-1.4-2.2c-0.7-0.5-1.7-0.7-2.8-0.7c-1.2,0-2.2,0.2-3,0.6
			c-0.8,0.4-1.5,1.1-2.1,2.1s-1.1,2.3-1.4,4l-1.1,4.8c-0.4,1.7-0.5,3-0.2,4.1c0.3,1,0.7,1.8,1.4,2.2s1.6,0.6,2.6,0.6
			C57.4,129.9,58.5,129.7,59.3,129.2z"/>
		<polygon class="st1" points="83.3,102.4 110.9,102.4 109,111.5 94,111.5 92.7,117.2 106.1,117.2 104.2,126 90.9,126 88.2,138.8 
			75.6,138.8 		"/>
		<polygon class="st1" points="114.4,102.4 142,102.4 140.1,111.5 125,111.5 123.8,117.2 137.2,117.2 135.3,126 122,126 
			119.3,138.8 106.7,138.8 		"/>
		<polygon class="st1" points="144.5,102.4 172.5,102.4 170.6,111.4 155.1,111.4 154.1,116.5 168,116.5 166.2,124.2 152.5,124.2 
			151.3,129.7 167.1,129.7 165.2,138.8 136.8,138.8 		"/>
		<path class="st1" d="M175.9,102.4h18c3.5,0,6.2,0.4,8.3,1.3c2.1,0.9,3.5,2.2,4.3,3.9c0.8,1.7,0.9,3.7,0.5,6l-0.1,0.6
			c-0.5,2.2-1.4,4-2.9,5.6c-1.5,1.5-3.3,2.6-5.6,3.1v0.2c1.1,0.3,2,0.8,2.6,1.5c0.7,0.7,1.1,1.6,1.2,2.7c0.2,1.1,0.2,2.5,0,4.1
			l-0.3,2.7c-0.1,1-0.1,2-0.1,2.7c0,0.8,0.1,1.4,0.2,2h-12.5c-0.1-0.5-0.1-1.2,0-2.1c0-0.9,0.2-2,0.3-3.4l0.1-2.3
			c0.1-0.8,0.1-1.4-0.1-1.9s-0.6-0.9-1.2-1.1c-0.6-0.3-1.4-0.4-2.4-0.4h-3.1l-2.3,11.3h-12.6L175.9,102.4z M192.4,118.5
			c0.8-0.6,1.4-1.7,1.7-3.1l0.1-0.7c0.3-1.2,0.2-2.1-0.4-2.7c-0.6-0.6-1.5-0.9-2.7-0.9h-4.5l-1.7,8.2h4.3
			C190.4,119.5,191.5,119.2,192.4,118.5z"/>
		<polygon class="st1" points="213.2,102.4 225.7,102.4 218,138.8 205.4,138.8 		"/>
		<polygon class="st1" points="230.2,102.4 243.8,102.4 249.2,119.4 249.9,122.7 250.8,118.8 254.2,102.4 265.8,102.4 258.1,138.8 
			244.4,138.8 239,121.7 238.3,118.5 237.5,122.4 234,138.8 222.5,138.8 		"/>
		<path class="st1" d="M269.6,137.8c-2.4-1.3-4-3.2-4.9-5.8c-0.8-2.6-0.8-5.9,0-9.8l0.7-3.1c0.9-3.9,2.3-7.2,4.2-9.7
			c1.9-2.6,4.3-4.5,7.1-5.8c2.9-1.3,6.2-1.9,10.1-1.9c3.7,0,6.7,0.6,9,1.8c2.4,1.2,4,2.8,5,5c0.9,2.1,1.1,4.7,0.6,7.6v0.4h-12.5
			l0.2-1c0.1-0.9,0-1.6-0.2-2.3c-0.2-0.6-0.6-1.1-1.3-1.4c-0.7-0.3-1.5-0.5-2.6-0.5s-2,0.2-2.9,0.7s-1.6,1.2-2.3,2.2
			c-0.7,1-1.2,2.4-1.5,4l-1.1,5.3c-0.4,1.8-0.5,3.3-0.3,4.4c0.2,1.1,0.7,1.9,1.5,2.4s1.7,0.7,2.8,0.7c0.9,0,1.8-0.2,2.6-0.5
			c0.8-0.3,1.4-0.8,1.9-1.4s0.9-1.3,1.2-2.2v-0.2h-5.6l1.6-7.3h17.8l-0.4,1.9c-1,4.4-2.4,7.9-4.2,10.6c-1.8,2.7-4.1,4.7-6.9,6
			c-2.8,1.3-6.2,1.9-10.2,1.9C275.2,139.7,272,139,269.6,137.8z"/>
		<path class="st1" d="M305.8,138.2c-2.3-1-3.9-2.4-4.7-4.3c-0.9-1.9-1-4.1-0.4-6.8v-0.3h11.9v0.3c-0.2,0.8-0.2,1.5,0,2.1
			c0.2,0.6,0.6,1.1,1.2,1.5c0.6,0.4,1.5,0.5,2.5,0.5c1.4,0,2.4-0.2,3.2-0.7c0.8-0.5,1.2-1.2,1.3-2l0.1-0.3c0.1-0.7,0.1-1.2-0.2-1.6
			c-0.2-0.4-0.8-0.8-1.5-1.1c-0.8-0.4-1.9-0.8-3.5-1.2c-0.2-0.1-0.3-0.2-0.4-0.2s-0.2,0-0.4-0.1c-0.5-0.2-1-0.3-1.5-0.4
			c-2.8-0.7-4.9-1.6-6.4-2.6c-1.4-1-2.4-2.1-2.8-3.5c-0.4-1.3-0.4-2.9,0-4.9l0.1-0.4c0.4-2.1,1.4-4,2.8-5.6c1.5-1.6,3.4-2.8,5.8-3.7
			s5.4-1.3,8.8-1.3c5.3,0,9.1,1.1,11.3,3.3c2.2,2.2,2.9,5.3,2.2,9.1v0.2h-11.4V114c0.2-1.2,0-2.2-0.5-2.9c-0.5-0.7-1.5-1-3-1
			c-1.2,0-2.2,0.2-2.8,0.6c-0.7,0.4-1.1,1-1.2,1.8l-0.1,0.4c-0.1,0.4,0,0.7,0.1,1s0.3,0.6,0.7,0.8c0.3,0.3,0.8,0.5,1.4,0.7
			c0.3,0.1,0.5,0.2,0.9,0.3c0.3,0.1,0.6,0.2,1,0.3c3.9,0.8,6.8,1.8,8.8,2.9c2,1.2,3.2,2.5,3.7,3.9c0.5,1.5,0.6,3.3,0.1,5.4v0.5
			c-0.5,2.3-1.6,4.3-3.2,5.9c-1.6,1.6-3.6,2.9-6.2,3.7c-2.5,0.8-5.5,1.3-8.9,1.3C311.1,139.7,308.1,139.2,305.8,138.2z"/>
	</g>
</g>
</svg>
