<svg xmlns="http://www.w3.org/2000/svg" width="159.054" height="73.7" viewBox="0 0 159.054 73.7"><g transform="translate(-39.394 -17.3)"><path d="M56.3,18.2H73.2a17.592,17.592,0,0,1,7.3,1.4,7.849,7.849,0,0,1,4.2,4.2,10.973,10.973,0,0,1,.4,6.8l-.1.8a19.684,19.684,0,0,1-2.9,6.9,13.132,13.132,0,0,1-5.3,4.3A18.715,18.715,0,0,1,69,44.1H62.6l-1.7,8.3H49ZM71.5,34.6a6.078,6.078,0,0,0,1.7-3.2l.1-.7a5.1,5.1,0,0,0,.1-2.1,2.209,2.209,0,0,0-1-1.3,4.136,4.136,0,0,0-2.1-.4h-4l-1.8,8.7h4A5.646,5.646,0,0,0,71.5,34.6Z" fill="#fff"/><path d="M96.3,18.2h16.2l3.2,34.2H103.4l-.7-21.1.1-5h-.1l-1.9,4.9L91.1,52.3H78.7ZM93,39.1h14l-.6,7.6H90.6Z" fill="#fff"/><path d="M123.4,51.8a8.906,8.906,0,0,1-4.5-4,9.737,9.737,0,0,1-.4-6.4v-.3h11.2v.3a3.4,3.4,0,0,0,0,2,2.491,2.491,0,0,0,1.1,1.4,5.356,5.356,0,0,0,2.4.5,5.129,5.129,0,0,0,3-.7,2.646,2.646,0,0,0,1.2-1.9l.1-.3a1.876,1.876,0,0,0-.2-1.5,3.388,3.388,0,0,0-1.4-1.1c-.7-.3-1.8-.7-3.2-1.2-.2-.1-.3-.1-.4-.2a.367.367,0,0,1-.3-.1,10.261,10.261,0,0,0-1.4-.4,21.848,21.848,0,0,1-6-2.4,6.528,6.528,0,0,1-2.6-3.2,8.885,8.885,0,0,1,0-4.6l.1-.4a11.146,11.146,0,0,1,2.6-5.2,13.37,13.37,0,0,1,5.5-3.5,25.365,25.365,0,0,1,8.3-1.3c5,0,8.5,1,10.6,3.1s2.7,4.9,2.1,8.6v.2H140.5V29a3.255,3.255,0,0,0-.5-2.7,3.477,3.477,0,0,0-2.8-1,5.4,5.4,0,0,0-2.7.6,2.454,2.454,0,0,0-1.1,1.7l-.1.4a1.645,1.645,0,0,0,.1,1,2.1,2.1,0,0,0,.6.8,2.618,2.618,0,0,0,1.3.6,6.889,6.889,0,0,0,.8.3l.9.3a26.032,26.032,0,0,1,8.2,2.7,7.661,7.661,0,0,1,3.5,3.7,9.618,9.618,0,0,1,.1,5.1V43a11.446,11.446,0,0,1-3,5.5A14.543,14.543,0,0,1,140,52a26.592,26.592,0,0,1-8.4,1.2A21.2,21.2,0,0,1,123.4,51.8Z" fill="#fff"/><path d="M162.1,26.8h-8.5l1.7-8.6h29l-1.8,8.6H174l-5.4,25.6H156.8Z" fill="#fff"/><path d="M39.9,55.2H51.4l-.8,21.5-.3,3.8h.1l1.3-3.8,8-21.5H72.2L71,76.7l-.2,3.8h0l1.3-3.8,8.2-21.5H92L77,89.4H62.4l1.1-20.8.2-3.3h-.1l-1.1,3.3L54.9,89.4H40.3Z" fill="none" stroke="#fd0" stroke-miterlimit="10" stroke-width="1"/><path d="M93.9,88.4A9.788,9.788,0,0,1,89,82.9a16.183,16.183,0,0,1-.2-9.1l.6-3a27.179,27.179,0,0,1,3.9-9.1,15.812,15.812,0,0,1,6.6-5.4,23.006,23.006,0,0,1,9.5-1.8,18.631,18.631,0,0,1,9.1,1.9,9.832,9.832,0,0,1,4.7,5.7,17.415,17.415,0,0,1,0,9.1l-.6,2.7a26.3,26.3,0,0,1-3.8,9.3,16.419,16.419,0,0,1-6.5,5.5,23.006,23.006,0,0,1-9.5,1.8A24.788,24.788,0,0,1,93.9,88.4Zm13.1-8a5.686,5.686,0,0,0,2.1-2,14.441,14.441,0,0,0,1.5-3.9l.9-4.1a9.408,9.408,0,0,0,.2-4,3.2,3.2,0,0,0-1.3-2.1,5.4,5.4,0,0,0-2.7-.6,6.527,6.527,0,0,0-2.9.6,5.464,5.464,0,0,0-2,2,10.514,10.514,0,0,0-1.3,3.8l-1,4.6a8.481,8.481,0,0,0-.2,3.8,2.965,2.965,0,0,0,1.4,2.1,4.751,4.751,0,0,0,2.4.6A10.071,10.071,0,0,0,107,80.4Z" fill="none" stroke="#fd0" stroke-miterlimit="10" stroke-width="1"/><path d="M130.5,55.2h16.9a18.916,18.916,0,0,1,7.8,1.3,7.175,7.175,0,0,1,4,3.6,8.914,8.914,0,0,1,.4,5.7l-.1.6a9.68,9.68,0,0,1-2.7,5.2,10.692,10.692,0,0,1-5.2,2.9v.2a6.055,6.055,0,0,1,2.5,1.4,4.891,4.891,0,0,1,1.2,2.5,11.993,11.993,0,0,1,0,3.8l-.3,2.5a24.4,24.4,0,0,0-.1,2.6,11.077,11.077,0,0,0,.2,1.9H143.3a6.555,6.555,0,0,1,0-2,22.287,22.287,0,0,1,.3-3.2l.1-2.2a3.526,3.526,0,0,0-.1-1.8,2.345,2.345,0,0,0-1.1-1.1,6.174,6.174,0,0,0-2.2-.4h-2.9l-2.2,10.6H123.4Zm15.4,15.2a4.827,4.827,0,0,0,1.6-2.9l.1-.6a2.324,2.324,0,0,0-.4-2.5,3.666,3.666,0,0,0-2.6-.8h-4.2l-1.6,7.7h4A4.771,4.771,0,0,0,145.9,70.4Z" fill="none" stroke="#fd0" stroke-miterlimit="10" stroke-width="1"/><path d="M165.5,55.2h11.8l-2.7,12.5h2.7l7.4-12.5h12.8L186.2,71.7V72l5.2,17.4H178.6l-2.9-13.2H173l-2.8,13.2H158.4Z" fill="none" stroke="#fd0" stroke-miterlimit="10" stroke-width="1"/></g></svg>