<svg xmlns="http://www.w3.org/2000/svg" width="204" height="73.7" viewBox="0 0 204 73.7"><g transform="translate(-127.5 -17.3)"><path d="M134.6,18.2h16.9a18.915,18.915,0,0,1,7.8,1.3,7.175,7.175,0,0,1,4,3.6,8.914,8.914,0,0,1,.4,5.7l-.1.6a9.68,9.68,0,0,1-2.7,5.2,10.692,10.692,0,0,1-5.2,2.9v.2a6.055,6.055,0,0,1,2.5,1.4,4.891,4.891,0,0,1,1.2,2.5,11.993,11.993,0,0,1,0,3.8l-.3,2.5a24.4,24.4,0,0,0-.1,2.6,11.077,11.077,0,0,0,.2,1.9H147.4a6.555,6.555,0,0,1,0-2,22.288,22.288,0,0,1,.3-3.2l.1-2.2a3.526,3.526,0,0,0-.1-1.8,2.345,2.345,0,0,0-1.1-1.1,6.174,6.174,0,0,0-2.2-.4h-2.9l-2.2,10.6H127.5Zm15.5,15.2a4.827,4.827,0,0,0,1.6-2.9l.1-.6a2.324,2.324,0,0,0-.4-2.5,3.666,3.666,0,0,0-2.6-.8h-4.2L143,34.3h4A4.964,4.964,0,0,0,150.1,33.4Z" fill="#fff"/><path d="M169.6,18.2h26.3l-1.8,8.5H179.6l-1,4.8h13L190,38.8H177.1L175.9,44h14.9L189,52.5H162.3Z" fill="#fff"/><path d="M199.4,51.4a8.552,8.552,0,0,1-4.5-5.5,17.77,17.77,0,0,1,0-9.2l.6-2.9a24.155,24.155,0,0,1,3.9-9.2,17.889,17.889,0,0,1,6.7-5.5,22.847,22.847,0,0,1,9.4-1.8,20.276,20.276,0,0,1,8.8,1.7,9.5,9.5,0,0,1,4.6,4.9,13.4,13.4,0,0,1,.3,7.8v.5H217.5l.3-1.1a5.805,5.805,0,0,0-.2-2.4,2.292,2.292,0,0,0-1.2-1.5,4.286,4.286,0,0,0-2.4-.5,6.088,6.088,0,0,0-2.8.6,5.686,5.686,0,0,0-2.1,2,11.808,11.808,0,0,0-1.4,3.9l-1,4.6a8.515,8.515,0,0,0-.2,3.8,3.223,3.223,0,0,0,1.3,2,4.751,4.751,0,0,0,2.4.6,6.963,6.963,0,0,0,2.5-.5,4.26,4.26,0,0,0,2-1.5,6.362,6.362,0,0,0,1.3-2.6l.2-1.2h11.7l-.1.5a18.931,18.931,0,0,1-3.6,7.7,17.755,17.755,0,0,1-6.5,4.9,24.115,24.115,0,0,1-9.3,1.7A20.036,20.036,0,0,1,199.4,51.4Z" fill="#fff"/><path d="M235.9,18.2h26.3l-1.8,8.5H245.9l-1,4.8h13l-1.6,7.3H243.4L242.2,44h14.9l-1.8,8.5H228.6Z" fill="#fff"/><path d="M266.3,18.2h12.8l5.1,16.1.7,3.1.8-3.7,3.2-15.4h10.9l-7.3,34.2H279.7l-5.1-16.1-.7-3-.8,3.7-3.2,15.4H259Z" fill="#fff"/><path d="M309.3,26.8h-8.5l1.7-8.6h29l-1.8,8.6h-8.6l-5.4,25.6H304Z" fill="#fff"/><path d="M152.7,55.2h11.5l-.8,21.5-.3,3.8h.1l1.3-3.8,8-21.5H185l-1.2,21.5-.2,3.8h0l1.3-3.8,8.2-21.5h11.7l-15,34.2H175.3l1.1-20.8.2-3.3h-.1l-1.1,3.3-7.6,20.8H153.2Z" fill="none" stroke="#fd0" stroke-miterlimit="10" stroke-width="1"/><path d="M206.7,88.4a9.788,9.788,0,0,1-4.9-5.5,16.184,16.184,0,0,1-.2-9.1l.6-3a27.179,27.179,0,0,1,3.9-9.1,15.811,15.811,0,0,1,6.6-5.4,23.006,23.006,0,0,1,9.5-1.8,18.631,18.631,0,0,1,9.1,1.9,9.832,9.832,0,0,1,4.7,5.7,17.415,17.415,0,0,1,0,9.1l-.6,2.7a26.3,26.3,0,0,1-3.8,9.3,16.419,16.419,0,0,1-6.5,5.5,23.006,23.006,0,0,1-9.5,1.8A24.274,24.274,0,0,1,206.7,88.4Zm13.1-8a5.686,5.686,0,0,0,2.1-2,14.441,14.441,0,0,0,1.5-3.9l.9-4.1a9.408,9.408,0,0,0,.2-4,3.2,3.2,0,0,0-1.3-2.1,5.4,5.4,0,0,0-2.7-.6,6.527,6.527,0,0,0-2.9.6,5.464,5.464,0,0,0-2,2,10.514,10.514,0,0,0-1.3,3.8l-1,4.6a8.482,8.482,0,0,0-.2,3.8,2.965,2.965,0,0,0,1.4,2.1,4.751,4.751,0,0,0,2.4.6A11.08,11.08,0,0,0,219.8,80.4Z" fill="none" stroke="#fd0" stroke-miterlimit="10" stroke-width="1"/><path d="M243.3,55.2h16.9a18.915,18.915,0,0,1,7.8,1.3,7.175,7.175,0,0,1,4,3.6,8.914,8.914,0,0,1,.4,5.7l-.1.6a9.68,9.68,0,0,1-2.7,5.2,10.692,10.692,0,0,1-5.2,2.9v.2a6.055,6.055,0,0,1,2.5,1.4,4.891,4.891,0,0,1,1.2,2.5,11.992,11.992,0,0,1,0,3.8l-.3,2.5a24.4,24.4,0,0,0-.1,2.6,11.075,11.075,0,0,0,.2,1.9H256.1a6.555,6.555,0,0,1,0-2,22.289,22.289,0,0,1,.3-3.2l.1-2.2a3.526,3.526,0,0,0-.1-1.8,2.345,2.345,0,0,0-1.1-1.1,6.174,6.174,0,0,0-2.2-.4H250l-2.2,10.6H236Zm15.4,15.2a4.827,4.827,0,0,0,1.6-2.9l.1-.6a2.324,2.324,0,0,0-.4-2.5,3.666,3.666,0,0,0-2.6-.8h-4.2l-1.6,7.7h4A4.964,4.964,0,0,0,258.7,70.4Z" fill="none" stroke="#fd0" stroke-miterlimit="10" stroke-width="1"/><path d="M278.3,55.2h11.8l-2.7,12.5h2.7l7.4-12.5h12.8L299,71.7V72l5.2,17.4H291.4l-2.9-13.2h-2.7L283,89.4H271Z" fill="none" stroke="#fd0" stroke-miterlimit="10" stroke-width="1"/></g></svg>