<svg xmlns="http://www.w3.org/2000/svg" width="362.324" height="47.1" viewBox="0 0 362.324 47.1"><g transform="translate(-54.376 -31.1)"><path d="M54.7,58.2l.1-.3H67.4l-.1.3c-.5,2.4.2,4.4,4,4.4,3,0,4.4-1.2,4.8-2.9l.1-.3c.4-2.1-.8-2.8-6.3-4.5-10.4-2.3-12.6-5.8-11.3-12l.1-.5c1.4-6.5,7.3-11.3,18.7-11.3,11.6,0,15.7,5.3,14.2,13.2l-.1.3h-12l.1-.3c.4-2.4-.3-4.2-3.6-4.2-2.8,0-4.1,1.1-4.4,2.5l-.1.4c-.3,1.6.7,2.5,4.2,3.3C88.4,49,90.5,53.1,89.2,59.4l-.1.6c-1.6,7.3-8.5,11.6-19.3,11.6C58,71.7,53,66.5,54.7,58.2Z" fill="#fd0"/><path d="M90.9,70.7,99.1,32h29.8l-2,9.6H110.5L109.4,47h14.7l-1.8,8.2H107.6L106.3,61h16.8l-2,9.7Z" fill="#fd0"/><path d="M125.4,70.7,133.6,32h14.5l5.7,18.1.8,3.4.9-4.2,3.7-17.4h12.3l-8.2,38.7H148.8l-5.7-18.1-.8-3.4-.9,4.2-3.7,17.4Z" fill="#fd0"/><path d="M169,70.7,177.2,32h18.4c12.7,0,17.2,6.8,14.8,17.9l-.7,3.1c-2.3,11.1-8,17.6-21.6,17.6H169Zm15.4-9.6h3.8c4.1,0,6.8-1.7,7.9-7.2l1.1-5.3c1.1-5.4-.8-7-4.9-7h-3.7Z" fill="#fd0"/><path d="M258.2,49.9l-.6,3c-2.4,10.8-7.9,16.7-17.1,18.3l-1.5,7H227.8l1.5-7.1c-8.2-1.8-12.3-7.7-9.9-18l.7-3.5c2.8-12.5,10.2-18.5,22.6-18.5C255.2,31.1,261.1,37.6,258.2,49.9ZM245,49.1c1.4-5.8-.7-7.5-4.3-7.5-3.5,0-5.8,1.7-7,7.1L232.6,54c-1.2,5.6,1.1,7.3,4.1,7.3,3.5,0,6-1.8,7.3-7.4Z" fill="#070707"/><path d="M261,54.8,265.9,32h13.4l-5,23.7c-.8,3.9.5,5.6,3.7,5.6s5.1-1.7,6-5.6L289,32h13.4l-4.8,22.8c-2.4,11.3-8.3,16.9-21.8,16.9S258.6,66.3,261,54.8Z" fill="#070707"/><path d="M299.4,70.7,307.6,32h29.8l-2,9.6H319L317.9,47h14.7l-1.8,8.2H316.1L314.8,61h16.8l-2,9.7Z" fill="#070707"/><path d="M333.8,70.7,342,32h19.1c11.1,0,15.4,4.6,13.8,12l-.2.7a12.076,12.076,0,0,1-8.9,9.3l-.1.2c3.7,1,4.7,3.8,4.2,8.7l-.3,2.9a16.357,16.357,0,0,0,.1,5H356.4a21.78,21.78,0,0,1,.3-5.9l.2-2.4c.3-2.4-.8-3.7-4-3.7h-3.3l-2.5,12-13.3-.1Zm17.8-20.6h4.5c2.6,0,4.6-1,5.3-4.3l.2-.7c.5-2.6-.7-3.7-3.4-3.7h-4.7Z" fill="#070707"/><path d="M381.8,70.7,384,60.4l-7.2-28.3h14.4l1.9,14.5v2.5h.1l1-2.5,7.4-14.5h15.1L397.5,60.4l-2.2,10.3Z" fill="#070707"/></g></svg>