<svg id="Layer_1" data-name="Layer 1" xmlns="http://www.w3.org/2000/svg" viewBox="0 0 20 20"><defs><style>.cls-1{fill:none;stroke:#fff;stroke-miterlimit:10;}.cls-2{fill:#231f20;}</style></defs><circle class="cls-1" cx="10" cy="10" r="8.85"/><path class="cls-2" d="M9.7,5a.22.22,0,0,0-.22.22V6a.21.21,0,0,0,.21.21h0a5,5,0,0,1,4.82,4.82h0a.21.21,0,0,0,.21.21h.83a.22.22,0,0,0,.22-.22A6.32,6.32,0,0,0,9.7,5Z"/><path class="cls-2" d="M9.7,7.06a.22.22,0,0,0-.22.22v.83a.21.21,0,0,0,.21.21h0a2.93,2.93,0,0,1,2.72,2.72h0a.21.21,0,0,0,.21.21h.83a.22.22,0,0,0,.22-.22A4.23,4.23,0,0,0,9.7,7.06Z"/><path class="cls-2" d="M5.91,7.48a.21.21,0,0,0-.21.21v4.62A2.73,2.73,0,1,0,8.43,9.58a.21.21,0,0,0-.21.21v1.26a.21.21,0,0,0,.21.21,1,1,0,1,1-1,1.05V7.69a.21.21,0,0,0-.21-.21Z"/></svg>