<svg id="Layer_1" data-name="Layer 1" xmlns="http://www.w3.org/2000/svg" viewBox="0 0 20 20"><defs><style>.cls-1{fill:none;stroke:#fff;stroke-miterlimit:10;}.cls-2{fill:#231f20;}</style></defs><circle class="cls-1" cx="9.81" cy="10" r="8.85"/><path class="cls-2" d="M9.81,6.22c1.23,0,1.37,0,1.86,0a2.62,2.62,0,0,1,.86.16,1.58,1.58,0,0,1,.53.35,1.34,1.34,0,0,1,.34.53,2.38,2.38,0,0,1,.16.86c0,.48,0,.63,0,1.86s0,1.38,0,1.86a2.38,2.38,0,0,1-.16.86,1.34,1.34,0,0,1-.34.53,1.58,1.58,0,0,1-.53.35,2.62,2.62,0,0,1-.86.16c-.49,0-.63,0-1.86,0s-1.38,0-1.87,0a2.69,2.69,0,0,1-.86-.16,1.69,1.69,0,0,1-.53-.35,1.34,1.34,0,0,1-.34-.53,2.62,2.62,0,0,1-.16-.86c0-.48,0-.63,0-1.86s0-1.38,0-1.86a2.62,2.62,0,0,1,.16-.86,1.34,1.34,0,0,1,.34-.53,1.69,1.69,0,0,1,.53-.35,2.69,2.69,0,0,1,.86-.16c.49,0,.63,0,1.87,0m0-.83c-1.26,0-1.41,0-1.91,0a3.46,3.46,0,0,0-1.12.22A2.19,2.19,0,0,0,6,6.16,2.25,2.25,0,0,0,5.43,7,3.43,3.43,0,0,0,5.22,8.1c0,.49,0,.65,0,1.9s0,1.41,0,1.9A3.43,3.43,0,0,0,5.43,13a2.25,2.25,0,0,0,.54.82,2.19,2.19,0,0,0,.81.53,3.46,3.46,0,0,0,1.12.22c.5,0,.65,0,1.91,0s1.41,0,1.9,0a3.4,3.4,0,0,0,1.12-.22,2.31,2.31,0,0,0,.82-.53,2.36,2.36,0,0,0,.53-.82,3.43,3.43,0,0,0,.21-1.12c0-.49,0-.65,0-1.9s0-1.41,0-1.9A3.43,3.43,0,0,0,14.18,7a2.36,2.36,0,0,0-.53-.82,2.31,2.31,0,0,0-.82-.53,3.4,3.4,0,0,0-1.12-.22c-.49,0-.65,0-1.9,0"/><path class="cls-2" d="M9.81,7.63A2.37,2.37,0,1,0,12.18,10,2.37,2.37,0,0,0,9.81,7.63m0,3.91A1.54,1.54,0,1,1,11.34,10a1.54,1.54,0,0,1-1.53,1.54"/><path class="cls-2" d="M12.82,7.54A.55.55,0,1,1,12.27,7a.55.55,0,0,1,.55.56"/></svg>