<svg id="Layer_1" data-name="Layer 1" xmlns="http://www.w3.org/2000/svg" viewBox="0 0 476.82 443.77"><defs><style>.cls-1{fill:#ffd400;}</style></defs><path class="cls-1" d="M189.45,152c0-5.5,3.9-7.75,8.66-5l121,69.86c4.76,2.75,4.76,7.25,0,10l-121,69.87c-4.76,2.75-8.66.5-8.66-5Z"/><path class="cls-1" d="M238.41,421.55C128.32,421.55,38.75,332,38.75,221.88S128.32,22.22,238.41,22.22s199.66,89.57,199.66,199.66S348.5,421.55,238.41,421.55Zm0-363.18c-90.16,0-163.51,73.35-163.51,163.51S148.25,385.4,238.41,385.4s163.51-73.35,163.51-163.52S328.57,58.37,238.41,58.37Z"/></svg>