<svg width="375" height="166" viewBox="0 0 375 166" fill="none" xmlns="http://www.w3.org/2000/svg">
<path d="M75.5012 85.1C73.1012 84 71.4012 82.5 70.5012 80.5C69.6012 78.5 69.4012 76.1 70.0012 73.3V73H82.6012L82.5012 73.3C82.3012 74.1 82.3012 74.9 82.5012 75.5C82.7012 76.2 83.1012 76.7 83.7012 77.1C84.4012 77.5 85.3012 77.7 86.4012 77.7C87.9012 77.7 89.0012 77.4 89.8012 76.9C90.6012 76.4 91.1012 75.7 91.2012 74.8L91.4012 74.5C91.5012 73.8 91.5012 73.2 91.2012 72.8C90.9012 72.4 90.4012 72 89.6012 71.6C88.8012 71.2 87.6012 70.8 85.9012 70.3C85.7012 70.2 85.5012 70.1 85.5012 70.1C85.4012 70.1 85.3012 70.1 85.1012 70C84.5012 69.8 84.0012 69.7 83.5012 69.6C80.5012 68.8 78.3012 67.9 76.7012 66.9C75.2012 65.8 74.2012 64.6 73.8012 63.2C73.4012 61.8 73.4012 60.1 73.8012 58L73.9012 57.5C74.4012 55.2 75.3012 53.3 76.9012 51.6C78.4012 49.9 80.5012 48.6 83.1012 47.6C85.7012 46.6 88.8012 46.2 92.5012 46.2C98.2012 46.2 102.101 47.4 104.501 49.7C106.801 52.1 107.601 55.3 106.801 59.4L106.701 59.7H94.7012L94.8012 59.4C95.0012 58.1 94.8012 57.1 94.3012 56.3C93.7012 55.6 92.7012 55.2 91.1012 55.2C89.8012 55.2 88.8012 55.4 88.1012 55.9C87.4012 56.4 86.9012 57 86.8012 57.8L86.7012 58.2C86.6012 58.6 86.7012 59 86.8012 59.3C86.9012 59.6 87.2012 59.9 87.5012 60.2C87.8012 60.5 88.3012 60.7 89.0012 60.9C89.3012 61 89.6012 61.1 89.9012 61.2C90.2012 61.3 90.6012 61.4 91.0012 61.5C95.1012 62.3 98.2012 63.4 100.301 64.6C102.401 65.8 103.701 67.2 104.301 68.8C104.901 70.4 104.901 72.3 104.401 74.6L104.301 75.1C103.701 77.5 102.601 79.6 100.901 81.4C99.2012 83.2 97.0012 84.5 94.3012 85.4C91.6012 86.3 88.4012 86.8 84.8012 86.8C81.0012 86.7 77.9012 86.2 75.5012 85.1Z" fill="white"/>
<path d="M110.001 54.9H133.301L131.501 63.9H108.201L110.001 54.9ZM112.201 85.4C110.801 84.5 109.901 83.1 109.501 81.4C109.101 79.6 109.101 77.6 109.601 75.1V75L115.301 48.2H127.601L122.301 73.1C122.001 74.7 122.001 75.8 122.401 76.5C122.801 77.2 123.601 77.6 124.801 77.6C126.001 77.6 127.201 77.4 128.401 77.1L127.801 85.2L126.801 85.6C125.501 86 124.101 86.3 122.701 86.5C121.301 86.7 119.801 86.8 118.201 86.8C115.601 86.7 113.601 86.3 112.201 85.4Z" fill="white"/>
<path d="M163.301 85.8H151.001L151.501 83.7L152.501 80.5H151.601L153.001 79.7C152.001 81.2 150.901 82.5 149.701 83.6C148.501 84.7 147.101 85.5 145.701 86C144.301 86.5 142.701 86.8 141.101 86.8C137.601 86.8 135.101 85.8 133.601 83.7C132.101 81.7 131.801 78.4 132.801 74L136.801 54.9H149.101L145.301 72.7C145.001 74.4 145.001 75.6 145.501 76.4C146.001 77.2 146.901 77.6 148.201 77.6C149.201 77.6 150.101 77.3 150.901 76.8C151.701 76.3 152.401 75.6 152.901 74.7C153.401 73.8 153.801 72.8 154.101 71.7L157.601 54.9H169.901L163.301 85.8Z" fill="white"/>
<path d="M172.502 85C171.102 83.8 170.202 82.1 169.802 79.7C169.402 77.4 169.602 74.5 170.302 71.1L170.602 69.4C171.302 66.1 172.302 63.3 173.702 60.9C175.102 58.6 176.702 56.8 178.702 55.6C180.702 54.4 183.002 53.8 185.502 53.8C187.002 53.8 188.302 54 189.502 54.5C190.702 55 191.702 55.7 192.402 56.8C193.202 57.8 193.702 59.1 193.902 60.7L193.002 61.6L193.302 59.7H194.002L194.402 56.4L196.602 45.7H208.902L200.402 85.5H188.202L188.602 83.6L189.602 80.5H189.002L189.602 79.7L190.102 79.5C188.802 81.8 187.102 83.6 185.102 84.7C183.102 85.8 180.902 86.4 178.702 86.4C176.002 86.7 174.002 86.1 172.502 85ZM188.102 77.1C188.902 76.6 189.502 76 190.102 75.2C190.602 74.4 191.002 73.5 191.202 72.4L192.002 68.4C192.202 67.3 192.302 66.4 192.202 65.6C192.102 64.8 191.702 64.2 191.202 63.6C190.602 63.1 189.802 62.8 188.802 62.8C187.702 62.8 186.802 63.1 186.102 63.6C185.402 64.1 184.702 64.8 184.302 65.7C183.802 66.6 183.502 67.6 183.302 68.7L182.602 72C182.302 73.3 182.202 74.3 182.302 75.1C182.402 75.9 182.702 76.5 183.202 77C183.702 77.4 184.502 77.7 185.602 77.7C186.502 77.7 187.402 77.5 188.102 77.1Z" fill="white"/>
<path d="M212.202 54.9H224.402L217.802 85.8H205.602L212.202 54.9ZM215.002 51.8C214.102 51.5 213.502 50.9 213.102 50.2C212.802 49.5 212.702 48.6 213.002 47.4C213.302 45.7 214.102 44.5 215.402 43.7C216.602 42.9 218.502 42.5 221.002 42.5C222.502 42.5 223.802 42.7 224.702 43C225.702 43.3 226.302 43.9 226.602 44.6C226.902 45.3 227.002 46.3 226.702 47.4C226.402 49.1 225.602 50.3 224.302 51.1C223.002 51.9 221.202 52.2 218.702 52.2C217.202 52.3 215.902 52.1 215.002 51.8Z" fill="white"/>
<path d="M229.901 84.9C227.601 83.7 226.001 82 225.101 79.6C224.201 77.3 224.201 74.4 224.801 71L225.201 69.3C225.901 65.9 227.101 63 228.801 60.7C230.501 58.4 232.701 56.7 235.301 55.6C238.001 54.4 241.101 53.9 244.701 53.9C248.401 53.9 251.401 54.5 253.701 55.7C256.001 56.9 257.601 58.6 258.501 60.9C259.401 63.2 259.501 66.1 258.801 69.6L258.401 71.3C257.701 74.7 256.501 77.6 254.801 79.9C253.101 82.2 250.901 83.9 248.201 85C245.501 86.1 242.301 86.7 238.601 86.7C235.201 86.7 232.201 86.1 229.901 84.9ZM242.801 77.2C243.501 76.8 244.201 76.2 244.701 75.4C245.301 74.6 245.701 73.4 246.001 72L246.801 68.5C247.101 67.2 247.101 66.2 246.901 65.3C246.701 64.4 246.301 63.9 245.701 63.5C245.101 63.1 244.301 62.9 243.401 62.9C242.401 62.9 241.501 63.1 240.901 63.4C240.301 63.7 239.601 64.4 239.001 65.2C238.401 66.1 238.001 67.2 237.701 68.5L236.901 72C236.601 73.4 236.601 74.4 236.801 75.3C237.001 76.2 237.401 76.7 238.001 77.1C238.601 77.5 239.301 77.6 240.201 77.6C241.201 77.8 242.001 77.6 242.801 77.2Z" fill="white"/>
<path d="M267.702 84.7C265.002 83.3 263.102 81.2 262.102 78.5C261.102 75.8 261.002 72.3 261.902 68.2L262.602 64.8C263.602 60.7 265.002 57.3 267.002 54.5C269.002 51.8 271.402 49.7 274.502 48.4C277.502 47 281.102 46.3 285.202 46.3C289.402 46.3 292.902 47 295.502 48.5C298.102 50 299.902 52.1 300.902 54.9C301.802 57.7 301.802 61.1 300.902 65.1L300.302 68.1C299.402 72.3 297.902 75.8 296.002 78.6C294.102 81.4 291.602 83.4 288.602 84.8C285.602 86.2 282.002 86.8 277.802 86.8C273.802 86.7 270.402 86 267.702 84.7ZM272.102 85.2H283.302L281.602 93.2H270.402L272.102 85.2ZM282.502 75.6C283.402 75.1 284.202 74.4 284.902 73.3C285.602 72.2 286.102 70.8 286.602 68.9L287.602 64.3C288.002 62.4 288.102 60.9 287.902 59.8C287.702 58.7 287.202 57.9 286.402 57.4C285.602 56.9 284.602 56.7 283.402 56.7C282.102 56.7 281.002 56.9 280.202 57.4C279.302 57.9 278.602 58.6 278.002 59.6C277.402 60.6 276.902 62.1 276.502 63.9L275.402 69C275.002 70.8 274.902 72.2 275.202 73.3C275.502 74.4 276.002 75.2 276.702 75.6C277.402 76.1 278.402 76.3 279.402 76.3C280.602 76.3 281.602 76.1 282.502 75.6Z" fill="#FFDD00"/>
<path d="M50.8004 100L51.3004 117.5V118.5H51.4004L51.7004 117.5L59.8004 100H65.4004L54.0004 123H47.0004L45.4004 100H50.8004Z" fill="#FFDD00"/>
<path d="M67.5996 100H72.9996L67.9996 123H62.5996L67.5996 100Z" fill="#FFDD00"/>
<path d="M76.9 100H84.7C86.9 100 88.6 100.4 89.8 101.2C91 102 91.9 103.2 92.2 104.8C92.6 106.4 92.5 108.4 92 110.8L91.7 112.2C91.2 114.7 90.5 116.8 89.6 118.4C88.7 120 87.5 121.1 86 121.9C84.5 122.7 82.6 123 80.4 123H72L76.9 100ZM83.2 118.1C83.9 117.7 84.6 117.2 85.1 116.3C85.6 115.5 86 114.3 86.3 112.8L86.9 110.1C87.2 108.6 87.2 107.5 87.1 106.7C87 105.9 86.6 105.3 86.1 104.9C85.5 104.6 84.7 104.4 83.7 104.4H81.4L78.3 118.6H80.6C81.6 118.6 82.5 118.4 83.2 118.1Z" fill="#FFDD00"/>
<path d="M97.4996 100H111.7L110.7 104.4H102L100.9 109.2H108.7L107.8 113.4H99.9996L98.8996 118.6H108L107 123H92.5996L97.4996 100Z" fill="#FFDD00"/>
<path d="M113.601 122.4C112.301 121.7 111.501 120.6 111.101 119.1C110.701 117.6 110.701 115.7 111.301 113.5L112.101 109.5C112.601 107.2 113.301 105.4 114.201 103.9C115.101 102.4 116.301 101.3 117.701 100.6C119.101 99.9 120.801 99.5 122.801 99.5C124.801 99.5 126.401 99.9 127.701 100.7C128.901 101.5 129.701 102.6 130.101 104.1C130.501 105.6 130.501 107.5 129.901 109.7L129.101 113.5C128.601 115.8 127.901 117.7 127.001 119.2C126.101 120.7 124.901 121.8 123.601 122.5C122.201 123.2 120.501 123.6 118.401 123.6C116.501 123.5 114.901 123.2 113.601 122.4ZM121.101 118.5C121.701 118.1 122.201 117.6 122.701 116.9C123.101 116.2 123.501 115.2 123.801 113.9L124.801 109.2C125.001 107.9 125.101 106.9 125.001 106.1C124.901 105.3 124.601 104.8 124.101 104.5C123.601 104.2 123.001 104 122.201 104C121.401 104 120.701 104.2 120.101 104.5C119.501 104.8 119.001 105.3 118.601 106.1C118.201 106.8 117.801 107.8 117.601 109L116.501 113.9C116.301 115.1 116.201 116 116.401 116.8C116.601 117.6 116.901 118.1 117.301 118.4C117.701 118.7 118.401 118.9 119.101 118.9C119.801 119 120.501 118.8 121.101 118.5Z" fill="#FFDD00"/>
<path d="M144.201 100H152.101C153.801 100 155.301 100.3 156.501 100.9C157.701 101.5 158.501 102.4 159.101 103.5C159.601 104.7 159.701 106.1 159.301 107.8L159.201 108.4C158.801 110.2 158.201 111.8 157.401 113C156.601 114.2 155.501 115.1 154.201 115.7C152.901 116.3 151.301 116.6 149.501 116.6H146.101L144.701 123H139.301L144.201 100ZM152.301 111.3C153.001 110.7 153.501 109.7 153.801 108.3L153.901 107.9C154.101 107.1 154.101 106.5 154.001 105.9C153.901 105.4 153.601 105 153.101 104.8C152.601 104.6 152.101 104.4 151.401 104.4H148.601L146.901 112.1H149.601C150.701 112.1 151.601 111.9 152.301 111.3Z" fill="white"/>
<path d="M163.401 100H171.801C173.601 100 175.101 100.3 176.201 100.8C177.301 101.3 178.101 102.1 178.501 103.1C178.901 104.1 179.001 105.4 178.701 106.9L178.601 107.2C178.301 108.6 177.801 109.7 176.901 110.7C176.001 111.7 174.901 112.3 173.701 112.5L173.601 112.6C174.301 112.8 174.801 113.1 175.201 113.5C175.601 113.9 175.801 114.5 175.901 115.3C176.001 116 176.001 116.8 175.901 117.7L175.601 120C175.501 120.6 175.501 121.2 175.501 121.7C175.501 122.2 175.601 122.7 175.701 123H170.301C170.301 122.6 170.201 122.1 170.301 121.5C170.301 120.9 170.401 120.2 170.501 119.3L170.601 117.3C170.701 116.7 170.601 116.3 170.401 115.9C170.201 115.5 169.901 115.2 169.501 115.1C169.101 114.9 168.501 114.8 167.901 114.8H165.501L163.701 123H158.301L163.401 100ZM171.901 109.9C172.601 109.4 173.001 108.6 173.201 107.4L173.301 107C173.501 106.1 173.401 105.4 173.001 105C172.601 104.5 171.901 104.3 171.001 104.3H167.801L166.501 110.7H169.401C170.401 110.7 171.201 110.4 171.901 109.9Z" fill="white"/>
<path d="M181.999 122.4C180.699 121.7 179.899 120.6 179.499 119.1C179.099 117.6 179.099 115.7 179.699 113.5L180.499 109.5C180.999 107.2 181.699 105.4 182.599 103.9C183.499 102.4 184.699 101.3 186.099 100.6C187.499 99.9 189.199 99.5 191.199 99.5C193.199 99.5 194.799 99.9 196.099 100.7C197.299 101.5 198.099 102.6 198.499 104.1C198.899 105.6 198.899 107.5 198.299 109.7L197.499 113.5C196.999 115.8 196.299 117.7 195.399 119.2C194.499 120.7 193.299 121.8 191.999 122.5C190.599 123.2 188.899 123.6 186.799 123.6C184.799 123.5 183.199 123.2 181.999 122.4ZM189.499 118.5C190.099 118.1 190.599 117.6 191.099 116.9C191.499 116.2 191.899 115.2 192.199 113.9L193.199 109.2C193.399 107.9 193.499 106.9 193.399 106.1C193.299 105.3 192.999 104.8 192.499 104.5C191.999 104.2 191.399 104 190.599 104C189.799 104 189.099 104.2 188.499 104.5C187.899 104.8 187.399 105.3 186.999 106.1C186.599 106.8 186.199 107.8 185.999 109L184.899 113.9C184.699 115.1 184.599 116 184.799 116.8C184.999 117.6 185.299 118.1 185.699 118.4C186.099 118.7 186.799 118.9 187.499 118.9C188.199 119 188.899 118.8 189.499 118.5Z" fill="white"/>
<path d="M203.601 100H211.401C213.601 100 215.301 100.4 216.501 101.2C217.701 102 218.601 103.2 218.901 104.8C219.301 106.4 219.201 108.4 218.701 110.8L218.401 112.2C217.901 114.7 217.201 116.8 216.301 118.4C215.401 120 214.201 121.1 212.701 121.9C211.201 122.7 209.301 123 207.101 123H198.701L203.601 100ZM210.001 118.1C210.701 117.7 211.401 117.2 211.901 116.3C212.401 115.5 212.801 114.3 213.101 112.8L213.701 110.1C214.001 108.6 214.001 107.5 213.901 106.7C213.801 105.9 213.401 105.3 212.901 104.9C212.301 104.6 211.501 104.4 210.501 104.4H208.201L205.101 118.6H207.401C208.301 118.6 209.201 118.4 210.001 118.1Z" fill="white"/>
<path d="M222.8 122.5C221.7 121.8 220.9 120.8 220.7 119.4C220.4 118 220.5 116.2 220.9 114.1L223.9 100H229.2L226.2 114.6C225.8 116.1 225.8 117.2 226.3 117.9C226.7 118.6 227.5 119 228.6 119C229.7 119 230.6 118.6 231.3 117.9C232 117.2 232.5 116.1 232.8 114.6L235.9 100H241.2L238.3 114.1C237.8 116.3 237.2 118 236.3 119.4C235.4 120.8 234.2 121.8 232.8 122.5C231.4 123.2 229.7 123.5 227.6 123.5C225.5 123.5 223.9 123.2 222.8 122.5Z" fill="white"/>
<path d="M243.2 122.5C242 121.8 241.3 120.7 240.9 119.2C240.6 117.7 240.6 115.8 241.1 113.5L241.9 109.6C242.4 107.3 243.1 105.4 244.1 103.9C245.1 102.4 246.3 101.3 247.7 100.6C249.2 99.9 250.9 99.5 252.8 99.5C254.8 99.5 256.4 99.9 257.6 100.6C258.8 101.4 259.5 102.4 259.9 103.7C260.3 105 260.3 106.6 259.9 108.4L259.8 108.7H254.5L254.6 108.1C254.8 107.2 254.8 106.4 254.7 105.9C254.6 105.4 254.3 104.9 253.9 104.5C253.5 104.2 252.8 104 252 104C251.3 104 250.6 104.2 250 104.5C249.4 104.8 248.9 105.3 248.5 106.1C248.1 106.8 247.7 107.8 247.4 109.1L246.3 114C246.1 115.2 246 116.2 246.2 116.9C246.3 117.6 246.6 118.2 247.1 118.5C247.6 118.8 248.1 119 248.8 119C249.6 119 250.2 118.9 250.8 118.6C251.4 118.3 251.9 117.9 252.3 117.3C252.7 116.7 253 115.9 253.3 115L253.5 114.4H258.8L258.7 114.7C258.3 116.6 257.6 118.1 256.7 119.4C255.8 120.7 254.6 121.7 253.2 122.5C251.8 123.2 250 123.6 248 123.6C246 123.5 244.4 123.2 243.2 122.5Z" fill="white"/>
<path d="M267.101 104.4H261.701L262.701 100H278.701L277.801 104.4H272.401L268.401 123H263.101L267.101 104.4Z" fill="white"/>
<path d="M280.9 100H286.3L281.4 123H276L280.9 100Z" fill="white"/>
<path d="M289.101 122.4C287.801 121.7 287.001 120.6 286.601 119.1C286.201 117.6 286.201 115.7 286.801 113.5L287.601 109.5C288.101 107.2 288.801 105.4 289.701 103.9C290.601 102.4 291.801 101.3 293.201 100.6C294.601 99.9 296.301 99.5 298.301 99.5C300.301 99.5 301.901 99.9 303.201 100.7C304.401 101.5 305.201 102.6 305.601 104.1C306.001 105.6 306.001 107.5 305.401 109.7L304.601 113.5C304.101 115.8 303.401 117.7 302.501 119.2C301.601 120.7 300.401 121.8 299.101 122.5C297.701 123.2 296.001 123.6 293.901 123.6C291.901 123.5 290.301 123.2 289.101 122.4ZM296.601 118.5C297.201 118.1 297.701 117.6 298.201 116.9C298.601 116.2 299.001 115.2 299.301 113.9L300.301 109.2C300.501 107.9 300.601 106.9 300.501 106.1C300.401 105.3 300.101 104.8 299.601 104.5C299.101 104.2 298.501 104 297.701 104C296.901 104 296.201 104.2 295.601 104.5C295.001 104.8 294.501 105.3 294.101 106.1C293.701 106.8 293.301 107.8 293.101 109L292.001 113.9C291.801 115.1 291.701 116 291.901 116.8C292.101 117.6 292.401 118.1 292.801 118.4C293.201 118.7 293.901 118.9 294.601 118.9C295.301 119 296.001 118.8 296.601 118.5Z" fill="white"/>
<path d="M310.701 100H316.401L320.001 112.6L320.501 114.4L321.001 112.4L323.601 100.1H328.701L323.801 123.1H318.101L314.501 110.5L314.001 108.8V108.8L313.501 110.8L311.001 123H305.801L310.701 100Z" fill="white"/>
</svg>
