<svg width="229" height="89" viewBox="0 0 229 89" fill="none" xmlns="http://www.w3.org/2000/svg">
<path d="M28.9008 57.6C27.1008 56.8 25.8008 55.6 25.1008 54.1C24.4008 52.6 24.3008 50.8 24.7008 48.6V48.4H34.3008V48.6C34.2008 49.2 34.2008 49.8 34.3008 50.3C34.4008 50.8 34.7008 51.2 35.2008 51.5C35.7008 51.8 36.4008 51.9 37.3008 51.9C38.4008 51.9 39.3008 51.7 39.9008 51.3C40.5008 50.9 40.9008 50.4 41.0008 49.7L41.1007 49.5C41.2007 48.9 41.2008 48.5 41.0008 48.2C40.8008 47.9 40.4008 47.6 39.8008 47.3C39.2008 47 38.3008 46.7 37.0008 46.3C36.8008 46.2 36.7008 46.2 36.7008 46.2C36.6008 46.2 36.5008 46.2 36.4008 46.1C36.0008 46 35.6008 45.9 35.2008 45.8C32.9008 45.2 31.2008 44.5 30.1008 43.7C28.7008 43 28.0008 42 27.6008 41C27.3008 39.9 27.3008 38.6 27.6008 37L27.7008 36.6C28.0008 34.9 28.8008 33.4 30.0008 32.1C31.2008 30.8 32.7008 29.8 34.7008 29.1C36.7008 28.4 39.0008 28 41.8008 28C46.1008 28 49.1008 28.9 50.9008 30.7C52.7008 32.5 53.3008 34.9 52.7008 38.1V38.3H43.5008V38.1C43.7008 37.1 43.5007 36.3 43.1007 35.8C42.7007 35.2 41.9008 35 40.7008 35C39.7008 35 39.0008 35.2 38.4008 35.5C37.8008 35.8 37.5008 36.3 37.4008 36.9L37.3008 37.2C37.2008 37.5 37.3008 37.8 37.4008 38C37.5008 38.2 37.7008 38.5 37.9008 38.7C38.2008 38.9 38.5008 39.1 39.0008 39.3C39.2008 39.4 39.4008 39.5 39.7008 39.5C40.0008 39.6 40.2008 39.6 40.5008 39.7C43.6008 40.3 46.0007 41.1 47.6007 42.1C49.2007 43 50.2007 44.1 50.6007 45.3C51.0007 46.5 51.1008 47.9 50.7008 49.7V50.1C50.3008 51.9 49.4008 53.5 48.2008 54.9C46.9008 56.2 45.3008 57.2 43.2008 57.9C41.2008 58.6 38.8008 58.9 36.0008 58.9C33.1008 58.9 30.7008 58.4 28.9008 57.6Z" fill="white"/>
<path d="M55.2008 34.7H72.9008L71.5008 41.5H53.8008L55.2008 34.7ZM56.8008 57.8C55.7008 57.1 55.1008 56.1 54.8008 54.8C54.5008 53.5 54.5008 51.9 54.9008 50L59.2008 29.6H68.6008L64.6008 48.5C64.4008 49.7 64.4008 50.6 64.7008 51.1C65.0008 51.7 65.6008 51.9 66.5008 51.9C67.4008 51.9 68.3008 51.8 69.2008 51.5L68.8008 57.6L68.0008 57.9C67.0008 58.2 66.0008 58.4 64.9008 58.6C63.8008 58.8 62.7008 58.8 61.5008 58.8C59.4008 58.9 57.9008 58.5 56.8008 57.8Z" fill="white"/>
<path d="M95.7001 58.1H86.4001L86.8001 56.5L87.6001 54H86.9001L87.9001 53.4C87.2001 54.6 86.3001 55.5 85.4001 56.4C84.5001 57.2 83.4001 57.8 82.3001 58.2C81.2001 58.6 80.0001 58.8 78.8001 58.8C76.1001 58.8 74.2001 58 73.1001 56.5C72.0001 54.9 71.8001 52.5 72.5001 49.1L75.5001 34.6H84.8001L82.0001 48.2C81.7001 49.5 81.8001 50.4 82.2001 51C82.6001 51.6 83.3001 51.9 84.3001 51.9C85.0001 51.9 85.7001 51.7 86.3001 51.3C86.9001 50.9 87.4001 50.4 87.8001 49.7C88.2001 49 88.5001 48.3 88.7001 47.4L91.4001 34.6H100.7L95.7001 58.1Z" fill="white"/>
<path d="M102.7 57.5C101.6 56.6 100.9 55.3 100.6 53.5C100.3 51.7 100.5 49.5 101 46.9L101.2 45.6C101.7 43.1 102.5 40.9 103.5 39.2C104.5 37.4 105.8 36.1 107.3 35.2C108.8 34.3 110.5 33.8 112.5 33.8C113.6 33.8 114.6 34 115.5 34.4C116.4 34.8 117.1 35.3 117.7 36.1C118.3 36.9 118.7 37.9 118.9 39.1L118.2 39.8L118.4 38.4H118.9L119.2 35.9L120.9 27.8H130.3L124 58.1H114.7L115 56.7L115.8 54.3H115.2L115.6 53.7L116 53.5C115 55.3 113.7 56.6 112.2 57.5C110.7 58.4 109 58.8 107.3 58.8C105.3 58.9 103.7 58.4 102.7 57.5ZM114.5 51.5C115.1 51.2 115.6 50.7 116 50.1C116.4 49.5 116.7 48.8 116.8 48L117.4 45C117.6 44.2 117.6 43.5 117.5 42.9C117.4 42.3 117.1 41.8 116.7 41.4C116.3 41 115.7 40.8 114.9 40.8C114.1 40.8 113.4 41 112.8 41.4C112.2 41.8 111.8 42.3 111.4 43C111 43.7 110.8 44.4 110.6 45.3L110 47.8C109.8 48.8 109.7 49.6 109.7 50.2C109.8 50.8 110 51.3 110.4 51.6C110.8 51.9 111.4 52.1 112.2 52.1C113.2 52 113.9 51.8 114.5 51.5Z" fill="white"/>
<path d="M132.801 34.7H142.101L137.101 58.2H127.801L132.801 34.7ZM135.001 32.3C134.301 32 133.801 31.6 133.601 31.1C133.301 30.5 133.301 29.8 133.501 29C133.801 27.7 134.401 26.8 135.301 26.2C136.201 25.6 137.701 25.3 139.501 25.3C140.701 25.3 141.601 25.4 142.301 25.7C143.001 26 143.501 26.4 143.801 26.9C144.101 27.5 144.101 28.2 143.901 29C143.601 30.3 143.001 31.2 142.101 31.8C141.201 32.4 139.701 32.7 137.901 32.7C136.601 32.6 135.701 32.5 135.001 32.3Z" fill="white"/>
<path d="M146.3 57.5C144.5 56.6 143.3 55.3 142.7 53.5C142.1 51.7 142 49.6 142.5 47L142.8 45.7C143.3 43.1 144.2 40.9 145.5 39.2C146.8 37.5 148.4 36.2 150.5 35.3C152.5 34.4 154.9 34 157.7 34C160.5 34 162.8 34.4 164.6 35.3C166.4 36.2 167.6 37.5 168.2 39.3C168.9 41.1 168.9 43.2 168.4 45.9L168.1 47.2C167.6 49.8 166.7 52 165.4 53.7C164.1 55.4 162.5 56.7 160.4 57.6C158.3 58.5 155.9 58.9 153.1 58.9C150.3 58.9 148 58.4 146.3 57.5ZM156.1 51.6C156.7 51.3 157.2 50.9 157.6 50.2C158 49.6 158.4 48.7 158.6 47.6L159.2 44.9C159.4 43.9 159.4 43.1 159.3 42.5C159.1 41.9 158.8 41.4 158.4 41.1C158 40.8 157.4 40.7 156.7 40.7C155.9 40.7 155.3 40.8 154.8 41.1C154.3 41.4 153.8 41.8 153.4 42.5C153 43.2 152.6 44 152.4 45L151.8 47.7C151.6 48.7 151.6 49.6 151.7 50.2C151.9 50.8 152.2 51.3 152.6 51.6C153 51.9 153.6 52 154.3 52C154.8 52.1 155.5 51.9 156.1 51.6Z" fill="white"/>
<path d="M175.002 57.3C172.902 56.2 171.502 54.7 170.802 52.6C170.002 50.5 170.002 47.9 170.602 44.8L171.202 42.2C171.902 39.1 173.102 36.5 174.502 34.4C176.002 32.3 177.902 30.8 180.202 29.7C182.502 28.7 185.202 28.1 188.302 28.1C191.502 28.1 194.102 28.7 196.102 29.8C198.102 30.9 199.502 32.5 200.202 34.7C200.902 36.8 200.902 39.4 200.202 42.5L199.702 44.8C199.002 48 197.902 50.7 196.402 52.8C194.902 54.9 193.102 56.5 190.802 57.5C188.502 58.5 185.802 59 182.602 59C179.602 58.9 177.102 58.3 175.002 57.3ZM178.402 57.7H186.902L185.602 63.8H177.102L178.402 57.7ZM186.302 50.4C187.002 50 187.602 49.5 188.102 48.6C188.602 47.8 189.002 46.7 189.402 45.2L190.202 41.7C190.502 40.3 190.602 39.1 190.402 38.3C190.202 37.5 189.802 36.9 189.302 36.5C188.702 36.1 188.002 35.9 187.002 35.9C186.002 35.9 185.202 36.1 184.502 36.4C183.802 36.7 183.302 37.3 182.802 38.1C182.302 38.9 181.902 40 181.702 41.3L180.802 45.2C180.502 46.5 180.402 47.6 180.602 48.5C180.802 49.3 181.202 49.9 181.802 50.3C182.402 50.6 183.102 50.8 183.902 50.8C184.802 50.9 185.602 50.8 186.302 50.4Z" fill="black"/>
</svg>
