<svg width="310" height="74" viewBox="0 0 310 74" fill="none" xmlns="http://www.w3.org/2000/svg">
<path d="M10.8531 49.2258H3.66016L5.15869 41.8979H29.7497L28.2511 49.2258H20.8933L16.2928 70.8871H6.29758L10.8531 49.2258Z" stroke="#FFDD00" stroke-width="0.5" stroke-miterlimit="10"/>
<path d="M32.2449 41.8979H54.5282L52.9697 49.0684H40.6967L39.88 53.122H50.9092L49.5455 59.3184H38.5987L37.6247 63.6792H50.2049L48.7063 70.8871H26.0859L32.2449 41.8979Z" stroke="#FFDD00" stroke-width="0.5" stroke-miterlimit="10"/>
<path d="M70.8916 70.8871H81.2989L78.5866 41.8979H64.8525L49.9346 70.8871H60.4918L62.6646 66.1368H70.7268L70.8916 70.8871ZM65.6467 59.6481L68.6962 52.9796L70.2922 48.8137H70.4121L70.2922 53.0171L70.5245 59.6481H65.6467Z" stroke="#FFDD00" stroke-width="0.5" stroke-miterlimit="10"/>
<path d="M89.8709 41.8979H101.672L103.268 56.5087L103.388 58.187H103.508L104.362 56.5087L112.192 41.8979H124L117.841 70.8871H108.722L111.922 55.9018L112.619 53.137H112.506L111.412 55.115L104.631 67.1932H98.4425L96.8016 55.115L96.5694 53.1594L96.0599 55.9242L92.9054 70.9096H83.7119L89.8709 41.8979Z" stroke="#FFDD00" stroke-width="0.5" stroke-miterlimit="10"/>
<path d="M24.2013 34H0L7.19497 1H18.805L13.4088 25.6293H26L24.2013 34Z" fill="white"/>
<path d="M53.3465 34H28L34.9703 1H60L58.2574 9.20975H44.4752L43.5248 13.878H55.8812L54.297 20.8H41.9406L40.8317 25.7902H54.9307L53.3465 34Z" fill="white"/>
<path d="M90 34H78.3856L78.2287 28.5268H69.2825L66.9282 34H55L71.6368 1H87.0179L90 34ZM75.8744 13.7171L72.5785 21.2829H78.0717L77.9148 13.7171L78.0717 8.8878H77.9148L75.8744 13.7171Z" fill="white"/>
<path d="M93 33.8398L100.103 1H115.924C120.283 1 123.673 1.96116 125.771 3.88349C128.031 5.80582 129 8.36893 129 11.8932C129 13.335 128.839 14.9369 128.516 16.3786L127.87 19.1019C126.74 24.068 124.803 27.7524 122.058 30.3155C119.152 32.8786 114.955 34 109.466 34H93V33.8398ZM109.466 25.6699C111.242 25.6699 112.857 25.1893 113.825 24.2282C114.955 23.267 115.762 21.665 116.247 19.4223L117.215 14.9369C117.377 14.1359 117.538 13.335 117.538 12.6942C117.538 11.4126 117.215 10.4515 116.408 9.81068C115.601 9.3301 114.471 9.00971 113.018 9.00971H109.789L106.238 25.5097H109.466V25.6699Z" fill="white"/>
<path d="M154.139 34H128L135.188 1H161L159.203 9.20975H144.99L144.01 13.878H156.752L155.282 20.961H142.54L141.396 25.9512H155.936L154.139 34Z" fill="white"/>
<path d="M158 33.6812L164.968 1H181.122C185.081 1 188.091 1.63768 189.991 3.07246C191.891 4.34782 193 6.42029 193 8.81159C193 9.44927 192.842 10.2464 192.683 11.2029L192.525 11.8406C192.05 13.7536 191.258 15.5072 189.991 16.7826C188.724 18.2174 186.982 19.1739 185.081 19.6522V19.8116C186.348 20.1304 187.299 20.7681 187.932 21.7246C188.566 22.6812 188.724 23.7971 188.724 25.3913C188.724 25.8696 188.724 26.5072 188.566 27.3043L188.249 29.6957C188.091 30.4928 188.091 31.1304 188.091 31.7681C188.091 32.5652 188.091 33.2029 188.249 34H177.163C177.163 33.8406 177.163 33.3623 177.163 32.8841C177.163 31.9275 177.321 30.6522 177.48 29.058L177.638 26.9855V26.3478C177.638 25.5507 177.321 24.913 176.846 24.4348C176.371 23.9565 175.421 23.7971 174.312 23.7971H171.462L169.244 33.8406H158V33.6812ZM176.688 16.3043C177.796 16.3043 178.747 15.9855 179.538 15.5072C180.33 15.029 180.805 14.0725 181.122 12.7971L181.281 12.1594C181.281 12 181.439 11.6812 181.439 11.2029C181.439 9.76812 180.489 8.97101 178.588 8.97101H174.629L173.045 16.3043H176.688V16.3043Z" fill="white"/>
<path d="M194.36 32.2454C192.12 30.625 191 28.5185 191 25.6019C191 24.9537 191.16 24.1435 191.32 23.0093V22.6852H202.04V23.0093C201.88 23.3333 201.88 23.6574 201.88 24.1435C201.88 25.9259 203 26.8981 205.4 26.8981C206.68 26.8981 207.48 26.7361 208.28 26.25C208.92 25.7639 209.4 25.1157 209.56 24.4676L209.72 24.1435C209.72 23.9815 209.72 23.8194 209.72 23.4954C209.72 23.0093 209.56 22.6852 209.24 22.3611C208.92 22.037 208.44 21.713 207.64 21.3889C206.84 21.0648 205.72 20.7407 204.28 20.2546C200.76 19.4444 198.2 18.4722 196.6 17.1759C195.16 15.8796 194.36 14.4213 194.36 12.4769C194.36 11.6667 194.52 10.8565 194.68 10.0463L194.84 9.72222C195.48 6.80556 197.08 4.375 199.8 2.59259C202.52 0.810186 206.04 0 210.68 0C214.84 0 217.88 0.810185 219.96 2.26852C222.04 3.88889 223 5.99537 223 8.75C223 9.56018 222.84 10.3704 222.68 11.3426V11.5046H212.44V11.3426C212.44 10.8565 212.6 10.5324 212.6 10.3704C212.6 8.58796 211.48 7.77778 209.4 7.77778C207.32 7.77778 206.04 8.58796 205.72 10.0463V10.3704C205.72 10.5324 205.72 10.5324 205.72 10.8565C205.72 11.3426 206.04 11.8287 206.52 12.3148C207 12.6389 207.96 13.125 209.24 13.287C213.56 14.2593 216.6 15.3935 218.36 16.6898C220.12 18.1482 220.92 19.7685 220.92 22.037C220.92 22.8472 220.76 23.6574 220.6 24.4676L220.44 24.9537C219.8 28.1944 218.04 30.625 215.16 32.4074C212.28 34.1898 208.6 35 203.96 35C199.8 34.6759 196.6 33.8657 194.36 32.2454Z" fill="white"/>
<path d="M246.109 13.2341L248.664 1H260L252.975 34H241.639L244.353 21.4439H236.05L233.336 34H222L229.025 1H240.361L237.807 13.2341H246.109V13.2341Z" fill="white"/>
<path d="M269.73 34H258L265.27 1H277L269.73 34Z" fill="white"/>
<path d="M275 33.8398L282.032 1H298.333C301.849 1 304.726 1.80097 306.804 3.40291C308.881 5.00485 310 7.24757 310 10.1311C310 11.0922 309.84 12.0534 309.68 13.0146L309.521 13.8155C307.763 21.9854 302.648 25.9903 294.338 25.9903H288.105L286.507 34H275V33.8398ZM293.699 17.6602C294.977 17.6602 295.936 17.3398 296.575 16.699C297.374 16.0583 297.854 15.0971 298.174 13.6553L298.333 13.0146C298.493 12.534 298.493 12.2136 298.493 11.8932C298.493 10.2913 297.534 9.3301 295.457 9.3301H291.621L289.863 17.6602H293.699Z" fill="white"/>
</svg>
