<svg width="300" height="56" viewBox="0 0 300 56" fill="none" xmlns="http://www.w3.org/2000/svg">
<path d="M25.0998 38.2H10.2998L14.6998 17.7H21.7998L18.4998 33H26.1998L25.0998 38.2Z" fill="white"/>
<path d="M43.2002 38.2H27.2002L31.6002 17.7H47.4002L46.3002 22.7999H37.6002L37.0002 25.7H44.8002L43.8002 30H36.0002L35.3002 33.0999H44.2002L43.2002 38.2Z" fill="white"/>
<path d="M66.3 38.2H58.9L58.8 34.7999H53.1L51.6 38.2H44L54.6 17.7H64.4L66.3 38.2ZM57.3 25.6L55.2 30.2999H58.7L58.6 25.6L58.7 22.6H58.6L57.3 25.6Z" fill="white"/>
<path d="M68 38.2L72.4 17.7H82.2C84.9 17.7 87 18.3 88.3 19.5C89.7 20.7 90.3 22.3 90.3 24.5C90.3 25.4 90.2 26.4 90 27.2999L89.6 29C88.9 32.1 87.7 34.4 86 36C84.2 37.6 81.6 38.2999 78.2 38.2999H68V38.2ZM78.2 33.0999C79.3 33.0999 80.3 32.8 80.9 32.2C81.6 31.6 82.1 30.6 82.4 29.2L83 26.4C83.1 25.9 83.2 25.4 83.2 25C83.2 24.2 83 23.6 82.5 23.2C82 22.9 81.3 22.7 80.4 22.7H78.4L76.2 33H78.2V33.0999Z" fill="white"/>
<path d="M106 38.2H90L94.4 17.7H110.2L109.1 22.7999H100.4L99.8 25.7H107.6L106.7 30.1H98.9L98.2 33.2H107.1L106 38.2Z" fill="white"/>
<path d="M108.3 38.2L112.7 17.7H122.9C125.4 17.7 127.3 18.1 128.5 19C129.7 19.8 130.4 21.1 130.4 22.6C130.4 23 130.3 23.5 130.2 24.1L130.1 24.5C129.8 25.7 129.3 26.8 128.5 27.6C127.7 28.5 126.6 29.0999 125.4 29.4V29.5C126.2 29.7 126.8 30.1 127.2 30.7C127.6 31.3 127.7 32 127.7 33C127.7 33.3 127.7 33.7 127.6 34.2L127.4 35.7C127.3 36.2 127.3 36.6 127.3 37C127.3 37.5 127.3 37.9 127.4 38.4H120.4C120.4 38.3 120.4 38 120.4 37.7C120.4 37.1 120.5 36.2999 120.6 35.2999L120.7 34V33.5999C120.7 33.0999 120.5 32.7 120.2 32.4C119.9 32.1 119.3 32 118.6 32H116.8L115.4 38.2999H108.3V38.2ZM120.1 27.2999C120.8 27.2999 121.4 27.0999 121.9 26.7999C122.4 26.4999 122.7 25.9 122.9 25.1L123 24.7C123 24.6 123.1 24.4 123.1 24.1C123.1 23.2 122.5 22.7 121.3 22.7H118.8L117.8 27.2999H120.1Z" fill="white"/>
<path d="M131.7 37.2999C130.3 36.2999 129.6 34.9999 129.6 33.1999C129.6 32.7999 129.7 32.2999 129.8 31.5999V31.3999H136.5V31.5999C136.4 31.7999 136.4 31.9999 136.4 32.2999C136.4 33.3999 137.1 33.9999 138.6 33.9999C139.4 33.9999 139.9 33.8999 140.4 33.5999C140.8 33.2999 141.1 32.8999 141.2 32.4999L141.3 32.2999C141.3 32.1999 141.3 32.0999 141.3 31.8999C141.3 31.5999 141.2 31.3999 141 31.1999C140.8 30.9999 140.5 30.7999 140 30.5999C139.5 30.3999 138.8 30.1999 137.9 29.8999C135.7 29.3999 134.1 28.7999 133.1 27.9999C132.2 27.1999 131.7 26.2999 131.7 25.0999C131.7 24.5999 131.8 24.0999 131.9 23.5999L132 23.3999C132.4 21.5999 133.4 20.0999 135.1 18.9999C136.8 17.8999 139 17.3999 141.9 17.3999C144.5 17.3999 146.4 17.8999 147.7 18.7999C149 19.7999 149.6 21.0999 149.6 22.7999C149.6 23.2999 149.5 23.7999 149.4 24.3999V24.4999H143V24.3999C143 24.0999 143.1 23.8999 143.1 23.7999C143.1 22.6999 142.4 22.1999 141.1 22.1999C139.8 22.1999 139 22.6999 138.8 23.5999V23.7999C138.8 23.8999 138.8 23.8999 138.8 24.0999C138.8 24.3999 139 24.6999 139.3 24.9999C139.6 25.1999 140.2 25.4999 141 25.5999C143.7 26.1999 145.6 26.8999 146.7 27.6999C147.8 28.5999 148.3 29.5999 148.3 30.9999C148.3 31.4999 148.2 31.9999 148.1 32.4999L148 32.7999C147.6 34.7999 146.5 36.2999 144.7 37.3999C142.9 38.4999 140.6 38.9999 137.7 38.9999C135.1 38.7999 133.1 38.2999 131.7 37.2999Z" fill="white"/>
<path d="M164.1 25.2999L165.7 17.7H172.8L168.4 38.2H161.3L163 30.4H157.8L156.1 38.2H149L153.4 17.7H160.5L158.9 25.2999H164.1Z" fill="white"/>
<path d="M178.6 38.2H171.5L175.9 17.7H183L178.6 38.2Z" fill="white"/>
<path d="M181.7 38.2L186.1 17.7H196.3C198.5 17.7 200.3 18.2 201.6 19.2C202.9 20.2 203.6 21.6 203.6 23.4C203.6 23.9999 203.5 24.6 203.4 25.2L203.3 25.7C202.2 30.8 199 33.2999 193.8 33.2999H189.9L188.9 38.2999H181.7V38.2ZM193.4 28.1C194.2 28.1 194.8 27.9 195.2 27.5C195.7 27.1 196 26.5 196.2 25.6L196.3 25.2C196.4 24.9 196.4 24.7 196.4 24.5C196.4 23.5 195.8 22.9 194.5 22.9H192.1L191 28.1H193.4Z" fill="white"/>
<path d="M213.4 38.2H206.3L209.6 22.9H204.5L205.6 17.7H223L221.9 22.9H216.8L213.4 38.2Z" stroke="#FFDD00" stroke-width="0.5" stroke-miterlimit="10"/>
<path d="M236.399 38.2H220.399L224.799 17.7H240.599L239.499 22.7999H230.799L230.199 25.7H237.999L236.999 30H229.199L228.499 33.0999H237.399L236.399 38.2Z" stroke="#FFDD00" stroke-width="0.5" stroke-miterlimit="10"/>
<path d="M259.5 38.2H252.1L252 34.7999H246.3L244.8 38.2H237.3L247.9 17.7H257.7L259.5 38.2ZM250.5 25.6L248.4 30.2999H251.9L251.8 25.6L251.9 22.6H251.8L250.5 25.6Z" stroke="#FFDD00" stroke-width="0.5" stroke-miterlimit="10"/>
<path d="M267.6 38.2H261.1L265.5 17.7H273.9L275 28.1L275.1 29.2999H275.2L275.8 28.1L281.3 17.7H289.7L285.3 38.2H278.8L281.1 27.6L281.6 25.6H281.5L275.9 35.5999H271.5L270.4 27L270.2 25.6H270.1L269.7 27.6L267.6 38.2Z" stroke="#FFDD00" stroke-width="0.5" stroke-miterlimit="10"/>
</svg>
